<svg width="64" height="64" viewBox="0 0 64 64" fill="none" xmlns="http://www.w3.org/2000/svg">
<path d="M6.72449 24.965H10.2678V28.381H6.72449V24.965ZM12.3938 24.965H15.819V28.381H12.3938V24.965ZM6.72449 30.3835H10.1497V33.9174H6.72449V30.3835ZM12.3938 30.3835H15.9371V33.9174H12.3938V30.3835ZM6.72449 36.0377H10.1497V39.4538H6.72449V36.0377ZM12.3938 36.0377H15.9371V39.4538H12.3938V36.0377ZM6.72449 41.3385H10.1497V44.8723H6.72449V41.3385ZM12.3938 41.3385H15.9371V44.8723H12.3938V41.3385ZM6.72449 46.9927H10.1497V50.4087H6.72449V46.9927ZM12.3938 46.9927H15.9371V50.4087H12.3938V46.9927Z" fill="#C82BD6"/>
<path d="M62 19.5464H45.5827V6H18.4173V19.5464H2V57.2409H62V19.5464ZM18.4173 55.1206H4.00787V21.6668H18.4173V55.1206H18.4173ZM36.252 55.2384H27.748V42.8699H36.252V55.2384ZM25.7402 40.7496V55.2383H20.5433V8.00251H43.4567L43.3386 55.2384H38.378V40.7496H25.7402V40.7496ZM59.874 55.1206H45.5827V21.6668H59.874V55.1206Z" fill="#C82BD6"/>
<path d="M48.1812 24.965H51.6064V28.3811H48.1812V24.965ZM53.7324 24.965H57.2757V28.3811H53.7324V24.965ZM48.0631 30.3836H51.6064V33.9175H48.0631V30.3836ZM53.8505 30.3836H57.2757V33.9175H53.8505V30.3836ZM48.0631 36.0378H51.6064V39.4538H48.0631V36.0378ZM53.8505 36.0378H57.2757V39.4538H53.8505V36.0378ZM48.0631 41.3385H51.6064V44.8724H48.0631V41.3385ZM53.8505 41.3385H57.2757V44.8724H53.8505V41.3385ZM48.0631 46.9927H51.6064V50.4088H48.0631V46.9927ZM53.8505 46.9927H57.2757V50.4088H53.8505V46.9927ZM23.2599 22.6091H26.8032V26.0252H23.2599V22.6091ZM36.9607 22.6091H40.504V26.0252H36.9607V22.6091ZM23.2599 28.0277H26.8032V31.5616H23.2599V28.0277ZM37.0788 28.0277H40.504V31.5616H37.0788V28.0277ZM23.2599 33.6819H26.8032V37.0979H23.2599V33.6819ZM37.0788 33.6819H40.504V37.0979H37.0788V33.6819ZM30.1103 22.4913H33.6536V26.0252H30.1103V22.4913ZM23.2599 17.0727H26.8032V20.4888H23.2599V17.0727ZM36.9607 17.0727H40.504V20.4888H36.9607V17.0727ZM30.1103 17.0727H33.6536V20.4888H30.1103V17.0727ZM23.2599 11.5364H26.8032V14.9524H23.2599V11.5364ZM36.9607 11.5364H40.504V14.9524H36.9607V11.5364ZM30.1103 11.5364H33.6536V14.9524H30.1103V11.5364ZM30.1103 28.0277H33.6536V31.4438H30.1103V28.0277ZM30.1103 33.5641H33.6536V37.0979H30.1103V33.5641Z" fill="#C82BD6"/>
</svg>
