<svg width="28" height="28" viewBox="0 0 28 28" fill="none" xmlns="http://www.w3.org/2000/svg">
<g clip-path="url(#clip0_101_1298)">
<path d="M17.7188 17.7188C19.7726 17.7188 21.4375 16.0538 21.4375 14C21.4375 11.9462 19.7726 10.2812 17.7188 10.2812C15.6649 10.2812 14 11.9462 14 14C14 16.0538 15.6649 17.7188 17.7188 17.7188Z" stroke="#02FFDD" stroke-width="2" stroke-linecap="round" stroke-linejoin="round"/>
<path d="M14 10.2813V2.84387H10.2812C9.29498 2.84387 8.3491 3.23567 7.6517 3.93307C6.9543 4.63047 6.5625 5.57635 6.5625 6.56262C6.5625 7.5489 6.9543 8.49477 7.6517 9.19217C8.3491 9.88958 9.29498 10.2814 10.2812 10.2814L14 10.2813Z" stroke="#02FFDD" stroke-width="2" stroke-linecap="round" stroke-linejoin="round"/>
<path d="M14 17.7187V10.2813H10.2812C9.29498 10.2813 8.3491 10.6731 7.6517 11.3705C6.9543 12.0679 6.5625 13.0138 6.5625 14C6.5625 14.9863 6.9543 15.9322 7.6517 16.6296C8.3491 17.327 9.29498 17.7188 10.2812 17.7188L14 17.7187ZM14 10.2813V2.84387H17.7188C18.705 2.84387 19.6509 3.23567 20.3483 3.93307C21.0457 4.63047 21.4375 5.57635 21.4375 6.56262C21.4375 7.5489 21.0457 8.49477 20.3483 9.19217C19.6509 9.88958 18.705 10.2814 17.7188 10.2814L14 10.2813Z" stroke="#02FFDD" stroke-width="2" stroke-linecap="round" stroke-linejoin="round"/>
<path d="M14 17.7186V21.4374C14 22.1729 13.7819 22.8919 13.3733 23.5035C12.9647 24.115 12.3839 24.5917 11.7044 24.8731C11.0249 25.1546 10.2772 25.2283 9.55579 25.0848C8.83442 24.9413 8.1718 24.5871 7.65172 24.067C7.13163 23.547 6.77745 22.8844 6.63396 22.163C6.49047 21.4416 6.56411 20.6939 6.84557 20.0144C7.12703 19.3349 7.60367 18.7541 8.21522 18.3455C8.82677 17.9368 9.54575 17.7187 10.2813 17.7187L14 17.7186Z" stroke="#02FFDD" stroke-width="2" stroke-linecap="round" stroke-linejoin="round"/>
</g>
<defs>
<clipPath id="clip0_101_1298">
<rect width="28" height="28" fill="white"/>
</clipPath>
</defs>
</svg>
