<svg width="28" height="28" viewBox="0 0 28 28" fill="none" xmlns="http://www.w3.org/2000/svg">
<path d="M24.7917 27.9999H16.8105C16.5772 27.9999 16.3532 27.9066 16.1887 27.7398L9.18517 20.6628C8.84684 20.3221 8.848 19.7726 9.18517 19.4308L16.1898 12.3678C16.3543 12.2021 16.5783 12.1076 16.8128 12.1076H24.7917C25.1452 12.1076 25.4637 12.32 25.599 12.6455C25.7343 12.971 25.662 13.3478 25.4135 13.5975L19.0295 20.0491L25.4135 26.5078C25.662 26.7586 25.7343 27.1343 25.599 27.4598C25.4637 27.7876 25.1452 27.9999 24.7917 27.9999ZM17.1757 26.2499H22.6963L17.1768 20.6651C16.8397 20.3244 16.8397 19.775 17.1768 19.4343L22.694 13.8588H17.1768L11.0378 20.0479L17.1757 26.2499ZM7.79684 18.9221C7.5635 18.9221 7.3395 18.8288 7.175 18.662L3.16984 14.6148C2.83267 14.2741 2.83267 13.7246 3.16984 13.384L16.1747 0.258951C16.3847 0.0477839 16.6763 -0.0327161 16.9482 0.0127839H24.7742C25.1277 0.0127839 25.4462 0.225117 25.5815 0.550617C25.7168 0.876117 25.6445 1.25295 25.396 1.50262L8.41867 18.6631C8.25417 18.8288 8.03017 18.9221 7.79684 18.9221ZM5.02367 14.0011L7.79684 16.8034L22.6777 1.76278H17.1477L5.02367 14.0011Z" fill="#02FFDD"/>
</svg>
