<svg width="50" height="50" viewBox="0 0 50 50" fill="none" xmlns="http://www.w3.org/2000/svg">
<path d="M42.6063 25.5668C42.6063 26.7994 39.0081 27.7508 34.5675 27.7508H23.8482C19.4076 27.7508 15.8094 26.7994 15.8094 25.5668C15.8094 24.3342 19.4076 23.3828 23.8482 23.3828H34.5675C39.0081 23.3828 42.6063 24.3342 42.6063 25.5668Z" fill="#387791"/>
<path d="M14.3208 25.5668C14.3208 26.7994 13.3213 27.7508 12.0879 27.7508H9.11056C7.87691 27.7508 6.87747 26.7994 6.87747 25.5668C6.87747 24.3342 7.87691 23.3828 9.11056 23.3828H12.0879C13.3213 23.3828 14.3208 24.3342 14.3208 25.5668Z" fill="#387791"/>
<path d="M45.5838 29.311C45.5838 30.1336 44.9319 30.871 44.1278 30.871H6.27177C5.46764 30.871 4.81577 30.1336 4.81577 29.311C4.81577 28.4883 5.46764 27.751 6.27177 27.751H44.1278C44.9319 27.751 45.5838 28.4883 45.5838 29.311Z" fill="#B5E2F5"/>
<path d="M44.04 18.9548C43.218 18.9548 42.48 19.6206 42.48 20.4437V23.4208V36.6947H45.6V23.4208V20.4437C45.6 19.6206 44.8622 18.9548 44.04 18.9548Z" fill="#387791"/>
<path d="M5.456 13C4.63398 13 4 13.6658 4 14.4884V17.466V36.6947H6.912V17.466V14.4884C6.912 13.6658 6.27822 13 5.456 13Z" fill="#387791"/>
</svg>
