<svg width="50" height="50" viewBox="0 0 50 50" fill="none" xmlns="http://www.w3.org/2000/svg">
<path d="M39.1274 33.2588H16.67V37.656H39.1274V33.2588Z" fill="#085C7E"/>
<path d="M13.3723 20.8523H12.1159V32.0025H13.3723V20.8523Z" fill="#B5E2F5"/>
<path d="M15.4139 20.8523H13.3723V21.7946H15.4139V20.8523Z" fill="#B5E2F5"/>
<path d="M11.0165 16.2979H9.91721V32.0023H11.0165V16.2979Z" fill="#B5E2F5"/>
<path d="M15.4138 16.2979H9.91721V17.3972H15.4138V16.2979Z" fill="#B5E2F5"/>
<path d="M17.7696 21.9274C17.7696 22.5486 17.2916 23.2079 16.6703 23.2079H15.5462C14.9251 23.2079 14.4717 22.5486 14.4717 21.9274V20.8034C14.4717 20.1826 14.9251 19.7529 15.5462 19.7529H16.6703C17.2916 19.7529 17.7696 20.1826 17.7696 20.8034V21.9274Z" fill="#B5E2F5"/>
<path d="M17.7696 17.4312C17.7696 18.052 17.2916 18.4965 16.6703 18.4965H15.5462C14.9251 18.4965 14.4717 18.0519 14.4717 17.4312V16.3073C14.4717 15.6865 14.9251 15.0415 15.5462 15.0415H16.6703C17.2916 15.0415 17.7696 15.6865 17.7696 16.3073V17.4312Z" fill="#B5E2F5"/>
<path d="M40.2266 32.2158C40.2266 32.7418 39.8483 33.2588 39.3236 33.2588H16.4966C15.9719 33.2588 15.4136 32.7418 15.4136 32.2158V13.887C15.4136 13.3612 15.9719 13 16.4966 13H39.3236C39.8483 13 40.2266 13.361 40.2266 13.887V32.2158Z" fill="#085C7E"/>
<path d="M38.0281 15.0415H17.7693V30.903H38.0281V15.0415Z" fill="#B5E2F5"/>
<path d="M26.8217 28.0213L24.5518 21.337L23.4762 25.8776H17.7693V25.7206H23.352L24.5248 20.7694L26.7504 27.3232L27.8695 18.3433L30.1434 23.9606L31.2877 19.7227L32.4684 24.7783H38.0281V24.9354H32.3439L31.2768 20.366L30.1731 24.4528L27.9505 18.9623L26.8217 28.0213Z" fill="#29ABE2"/>
<path d="M23.5801 33.2588H18.8687V35.3004H23.5801V33.2588Z" fill="black"/>
<path d="M38.0283 33.2588H33.474V35.3004H38.0283V33.2588Z" fill="black"/>
</svg>
