<svg width="50" height="50" viewBox="0 0 50 50" fill="none" xmlns="http://www.w3.org/2000/svg">
<path d="M26.5906 27.1221C24.8382 27.1221 23.5154 24.7424 23.5154 21.5872C23.5154 21.2472 23.7906 20.9719 24.1307 20.9719C24.4706 20.9719 24.7456 21.2474 24.7456 21.5872C24.7456 24.0507 25.7197 25.8923 26.5904 25.8923C26.9305 25.8923 27.2055 26.1675 27.2055 26.5072C27.2055 26.847 26.9307 27.1221 26.5906 27.1221Z" fill="#29ABE2"/>
<path d="M30.4718 21.1122C30.4718 21.7916 29.921 22.3424 29.2417 22.3424H20.5313C19.852 22.3424 19.3012 21.7916 19.3012 21.1122V13.6049C19.3012 12.9255 19.852 12.3748 20.5313 12.3748H29.2417C29.921 12.3748 30.4718 12.9255 30.4718 13.6049V21.1122Z" fill="#387791"/>
<path d="M19.3012 14.7808V31.427V37.577C19.3012 38.2535 19.7642 39.5279 20.4404 39.5279H22.9004C23.5768 39.5279 24.1132 38.2535 24.1132 37.577V31.427V14.7808H19.3012Z" fill="#387791"/>
<path d="M31.6747 21.9718C31.6747 22.6511 31.1241 23.2017 30.4448 23.2017H29.1239C28.4445 23.2017 27.8939 22.6511 27.8939 21.9718V12.23C27.8939 11.5506 28.4445 11 29.1239 11H30.4448C31.1241 11 31.6747 11.5506 31.6747 12.23V21.9718Z" fill="#29ABE2"/>
<path d="M21.5353 12.3747V17.8968C21.5353 18.5732 21.1167 19.7645 20.4404 19.7645H19.3012V12.9768C19.3012 12.3003 19.7642 12.3747 20.4404 12.3747H21.5353Z" fill="#B5E2F5"/>
</svg>
