<svg width="50" height="50" viewBox="0 0 50 50" fill="none" xmlns="http://www.w3.org/2000/svg">
<path d="M40.678 33.8469C40.678 34.469 40.1688 34.978 39.5469 34.978C38.925 34.978 38.4158 34.4688 38.4158 33.8469C38.4158 33.225 38.925 32.7158 39.5469 32.7158C40.1688 32.7158 40.678 33.225 40.678 33.8469Z" fill="#176080"/>
<path d="M40.6781 33.7334C40.6781 34.3554 40.1689 34.9187 39.547 34.9187H32.7034V32.5481H39.547C40.1689 32.5481 40.6781 33.1115 40.6781 33.7334Z" fill="#176080"/>
<path d="M16.8995 19.1419C16.2742 19.1419 15.7932 18.6356 15.7932 18.0108V11.2126H13.5309C12.9059 11.2126 12.4 10.7309 12.4 10.1063C12.4 9.48155 12.9059 9 13.5309 9H18.0058V18.0108C18.0058 18.6356 17.5246 19.1419 16.8995 19.1419Z" fill="#176080"/>
<path d="M32.7033 33.5856C32.7033 34.3545 32.1811 34.9187 31.4664 34.9187H15.9554C15.2406 34.9187 14.5287 34.3545 14.5287 33.5856V18.2722C14.5287 17.5033 15.2406 16.9021 15.9554 16.9021H31.4664C32.1811 16.9021 32.7033 17.5033 32.7033 18.2722V33.5856Z" fill="#176080"/>
<path d="M17.4896 40.6337C22.175 40.6337 25.9733 36.8355 25.9733 32.1501C25.9733 27.4647 22.175 23.6665 17.4896 23.6665C12.8043 23.6665 9.00604 27.4647 9.00604 32.1501C9.00604 36.8355 12.8043 40.6337 17.4896 40.6337Z" fill="#59BEE8"/>
<path d="M17.4896 39.4219C13.48 39.4219 10.2177 36.16 10.2177 32.1502C10.2177 28.1404 13.48 24.8784 17.4896 24.8784C21.4996 24.8784 24.7614 28.1404 24.7614 32.1502C24.7614 36.16 21.4996 39.4219 17.4896 39.4219Z" fill="#176080"/>
<path d="M35.4001 36.4859C35.4001 38.777 33.5431 40.6339 31.2523 40.6339C28.9612 40.6339 27.1042 38.7769 27.1042 36.4859C27.1042 34.1956 28.9612 32.3386 31.2523 32.3386C33.5431 32.3386 35.4001 34.1954 35.4001 36.4859Z" fill="#59BEE8"/>
<path d="M31.2526 38.9746C29.8795 38.9746 28.7636 37.8583 28.7636 36.4858C28.7636 35.1138 29.8795 33.9976 31.2526 33.9976C32.6245 33.9976 33.7409 35.1138 33.7409 36.4858C33.7409 37.8583 32.6245 38.9746 31.2526 38.9746Z" fill="#176080"/>
</svg>
