<svg width="40" height="50" viewBox="0 0 40 50" fill="none" xmlns="http://www.w3.org/2000/svg">
<path d="M7.23807 38.044H8.43887L9.39097 40.5518L10.3989 38.044H11.6124L12.3218 42.7358H11.1022L10.7598 40.0352H10.7474L9.62127 42.7358H9.13596L8.05954 40.0352H8.04691L7.6548 42.7358H6.44162L7.23807 38.044Z" fill="#231F20"/>
<path d="M15.3213 39.4941H15.3089L14.8048 40.9872H15.8193L15.3213 39.4941ZM14.469 41.9208L14.1454 42.7358H12.851L14.6557 38.044H15.9871L17.7541 42.7358H16.454L16.1489 41.9208H14.469Z" fill="#231F20"/>
<path d="M19.5403 41.7029H21.0024V42.7358H18.3206V38.044H19.5403V41.7029Z" fill="#231F20"/>
<path d="M22.6022 38.044H23.803L24.7552 40.5518L25.763 38.044H26.9766L27.686 42.7358H26.4663L26.1239 40.0352H26.1116L24.9855 42.7358H24.5001L23.4236 40.0352H23.411L23.0189 42.7358H21.8057L22.6022 38.044Z" fill="#231F20"/>
<path d="M32.0355 37.0545C32.0355 37.3969 31.7617 37.6644 31.4256 37.6644C31.0835 37.6644 30.8097 37.3969 30.8097 37.0545C30.8097 36.7186 31.0835 36.4449 31.4256 36.4449C31.7617 36.4449 32.0355 36.7186 32.0355 37.0545ZM29.2975 40.3089C29.2975 41.1177 29.8949 41.7089 30.6229 41.7089C31.3508 41.7089 31.9484 41.1177 31.9484 40.3089C31.9484 39.6617 31.3508 39.0706 30.6229 39.0706C29.8949 39.0706 29.2975 39.6617 29.2975 40.3089ZM30.4426 37.0545C30.4426 37.3969 30.1688 37.6644 29.8326 37.6644C29.4904 37.6644 29.2168 37.3969 29.2168 37.0545C29.2168 36.7186 29.4904 36.4449 29.8326 36.4449C30.1688 36.4449 30.4426 36.7186 30.4426 37.0545ZM33.2175 40.3027C33.2175 41.8208 32.1287 42.8911 30.6229 42.8911C29.117 42.8911 28.0282 41.8208 28.0282 40.3027C28.0282 38.8838 29.2726 37.8883 30.6229 37.8883C31.9732 37.8883 33.2175 38.8838 33.2175 40.3027Z" fill="#231F20"/>
<path d="M30.8394 49.2314H29.6197V44.5396H30.8394V49.2314Z" fill="#231F20"/>
<path d="M33.7354 49.2314H32.5158V45.5725H31.5078V44.5396H34.7434V45.5725H33.7354V49.2314Z" fill="#231F20"/>
<path d="M34.98 44.5396H36.4423L37.3197 45.8153L38.197 44.5396H39.6593L37.9295 46.9788V49.2314H36.7098V46.9788L34.98 44.5396Z" fill="#231F20"/>
<path d="M4.09429 44.5398V47.1779C4.09429 47.7818 4.0697 48.3792 3.60286 48.8332C3.21084 49.2192 2.59503 49.356 2.04735 49.356C1.4997 49.356 0.883825 49.2192 0.491719 48.8332C0.0249538 48.3792 0 47.7818 0 47.1779V44.5398H1.21967V47.0101C1.21967 47.6201 1.26316 48.2856 2.04735 48.2856C2.83113 48.2856 2.87493 47.6201 2.87493 47.0101V44.5398H4.09429Z" fill="#231F20"/>
<path d="M4.92822 44.5398H6.14789L8.38174 47.4083H8.39412V44.5398H9.6138V49.2314H8.39412L6.16033 46.3568H6.14789V49.2314H4.92822V44.5398Z" fill="#231F20"/>
<path d="M11.6677 49.2314H10.448V44.5398H11.6677V49.2314Z" fill="#231F20"/>
<path d="M14.617 47.3897L15.7558 44.5398H17.081L15.0775 49.2314H14.1317L12.1594 44.5398H13.4846L14.617 47.3897Z" fill="#231F20"/>
<path d="M18.7928 45.5727V46.3568H20.1678V47.3897H18.7928V48.1985H20.2426V49.2314H17.5731V44.5398H20.2426V45.5727H18.7928Z" fill="#231F20"/>
<path d="M22.4022 46.643H22.5204C22.9186 46.643 23.3666 46.5683 23.3666 46.058C23.3666 45.5479 22.9186 45.4733 22.5204 45.4733H22.4022V46.643ZM25.0839 49.2314H23.5656L22.4145 47.4271H22.4022V49.2314H21.1824V44.5398H23.0057C23.9326 44.5398 24.6359 44.9815 24.6359 45.9833C24.6359 46.6306 24.2751 47.1906 23.6091 47.3088L25.0839 49.2314Z" fill="#231F20"/>
<path d="M28.1758 45.7469C27.9518 45.5603 27.6655 45.436 27.3668 45.436C27.143 45.436 26.8441 45.5666 26.8441 45.8281C26.8441 46.1016 27.174 46.2074 27.3856 46.2761L27.6968 46.3691C28.3499 46.5622 28.854 46.8918 28.854 47.651C28.854 48.1177 28.742 48.5968 28.3688 48.9142C28.0015 49.2253 27.51 49.356 27.037 49.356C26.4458 49.356 25.8673 49.1568 25.3883 48.821L25.9108 47.8377C26.2155 48.1054 26.5767 48.323 26.9935 48.323C27.2797 48.323 27.5846 48.1801 27.5846 47.8502C27.5846 47.508 27.1056 47.3897 26.8441 47.315C26.0788 47.0971 25.5747 46.898 25.5747 45.9898C25.5747 45.0377 26.2529 44.4154 27.1927 44.4154C27.6655 44.4154 28.2441 44.5647 28.6611 44.8013L28.1758 45.7469Z" fill="#231F20"/>
<path d="M6.41647 30.0394V7.26374L28.7714 0.000137329L33.2424 3.4933L10.8875 10.7567V33.5325L6.41647 30.0394Z" fill="#ED1639"/>
<path d="M19.8296 12.7971V30.6269L15.3586 27.1337V14.2497L19.8296 12.7971Z" fill="#ED1639"/>
<path d="M24.3007 11.3443L28.7716 9.89183V27.7215L24.3007 24.2283V11.3443Z" fill="#ED1639"/>
</svg>
