<svg width="317" height="206" viewBox="0 0 317 206" fill="none" xmlns="http://www.w3.org/2000/svg">
<path d="M179.72 178.305C179.72 178.305 216.064 81.754 240.042 93.3501C264.019 104.946 202.366 152.241 192.613 180.709L179.72 178.305Z" fill="#3155E4"/>
<path d="M191.971 165.255C191.971 165.255 255.743 74.3849 282.891 94.9116C310.04 115.438 224.948 145.078 207.328 172.197L191.971 165.255Z" fill="#C23CC5"/>
<path d="M200.53 169.219C212.382 150.253 231.219 134.19 244.935 124.055C259.804 113.067 272.017 106.491 272.139 106.425L271.761 105.608C271.639 105.673 259.372 112.279 244.454 123.302C230.678 133.482 211.752 149.623 199.826 168.71L200.53 169.219Z" fill="white"/>
<path d="M298.115 154.154C286.537 158.277 290.424 177.356 276.562 175.327C264.838 173.605 263.764 172.582 260.161 176.578C258.926 177.948 257.9 179.516 257.07 181.202C256.074 183.223 254.066 186.263 250.662 187.317C229.866 193.756 197.537 163.362 217.802 142.233C219.266 140.708 221.539 139.924 224.069 139.194C237.794 135.245 242.828 141.639 252.065 122.675C261.306 103.706 278.752 127.372 288.024 125.402C297.295 123.433 305.245 119.463 313.598 129.298C321.954 139.14 309.695 150.04 298.115 154.154Z" fill="#3155E4"/>
<g opacity="0.5">
<path d="M226.992 165.994L226.476 165.333C226.747 165.088 254.268 140.744 315.579 132.135L315.683 132.991C254.602 141.568 227.261 165.751 226.992 165.994Z" fill="white"/>
<path d="M262.699 136.059C253.813 129.14 251.768 123.071 251.685 122.816L252.442 122.531C252.462 122.591 254.511 128.617 263.17 135.36L262.699 136.059Z" fill="#68A1BF"/>
<path d="M265.023 145.157C262.316 141.099 261.914 134.85 263.86 127.084C265.316 121.269 267.599 116.577 267.621 116.531L268.331 116.933C268.241 117.116 259.452 135.323 265.675 144.654L265.023 145.157Z" fill="#68A1BF"/>
</g>
<path d="M251.749 87.5226C253.114 85.3956 254.342 85.3738 255.356 86.1275C256.37 86.8812 256.786 88.1248 255.421 90.2517C252.934 94.1262 249.895 94.6342 249.895 94.6342C249.895 94.6342 249.225 91.4535 251.749 87.5226Z" fill="#EAEAEA"/>
<path d="M116.01 131.061C116.01 131.061 117.181 85.9431 105.792 86.061C94.4023 86.1789 111.232 116.481 110.504 129.603L116.01 131.061Z" fill="#D5D6DA"/>
<path d="M115.847 134.622C115.847 134.622 101.371 73.8383 83.514 78.0665C65.657 82.2945 103.066 116.823 106.668 134.64L115.847 134.622Z" fill="#EAEAEA"/>
<path d="M110.713 134.681C108.433 122.327 102.028 109.853 97.0563 101.564C91.6663 92.5769 86.756 86.4404 86.7069 86.3794L87.0607 86.0503C87.1097 86.1115 92.0417 92.2747 97.4492 101.291C102.443 109.617 108.877 122.151 111.171 134.583L110.713 134.681Z" fill="white"/>
<path d="M83.835 146.407C76.7327 145.619 82.2383 147.853 73.7081 147.334C71.8992 151.033 61.8211 147.131 58.6728 141.598C54.6611 134.547 54.6628 136.167 42.5041 137.375C33.7826 138.237 33.4096 130.002 30.2212 123.777C30.1641 123.663 30.1043 123.55 30.0448 123.437C28.8074 121.128 27.1431 119.13 24.4621 118.033C21.618 116.872 18.7467 115.227 16.2728 113.274C16.0672 113.113 15.8642 112.949 15.664 112.781C10.7751 108.715 7.67698 103.447 9.95391 98.4913C10.0072 98.3739 10.0638 98.2566 10.1239 98.141C10.5425 97.3251 11.1099 96.5176 11.842 95.7275C19.4734 87.4958 26.2633 91.2815 34.2775 93.3789C38.7086 94.5377 45.5932 88.9683 52.1135 86.6137C52.2066 86.5797 52.3008 86.5469 52.3937 86.5142C57.5643 84.7192 62.4793 85.0432 65.7234 92.4713C65.7234 92.4726 65.7245 92.4726 65.7243 92.4739C65.7902 92.6245 65.8564 92.7741 65.9215 92.9211C73.1897 109.291 77.8271 104.053 89.5487 108.022C91.7287 108.761 93.6829 109.538 94.9049 110.929C106.3 123.892 96.7525 139.542 83.835 146.407Z" fill="#C23CC5"/>
<path d="M86.0522 131.268L86.5252 130.713C86.298 130.488 63.1641 108.137 10.0139 98.1201L9.8931 98.8623C62.8437 108.841 85.8259 131.044 86.0522 131.268Z" fill="white"/>
<path d="M55.9791 103.707C63.9715 98.0377 65.9694 92.8305 66.0504 92.6118L65.4003 92.3323C65.381 92.3838 63.3818 97.5539 55.5933 103.078L55.9791 103.707Z" fill="white"/>
<path d="M53.632 111.544C56.1348 108.117 56.7065 102.684 55.2852 95.8345C54.221 90.7047 52.3969 86.521 52.3785 86.4795L51.7458 86.8011C51.8173 86.9642 58.8363 103.198 53.081 111.079L53.632 111.544Z" fill="white"/>
<path d="M54.7064 69.5546C53.223 67.1366 53.4958 65.9101 54.3765 65.2844C55.2573 64.6587 56.4125 64.8707 57.8959 67.2887C60.5983 71.6935 60.3097 74.9553 60.3097 74.9553C60.3097 74.9553 57.4482 74.0235 54.7064 69.5546Z" fill="#D5D6DA"/>
<path d="M51.9514 78.2028C49.3104 77.6372 48.6921 76.5659 48.898 75.4522C49.104 74.3384 50.0566 73.6037 52.6976 74.1695C57.5084 75.2 59.4603 77.7147 59.4603 77.7147C59.4603 77.7147 56.8322 79.2484 51.9514 78.2028Z" fill="#D5D6DA"/>
<path d="M155.655 205.286C241.621 205.286 311.31 196.256 311.31 185.118C311.31 173.979 241.621 164.95 155.655 164.95C69.6892 164.95 0 173.979 0 185.118C0 196.256 69.6892 205.286 155.655 205.286Z" fill="#0B0F0D"/>
<path d="M83.7669 31.7798C83.7669 31.7798 187.973 71.863 220.283 98.9454C259.113 131.493 154.757 128.744 152.974 139.359C151.192 149.974 259.987 169.366 259.987 169.366C254.965 185.118 181.593 192.671 125.966 181.347C104.513 176.98 76.0636 163.844 78.1097 140.438C81.4519 102.202 151.95 114.22 149.722 100.458C147.493 86.6956 78.427 40.3663 78.427 40.3663L83.7669 31.7798Z" fill="#02FFDD"/>
<path d="M95.5344 27.066C87.4574 21.2281 57.8122 14.8392 57.366 18.3229C56.92 21.8066 72.2163 54.5892 76.2454 53.5729C80.2742 52.5566 82.5961 36.7656 82.5961 36.7656C82.5961 36.7656 99.8977 30.2198 95.5344 27.066Z" fill="#02FFDD"/>
<path d="M248.328 144.518C248.812 145.11 249.527 146.511 250.001 147.112C250.206 147.373 250.842 148.302 250.632 148.559C250.45 148.782 249.625 148.306 249.257 148.027C249.471 150.282 248.859 153.675 248.095 148.984C248.093 148.985 248.091 148.985 248.088 148.986C248.125 149.468 248.332 152.15 247.723 151.95C247.186 151.773 246.965 149.86 246.897 149.067C246.89 149.067 246.883 149.067 246.876 149.067C246.882 149.879 246.85 151.839 246.389 151.491C245.81 151.054 245.523 148.963 245.523 148.963C245.523 148.963 245.836 151.643 245.112 151.229C244.704 150.995 244.671 149.44 244.664 148.472C244.664 148.472 244.664 148.472 244.664 148.471C244.662 148.268 244.662 148.091 244.659 147.957C244.657 147.846 244.667 147.747 244.684 147.658C244.766 146.038 245.067 145.011 245.067 145.011C245.067 145.011 245.223 143.739 246.518 143.619C247.344 143.542 248.118 144.262 248.328 144.518Z" fill="#FF7955"/>
<path d="M250.062 145.101C254.618 141.88 250.218 130.801 252.111 123.919C252.55 122.324 252.739 121.722 253.118 120.835C253.423 120.121 252.601 118.73 251.471 118.155C250.411 117.616 247.868 117.971 247.666 118.332C244.599 123.841 243.127 132.815 244.656 144.358C244.656 144.358 248.106 146.484 250.062 145.101Z" fill="#657285"/>
<path d="M257.325 185.764C257.325 185.764 257.286 187.425 256.242 187.894C255.197 188.362 252.17 188.785 253.301 189.853C253.95 190.466 257.009 190.07 257.872 190.07C258.736 190.07 259.546 190.475 260.188 189.853C260.894 189.169 260.188 185.764 260.188 185.764C260.188 185.764 259.443 186.182 258.773 186.163C257.807 186.136 257.325 185.764 257.325 185.764Z" fill="#131F2D"/>
<path d="M248.313 135.632C248.313 135.632 248.104 143.129 250.328 157.51C251.933 167.893 253.828 178.355 254.757 183.37C255.09 185.164 256.492 186.476 258.154 186.548L259.047 186.587C260.844 186.664 262.303 185.003 262.171 183.029L259.916 149.095L259.36 137.927L248.313 135.632Z" fill="#364154"/>
<path d="M270.358 185.525C270.358 185.525 270.959 187.056 270.186 187.946C269.413 188.836 266.816 190.562 268.256 191.034C269.082 191.305 271.718 189.589 272.505 189.207C273.291 188.824 274.185 188.834 274.532 187.983C274.914 187.047 272.967 184.256 272.967 184.256C272.967 184.256 272.448 184.967 271.83 185.247C270.94 185.65 270.358 185.525 270.358 185.525Z" fill="#131F2D"/>
<path d="M257.545 136.329C257.545 136.329 257.909 143.819 261.219 157.956C263.61 168.162 266.295 178.422 267.603 183.339C268.071 185.097 269.569 186.281 271.231 186.206L272.124 186.166C273.921 186.085 275.248 184.301 274.967 182.344L270.135 148.724L268.731 137.642L257.545 136.329Z" fill="#364154"/>
<path d="M270.346 143.848C270.325 144.753 265.242 145.112 258.955 144.901C252.669 144.69 247.645 143.754 247.667 142.85C247.688 141.945 252.747 141.414 259.033 141.625C265.32 141.836 270.368 142.943 270.346 143.848Z" fill="#131F2D"/>
<path d="M268.807 118.241C268.807 118.241 267.696 113.5 259.494 113.452C247.666 113.383 248.761 125.077 247.666 142.85C247.666 142.85 259.311 141.299 270.346 143.848C270.346 143.848 271.376 125.485 268.807 118.241Z" fill="#657285"/>
<path d="M271.835 117.561L266.478 120.75C266.478 120.75 254.748 121.897 251.635 121.345C248.521 120.793 247.667 118.332 247.667 118.332C247.667 118.332 250.983 114.64 256.62 113.654C257.15 113.561 257.699 113.492 258.268 113.452C259.225 113.386 260.182 113.4 261.118 113.513C268.262 114.38 271.835 117.561 271.835 117.561Z" fill="#657285"/>
<path d="M248.657 143.581C248.657 143.581 255.468 141.425 269.575 144.385L269.684 146.569L249.004 147.355L248.657 143.581Z" fill="#364154"/>
<path d="M272.372 143.922C271.879 138.08 268.354 122.491 267.886 121.655C267.509 120.981 268.183 119.501 269.247 118.795C270.245 118.133 271.536 117.29 271.835 117.561C276.052 121.386 279.222 135.855 278.078 143.6L272.372 143.922Z" fill="#657285"/>
<path d="M258.168 103.478C258.168 103.478 257.604 104.17 257.332 105.273C257.06 106.376 259.147 104.43 259.147 104.43L258.168 103.478Z" fill="#5C305D"/>
<path d="M262.157 113.659C261.308 114.784 259.784 114.626 258.592 114.059C257.633 113.603 257.77 113.612 257.902 113.446C258.227 113.036 258.495 112.937 258.513 112.465L258.537 111.846L258.539 111.769L258.57 110.963L258.623 109.572L258.762 105.911L259.823 109.591L260.003 110.217L260.622 112.367C260.821 113.061 262.15 113.658 262.157 113.659Z" fill="#FF7955"/>
<path d="M260.168 110.794C260.168 110.794 259.62 111.676 258.537 111.846L258.54 111.769L258.57 110.963C259.156 110.902 260.168 110.794 260.168 110.794Z" fill="#131F2D"/>
<path d="M262.416 108.646C263.325 106.708 262.807 104.55 261.26 103.825C259.713 103.1 257.722 104.082 256.813 106.02C255.904 107.957 256.421 110.115 257.968 110.841C259.515 111.566 261.507 110.583 262.416 108.646Z" fill="#FF7955"/>
<path d="M259.019 106.865C259.005 106.852 258.997 106.832 258.998 106.81C259.001 106.774 259.03 106.746 259.064 106.749C259.084 106.75 259.55 106.738 259.704 107.295C259.714 107.33 259.696 107.368 259.664 107.379C259.632 107.39 259.604 107.367 259.586 107.336C259.415 107.019 259.071 106.883 259.055 106.881C259.041 106.88 259.029 106.874 259.019 106.865Z" fill="#080435"/>
<path d="M257.532 106.061C257.519 106.053 257.511 106.038 257.51 106.018C257.509 105.984 257.531 105.95 257.559 105.941C257.576 105.936 257.96 105.775 258.132 106.23C258.143 106.258 258.131 106.298 258.106 106.318C258.08 106.339 258.055 106.327 258.038 106.304C257.871 106.073 257.577 106.06 257.563 106.064C257.551 106.067 257.541 106.066 257.532 106.061Z" fill="#080435"/>
<path d="M259.474 114.24C259.474 114.24 258.033 113.76 257.65 114.132C257.267 114.505 257.549 116.208 258.213 116.359C258.876 116.51 260.13 114.65 259.474 114.24Z" fill="#00A3FE"/>
<path d="M258.628 113.838C258.628 113.838 260.509 113.123 260.875 112.407C261.242 111.692 263.19 113.344 263.156 113.838C263.122 114.331 259.614 117.069 259.385 116.724C259.156 116.379 258.168 114.307 258.628 113.838Z" fill="#364154"/>
<path d="M258.628 113.838C258.628 113.838 258.347 113.087 258.482 112.679C258.482 112.679 258.572 112.321 258.285 112.346C257.999 112.37 256.44 113.542 256.302 113.9C256.165 114.257 256.141 115.935 256.646 116.058C257.15 116.181 258.366 114.38 258.509 114.201C258.652 114.023 258.628 113.838 258.628 113.838Z" fill="#364154"/>
<path d="M257.809 115.7C257.809 115.7 252.852 129.527 253.182 135.321C253.182 135.321 253.532 138.703 255.759 140.528C255.759 140.528 258.766 138.407 259.17 135.321C259.502 132.785 258.033 118.093 258.881 116.064L257.809 115.7Z" fill="#00A3FE"/>
<path d="M258.224 116.395C258.22 116.395 258.216 116.395 258.212 116.395C257.773 116.387 257.535 115.467 257.525 115.428L257.594 115.41C257.597 115.419 257.828 116.316 258.213 116.323C258.216 116.323 258.22 116.323 258.223 116.323C258.614 116.323 258.965 115.932 258.969 115.928L259.023 115.975C259.007 115.992 258.646 116.395 258.224 116.395Z" fill="#131F2D"/>
<path d="M261.767 105.789C261.767 105.789 260.595 106.546 259.127 105.844C259.127 105.844 258.988 105.684 259.313 105.649C259.638 105.613 260.203 105.341 260.177 105.147C260.15 104.953 258.367 105.937 257.3 105.261C257.3 105.261 255.791 104.377 257.141 103.873C257.979 103.56 258.547 100.851 262.317 102.608C262.868 102.864 263.99 103.563 264.006 104.686C264.006 104.686 265.484 105.422 264.898 107.478C264.017 110.569 261.106 110.307 261.106 110.307C261.106 110.307 262.834 108.211 262.025 108.168C260.987 108.112 260.778 107.35 261.392 107.023C262.005 106.697 262.58 105.705 261.767 105.789Z" fill="#131F2D"/>
<path d="M261.999 109.412C261.636 109.452 261.314 109.201 261.281 108.852C261.247 108.502 261.515 108.187 261.878 108.147C262.242 108.107 262.563 108.357 262.597 108.707C262.63 109.056 262.362 109.372 261.999 109.412Z" fill="#FF7955"/>
<path d="M265.131 105.437C265.101 105.437 265.073 105.418 265.063 105.387C264.863 104.741 264.177 104.576 264.17 104.574C264.132 104.565 264.108 104.527 264.117 104.489C264.126 104.451 264.164 104.427 264.202 104.435C264.233 104.442 264.975 104.619 265.2 105.345C265.211 105.383 265.19 105.423 265.152 105.434C265.145 105.436 265.138 105.437 265.131 105.437Z" fill="#131F2D"/>
<path d="M264.15 104.102C264.137 104.102 264.124 104.098 264.112 104.09C264.079 104.069 264.069 104.025 264.09 103.992C264.099 103.978 264.288 103.658 263.889 103.221C263.862 103.191 263.864 103.146 263.893 103.12C263.922 103.093 263.967 103.095 263.994 103.124C264.471 103.647 264.221 104.052 264.21 104.069C264.196 104.09 264.173 104.102 264.15 104.102Z" fill="#131F2D"/>
<path d="M275.33 145.281C276.905 145.181 278.138 144.415 278.085 143.57C278.031 142.725 276.711 142.121 275.136 142.221C273.561 142.321 272.327 143.087 272.381 143.932C272.435 144.776 273.755 145.38 275.33 145.281Z" fill="#131F2D"/>
<path d="M247.595 142.855C247.586 142.729 246.635 130.152 250.024 122.36L250.155 122.417C246.78 130.176 247.728 142.718 247.738 142.844L247.595 142.855Z" fill="#131F2D"/>
<path d="M270.484 131.571C269.591 127.647 267.74 124.858 267.721 124.83L267.84 124.75C267.859 124.778 269.724 127.589 270.623 131.539L270.484 131.571Z" fill="#131F2D"/>
<path d="M257.325 106.793C257.281 106.927 257.319 107.062 257.409 107.096C257.499 107.13 257.608 107.05 257.651 106.916C257.695 106.783 257.657 106.647 257.567 106.613C257.477 106.579 257.369 106.66 257.325 106.793Z" fill="#080435"/>
<path d="M258.735 107.592C258.692 107.726 258.729 107.861 258.819 107.896C258.909 107.93 259.018 107.849 259.061 107.716C259.105 107.582 259.067 107.446 258.977 107.412C258.887 107.378 258.779 107.459 258.735 107.592Z" fill="#080435"/>
<path d="M260.053 153.221C260.048 153.192 259.459 150.304 258.901 148.019C258.357 145.795 256.211 145.2 256.189 145.194L256.245 144.984C256.268 144.99 258.538 145.619 259.113 147.968C259.672 150.257 260.261 153.149 260.267 153.178L260.053 153.221Z" fill="#020202"/>
<path d="M273.479 154.015L272.591 153.999L272.662 150.237C272.696 149.283 273.364 148.482 274.251 148.323L277.042 147.824C277.86 147.677 278.669 148.098 279.054 148.87L279.061 148.884L280.842 152.791L280.035 153.159L278.257 149.259C278.048 148.847 277.623 148.622 277.199 148.697L274.408 149.196C273.93 149.282 273.568 149.729 273.549 150.261L273.479 154.015Z" fill="#131F2D"/>
<path d="M271.281 165.829L284.392 164.828C285.316 164.757 286.014 163.904 285.955 162.917L285.358 152.919C285.296 151.872 284.411 151.103 283.438 151.25L267.726 153.627C266.646 153.79 265.993 154.99 266.395 156.073L269.593 164.696C269.864 165.426 270.547 165.885 271.281 165.829Z" fill="#B05638"/>
<path d="M276.297 159.397L276.264 159.39L266.888 157.56L266.928 157.358L276.27 159.182L285.432 154.808L285.521 154.994L276.297 159.397Z" fill="#131F2D"/>
<path d="M276.269 160.209C276.566 160.156 276.769 159.853 276.719 159.535L276.632 158.978C276.582 158.66 276.298 158.444 276 158.498C275.703 158.551 275.501 158.854 275.55 159.171L275.638 159.729C275.687 160.046 275.971 160.262 276.269 160.209Z" fill="#131F2D"/>
<path d="M271.888 148.103C272.094 147.676 272.323 146.966 272.551 146.289C272.735 145.743 272.919 145.217 273.091 144.876C273.18 144.7 273.768 143.875 275.174 143.885C276.592 143.895 276.753 144.502 276.753 144.502C276.753 144.502 277.324 145.513 277.796 147.217C277.836 147.308 277.87 147.41 277.894 147.529C278.061 148.356 278.44 149.496 277.97 149.934C277.458 150.411 277.139 149.589 277.01 149.137C277.098 149.55 277.201 150.346 276.824 150.795C276.426 151.268 275.972 149.975 275.773 149.317C275.772 149.318 275.77 149.318 275.768 149.319C275.909 149.91 276.104 151.054 275.602 151.365C275.009 151.733 274.552 149.974 274.431 149.571C274.416 149.572 274.401 149.573 274.387 149.574C274.041 152.078 273.113 150.813 272.903 148.885C272.564 149.286 271.793 150.005 271.545 149.819C271.256 149.603 271.727 148.438 271.888 148.103Z" fill="#FF7955"/>
<path d="M257.687 108.894C257.64 109.07 257.516 109.185 257.411 109.153C257.306 109.12 257.259 108.951 257.306 108.775C257.354 108.599 257.477 108.483 257.582 108.516C257.688 108.549 257.734 108.718 257.687 108.894Z" fill="white"/>
<path d="M139.822 139.867C139.413 140.57 138.895 142.157 138.499 142.869C138.328 143.178 137.816 144.26 138.075 144.488C138.3 144.686 139.081 144.038 139.418 143.681C139.556 146.062 140.734 149.472 140.777 144.46C140.78 144.46 140.782 144.46 140.784 144.46C140.823 144.967 141.038 147.79 141.637 147.47C142.167 147.187 142.09 145.16 142.035 144.324C142.042 144.323 142.049 144.322 142.056 144.32C142.179 145.164 142.526 147.193 142.949 146.746C143.48 146.186 143.444 143.961 143.444 143.961C143.444 143.961 143.547 146.802 144.233 146.238C144.619 145.92 144.405 144.299 144.258 143.293V143.292C144.227 143.081 144.199 142.897 144.18 142.757C144.165 142.642 144.139 142.541 144.107 142.451C143.763 140.786 143.286 139.775 143.286 139.775C143.286 139.775 142.922 138.482 141.557 138.598C140.687 138.671 139.999 139.561 139.822 139.867Z" fill="#FF7955"/>
<path d="M138.791 140.208C133.853 136.717 139.157 125.909 137.104 118.45C136.629 116.722 136.424 116.07 136.013 115.108C135.682 114.334 136.574 112.827 137.798 112.204C138.947 111.619 141.703 112.004 141.921 112.396C145.246 118.366 146.321 128.166 144.664 140.677C144.664 140.677 140.91 141.706 138.791 140.208Z" fill="#B05638"/>
<path d="M131.454 185.478C131.454 185.478 131.496 187.278 132.628 187.786C133.76 188.294 137.04 188.752 135.814 189.909C135.111 190.574 131.796 190.144 130.861 190.144C129.925 190.144 129.046 190.583 128.35 189.909C127.585 189.168 128.35 185.478 128.35 185.478C128.35 185.478 129.158 185.93 129.884 185.91C130.931 185.881 131.454 185.478 131.454 185.478Z" fill="#131F2D"/>
<path d="M141.222 131.145C141.222 131.145 141.447 139.27 139.038 154.857C137.298 166.109 135.244 177.448 134.237 182.884C133.876 184.828 132.357 186.25 130.555 186.328L129.587 186.37C127.64 186.454 126.059 184.654 126.201 182.513L128.645 145.737L129.248 133.632L141.222 131.145Z" fill="#364154"/>
<path d="M120.731 185.478C120.731 185.478 120.773 187.278 121.905 187.786C123.037 188.294 126.318 188.752 125.092 189.909C124.389 190.574 121.074 190.144 120.138 190.144C119.202 190.144 118.324 190.583 117.628 189.909C116.863 189.168 117.628 185.478 117.628 185.478C117.628 185.478 118.436 185.93 119.162 185.91C120.209 185.881 120.731 185.478 120.731 185.478Z" fill="#131F2D"/>
<path d="M130.499 131.145C130.499 131.145 130.725 139.27 128.315 154.857C126.575 166.109 124.522 177.448 123.514 182.884C123.154 184.828 121.634 186.25 119.833 186.328L118.865 186.37C116.917 186.454 115.336 184.654 115.479 182.513L117.923 145.737L118.525 133.632L130.499 131.145Z" fill="#364154"/>
<path d="M117.341 140.049C117.365 141.03 122.874 141.419 129.687 141.19C136.5 140.961 141.945 139.948 141.921 138.967C141.898 137.987 136.416 137.412 129.602 137.64C122.789 137.869 117.318 139.069 117.341 140.049Z" fill="#131F2D"/>
<path d="M119.009 112.297C119.009 112.297 120.214 107.159 129.103 107.107C141.922 107.032 140.735 119.706 141.921 138.968C141.921 138.968 129.294 137.046 117.335 139.808C117.335 139.808 116.226 120.148 119.009 112.297Z" fill="#B05638"/>
<path d="M115.728 111.56L121.534 115.017C121.534 115.017 134.246 116.259 137.621 115.661C140.996 115.062 141.921 112.396 141.921 112.396C141.921 112.396 138.327 108.394 132.218 107.326C131.644 107.225 131.049 107.15 130.431 107.107C129.395 107.035 128.358 107.05 127.343 107.173C119.601 108.112 115.728 111.56 115.728 111.56Z" fill="#B05638"/>
<path d="M140.849 139.761C140.849 139.761 133.466 137.423 118.177 140.632L118.059 142.998L140.472 143.851L140.849 139.761Z" fill="#364154"/>
<path d="M114.616 139.808C115.15 133.477 119.501 116.904 120.008 115.997C120.416 115.267 119.686 113.663 118.533 112.898C117.451 112.18 116.053 111.266 115.728 111.56C111.158 115.705 107.226 130.854 108.466 139.247L114.616 139.808Z" fill="#B05638"/>
<path d="M126.217 107.331C127.137 108.551 128.789 108.379 130.081 107.765C131.12 107.27 130.971 107.28 130.828 107.101C130.476 106.656 130.185 106.549 130.166 106.037L130.14 105.366L130.137 105.283L130.105 104.409L130.047 102.901L129.896 98.9341L128.747 102.922L128.551 103.6L127.881 105.931C127.664 106.683 126.224 107.33 126.217 107.331Z" fill="#FF7955"/>
<path d="M128.413 104.197C128.413 104.197 128.966 105.182 130.14 105.367L130.137 105.283L130.105 104.409C129.47 104.343 128.413 104.197 128.413 104.197Z" fill="#131F2D"/>
<path d="M135.939 130.805C135.939 130.805 135.568 134.468 133.148 136.449C133.148 136.449 131.643 135.39 130.555 133.658C130.022 132.848 129.594 131.889 129.454 130.805C129.397 130.319 129.385 129.422 129.408 128.263C129.443 127.329 129.501 126.22 129.559 125.011C129.663 122.893 129.814 120.488 129.918 118.22C129.976 116.975 130.022 115.766 130.045 114.682C130.091 112.377 130.033 110.57 129.767 109.935L130.925 109.549C130.925 109.549 131.423 110.932 132.106 113.037C132.361 113.847 132.65 114.757 132.951 115.729C133.415 117.286 133.913 119.018 134.364 120.762C134.607 121.722 134.851 122.694 135.047 123.641C135.476 125.597 135.8 127.466 135.904 129.036C135.962 129.684 135.974 130.269 135.939 130.805Z" fill="#00A3FE"/>
<path d="M108.466 139.248C108.43 140.164 109.785 140.986 111.493 141.082C113.2 141.179 114.614 140.514 114.65 139.597C114.687 138.68 113.332 137.859 111.624 137.762C109.916 137.666 108.502 138.331 108.466 139.248Z" fill="#131F2D"/>
<path d="M141.999 138.974L141.844 138.961C141.855 138.825 142.882 125.231 139.224 116.823L139.366 116.762C143.04 125.206 142.009 138.837 141.999 138.974Z" fill="#131F2D"/>
<path d="M117.192 126.744L117.041 126.71C118.015 122.429 120.038 119.382 120.058 119.352L120.187 119.438C120.166 119.468 118.16 122.492 117.192 126.744Z" fill="#131F2D"/>
<path d="M131.245 96.4043C131.245 96.4043 131.763 97.2318 131.915 98.4576C132.066 99.6834 130.071 97.2834 130.071 97.2834L131.245 96.4043Z" fill="#131F2D"/>
<path d="M130.616 104.34C132.35 103.726 133.124 101.445 132.344 99.2443C131.564 97.044 129.526 95.758 127.792 96.3721C126.057 96.9861 125.284 99.2676 126.063 101.468C126.843 103.668 128.881 104.954 130.616 104.34Z" fill="#FF7955"/>
<path d="M125.816 100.812L127.266 100.076C127.585 99.9141 127.825 99.6085 127.906 99.2394C128.044 98.6038 128.329 98.197 129.751 97.7236C131.552 97.1242 132.353 95.5408 132.219 94.4676C132.081 93.3723 130.946 93.0235 130.212 93.8476C129.479 94.6717 129.472 93.3327 128.572 93.5303C126.891 93.8992 127.025 95.3433 125.697 95.7961C123.957 96.3897 121.331 98.9629 123.858 101.672L125.816 100.812Z" fill="#131F2D"/>
<path d="M129.522 99.8671C129.535 99.85 129.54 99.8271 129.534 99.8044C129.525 99.7661 129.489 99.743 129.453 99.7531C129.432 99.7591 128.933 99.846 128.872 100.472C128.868 100.512 128.893 100.548 128.93 100.553C128.966 100.558 128.992 100.528 129.004 100.49C129.129 100.116 129.469 99.8971 129.487 99.8922C129.501 99.8879 129.514 99.8789 129.522 99.8671Z" fill="#080435"/>
<path d="M129.533 100.84C129.623 100.981 129.774 101.039 129.869 100.968C129.964 100.897 129.968 100.725 129.878 100.584C129.787 100.443 129.636 100.386 129.541 100.457C129.446 100.527 129.442 100.699 129.533 100.84Z" fill="#080435"/>
<path d="M131.605 98.6943C131.618 98.6842 131.625 98.6665 131.623 98.6448C131.619 98.6085 131.591 98.5751 131.559 98.5704C131.541 98.5676 131.106 98.4572 130.985 98.9727C130.977 99.0052 130.995 99.0455 131.026 99.0632C131.056 99.081 131.081 99.0649 131.096 99.0373C131.243 98.7617 131.557 98.7003 131.573 98.7024C131.585 98.7045 131.597 98.7013 131.605 98.6943Z" fill="#080435"/>
<path d="M131.367 99.6462C131.42 99.808 131.552 99.9054 131.661 99.8639C131.77 99.8224 131.815 99.6578 131.762 99.496C131.709 99.3342 131.577 99.2369 131.468 99.2784C131.359 99.3199 131.314 99.4847 131.367 99.6462Z" fill="#080435"/>
<path d="M123.858 101.672C123.858 101.672 125.684 103.692 127.216 103.313C127.216 103.313 125.424 101.924 127.57 99.855C127.57 99.855 125.137 100.336 123.858 101.672Z" fill="#131F2D"/>
<path d="M126.37 102.219C126.756 102.316 127.133 102.094 127.213 101.723C127.294 101.352 127.046 100.973 126.661 100.877C126.275 100.78 125.898 101.002 125.817 101.373C125.737 101.743 125.984 102.122 126.37 102.219Z" fill="#FF7955"/>
<path d="M131.698 94.2527C131.373 94.2527 131.222 94.0057 131.186 93.8561C131.176 93.8146 131.201 93.7729 131.243 93.7628C131.284 93.7524 131.325 93.778 131.336 93.8193C131.345 93.8551 131.435 94.1662 131.821 94.0841C131.863 94.0753 131.904 94.1018 131.913 94.1435C131.922 94.1853 131.895 94.2264 131.854 94.2354C131.798 94.2473 131.746 94.2527 131.698 94.2527Z" fill="#00A3FE"/>
<path d="M130.081 96.9961L130.052 96.9593C130.069 96.946 131.764 95.6282 131.5 94.5496C131.424 94.238 131.311 94.0572 131.153 93.9971C130.911 93.9051 130.603 94.1159 130.332 94.3022C130.289 94.3314 130.248 94.3598 130.208 94.3863L130.182 94.3474C130.222 94.3211 130.263 94.2926 130.305 94.2637C130.587 94.0709 130.906 93.8526 131.17 93.9534C131.343 94.0196 131.466 94.2109 131.546 94.5385C131.658 94.9982 131.44 95.5696 130.914 96.1906C130.519 96.6573 130.085 96.9929 130.081 96.9961Z" fill="white"/>
<path d="M125.082 96.4508L125.072 96.4054C127.005 95.9772 127.53 94.5246 127.535 94.51L127.579 94.5252C127.574 94.54 127.041 96.0168 125.082 96.4508Z" fill="white"/>
<path d="M113.486 139.88C114.047 140.449 114.922 141.843 115.472 142.424C115.711 142.676 116.461 143.583 116.265 143.874C116.094 144.127 115.186 143.713 114.775 143.46C115.203 145.801 114.867 149.42 113.644 144.584C113.642 144.585 113.639 144.586 113.637 144.586C113.719 145.088 114.177 147.877 113.521 147.731C112.943 147.602 112.539 145.619 112.396 144.796C112.389 144.797 112.381 144.797 112.374 144.798C112.454 145.648 112.597 147.705 112.082 147.389C111.437 146.991 110.947 144.83 110.947 144.83C110.947 144.83 111.517 147.606 110.721 147.247C110.272 147.045 110.097 145.419 110.002 144.405C110.002 144.405 110.002 144.405 110.002 144.405C109.982 144.192 109.966 144.006 109.951 143.866C109.939 143.75 109.94 143.646 109.95 143.55C109.89 141.845 110.113 140.737 110.113 140.737C110.113 140.737 110.161 139.388 111.508 139.126C112.367 138.96 113.243 139.634 113.486 139.88Z" fill="#FF7955"/>
<path d="M127.899 157.832L127.801 157.813C127.822 157.699 129.989 146.365 130.456 144.587C130.93 142.781 132.652 142.361 132.669 142.357L132.692 142.454C132.675 142.458 131.011 142.866 130.553 144.612C130.087 146.387 127.921 157.717 127.899 157.832Z" fill="#131F2D"/>
<path d="M130.045 114.682C130.091 112.377 130.033 110.57 129.767 109.935L130.925 109.549C130.925 109.549 131.423 110.932 132.106 113.038C131.411 113.573 130.67 114.159 130.045 114.682Z" fill="#016EB9"/>
<path d="M134.364 120.762C132.731 122.121 130.427 124.077 129.559 125.011C129.663 122.893 129.813 120.488 129.918 118.221L132.951 115.729C133.415 117.286 133.913 119.018 134.364 120.762Z" fill="#016EB9"/>
<path d="M135.904 129.036C134.434 130.282 132.094 132.263 130.554 133.658C130.022 132.848 129.593 131.889 129.454 130.805C129.396 130.319 129.385 129.422 129.408 128.263L135.047 123.641C135.476 125.597 135.8 127.466 135.904 129.036Z" fill="#016EB9"/>
<path d="M129.124 107.96C129.124 107.96 130.686 107.441 131.101 107.844C131.516 108.247 131.211 110.093 130.492 110.257C129.773 110.421 128.414 108.405 129.124 107.96Z" fill="#00A3FE"/>
<path d="M130.042 107.525C130.042 107.525 128.003 106.75 127.606 105.974C127.208 105.199 125.098 106.99 125.134 107.525C125.171 108.06 128.972 111.027 129.221 110.653C129.469 110.279 130.54 108.033 130.042 107.525Z" fill="#A0462D"/>
<path d="M130.042 107.525C130.042 107.525 130.346 106.711 130.2 106.269C130.2 106.269 130.103 105.881 130.413 105.907C130.724 105.934 132.413 107.204 132.562 107.592C132.711 107.979 132.736 109.797 132.19 109.931C131.643 110.064 130.326 108.112 130.171 107.918C130.016 107.725 130.042 107.525 130.042 107.525Z" fill="#A0462D"/>
<path d="M130.48 110.296C130.022 110.296 129.63 109.86 129.614 109.841L129.672 109.79C129.676 109.794 130.057 110.218 130.48 110.218C130.484 110.218 130.488 110.218 130.491 110.218C130.908 110.211 131.159 109.239 131.162 109.229L131.237 109.248C131.226 109.29 130.968 110.287 130.493 110.295C130.488 110.296 130.484 110.296 130.48 110.296Z" fill="#131F2D"/>
<path d="M131.017 102.394C131.017 102.627 131.135 102.816 131.282 102.816C131.428 102.816 131.546 102.627 131.546 102.394C131.546 102.16 131.428 101.971 131.282 101.971C131.135 101.971 131.017 102.16 131.017 102.394Z" fill="white"/>
<path d="M199.437 48.364C196.182 41.9212 183.598 33.7414 179.743 34.4119C178.914 34.5561 184.352 23.1737 186.186 24.3329C192.529 28.3431 201.955 37.1819 204.283 43.6195L199.437 48.364Z" fill="#657285"/>
<path d="M200.747 44.5688C202.302 42.631 203.727 42.8976 204.283 43.6195C204.84 44.3415 204.159 45.9369 202.762 47.1832C201.365 48.4293 199.993 49.0861 199.436 48.3641C198.88 47.6422 199.561 46.0464 200.747 44.5688Z" fill="#131F2D"/>
<path d="M200.969 47.0071C200.959 47.8082 201.271 49.3977 201.276 50.199C201.278 50.5465 201.359 51.7154 201.678 51.7642C201.956 51.8065 202.299 50.8508 202.412 50.3738C203.635 52.2653 206.195 54.4454 203.897 50.2843C203.899 50.2831 203.901 50.2816 203.903 50.2803C204.171 50.6783 205.662 52.8932 206.008 52.3056C206.314 51.7868 205.306 50.1542 204.872 49.4945C204.877 49.4895 204.882 49.4846 204.887 49.4797C205.382 50.1099 206.613 51.5979 206.754 51.0012C206.931 50.2522 205.866 48.4347 205.866 48.4347C205.866 48.4347 207.274 50.7252 207.577 49.8897C207.748 49.4187 206.817 48.1963 206.227 47.4443C206.227 47.4441 206.226 47.4441 206.226 47.4441C206.103 47.2864 205.994 47.149 205.913 47.0442C205.846 46.9571 205.778 46.8875 205.71 46.8312C204.651 45.641 203.786 45.064 203.786 45.064C203.786 45.064 202.884 44.1935 201.81 45.0242C201.127 45.5532 200.973 46.6598 200.969 47.0071Z" fill="#FF7955"/>
<path d="M172.248 92.815C172.248 92.815 172.958 94.7297 171.979 95.8125C171.001 96.8956 167.741 98.9675 169.515 99.5913C170.533 99.9491 173.841 97.8911 174.826 97.4376C175.811 96.9839 176.919 97.0199 177.368 95.9736C177.863 94.8227 175.513 91.3108 175.513 91.3108C175.513 91.3108 174.853 92.1786 174.08 92.5092C172.967 92.986 172.248 92.815 172.248 92.815Z" fill="#131F2D"/>
<path d="M200.652 100.713C200.652 100.713 200.756 102.772 199.507 103.461C198.258 104.151 194.555 104.994 196.05 106.195C196.909 106.884 200.654 106.071 201.722 105.98C202.79 105.889 203.829 106.304 204.566 105.467C205.376 104.546 204.192 100.411 204.192 100.411C204.192 100.411 203.309 101.006 202.479 101.053C201.283 101.122 200.652 100.713 200.652 100.713Z" fill="#131F2D"/>
<path d="M177.074 53.2625C177.074 53.2625 172.875 50.8552 179.029 64.918C183.471 75.0702 192.925 93.157 197.639 99.3962C198.784 100.913 200.476 102.022 202.492 101.552L203.575 101.299C205.755 100.79 207.107 98.6042 206.471 96.6163L190.437 50.947C190.437 50.947 189.435 49.6662 183.847 50.305C176.996 51.0882 177.074 53.2625 177.074 53.2625Z" fill="#364154"/>
<path d="M171.277 54.211C171.277 54.211 162.874 60.9177 160.695 69.6603C158.22 79.5903 169.059 92.829 171.646 93.85C173.333 94.516 174.674 93.8549 176.586 90.28C177.73 88.1426 172.166 75.9656 173.909 71.7761C176.018 66.7086 186.338 62.5161 186.338 62.5161L185.339 49.4722C185.339 49.4724 177.743 51.2458 171.277 54.211Z" fill="#364154"/>
<path d="M189.317 27.8193C189.317 27.8193 187.825 22.4306 178.399 22.8045C171.14 23.0925 167.076 24.1266 166.196 29.3056C165.884 31.1436 165.138 37.9632 169.031 56.1099C169.031 56.1099 181.839 62.091 193.795 55.5578C193.795 55.5578 191.971 45.8718 189.81 30.9848C189.627 29.7267 189.696 28.7663 189.317 27.8193Z" fill="#657285"/>
<path d="M176.267 25.1214C176.722 26.8976 180.1 39.6304 198.68 34.794C199.832 34.4942 201.041 34.5681 202.154 35.007L205.218 36.2159C205.606 36.3689 205.74 36.8867 205.481 37.2339L203.642 39.7006C202.461 41.2832 200.816 42.3838 198.975 42.827C195.121 43.7555 188.234 44.6753 182.417 41.5151C175.509 37.7624 174.614 28.7751 174.529 25.371C174.516 24.8219 175.1 24.5026 175.504 24.8388C175.607 24.9246 176.232 24.986 176.267 25.1214Z" fill="#00A3FE"/>
<path d="M178.109 21.4928L177.604 18.922L177.457 18.1737L176.592 13.7732L176.065 18.0125L175.749 20.5572L175.649 21.3627C175.581 21.9095 175.26 21.994 174.841 22.4333C174.671 22.6114 173.589 23.6857 174.657 24.3253C175.987 25.1227 178.666 24.3818 179.764 23.1719C179.757 23.1693 178.272 22.3236 178.109 21.4928Z" fill="#FF7955"/>
<path d="M177.739 19.6122C177.739 19.6122 176.866 20.5133 175.749 20.5574L175.897 19.5193L177.739 19.6122Z" fill="#131F2D"/>
<path d="M173.561 11.8521C173.561 11.8521 173.221 12.8626 173.36 14.1859C173.5 15.5091 175.001 12.4399 175.001 12.4399L173.561 11.8521Z" fill="#5C305D"/>
<path d="M173.182 14.5459C173.704 12.066 175.676 10.4332 177.588 10.8989C179.499 11.3645 180.626 13.7524 180.104 16.2322C179.582 18.712 177.61 20.3448 175.698 19.8792C173.787 19.4133 172.661 17.0257 173.182 14.5459Z" fill="#FF7955"/>
<path d="M180.305 14.9284L178.611 14.5673C178.238 14.488 177.913 14.2365 177.739 13.8733C177.439 13.2485 177.043 12.9035 175.443 12.8093C173.416 12.6901 172.193 11.2617 172.072 10.1027C171.949 8.91967 173.051 8.23552 174.018 8.88993C174.985 9.54434 174.666 8.14371 175.654 8.09663C177.5 8.00868 177.712 9.55504 179.209 9.65413C181.172 9.78424 184.541 11.7331 182.56 15.2753L180.305 14.9284Z" fill="#131F2D"/>
<path d="M176.435 15.1596C176.413 15.16 176.392 15.1498 176.377 15.1301C176.353 15.0965 176.358 15.0479 176.389 15.0216C176.407 15.006 176.802 14.6028 177.341 14.9548C177.375 14.9771 177.387 15.0237 177.367 15.0607C177.347 15.0978 177.307 15.1018 177.269 15.0888C176.889 14.9593 176.494 15.1307 176.478 15.1436C176.465 15.1541 176.45 15.1594 176.435 15.1596Z" fill="#080435"/>
<path d="M173.841 14.5631C173.827 14.5533 173.821 14.5304 173.827 14.4991C173.837 14.4462 173.877 14.3891 173.916 14.3716C173.94 14.3613 174.494 14.0538 174.57 14.7433C174.575 14.7867 174.548 14.8499 174.507 14.8858C174.466 14.9218 174.438 14.9074 174.423 14.8734C174.281 14.5334 173.9 14.5552 173.881 14.5637C173.865 14.5706 173.851 14.5699 173.841 14.5631Z" fill="#080435"/>
<path d="M174.429 15.5411C174.435 15.7257 174.338 15.8787 174.214 15.8832C174.089 15.8875 173.984 15.7414 173.978 15.5569C173.973 15.3722 174.069 15.2192 174.193 15.2147C174.318 15.2102 174.423 15.3564 174.429 15.5411Z" fill="#080435"/>
<path d="M182.559 15.2752C182.559 15.2752 181.143 17.9003 179.451 17.935C179.451 17.935 180.985 15.9797 178.24 14.4222C178.24 14.4222 180.899 14.239 182.559 15.2752Z" fill="#5C305D"/>
<path d="M180.068 16.5542C179.689 16.7639 179.241 16.638 179.067 16.2734C178.892 15.9087 179.059 15.4431 179.438 15.2336C179.817 15.0238 180.266 15.1497 180.44 15.5143C180.614 15.879 180.448 16.3444 180.068 16.5542Z" fill="#FF7955"/>
<path d="M174.329 8.73259C174.295 8.73259 174.258 8.73023 174.22 8.7251L174.234 8.62559C174.697 8.68743 174.771 8.28961 174.774 8.27271L174.873 8.28961C174.872 8.29453 174.791 8.73259 174.329 8.73259Z" fill="#131F2D"/>
<path d="M174.922 12.1422C174.916 12.14 174.381 11.9115 173.855 11.5353C173.154 11.0343 172.787 10.4987 172.792 9.98655C172.797 9.61869 172.88 9.38329 173.047 9.26709C173.299 9.09203 173.683 9.22985 174.021 9.35097C174.072 9.36938 174.122 9.38735 174.17 9.40362L174.154 9.45112C174.106 9.43465 174.055 9.41667 174.004 9.39827C173.677 9.281 173.306 9.14831 173.075 9.30839C172.922 9.41453 172.846 9.63666 172.842 9.98719C172.829 11.1877 174.92 12.0872 174.941 12.0962L174.922 12.1422Z" fill="white"/>
<path d="M179.797 10.1695C178.788 10.1695 178.081 9.83784 177.657 9.54851C177.165 9.21275 176.936 8.859 176.934 8.85558L176.976 8.82861C176.985 8.84231 177.888 10.2104 180.01 10.1145L180.012 10.1646C179.939 10.168 179.867 10.1695 179.797 10.1695Z" fill="white"/>
<path d="M174.09 17.5527C174.09 17.5527 174.228 18.465 175.136 18.5224C176.116 18.5844 176.361 17.7931 176.361 17.7931C176.361 17.7931 175.041 17.9754 174.09 17.5527Z" fill="white"/>
<path d="M177.313 15.961C177.301 15.961 177.289 15.9578 177.279 15.9511C176.86 15.6984 176.283 15.8397 176.277 15.8412C176.241 15.8499 176.204 15.8283 176.196 15.7924C176.187 15.7564 176.208 15.7196 176.244 15.7106C176.27 15.704 176.883 15.5544 177.348 15.836C177.38 15.8553 177.39 15.8966 177.371 15.9285C177.358 15.9494 177.336 15.961 177.313 15.961Z" fill="#131F2D"/>
<path d="M176.739 23.6664C176.739 23.6664 175.062 23.1909 174.638 23.6385C174.215 24.0862 174.616 26.0281 175.385 26.1674C176.154 26.3065 177.511 24.104 176.739 23.6664Z" fill="#00A3FE"/>
<path d="M175.376 26.2083C174.878 26.2083 174.567 25.1773 174.554 25.1332L174.632 25.1099C174.635 25.1201 174.939 26.1261 175.376 26.1261C175.379 26.1261 175.381 26.1261 175.384 26.1261C175.839 26.1135 176.231 25.6369 176.235 25.6322L176.299 25.684C176.282 25.7048 175.878 26.1946 175.386 26.2081C175.383 26.2083 175.38 26.2083 175.376 26.2083Z" fill="#131F2D"/>
<path d="M175.926 52.4056C176.087 52.6694 176.418 52.7422 176.663 52.568C176.908 52.3938 176.976 52.0385 176.814 51.7745C176.652 51.5106 176.358 51.3644 176.112 51.5386C175.765 51.7854 175.764 52.1415 175.926 52.4056Z" fill="#131F2D"/>
<path d="M174.823 43.9607C174.938 44.2517 175.251 44.387 175.521 44.263C175.792 44.1391 175.918 43.8027 175.802 43.5119C175.687 43.2209 175.422 43.0203 175.151 43.1443C174.769 43.3195 174.708 43.6696 174.823 43.9607Z" fill="#131F2D"/>
<path d="M173.751 35.4211C173.867 35.7121 174.179 35.8474 174.45 35.7235C174.72 35.5996 174.846 35.2632 174.731 34.9721C174.616 34.6811 174.35 34.4805 174.08 34.6045C173.697 34.7799 173.636 35.13 173.751 35.4211Z" fill="#131F2D"/>
<path d="M174.091 22.7859C169.154 22.7909 164.8 25.7616 163.456 24.4337C163.139 24.1202 164.815 13.6443 164.815 13.6443L160.745 13.7857C160.745 13.7857 152.864 27.3219 156.939 31.7797C161.935 37.2457 169.267 33.9135 169.267 33.9135C169.267 33.9135 176.619 22.7834 174.091 22.7859Z" fill="#657285"/>
<path d="M172.24 16.7951L162.247 14.8286C161.738 14.7285 161.401 14.2031 161.494 13.6555L161.691 12.4945C161.785 11.9467 162.273 11.584 162.782 11.6841L172.774 13.6505C173.284 13.7507 173.621 14.2761 173.528 14.8237L173.33 15.9846C173.237 16.5325 172.749 16.8952 172.24 16.7951Z" fill="#131F2D"/>
<path d="M165.851 16.6753L156.207 14.7777C155.541 14.6468 155.1 13.9594 155.222 13.2427L155.663 10.6492C155.785 9.93255 156.423 9.4579 157.089 9.58886L166.733 11.4864C167.399 11.6174 167.84 12.3047 167.718 13.0214L167.277 15.6149C167.155 16.3316 166.517 16.8064 165.851 16.6753Z" fill="#364154"/>
<path d="M157.871 15.853L142.577 12.8435C142.031 12.7361 141.669 12.1728 141.769 11.5854L142.535 7.07683C142.635 6.4894 143.159 6.10034 143.705 6.20777L158.999 9.21726C159.545 9.32469 159.906 9.88793 159.806 10.4754L159.04 14.9839C158.94 15.5711 158.417 15.9604 157.871 15.853Z" fill="#00A3FE"/>
<path d="M141.639 13.1846L140.88 13.0352C140.462 12.9528 140.184 12.521 140.261 12.0707L141.303 5.93938C141.379 5.48913 141.781 5.19081 142.199 5.2732L142.958 5.42257C143.377 5.50496 143.654 5.93682 143.578 6.38707L142.536 12.5184C142.459 12.9686 142.058 13.267 141.639 13.1846Z" fill="#131F2D"/>
<path d="M162.876 9.69957C162.876 9.69957 161.848 9.21187 161.44 10.2254C160.922 11.5167 161.426 13.6605 161.765 12.8471C162.066 12.1259 162.204 11.305 162.204 11.305C162.204 11.305 161.796 13.8833 162.387 13.7827C162.979 13.6821 163.328 11.5836 163.328 11.5836C163.328 11.5836 163.141 14.0513 163.671 13.7617C164.201 13.4722 164.47 12.0035 164.47 12.0035C164.47 12.0035 164.207 13.9961 164.815 13.644C165.423 13.292 165.33 11.8132 165.424 11.177C165.512 10.5757 165.181 10.3198 164.636 10.2695C164.636 10.2695 164.12 9.87997 163.756 9.94375C163.617 9.96836 163.505 9.81022 163.409 9.78112C163.226 9.72548 162.876 9.69957 162.876 9.69957Z" fill="#FF7955"/>
<path d="M179.658 66.1125C179.623 66.1125 179.589 66.0917 179.575 66.0573C178.238 62.8514 175.299 62.4771 175.27 62.4737C175.221 62.4679 175.185 62.4234 175.191 62.3741C175.197 62.3249 175.241 62.2905 175.291 62.2954C175.321 62.299 178.364 62.6864 179.741 65.9882C179.76 66.034 179.738 66.0864 179.693 66.1054C179.681 66.1104 179.67 66.1125 179.658 66.1125Z" fill="#131F2D"/>
<path d="M165.951 34.8892C165.951 34.8892 165.951 34.8892 165.95 34.8892C165.901 34.8888 165.861 34.8483 165.861 34.7987C165.889 31.3972 166.105 29.3164 166.107 29.2959C166.112 29.2465 166.155 29.2109 166.205 29.2161C166.255 29.2212 166.29 29.2655 166.285 29.3147C166.283 29.3353 166.068 31.4081 166.041 34.8002C166.04 34.8496 166 34.8892 165.951 34.8892Z" fill="#131F2D"/>
<path d="M175.748 23.2489C175.748 23.2489 177.877 22.3285 178.266 21.4875C178.655 20.6465 180.968 22.4434 180.951 23.012C180.935 23.5806 176.684 26.9411 176.405 26.5561C176.126 26.1713 175.242 23.8113 175.748 23.2489Z" fill="#364154"/>
<path d="M175.748 23.249C175.748 23.249 175.392 22.4008 175.529 21.9252C175.529 21.9252 175.615 21.5088 175.287 21.5522C174.959 21.5957 173.221 23.0233 173.079 23.4414C172.937 23.8596 172.986 25.7879 173.571 25.9033C174.156 26.0186 175.472 23.8846 175.628 23.6723C175.784 23.4603 175.748 23.249 175.748 23.249Z" fill="#364154"/>
<path d="M104.499 105.836C105.163 104.836 101.715 101.444 101.715 101.444C101.371 101.271 97.1129 107.437 90.9403 106.543C88.7419 106.225 85.224 102.844 84.9216 102.3C84.8814 102.228 80.5868 104.874 80.5868 104.874C81.1345 105.859 81.5542 109.605 84.157 111.403C89.5417 115.124 97.7023 114.093 104.499 105.836Z" fill="#FF7955"/>
<path d="M81.2474 176.235C81.2474 176.235 81.3309 177.962 82.4301 178.418C83.5292 178.874 86.6896 179.223 85.5406 180.368C84.8814 181.025 81.6889 180.706 80.7904 180.732C79.892 180.758 79.0589 181.204 78.375 180.576C77.6226 179.885 78.2683 176.321 78.2683 176.321C78.2683 176.321 79.0546 176.733 79.7513 176.694C80.7555 176.637 81.2474 176.235 81.2474 176.235Z" fill="#131F2D"/>
<path d="M89.167 128.367C89.167 128.367 89.7301 131.595 87.7915 146.626C86.392 157.477 84.6932 168.42 83.8566 173.667C83.5573 175.544 82.1326 176.951 80.405 177.076L79.4769 177.143C77.6091 177.278 76.0484 175.594 76.1334 173.535L77.5952 138.16L77.8823 126.523L89.167 128.367Z" fill="#364154"/>
<path d="M70.9532 176.534C70.9532 176.534 71.0367 178.261 72.136 178.717C73.2351 179.173 76.3955 179.522 75.2465 180.667C74.5873 181.324 71.3948 181.005 70.4963 181.031C69.5979 181.057 68.765 181.503 68.0809 180.875C67.3284 180.184 67.9742 176.62 67.9742 176.62C67.9742 176.62 68.7605 177.032 69.4572 176.993C70.4614 176.935 70.9532 176.534 70.9532 176.534Z" fill="#131F2D"/>
<path d="M79.0235 124.1C79.0235 124.1 79.4359 131.894 77.4975 146.925C76.0981 157.776 74.3993 168.719 73.5627 173.966C73.2634 175.843 71.8386 177.25 70.1111 177.375L69.1829 177.442C67.3152 177.577 65.7545 175.893 65.8395 173.834L67.3013 138.459L67.5884 126.822L79.0235 124.1Z" fill="#364154"/>
<path d="M66.606 133.015C66.6521 133.956 72.3829 131.903 78.9184 131.494C85.4539 131.085 89.8192 128.711 89.7731 127.771C89.7271 126.831 84.9426 127.186 78.4071 127.595C71.8718 128.005 66.5602 132.075 66.606 133.015Z" fill="#131F2D"/>
<path d="M63.9955 106.621C63.9955 106.621 64.3449 101.546 72.7463 99.9129C84.8619 97.5587 85.6884 109.76 89.7733 127.771C89.7733 127.771 77.5085 128.168 66.6195 132.911C66.6195 132.911 62.5697 114.544 63.9955 106.621Z" fill="#016EB9"/>
<path d="M60.7782 106.508L66.8024 108.744C66.8024 108.744 79.0195 107.655 82.1199 106.488C85.2203 105.321 85.6863 102.634 85.6863 102.634C85.6863 102.634 81.6705 99.4881 75.7268 99.5656C75.1681 99.572 74.5937 99.6078 74.0031 99.6769C73.0118 99.7935 72.0324 99.9923 71.092 100.289C63.9111 102.557 60.7782 106.508 60.7782 106.508Z" fill="#016EB9"/>
<path d="M71.4093 99.0183L71.6858 96.6943L71.766 96.0179L72.2388 92.0398L72.9921 95.7666L73.4439 98.0036L73.5869 98.7117C73.6839 99.1923 73.9749 99.2424 74.377 99.6004C74.5399 99.7453 75.5733 100.616 74.6671 101.268C73.5383 102.08 71.1081 101.63 70.051 100.64C70.0574 100.636 71.3198 99.7695 71.4093 99.0183Z" fill="#FF7955"/>
<path d="M89.167 128.367C89.167 128.367 83.7183 128.076 67.4293 133.259L67.3659 135.826L88.9036 136.02L89.167 128.367Z" fill="#364154"/>
<path d="M60.6859 106.666C60.3356 107.462 61.2493 108.734 62.7267 109.505C64.2041 110.277 65.6858 110.257 66.0363 109.46C66.3866 108.664 65.4729 107.392 63.9955 106.621C62.5181 105.849 61.0364 105.869 60.6859 106.666Z" fill="#131F2D"/>
<path d="M63.7981 135.365C63.3298 129.28 63.0973 120.498 64.6494 113.217C65.0091 111.529 65.1693 110.891 65.5095 109.943C65.7834 109.18 64.8453 107.792 63.6371 107.274C62.5033 106.788 60.9279 107.199 60.7304 107.582C60.3947 108.235 60.1153 109.416 59.6862 111.29C58.1948 117.798 57.982 125.883 59.0181 136.061L63.7981 135.365Z" fill="#FF7955"/>
<path d="M74.0062 89.5913C74.0062 89.5913 74.5121 90.3799 74.6701 91.5552C74.8282 92.7305 72.8876 90.4492 72.8876 90.4492L74.0062 89.5913Z" fill="#131F2D"/>
<path d="M73.4775 97.2165C75.1389 96.6122 75.8642 94.4155 75.0975 92.3099C74.3308 90.2044 72.3624 88.9875 70.701 89.5918C69.0396 90.1961 68.3143 92.3929 69.081 94.4984C69.8477 96.6039 71.8161 97.8209 73.4775 97.2165Z" fill="#FF7955"/>
<path d="M68.8376 93.8878L70.2225 93.1638C70.527 93.0046 70.7546 92.7084 70.8284 92.353C70.9554 91.7409 71.2241 91.347 72.5849 90.8757C74.3081 90.2789 75.0617 88.749 74.9219 87.7201C74.7791 86.6698 73.6852 86.3481 72.9889 87.1481C72.2926 87.9482 72.2729 86.6623 71.4108 86.8626C69.7998 87.2367 69.9429 88.6219 68.6725 89.0722C67.0071 89.6626 64.5117 92.1642 66.966 94.7365L68.8376 93.8878Z" fill="#131F2D"/>
<path d="M72.1941 93.17C72.206 93.1533 72.2108 93.1312 72.2052 93.1094C72.196 93.0728 72.1609 93.051 72.1266 93.061C72.1065 93.067 71.6284 93.1563 71.5757 93.7585C71.5723 93.7964 71.5969 93.8306 71.6322 93.8349C71.6673 93.8392 71.6915 93.8103 71.7033 93.7741C71.8189 93.4131 72.1437 93.1993 72.1604 93.1944C72.1741 93.1901 72.1859 93.1813 72.1941 93.17Z" fill="#080435"/>
<path d="M72.214 94.1041C72.3022 94.2385 72.4474 94.2918 72.5382 94.2227C72.6289 94.1538 72.6307 93.9888 72.5424 93.8544C72.454 93.72 72.3091 93.6667 72.2183 93.7358C72.1275 93.8048 72.1255 93.9697 72.214 94.1041Z" fill="#080435"/>
<path d="M74.3588 92.1046C74.3719 92.0965 74.3804 92.0804 74.3804 92.0595C74.3806 92.0244 74.3569 91.9893 74.3273 91.9809C74.31 91.976 73.9066 91.8191 73.7383 92.2966C73.7278 92.3267 73.7402 92.367 73.7678 92.3877C73.7953 92.4083 73.8207 92.3959 73.8376 92.3715C74.0064 92.126 74.3121 92.1046 74.3267 92.1087C74.3385 92.1119 74.3498 92.1102 74.3588 92.1046Z" fill="#080435"/>
<path d="M74.0338 92.9844C74.0678 93.1449 74.1832 93.2536 74.2916 93.2268C74.3999 93.2003 74.4601 93.0486 74.426 92.8879C74.392 92.7274 74.2766 92.6187 74.1685 92.6454C74.0599 92.6719 73.9997 92.8237 74.0338 92.9844Z" fill="#080435"/>
<path d="M66.9658 94.7364C66.9658 94.7364 68.7397 96.6554 70.2064 96.2729C70.2064 96.2729 68.4723 94.9603 70.512 92.9482C70.512 92.948 68.1802 93.4381 66.9658 94.7364Z" fill="#131F2D"/>
<path d="M69.3834 95.2324C69.7546 95.3208 70.115 95.1031 70.1884 94.7462C70.2619 94.3892 70.0203 94.0282 69.6493 93.9398C69.2782 93.8515 68.9177 94.0691 68.8442 94.426C68.7708 94.783 69.0121 95.144 69.3834 95.2324Z" fill="#FF7955"/>
<path d="M70.512 92.9482C70.512 92.9482 70.9744 94.9603 71.4643 95.183C71.9542 95.4058 74.4267 94.6164 75.3968 93.7052C75.8362 94.9416 75.3926 96.3588 74.3222 97.011C73.968 97.227 73.5781 97.38 73.1659 97.4589C72.3255 97.6196 71.4382 97.5687 70.8458 96.9072C70.6655 96.7061 70.4548 95.1165 70.4548 95.1165C70.4548 95.1165 70.2702 94.2074 69.6493 93.9399C69.649 93.9399 70.0131 93.205 70.512 92.9482Z" fill="#131F2D"/>
<path d="M72.539 87.1099C72.2478 87.1099 72.1262 86.8407 72.1247 86.8375L72.2067 86.8015C72.2127 86.8152 72.3613 87.1375 72.7454 86.9729L72.781 87.0551C72.69 87.0941 72.6097 87.1099 72.539 87.1099Z" fill="#131F2D"/>
<path d="M72.8942 90.1731L72.8664 90.138C72.8705 90.1348 73.2807 89.81 73.6522 89.3608C73.9929 88.9488 74.3704 88.3447 74.2329 87.8071C74.1567 87.5088 74.0458 87.3365 73.8942 87.2807C73.661 87.1944 73.3674 87.401 73.1081 87.5831C73.0677 87.6115 73.0279 87.6393 72.9895 87.6652L72.9645 87.6282C73.0026 87.6023 73.042 87.5747 73.0824 87.5465C73.3507 87.3579 73.6554 87.1448 73.9098 87.2387C74.0762 87.3002 74.1961 87.4825 74.2764 87.796C74.5477 88.8568 72.9619 90.12 72.8942 90.1731Z" fill="white"/>
<path d="M68.0882 89.7078L68.0779 89.6644C69.9309 89.2302 70.4195 87.8296 70.4244 87.8154L70.4668 87.8298C70.4619 87.8439 69.9651 89.2683 68.0882 89.7078Z" fill="white"/>
<path d="M74.9003 94.7195C74.9003 94.7195 74.1057 95.2012 73.154 95.3664C73.154 95.3664 73.5006 96.2378 74.3995 95.7931C74.9221 95.5344 74.9003 94.7195 74.9003 94.7195Z" fill="white"/>
<path d="M61.5634 133.372C61.2889 133.734 61.3392 134.272 61.6751 134.567L64.5126 137.037C64.8485 137.332 66.3427 138.178 66.6174 137.816C66.8919 137.455 65.9701 136.232 65.6742 135.891C64.9918 135.103 63.9375 133.243 63.2412 132.47C62.939 132.134 61.8378 133.011 61.5634 133.372Z" fill="#FF7955"/>
<path d="M58.7862 133.337C58.7862 133.337 58.3017 135.233 58.4124 138.059C58.446 138.919 63.7446 139.004 63.9576 138.067C64.1707 137.131 63.2675 134.105 63.2675 134.105L58.7862 133.337Z" fill="#FF7955"/>
<path d="M62.7225 135.39C62.7225 135.39 64.0452 134.46 64.5089 136.188C65.2622 138.995 64.5929 145.678 63.1337 138.451C63.1048 138.308 63.7405 142.859 62.7962 142.597C61.8519 142.335 61.4578 138.271 61.4578 138.271C61.4578 138.271 61.7573 142.612 60.9398 142.054C60.1223 141.496 59.6181 138.674 59.6181 138.674C59.6181 138.674 60.1885 142.295 59.1723 141.776C58.4792 141.422 58.4396 138.408 58.3794 137.361C58.3224 136.371 58.8969 136.011 59.7881 136.02C59.7881 136.02 60.6803 135.475 61.2608 135.639C61.4834 135.702 61.6873 135.465 61.8468 135.433C62.1521 135.373 62.7225 135.39 62.7225 135.39Z" fill="#FF7955"/>
<path d="M77.1864 149.983L77.0417 149.965C77.0496 149.901 77.8431 143.513 78.4412 141.22C79.0448 138.905 81.823 136.908 81.8508 136.888L81.9353 137.006C81.9077 137.026 79.1724 138.993 78.5823 141.256C77.9866 143.541 77.1941 149.919 77.1864 149.983Z" fill="#131F2D"/>
<path d="M101.8 103.974C102.232 104.024 102.623 103.686 102.67 103.222L103.046 99.3156C103.093 98.8514 102.937 97.0425 102.506 96.9922C102.075 96.9417 101.625 98.4397 101.52 98.893C101.279 99.9381 100.405 101.903 100.182 102.953C100.085 103.408 101.369 103.923 101.8 103.974Z" fill="#FF7955"/>
<path d="M103.287 106.498C103.287 106.498 105.028 105.901 107.17 104.259C107.821 103.76 104.997 98.9354 104.152 99.2536C103.307 99.5718 101.441 102.037 101.441 102.037L103.287 106.498Z" fill="#FF7955"/>
<path d="M102.74 101.828C102.74 101.828 101.294 101.142 102.387 99.7814C104.163 97.5714 109.734 94.5307 104.9 99.7878C104.805 99.8918 108.003 96.8369 108.314 97.8314C108.624 98.8256 105.674 101.397 105.674 101.397C105.674 101.397 108.892 98.7602 108.903 99.8017C108.914 100.843 106.991 102.837 106.991 102.837C106.991 102.837 109.5 100.348 109.65 101.548C109.753 102.366 107.426 104.045 106.643 104.671C105.903 105.261 105.31 104.94 104.831 104.131C104.831 104.131 103.92 103.624 103.731 103.01C103.659 102.775 103.363 102.721 103.251 102.594C103.038 102.351 102.74 101.828 102.74 101.828Z" fill="#FF7955"/>
<path d="M18.8738 187.237C18.8738 187.237 23.1352 163.652 23.7955 162.96C24.4557 162.268 25.4761 162.883 25.116 164.19C24.7559 165.496 19.8012 186.761 19.5941 187.237C19.3939 187.698 18.7541 187.897 18.8738 187.237Z" fill="#131F2D"/>
<path d="M46.1404 156.363C46.1721 152.158 36.509 139.519 31.4761 137.944C25.7772 136.159 18.4711 132.919 16.3247 138.776C14.1784 144.632 21.3681 162.673 21.3681 162.673C21.3681 162.673 21.7674 164.275 23.2238 164.454C24.6803 164.634 42.6193 165.262 42.6473 164.454C42.6649 163.94 48.6764 157.222 46.1404 156.363Z" fill="#B8C1C9"/>
<path d="M43.4327 128.141C43.4327 128.141 50.1258 139.38 59.0539 142.021L57.4555 145.894C57.4555 145.894 46.1308 144.227 39.6494 132.457L43.4327 128.141Z" fill="#FF7955"/>
<path d="M50.3566 184.46C50.3566 184.46 50.3067 186.279 51.4229 186.858C52.5391 187.437 55.8247 188.094 54.5291 189.189C53.7857 189.817 50.4637 189.188 49.5198 189.133C48.5756 189.077 47.6669 189.468 46.9999 188.747C46.2661 187.953 47.2266 184.276 47.2266 184.276C47.2266 184.276 48.0182 184.781 48.7518 184.803C49.8089 184.835 50.3566 184.46 50.3566 184.46Z" fill="#131F2D"/>
<path d="M61.9727 184.448C61.9727 184.448 61.9228 186.267 63.039 186.846C64.1552 187.425 67.4408 188.082 66.1452 189.177C65.4018 189.806 62.0798 189.176 61.1359 189.121C60.1919 189.066 59.283 189.456 58.616 188.735C57.8822 187.942 58.8427 184.264 58.8427 184.264C58.8427 184.264 59.6343 184.769 60.3679 184.791C61.425 184.824 61.9727 184.448 61.9727 184.448Z" fill="#131F2D"/>
<path d="M63.1968 181.444C62.3611 169.529 62.1641 161.489 58.6601 156.324C54.8252 150.671 44.5437 146.673 40.5793 146.423C34.1145 146.017 31.0683 147.052 31.0683 147.052C26.2155 157.911 33.8167 159.351 39.4392 159.648C39.6248 159.658 39.8113 159.669 39.9987 159.682C43.4027 159.913 49.4552 160.843 51.746 164.482C53.56 167.365 54.8188 171.411 55.3498 181.848C55.4518 183.85 57.0131 185.403 58.8763 185.349C58.8761 185.348 63.4975 185.729 63.1968 181.444Z" fill="#016EB9"/>
<path d="M54.021 182.057C54.1311 170.109 54.4758 164.01 51.1431 158.715C49.0019 155.313 45.7822 152.745 41.5729 151.083C38.5688 149.897 35.0354 149.169 31.071 148.919C24.6062 148.513 21.7012 147.672 21.7012 147.672C16.4691 161.572 35.608 158.621 40.5907 164.543C42.7619 167.123 45.4518 172.031 45.9826 182.467C46.0845 184.47 47.6459 186.023 49.5089 185.968C49.5089 185.968 53.981 186.426 54.021 182.057Z" fill="#016EB9"/>
<path d="M53.9878 170.322C53.9846 170.25 53.6561 163.162 52.5522 160.686C51.1557 157.553 47.1022 154.282 42.9139 152.908L42.9378 152.835C47.1448 154.215 51.2178 157.504 52.6224 160.654C53.7322 163.144 54.0615 170.247 54.0647 170.319L53.9878 170.322Z" fill="#020202"/>
<path d="M26.2872 125.603C26.2872 125.603 29.0376 120.545 35.3778 122.097C41.718 123.649 44.3012 130.618 44.7553 147.351C44.7553 147.351 38.8855 147.119 23.4641 152.623C21.6374 153.275 18.958 152.758 19.8958 149.409C21.6391 143.185 23.3279 130.77 26.2872 125.603Z" fill="#00A3FE"/>
<path d="M20.6846 126.988L25.8341 128.4C25.8341 128.4 37.2381 132.029 40.4306 132.057C43.623 132.086 44.9441 129.574 44.9441 129.574C44.9441 129.574 42.3694 124.871 36.9728 122.652C36.4659 122.443 35.9347 122.257 35.378 122.098C34.4432 121.831 33.4933 121.598 32.5422 121.587C21.7773 121.454 20.6846 126.988 20.6846 126.988Z" fill="#00A3FE"/>
<path d="M20.6846 126.988C20.697 127.561 22.2528 128.023 24.1595 128.02C26.0662 128.016 27.6017 127.548 27.5893 126.974C27.5768 126.401 26.0211 125.939 24.1143 125.943C22.2078 125.946 20.6722 126.414 20.6846 126.988Z" fill="#131F2D"/>
<path d="M30.0364 121.665C30.7212 121.515 31.2141 121.006 31.4284 120.29L32.1001 118.047L32.2949 117.396L33.4409 113.568L33.5231 117.405L33.5721 119.708L33.5861 120.365C33.5974 120.901 33.6165 121.584 34.1425 121.783C34.1425 121.783 34.8136 123.017 34.0207 123.355C32.7761 123.884 30.0326 121.666 30.0364 121.665Z" fill="#FF7955"/>
<path d="M28.352 113.967C28.352 113.967 28.6393 114.534 28.632 115.871C28.6213 117.828 30.7443 118.017 31.1057 117.353C31.1505 117.27 30.282 114.204 30.282 114.204L29.5647 113.992L28.352 113.967Z" fill="#131F2D"/>
<path d="M32.0907 117.984C32.0933 118.005 32.0962 118.026 32.0999 118.047C32.293 119.267 33.5649 119.716 33.5649 119.716L33.5717 119.708L33.5227 117.405C33.1364 117.296 32.5913 117.199 32.2947 117.396C32.1397 117.499 32.0528 117.682 32.0907 117.984Z" fill="#131F2D"/>
<path d="M33.5488 118.302C35.3656 117.938 36.4487 115.702 35.9681 113.309C35.4874 110.916 33.6249 109.271 31.808 109.635C29.9912 110 28.908 112.236 29.3887 114.629C29.8694 117.022 31.7319 118.667 33.5488 118.302Z" fill="#FF7955"/>
<path d="M33.1304 110.314C33.0743 110.472 34.1428 112.523 30.4867 114.167C26.8304 115.811 27.8464 110.191 30.6143 109.255C34.6111 107.901 35.9435 110.649 35.8234 111.815C35.7035 112.981 33.1304 110.314 33.1304 110.314Z" fill="#131F2D"/>
<path d="M27.4312 109.143C27.4312 109.143 29.0523 109.724 28.235 110.963C27.4178 112.202 24.6235 113.463 25.8129 114.795C27.0022 116.128 28.2783 118.245 26.9296 118.954C25.5811 119.664 24.6559 119.812 24.3867 121.201C24.1176 122.59 21.3439 122.598 21.1852 121.086C21.0266 119.574 18.4886 118.951 19.0971 117.338C19.7057 115.724 21.7282 113.881 21.8644 111.97C22.0002 110.06 26.1326 108.715 27.4312 109.143Z" fill="#131F2D"/>
<path d="M30.7257 113.343C30.7257 113.343 29.6247 115.557 30.6197 117.195C30.6197 117.195 29.4521 116.404 29.3318 116.015C29.2114 115.627 29.0872 114.133 29.0872 114.133L30.7257 113.343Z" fill="#131F2D"/>
<path d="M30.063 115.444C30.5238 115.712 31.0441 115.6 31.2252 115.194C31.4063 114.788 31.1798 114.242 30.719 113.975C30.2583 113.707 29.7379 113.82 29.5568 114.225C29.3754 114.631 29.6022 115.177 30.063 115.444Z" fill="#FF7955"/>
<path d="M22.2076 122.336L22.1363 122.246C22.4344 122.009 22.5881 121.783 22.6059 121.555C22.6335 121.202 22.335 120.877 22.0192 120.533C21.7126 120.199 21.3957 119.853 21.3507 119.447C21.2936 118.929 21.8342 118.653 22.3573 118.385C22.7577 118.18 23.1718 117.968 23.2677 117.663C23.3127 117.519 23.2876 117.362 23.1913 117.181C23.0729 116.959 22.9466 116.764 22.8245 116.575C22.2719 115.722 21.8353 115.048 22.7693 112.95C23.9553 110.285 25.3719 109.756 26.7257 109.582C26.8895 109.561 27.4043 109.648 27.4835 109.93C27.5629 110.213 27.1707 110.549 26.3178 110.929C26.3088 110.934 24.9188 111.747 24.6419 113.69C24.4985 114.696 25.2624 115.491 25.9365 116.191C26.5617 116.841 27.1017 117.403 26.6024 117.919C26.3305 118.2 26.005 118.406 25.6905 118.605C24.8965 119.108 24.1469 119.582 24.4432 121.191L24.3304 121.212C24.0199 119.527 24.8017 119.032 25.629 118.508C25.938 118.313 26.2577 118.111 26.5199 117.839C26.9426 117.402 26.4621 116.903 25.8538 116.271C25.1959 115.587 24.3773 114.736 24.5284 113.674C24.8136 111.674 26.2517 110.835 26.2662 110.827C27.3497 110.344 27.401 110.061 27.3732 109.961C27.3199 109.771 26.897 109.676 26.7405 109.696C25.4198 109.866 24.0373 110.384 22.8742 112.997C21.9652 115.039 22.3871 115.69 22.9209 116.513C23.0444 116.704 23.172 116.901 23.2926 117.127C23.4041 117.337 23.4319 117.523 23.3773 117.697C23.2671 118.049 22.8311 118.272 22.4098 118.487C21.8989 118.749 21.4165 118.995 21.4651 119.435C21.5058 119.804 21.81 120.135 22.104 120.455C22.4374 120.819 22.7521 121.161 22.7206 121.564C22.6997 121.825 22.532 122.078 22.2076 122.336Z" fill="white"/>
<path d="M30.1249 112.858L30.0852 112.734C31.4599 112.294 31.8607 110.878 31.8646 110.863L31.9898 110.898C31.986 110.912 31.5659 112.397 30.1249 112.858Z" fill="white"/>
<path d="M35.794 115.94C35.041 116.007 34.3629 115.28 34.2821 114.321C34.2389 113.807 34.3751 113.306 34.6558 112.947C34.8793 112.66 35.1799 112.487 35.5019 112.459C36.255 112.392 36.9331 113.119 37.0138 114.078C37.0571 114.593 36.9209 115.093 36.6402 115.452C36.4663 115.675 36.2462 115.829 36.0054 115.9C35.9364 115.92 35.8657 115.934 35.794 115.94ZM34.7172 113.002C34.4502 113.344 34.3209 113.822 34.362 114.313C34.4386 115.226 35.078 115.917 35.7874 115.855C36.0882 115.828 36.3691 115.666 36.5788 115.397C36.8458 115.056 36.9751 114.578 36.9338 114.086C36.8571 113.174 36.2178 112.483 35.5084 112.545C35.4416 112.551 35.3759 112.564 35.3116 112.583C35.0866 112.649 34.8804 112.794 34.7172 113.002Z" fill="#364154"/>
<path d="M32.5542 116.388C31.8011 116.455 31.123 115.729 31.0423 114.769C30.9991 114.255 31.1353 113.754 31.416 113.395C31.6395 113.109 31.9401 112.935 32.2621 112.907C33.0152 112.84 33.6933 113.567 33.774 114.526C33.8173 115.041 33.6811 115.541 33.4004 115.9C33.2267 116.123 33.0064 116.277 32.7658 116.348C32.6968 116.368 32.6259 116.382 32.5542 116.388ZM31.4774 113.45C31.2104 113.792 31.0809 114.27 31.1222 114.761C31.1988 115.674 31.8382 116.365 32.5476 116.302C32.8482 116.276 33.1291 116.113 33.3389 115.845C33.606 115.504 33.7353 115.026 33.6939 114.534C33.6173 113.622 32.9779 112.931 32.2686 112.993C32.2018 112.999 32.136 113.012 32.0718 113.031C31.847 113.097 31.6406 113.242 31.4774 113.45Z" fill="#364154"/>
<path d="M34.7044 114.367C34.7166 114.363 34.7269 114.354 34.7316 114.34C34.7393 114.317 34.7286 114.293 34.7078 114.285C34.6871 114.276 34.1922 114.088 33.497 114.419C33.4767 114.428 33.4677 114.454 33.4764 114.476C33.4854 114.497 33.509 114.508 33.5293 114.498C34.1933 114.182 34.6753 114.364 34.68 114.366C34.6881 114.369 34.6967 114.369 34.7044 114.367Z" fill="#364154"/>
<path d="M35.1765 116.219C35.1765 116.219 34.0824 116.571 32.8752 116.48C32.8752 116.48 33.0814 117.675 34.2939 117.401C34.999 117.242 35.1765 116.219 35.1765 116.219Z" fill="#E9633E"/>
<path d="M35.1765 116.219C35.1765 116.219 34.9708 116.535 34.3483 116.716C33.7259 116.897 32.8752 116.48 32.8752 116.48C32.8752 116.48 34.3019 116.481 35.1765 116.219Z" fill="white"/>
<path d="M33.0131 113.924C33.033 113.912 33.0473 113.89 33.0499 113.863C33.0546 113.818 33.0249 113.778 32.9831 113.773C32.9585 113.77 32.3956 113.642 32.092 114.28C32.0729 114.321 32.086 114.37 32.123 114.391C32.1601 114.413 32.1986 114.392 32.226 114.358C32.5007 114.015 32.9454 113.933 32.9658 113.935C32.9831 113.937 32.9994 113.933 33.0131 113.924Z" fill="#080435"/>
<path d="M32.654 114.963C32.6964 115.152 32.8345 115.28 32.9625 115.246C33.0906 115.213 33.16 115.033 33.1176 114.843C33.0752 114.653 32.9371 114.526 32.809 114.559C32.681 114.592 32.6116 114.773 32.654 114.963Z" fill="#080435"/>
<path d="M35.7349 113.563C35.7579 113.56 35.7788 113.545 35.7908 113.522C35.811 113.482 35.7979 113.433 35.7611 113.411C35.7395 113.398 35.2639 113.049 34.7573 113.515C34.7254 113.544 34.72 113.595 34.7468 113.63C34.7736 113.665 34.8164 113.662 34.8539 113.641C35.2292 113.437 35.6694 113.543 35.6874 113.554C35.7026 113.563 35.7193 113.566 35.7349 113.563Z" fill="#080435"/>
<path d="M35.0354 114.376C35.0074 114.569 35.0902 114.743 35.2202 114.765C35.3504 114.787 35.4784 114.648 35.5065 114.455C35.5345 114.262 35.4517 114.088 35.3217 114.066C35.1915 114.044 35.0635 114.183 35.0354 114.376Z" fill="#080435"/>
<path d="M44.4943 190.218L44.2851 190.196C44.1221 190.179 44.0005 189.889 44.0134 189.549L45.6355 146.525L48.7184 144.882L44.9812 189.351C44.9538 189.86 44.7384 190.243 44.4943 190.218Z" fill="#131F2D"/>
<path d="M91.4235 190.218L91.6327 190.196C91.7956 190.179 91.9173 189.889 91.9044 189.549L90.2823 146.525L87.1994 144.882L90.9366 189.351C90.9638 189.86 91.1792 190.243 91.4235 190.218Z" fill="#131F2D"/>
<path d="M66.6983 152.461C82.1714 152.461 94.7149 150.714 94.7149 148.56C94.7149 146.405 82.1714 144.658 66.6983 144.658C51.2251 144.658 38.6816 146.405 38.6816 148.56C38.6816 150.714 51.2251 152.461 66.6983 152.461Z" fill="#B8C1C9"/>
<path d="M94.7149 146.76H38.6816V148.56H94.7149V146.76Z" fill="#B8C1C9"/>
<path d="M66.6983 150.662C82.1714 150.662 94.7149 148.915 94.7149 146.76C94.7149 144.605 82.1714 142.859 66.6983 142.859C51.2251 142.859 38.6816 144.605 38.6816 146.76C38.6816 148.915 51.2251 150.662 66.6983 150.662Z" fill="#D5D6DA"/>
<path d="M86.7592 149.587C86.7089 149.587 86.665 149.55 86.6577 149.498C86.6495 149.442 86.6887 149.39 86.7448 149.382C89.0918 149.047 90.9657 148.661 92.3144 148.235C92.369 148.218 92.4262 148.248 92.4434 148.302C92.4605 148.356 92.4305 148.414 92.3763 148.431C91.0169 148.86 89.1318 149.249 86.7739 149.586C86.7688 149.586 86.7639 149.587 86.7592 149.587Z" fill="#131F2D"/>
<path d="M43.4327 149.038C43.4254 149.038 43.4181 149.037 43.4106 149.035C43.298 149.011 40.6425 148.427 39.6011 147.872C39.5509 147.845 39.5321 147.783 39.5587 147.733C39.5854 147.683 39.648 147.664 39.6976 147.69C40.7143 148.232 43.4271 148.829 43.4543 148.835C43.5098 148.847 43.5449 148.902 43.5327 148.957C43.5226 149.005 43.48 149.038 43.4327 149.038Z" fill="#131F2D"/>
<path d="M42.0842 142.685C42.0842 142.685 45.4501 141.321 46.5648 141.814C47.6795 142.307 48.7572 143.844 48.0058 143.696C47.2545 143.548 46.343 143.074 46.343 143.074C46.343 143.074 48.2463 144.186 47.8121 144.552C47.3778 144.918 45.7311 143.935 45.7311 143.935C45.7311 143.935 47.8979 145.451 47.3834 145.654C46.8691 145.858 45.2304 144.693 45.2304 144.693C45.2304 144.693 47.1941 146.191 46.5914 146.412C45.9886 146.632 44.9761 145.162 44.5419 145.529C44.1076 145.895 43.0334 147.526 41.9395 146.351L42.0842 142.685Z" fill="#FF7955"/>
<path d="M28.2693 142.868C32.0857 146.465 35.8358 147.163 41.9394 146.352L42.0846 142.685C37.6406 143.275 34.5357 140.725 31.9772 138.314C28.3383 134.883 27.2698 129.571 26.9666 127.167C26.9379 126.939 26.7951 126.747 26.5943 126.668C25.9279 126.406 24.2732 125.974 21.7689 126.759C21.546 126.829 21.3963 127.055 21.4066 127.304C21.5923 131.874 23.4632 138.338 28.2693 142.868Z" fill="#FF7955"/>
<g opacity="0.3">
<path d="M29.0224 141.575C28.9977 141.575 28.9727 141.574 28.9472 141.571C28.6093 141.544 28.2522 141.33 27.9918 141C27.5439 140.431 27.4985 139.674 27.8907 139.314C28.0473 139.17 28.2511 139.103 28.4819 139.122C28.8198 139.15 29.1769 139.363 29.4375 139.694C29.8857 140.263 29.9311 141.02 29.5386 141.38C29.3994 141.508 29.2221 141.575 29.0224 141.575ZM28.4083 139.337C28.2633 139.337 28.1363 139.384 28.0383 139.474C27.7278 139.759 27.7837 140.383 28.1631 140.865C28.3867 141.149 28.6864 141.332 28.9648 141.354C29.1324 141.369 29.2806 141.321 29.3913 141.22C29.7018 140.935 29.6457 140.311 29.2665 139.829C29.0429 139.545 28.7432 139.362 28.4646 139.339C28.4455 139.338 28.4267 139.337 28.4083 139.337Z" fill="#EC865C"/>
</g>
<path d="M48.6197 146.995H60.0549C60.2942 146.995 60.5069 146.831 60.5824 146.589L62.9587 138.952C63.0784 138.568 62.8106 138.171 62.4311 138.171H51.4345C50.9332 138.171 50.4885 138.513 50.3303 139.022L48.0923 146.214C47.9726 146.598 48.2405 146.995 48.6197 146.995Z" fill="#131F2D"/>
<path d="M49.3374 146.995H60.7726C61.012 146.995 61.2246 146.831 61.3002 146.589L63.6765 138.952C63.7962 138.568 63.5281 138.171 63.1489 138.171H52.152C51.651 138.171 51.206 138.513 51.0478 139.022L48.8098 146.214C48.6904 146.598 48.9582 146.995 49.3374 146.995Z" fill="#131F2D"/>
<path d="M57.3497 142.333C57.3497 142.043 57.0388 141.925 56.7675 141.925C56.4962 141.925 56.0532 142.243 56.056 142.649C56.059 143.088 56.3774 143.145 56.6487 143.145C56.92 143.145 57.3497 142.702 57.3497 142.333Z" fill="#DAEBE8"/>
<path d="M45.1844 145.916H60.7782V146.995H44.8324C44.6313 146.995 44.4686 146.833 44.4686 146.632C44.4686 146.237 44.7891 145.916 45.1844 145.916Z" fill="#131F2D"/>
<path d="M50.1519 142.03L50.0772 142.012C50.1003 141.919 50.6459 139.716 51.0137 139.004C51.3867 138.282 51.8441 138.14 51.8634 138.134L51.8854 138.208C51.8809 138.209 51.439 138.349 51.0822 139.04C50.7187 139.744 50.1577 142.008 50.1519 142.03Z" fill="#366F90"/>
<path d="M48.4604 145.955V145.878C48.8338 145.878 48.9261 145.711 48.9272 145.709L49.816 142.852L49.8896 142.874L48.9985 145.738C48.9916 145.753 48.8861 145.955 48.4604 145.955Z" fill="#366F90"/>
<g opacity="0.4">
<path d="M239.363 5.5575C239.363 5.5575 236.33 -0.71826 228.657 0.0681903C220.984 0.85464 221.897 7.14539 218.243 6.5556C214.589 5.96582 209.474 6.5556 208.377 10.4874C207.281 14.4192 202.348 12.2568 202.166 15.5986C201.983 18.9406 207.829 21.2996 214.589 18.3509C221.349 15.4022 224.637 20.6417 234.137 19.6929C243.638 18.744 244.815 17.5644 250.438 18.1542C256.061 18.744 255.928 14.6011 253.37 11.8487C250.812 9.0962 240.459 9.35836 239.363 5.5575Z" fill="#EAEAEA"/>
</g>
<path d="M33.1707 41.58C33.1707 41.58 35.0119 37.7695 39.6711 38.247C44.3301 38.7244 43.7755 42.5441 45.9942 42.1861C48.2129 41.828 51.3189 42.1861 51.9843 44.5734C52.65 46.9608 55.6451 45.6477 55.756 47.6769C55.8669 49.706 52.3171 51.1383 48.2127 49.348C44.1082 47.5574 42.1114 50.739 36.3431 50.1629C30.5747 49.5868 29.86 48.8705 26.4457 49.2288C23.0314 49.5868 23.1125 47.0715 24.6655 45.4001C26.2187 43.7288 32.5052 43.8878 33.1707 41.58Z" fill="#EAEAEA"/>
<path d="M265.228 28.0969C265.228 28.0969 263.448 24.4131 258.944 24.8747C254.439 25.3363 254.976 29.0291 252.831 28.6829C250.686 28.3366 247.683 28.6829 247.04 30.9909C246.396 33.2989 243.5 32.0294 243.393 33.9911C243.286 35.9529 246.718 37.3377 250.686 35.6066C254.654 33.8756 256.584 36.9514 262.161 36.3944C267.738 35.8373 268.429 35.145 271.729 35.4913C275.03 35.8375 274.952 33.4056 273.45 31.7899C271.949 30.1742 265.871 30.3281 265.228 28.0969Z" fill="#EAEAEA"/>
<path d="M113.511 4.29642C113.511 4.29642 111.566 0.271942 106.646 0.776126C101.725 1.28031 102.311 5.31464 99.9675 4.93629C97.6244 4.55815 94.3439 4.93628 93.6407 7.45763C92.9378 9.97898 89.7744 8.59226 89.6573 10.7355C89.5402 12.8787 93.2894 14.3915 97.6242 12.5003C101.959 10.6092 104.068 13.9694 110.16 13.361C116.253 12.7526 117.007 11.9962 120.614 12.3743C124.22 12.7524 124.134 10.0956 122.494 8.33076C120.854 6.56568 114.214 6.73388 113.511 4.29642Z" fill="#EAEAEA"/>
</svg>
