<svg width="421" height="422" viewBox="0 0 421 422" fill="none" xmlns="http://www.w3.org/2000/svg">
<g style="mix-blend-mode:luminosity" opacity="0.3">
<mask id="mask0_101_4" style="mask-type:alpha" maskUnits="userSpaceOnUse" x="0" y="0" width="520" height="422">
<path d="M519.369 0H0V421.22H519.369V0Z" fill="url(#paint0_linear_101_4)"/>
</mask>
<g mask="url(#mask0_101_4)">
<path d="M284.863 216.271C281.076 216.271 277.941 213.242 277.836 209.433C277.786 207.555 278.469 205.77 279.76 204.408C281.05 203.044 282.795 202.267 284.673 202.215C286.562 202.173 288.335 202.845 289.697 204.137C291.062 205.428 291.839 207.172 291.891 209.05C291.998 212.924 288.931 216.163 285.056 216.27C284.992 216.271 284.927 216.271 284.863 216.271ZM284.869 204.572C284.825 204.572 284.781 204.573 284.737 204.573C283.489 204.606 282.33 205.124 281.473 206.029C280.615 206.933 280.162 208.12 280.196 209.367C280.265 211.939 282.432 213.966 284.992 213.908C286.24 213.875 287.399 213.357 288.256 212.453C289.113 211.547 289.566 210.361 289.531 209.113C289.498 207.864 288.98 206.706 288.075 205.848C287.202 205.022 286.069 204.572 284.869 204.572Z" fill="url(#paint1_linear_101_4)"/>
<path d="M284.845 235.978C277.977 235.978 271.481 233.395 266.48 228.661C261.297 223.754 258.335 217.117 258.141 209.972C257.946 202.828 260.54 196.04 265.448 190.857C270.355 185.673 276.992 182.712 284.137 182.516C291.256 182.323 298.068 184.915 303.252 189.824C308.436 194.73 311.397 201.369 311.593 208.512C311.788 215.656 309.192 222.446 304.286 227.628C299.379 232.811 292.74 235.772 285.597 235.967C285.344 235.975 285.095 235.978 284.845 235.978ZM284.875 184.866C284.65 184.866 284.426 184.868 284.2 184.876C277.685 185.053 271.633 187.754 267.16 192.479C262.686 197.203 260.32 203.393 260.499 209.908C260.676 216.423 263.377 222.474 268.1 226.948C272.827 231.423 279.015 233.817 285.53 233.609C292.044 233.431 298.096 230.73 302.568 226.006C307.043 221.281 309.409 215.091 309.23 208.576C308.872 195.368 298.009 184.866 284.875 184.866Z" fill="url(#paint2_linear_101_4)"/>
<path d="M284.852 245.346C265.397 245.347 249.311 229.794 248.775 210.228C248.232 190.329 263.981 173.697 283.88 173.153C303.743 172.614 320.409 188.357 320.956 208.258C321.499 228.157 305.75 244.788 285.851 245.333C285.518 245.343 285.184 245.346 284.852 245.346ZM284.877 175.498C284.567 175.498 284.257 175.502 283.945 175.511C265.346 176.02 250.627 191.565 251.135 210.162C251.644 228.763 267.258 243.507 285.787 242.972C304.386 242.463 319.105 226.918 318.596 208.32C318.097 190.035 303.059 175.498 284.877 175.498Z" fill="url(#paint3_linear_101_4)"/>
<path d="M282.626 255.875C280.395 255.875 278.545 255.441 276.879 255.05C275.915 254.824 274.971 254.601 273.984 254.473C273.309 254.388 272.621 254.367 271.939 254.347C270.402 254.297 268.81 254.248 267.304 253.545C266.323 253.088 265.593 252.472 264.884 251.877C264.261 251.353 263.672 250.858 262.958 250.525C262.466 250.296 261.918 250.155 261.337 250.005C260.689 249.837 260.018 249.665 259.343 249.354C257.608 248.556 256.536 247.24 255.499 245.967C254.819 245.132 254.177 244.343 253.364 243.712C251.736 242.446 250.066 241.782 248.298 241.08C246.888 240.52 245.43 239.94 243.9 239.028C241.73 237.734 240.713 235.26 240.875 231.672C240.897 231.191 240.958 230.686 241.024 230.166C241.201 228.746 241.369 227.407 240.648 226.432C240.16 225.773 239.626 225.19 239.099 224.609C238.384 223.827 237.648 223.017 237.002 222.031C235.606 219.894 236.001 217.774 236.316 216.072C236.483 215.183 236.638 214.343 236.513 213.665C236.318 212.611 235.818 211.741 235.186 210.644C234.853 210.066 234.504 209.457 234.17 208.774C232.692 205.738 234.05 203.066 235.247 200.707C235.899 199.423 236.514 198.209 236.713 196.975C237.012 195.122 236.902 193.031 236.798 191.007C236.644 188.056 236.486 185.005 237.532 182.369C239.477 177.472 244.224 175.382 249.765 173.337C250.167 173.188 250.597 173.044 251.037 172.893C252.714 172.323 254.615 171.676 255.562 170.635C256.024 170.125 256.352 169.66 256.672 169.206C257.088 168.617 257.519 168.01 258.175 167.349C259.312 166.202 261.022 165.745 262.385 165.475C263.697 165.215 265.023 165.051 266.349 164.886C268.212 164.657 269.97 164.44 271.715 163.962C272.283 163.808 272.814 163.615 273.342 163.425C274.084 163.158 274.852 162.88 275.713 162.696C278.633 162.071 281.483 162.536 284.78 163.07C285.704 163.219 286.673 163.377 287.703 163.522C296.111 164.696 303.131 167.019 309.166 170.621C322.139 178.337 330.456 192.604 330.874 207.852C331.062 214.743 329.685 221.677 326.892 227.905C323.252 236.029 317.448 242.834 310.109 247.583C303.46 251.883 297.174 253.524 291.372 254.659C288.943 255.143 286.586 255.591 284.151 255.806C283.623 255.854 283.114 255.875 282.626 255.875ZM276.207 165.001C275.48 165.157 274.816 165.401 274.144 165.643C273.557 165.854 272.968 166.066 272.338 166.237C270.43 166.76 268.504 166.997 266.64 167.228C265.37 167.385 264.099 167.54 262.845 167.788C261.813 167.992 260.538 168.316 259.852 169.008C259.332 169.531 258.993 170.012 258.599 170.567C258.227 171.093 257.845 171.629 257.31 172.219C255.953 173.713 253.744 174.463 251.797 175.126C251.376 175.269 250.966 175.408 250.581 175.55C245.401 177.459 241.314 179.238 239.725 183.237C238.868 185.393 239.008 188.059 239.154 190.881C239.265 193.028 239.381 195.248 239.044 197.347C238.786 198.946 238.056 200.382 237.351 201.772C236.266 203.911 235.329 205.757 236.293 207.737C236.6 208.368 236.924 208.931 237.232 209.464C237.916 210.658 238.566 211.784 238.833 213.234C239.039 214.343 238.833 215.439 238.637 216.502C238.348 218.053 238.098 219.394 238.976 220.738C239.516 221.566 240.16 222.271 240.84 223.017C241.423 223.656 242.007 224.298 242.544 225.027C243.826 226.762 243.571 228.811 243.363 230.458C243.307 230.912 243.249 231.356 243.231 231.775C243.11 234.429 243.743 236.185 245.108 237.001C246.477 237.818 247.845 238.361 249.168 238.887C251.01 239.619 252.916 240.375 254.81 241.847C255.835 242.643 256.595 243.574 257.329 244.475C258.274 245.637 259.092 246.639 260.329 247.209C260.813 247.432 261.353 247.57 261.928 247.719C262.586 247.889 263.267 248.063 263.952 248.383C264.95 248.848 265.688 249.468 266.403 250.068C267.02 250.588 267.601 251.078 268.3 251.403C269.369 251.902 270.652 251.941 272.013 251.985C272.768 252.009 273.53 252.034 274.282 252.13C275.373 252.271 276.411 252.516 277.416 252.75C279.366 253.207 281.386 253.68 283.944 253.454C286.261 253.248 288.547 252.814 290.691 252.387C296.491 251.252 302.516 249.682 308.828 245.599C315.784 241.099 321.286 234.646 324.739 226.938C327.388 221.032 328.694 214.453 328.515 207.913C328.121 193.466 320.243 179.951 307.96 172.643C302.199 169.203 295.467 166.984 287.379 165.854C286.33 165.708 285.344 165.547 284.404 165.395C281.215 164.879 278.691 164.47 276.207 165.001Z" fill="url(#paint4_linear_101_4)"/>
<path d="M280.288 266.488C277.366 266.488 275.108 265.777 273.071 265.137C271.712 264.708 270.427 264.304 269.08 264.154C268.144 264.053 267.171 264.105 266.141 264.16C264.132 264.27 262.057 264.377 260.161 263.312C258.918 262.615 258.089 261.593 257.357 260.69C256.628 259.792 255.997 259.016 255.057 258.556C254.41 258.239 253.646 258.113 252.839 257.983C251.973 257.84 251.078 257.694 250.184 257.301C247.9 256.301 246.799 254.367 245.733 252.498C244.977 251.171 244.263 249.917 243.153 249.028C240.917 247.235 238.617 246.826 235.953 246.355C234.058 246.019 232.1 245.674 229.944 244.809C226.677 243.496 225.793 239.811 227.58 234.948C227.793 234.365 228.106 233.722 228.435 233.051C229.464 230.953 230.128 229.397 229.28 228.488C228.53 227.681 227.653 227.04 226.725 226.362C225.622 225.553 224.48 224.718 223.513 223.561C221.092 220.662 222.313 217.729 223.205 215.587C223.66 214.498 224.089 213.468 223.943 212.77C223.693 211.558 222.861 210.679 221.709 209.462C221.074 208.791 220.355 208.03 219.65 207.105C216.863 203.448 219.294 200.268 221.245 197.715C222.417 196.183 223.629 194.597 223.81 193.008C224.072 190.701 223.097 187.754 222.155 184.904C221.049 181.558 219.904 178.099 220.598 175.228C222.144 168.833 228.596 167.605 236.764 166.049C237.359 165.934 237.808 165.861 238.277 165.782C240.455 165.421 243.436 164.928 244.263 163.505C244.674 162.799 244.805 162.171 244.954 161.445C245.12 160.646 245.307 159.74 245.899 158.74C246.99 156.895 249.187 156.38 251.192 156.119C252.572 155.939 253.959 155.862 255.342 155.785C258.024 155.639 260.559 155.499 262.975 154.605C263.708 154.337 264.373 153.968 265.076 153.574C265.886 153.122 266.726 152.654 267.714 152.322C270.873 151.264 273.918 151.779 277.768 152.426C279.374 152.696 281.193 153.002 283.212 153.221C291.298 154.09 301.812 155.719 311.428 160.624C329.046 169.569 340.329 187.542 340.874 207.524C341.107 216.065 339.367 224.643 335.84 232.337C331.236 242.386 323.935 250.711 314.727 256.413C306.206 261.688 298.755 263.177 292.768 264.372L289.295 265.1C287.1 265.584 284.829 266.083 282.494 266.357C281.719 266.449 280.984 266.488 280.288 266.488ZM267.896 261.739C268.373 261.739 268.854 261.757 269.336 261.811C270.917 261.987 272.371 262.445 273.78 262.888C276.19 263.646 278.685 264.432 282.223 264.015C284.44 263.755 286.651 263.27 288.789 262.797L292.308 262.059C298.11 260.902 305.328 259.459 313.487 254.406C322.299 248.949 329.286 240.979 333.697 231.354C337.074 223.986 338.742 215.769 338.517 207.589C338.004 188.76 326.953 171.151 310.361 162.725C301.085 157.994 290.846 156.413 282.961 155.565C280.874 155.34 279.016 155.028 277.379 154.751C273.712 154.134 271.065 153.687 268.464 154.558C267.684 154.819 266.977 155.213 266.227 155.632C265.476 156.052 264.699 156.487 263.792 156.818C261.045 157.832 258.213 157.988 255.474 158.137C254.149 158.211 252.821 158.281 251.498 158.454C250.143 158.631 248.51 158.96 247.933 159.936C247.542 160.6 247.414 161.211 247.268 161.921C247.1 162.731 246.91 163.65 246.306 164.689C244.921 167.07 241.454 167.644 238.667 168.108C238.218 168.183 237.786 168.254 237.387 168.331C229.305 169.869 224.083 170.863 222.894 175.781C222.36 177.997 223.395 181.131 224.398 184.161C225.421 187.253 226.479 190.452 226.157 193.273C225.903 195.509 224.489 197.359 223.123 199.146C221.024 201.894 219.914 203.55 221.531 205.673C222.159 206.499 222.803 207.18 223.426 207.838C224.683 209.167 225.87 210.421 226.257 212.288C226.55 213.7 225.958 215.119 225.386 216.493C224.413 218.828 223.923 220.367 225.326 222.046C226.108 222.983 227.087 223.699 228.123 224.457C229.098 225.172 230.108 225.911 231.011 226.88C233.03 229.049 231.601 231.963 230.555 234.091C230.265 234.681 229.985 235.246 229.795 235.761C229.175 237.451 228.033 241.499 230.827 242.62C232.755 243.394 234.592 243.719 236.366 244.033C239.224 244.539 241.925 245.016 244.63 247.188C246.091 248.357 246.951 249.868 247.785 251.33C248.738 253.007 249.564 254.453 251.133 255.141C251.754 255.412 252.467 255.53 253.223 255.654C254.163 255.808 255.135 255.968 256.094 256.436C257.501 257.125 258.398 258.229 259.189 259.203C259.846 260.013 260.467 260.778 261.319 261.255C262.614 261.984 264.269 261.897 266.017 261.805C266.632 261.772 267.26 261.739 267.896 261.739Z" fill="url(#paint5_linear_101_4)"/>
<path d="M277.93 277.147C274.275 277.147 271.563 276.147 269.114 275.244C267.435 274.625 265.849 274.041 264.158 273.872C262.959 273.754 261.694 273.887 260.357 274.024C257.879 274.28 255.315 274.545 253.043 273.132C251.549 272.206 250.65 270.81 249.857 269.579C249.047 268.319 248.345 267.231 247.156 266.633C246.333 266.22 245.353 266.112 244.314 265.995C243.231 265.876 242.111 265.754 241.007 265.284C238.192 264.088 237.05 261.545 235.945 259.088C235.125 257.265 234.351 255.543 232.938 254.388C230.121 252.085 227.149 251.914 223.707 251.716C221.386 251.584 218.754 251.433 215.915 250.582C214.311 250.102 213.153 249.084 212.571 247.641C211.638 245.336 212.246 242.072 214.281 238.448C214.672 237.749 215.226 236.967 215.81 236.149C217.624 233.604 218.925 231.57 217.856 230.52C216.846 229.526 215.592 228.827 214.263 228.086C212.781 227.259 211.249 226.404 209.985 225.078C206.558 221.485 208.606 217.859 210.099 215.214C210.806 213.962 211.536 212.668 211.366 211.907C211.052 210.497 209.879 209.545 208.259 208.228C207.284 207.436 206.18 206.538 205.081 205.375C201.069 201.129 204.473 197.572 207.209 194.716C208.947 192.899 210.745 191.021 210.9 189.067C211.114 186.411 209.195 182.718 207.34 179.148C205.238 175.101 203.252 171.278 203.683 168.09C204.717 160.473 212.207 159.814 222.575 158.901L224.041 158.771C224.496 158.73 224.993 158.696 225.514 158.661C228.207 158.478 232.277 158.201 233.03 156.364C233.404 155.449 233.357 154.627 233.305 153.677C233.246 152.633 233.178 151.448 233.714 150.104C234.849 147.26 238.432 146.944 239.963 146.808C241.552 146.666 243.146 146.652 244.688 146.638C248.076 146.605 251.278 146.575 254.264 145.285C255.162 144.898 255.944 144.346 256.775 143.76C257.679 143.123 258.615 142.463 259.752 141.986C263.266 140.51 266.741 141.119 271.144 141.887C273.334 142.268 275.818 142.702 278.725 142.962C289.627 143.933 302.218 145.41 313.709 150.685C335.616 160.699 350.204 182.897 350.868 207.239C351.147 217.426 349.042 227.651 344.78 236.805C339.302 248.585 330.271 258.697 319.346 265.278C309.367 271.289 301.147 272.83 294.543 274.068C293.425 274.277 292.36 274.476 291.356 274.688L290.782 273.606L291.035 274.759C289.991 274.988 288.955 275.241 287.918 275.492C285.626 276.049 283.256 276.626 280.818 276.954C279.789 277.086 278.832 277.147 277.93 277.147ZM263.167 271.468C263.574 271.468 263.981 271.485 264.389 271.524C266.383 271.724 268.106 272.358 269.929 273.03C272.862 274.113 275.905 275.225 280.502 274.61C282.818 274.299 285.128 273.736 287.361 273.193C288.415 272.937 289.47 272.681 290.53 272.447L290.874 272.372C291.894 272.158 292.973 271.954 294.11 271.742C300.529 270.54 308.516 269.042 318.131 263.251C328.656 256.909 337.361 247.162 342.641 235.804C346.749 226.979 348.778 217.121 348.508 207.297C347.869 183.849 333.822 162.467 312.726 152.823C301.576 147.706 289.22 146.26 278.516 145.307C275.511 145.04 272.976 144.595 270.739 144.206C266.561 143.476 263.543 142.948 260.664 144.156L260.209 143.068L260.664 144.156C259.765 144.534 258.973 145.092 258.135 145.684C257.243 146.313 256.32 146.962 255.199 147.445C251.776 148.926 248.184 148.957 244.71 148.99C243.215 149.005 241.668 149.019 240.17 149.152C237.598 149.38 236.323 149.925 235.904 150.972C235.563 151.828 235.607 152.621 235.659 153.538C235.722 154.618 235.791 155.841 235.213 157.251C233.902 160.448 229.146 160.772 225.674 161.009C225.17 161.043 224.69 161.076 224.25 161.114L222.782 161.244C211.988 162.194 206.767 162.896 206.021 168.401C205.69 170.848 207.593 174.511 209.432 178.055C211.442 181.921 213.518 185.918 213.251 189.25C213.028 192.041 210.935 194.226 208.911 196.341C205.651 199.747 204.547 201.371 206.792 203.75C207.786 204.802 208.782 205.61 209.744 206.392C211.583 207.887 213.172 209.179 213.665 211.389C214.033 213.036 213.119 214.656 212.152 216.369C210.482 219.324 209.619 221.275 211.688 223.445C212.707 224.512 214.02 225.246 215.41 226.02C216.815 226.805 218.269 227.615 219.506 228.833C222.094 231.379 219.571 234.924 217.727 237.512C217.198 238.256 216.691 238.963 216.335 239.597C214.683 242.54 214.106 245.148 214.755 246.753C215.069 247.53 215.67 248.042 216.59 248.317C219.162 249.088 221.54 249.223 223.839 249.356C227.53 249.568 231.016 249.767 234.428 252.556C236.271 254.062 237.198 256.124 238.093 258.116C239.095 260.346 239.96 262.274 241.926 263.109C242.711 263.442 243.612 263.541 244.567 263.648C245.768 263.78 247.008 263.916 248.211 264.521C249.975 265.41 250.964 266.944 251.837 268.297C252.559 269.418 253.242 270.478 254.285 271.125C255.869 272.11 257.926 271.898 260.11 271.673C261.114 271.574 262.137 271.468 263.167 271.468Z" fill="url(#paint6_linear_101_4)"/>
<path d="M275.556 287.824C271.164 287.824 267.993 286.533 265.124 285.365C263.134 284.555 261.255 283.792 259.225 283.605C257.752 283.473 256.13 283.694 254.564 283.908C251.62 284.313 248.571 284.727 245.933 282.977C244.198 281.827 243.27 280.141 242.375 278.511C241.516 276.949 240.703 275.473 239.25 274.725C238.245 274.21 237.042 274.119 235.766 274.025C234.469 273.928 233.126 273.827 231.818 273.282C228.488 271.896 227.302 268.755 226.155 265.72C225.275 263.393 224.445 261.193 222.719 259.766C219.309 256.943 215.827 257.002 211.445 257.081C208.6 257.134 205.375 257.186 201.846 256.354C199.935 255.902 198.587 254.785 197.951 253.126C196.892 250.368 197.987 246.328 200.954 242.038C201.54 241.19 202.341 240.266 203.186 239.286C204.8 237.416 207.011 234.858 206.896 233.385C206.88 233.176 206.814 232.895 206.45 232.587C205.207 231.534 203.679 230.837 202.06 230.1C200.056 229.188 197.987 228.246 196.388 226.544C192.238 222.125 195.018 217.914 197.048 214.839C197.998 213.401 198.979 211.914 198.777 211.052C198.376 209.342 196.79 208.251 194.597 206.739C193.348 205.88 191.935 204.906 190.497 203.634C188.859 202.188 188.06 200.719 188.051 199.141C188.035 196.35 190.484 194.133 193.078 191.786C195.427 189.661 197.855 187.466 197.984 185.126C198.147 182.131 195.256 177.715 192.46 173.443C189.429 168.814 186.568 164.442 186.774 160.931C187.292 152.055 196.231 151.863 208.604 151.6L211.09 151.545C211.589 151.534 212.134 151.53 212.711 151.527C216.06 151.512 221.125 151.487 221.822 149.188C222.173 148.035 221.946 147.005 221.684 145.817C221.403 144.538 221.084 143.089 221.559 141.428C222.573 137.882 226.872 137.623 228.706 137.512C230.523 137.4 232.346 137.444 234.106 137.482C238.176 137.576 242.021 137.661 245.559 135.968C246.624 135.461 247.525 134.725 248.48 133.943C249.482 133.123 250.519 132.274 251.804 131.653C255.698 129.771 259.438 130.444 264.612 131.374C267.355 131.867 270.463 132.424 274.236 132.715C289.49 133.889 303.16 135.304 315.992 140.762C342.448 151.975 360.057 177.959 360.85 206.959C361.171 218.795 358.705 230.662 353.711 241.278C347.3 254.922 336.733 266.596 323.958 274.147C312.311 281.031 302.702 282.7 295.686 283.919C294.118 284.192 292.664 284.443 291.329 284.729L291.076 284.787C289.581 285.125 288.22 285.481 286.855 285.839C284.36 286.492 281.781 287.168 279.122 287.555C277.849 287.742 276.663 287.824 275.556 287.824ZM258.276 281.205C258.662 281.205 259.052 281.221 259.438 281.256C261.82 281.474 263.857 282.305 266.014 283.181C269.487 284.594 273.071 286.056 278.785 285.22C281.313 284.851 283.828 284.192 286.262 283.554C287.65 283.192 289.04 282.827 290.442 282.51L290.837 282.421C292.202 282.129 293.686 281.871 295.287 281.593C302.124 280.406 311.486 278.78 322.761 272.116C335.133 264.803 345.367 253.493 351.579 240.273C356.417 229.99 358.808 218.492 358.493 207.023C357.725 178.943 340.682 153.787 315.072 142.934C302.57 137.615 289.101 136.223 274.057 135.067C270.166 134.767 266.996 134.199 264.197 133.696C259.286 132.814 256.04 132.23 252.832 133.778C251.799 134.277 250.915 135.001 249.976 135.769C248.956 136.604 247.899 137.468 246.578 138.097C242.532 140.032 238.22 139.933 234.054 139.842C232.341 139.803 230.572 139.763 228.849 139.867C225.676 140.059 224.222 140.699 223.828 142.078C223.517 143.164 223.735 144.158 223.989 145.311C224.28 146.633 224.61 148.133 224.08 149.877C222.876 153.84 217.007 153.869 212.722 153.889C212.161 153.892 211.63 153.895 211.145 153.906L208.653 153.961C195.73 154.236 189.501 154.652 189.126 161.071C188.968 163.803 191.745 168.047 194.43 172.152C197.434 176.743 200.542 181.488 200.336 185.257C200.157 188.565 197.362 191.093 194.66 193.538C192.565 195.435 190.396 197.393 190.407 199.128C190.412 199.996 190.951 200.893 192.056 201.868C193.388 203.044 194.74 203.975 195.931 204.796C198.362 206.47 200.461 207.916 201.071 210.512C201.506 212.365 200.293 214.197 199.014 216.138C196.729 219.599 195.432 222.08 198.106 224.928C199.384 226.289 201.157 227.098 203.033 227.952C204.728 228.723 206.48 229.521 207.972 230.786C208.732 231.43 209.173 232.265 209.245 233.201C209.435 235.654 207.165 238.284 204.968 240.826C204.166 241.757 203.406 242.635 202.891 243.379C200.41 246.963 199.386 250.29 200.149 252.278C200.504 253.203 201.236 253.783 202.386 254.057C205.624 254.821 208.561 254.766 211.399 254.721C215.889 254.635 220.136 254.567 224.22 257.946C226.428 259.772 227.409 262.371 228.358 264.885C229.416 267.688 230.331 270.107 232.72 271.103C233.677 271.502 234.775 271.583 235.937 271.67C237.389 271.78 238.892 271.891 240.321 272.624C242.417 273.7 243.444 275.567 244.436 277.373C245.231 278.816 245.98 280.18 247.23 281.008C249.127 282.267 251.609 281.928 254.239 281.568C255.564 281.392 256.918 281.205 258.276 281.205Z" fill="url(#paint7_linear_101_4)"/>
<path d="M273.177 298.513C268.051 298.513 264.414 296.931 261.126 295.499C258.829 294.498 256.657 293.555 254.286 293.349C252.536 293.2 250.615 293.508 248.761 293.806C245.35 294.354 241.824 294.919 238.828 292.839C236.857 291.474 235.863 289.441 234.901 287.473C233.96 285.548 233.071 283.73 231.343 282.83C230.151 282.21 228.72 282.139 227.207 282.062C225.696 281.987 224.134 281.909 222.623 281.288C218.789 279.715 217.556 275.984 216.364 272.376C215.429 269.54 214.541 266.86 212.499 265.155C208.491 261.808 204.378 262.091 199.171 262.449C195.796 262.681 191.975 262.944 187.754 262.127C185.554 261.702 184.023 260.491 183.329 258.627C182.125 255.391 183.684 250.671 187.609 245.675C188.377 244.698 189.428 243.618 190.539 242.473C192.692 240.256 195.641 237.224 195.529 235.512C195.514 235.283 195.442 234.975 195.008 234.631C193.483 233.424 191.606 232.676 189.618 231.887C187.22 230.932 184.741 229.944 182.828 228.06C177.69 222.998 181.294 218.116 183.926 214.552C185.152 212.89 186.421 211.173 186.185 210.205C185.73 208.335 183.886 207.213 181.336 205.658C179.666 204.639 177.769 203.483 175.85 201.849C173.894 200.181 172.953 198.514 172.972 196.747C173.007 193.67 175.936 191.284 179.038 188.76C181.955 186.385 184.97 183.931 185.066 181.197C185.18 177.861 181.3 172.731 177.551 167.769C173.6 162.547 169.871 157.612 169.868 153.772C169.866 151.078 170.628 149.026 172.192 147.498C176.001 143.783 183.872 143.985 194.754 144.262L198.114 144.343C198.656 144.356 199.249 144.379 199.877 144.403C203.894 144.56 209.98 144.802 210.627 142.005C210.954 140.597 210.542 139.352 210.066 137.912C209.569 136.406 209.005 134.699 209.419 132.736C210.313 128.519 215.308 128.319 217.44 128.235C219.497 128.151 221.557 128.246 223.55 128.337C228.296 128.553 232.778 128.761 236.865 126.666C238.099 126.035 239.118 125.11 240.197 124.132C241.299 123.131 242.439 122.097 243.873 121.335C248.158 119.058 252.339 119.825 258.122 120.886C261.401 121.487 265.118 122.169 269.747 122.485L270.539 122.54C286.541 123.632 303.09 124.763 318.28 130.863C348.804 143.082 369.922 173.558 370.828 206.699C371.197 220.182 368.364 233.694 362.638 245.772C355.294 261.276 343.194 274.511 328.568 283.036C315.165 290.848 304.426 292.583 296.587 293.848C294.645 294.162 292.882 294.445 291.299 294.79L290.872 294.886C289.204 295.273 287.553 295.728 285.902 296.185C283.165 296.942 280.334 297.725 277.419 298.176C275.9 298.41 274.49 298.513 273.177 298.513ZM253.329 290.951C253.716 290.951 254.101 290.965 254.489 290.998C257.248 291.236 259.59 292.255 262.07 293.336C266.094 295.089 270.258 296.899 277.065 295.843C279.846 295.412 282.608 294.648 285.281 293.91C286.964 293.443 288.647 292.978 290.352 292.584L290.803 292.482C292.425 292.129 294.231 291.837 296.219 291.517C303.876 290.279 314.362 288.585 327.387 280.995C341.607 272.707 353.372 259.838 360.515 244.759C366.083 233.014 368.836 219.875 368.476 206.76C367.597 174.548 347.074 144.924 317.408 133.05C302.564 127.088 286.205 125.97 270.386 124.892L269.593 124.837C264.83 124.51 261.043 123.816 257.705 123.204C252.189 122.191 248.546 121.524 244.986 123.414C243.815 124.038 242.83 124.929 241.789 125.875C240.644 126.914 239.46 127.988 237.947 128.762C233.299 131.14 228.289 130.913 223.448 130.69C221.505 130.601 219.5 130.511 217.542 130.588C213.781 130.739 212.1 131.502 211.735 133.222C211.453 134.561 211.85 135.768 212.313 137.168C212.827 138.722 213.409 140.482 212.934 142.534C211.844 147.232 204.88 146.958 199.791 146.758C199.179 146.735 198.598 146.711 198.067 146.7L194.699 146.619C184.78 146.366 176.938 146.166 173.843 149.184C172.757 150.244 172.229 151.744 172.231 153.768C172.232 156.817 175.894 161.66 179.435 166.343C183.619 171.877 187.572 177.104 187.426 181.276C187.294 185.082 183.855 187.882 180.529 190.589C177.986 192.658 175.356 194.8 175.334 196.772C175.323 197.796 175.991 198.869 177.381 200.054C179.157 201.566 180.969 202.67 182.564 203.643C185.369 205.353 187.792 206.829 188.478 209.65C188.974 211.689 187.444 213.76 185.824 215.955C182.792 220.062 181.06 223.007 184.485 226.382C186.056 227.931 188.211 228.789 190.491 229.696C192.548 230.516 194.675 231.362 196.472 232.783C197.329 233.462 197.817 234.353 197.883 235.36C198.062 238.117 195.098 241.168 192.23 244.119C191.163 245.216 190.155 246.254 189.462 247.135C186.157 251.341 184.653 255.43 185.538 257.806C185.936 258.872 186.832 259.547 188.201 259.814C192.117 260.571 195.622 260.334 199.007 260.098C204.291 259.739 209.278 259.393 214.011 263.347C216.57 265.484 217.605 268.614 218.605 271.641C219.723 275.026 220.689 277.95 223.52 279.11C224.655 279.575 225.952 279.641 227.324 279.71C229.025 279.795 230.782 279.883 232.431 280.74C234.849 281.998 235.953 284.256 237.02 286.439C237.887 288.211 238.705 289.885 240.172 290.901C242.387 292.438 245.3 291.974 248.387 291.479C250.006 291.218 251.667 290.951 253.329 290.951Z" fill="url(#paint8_linear_101_4)"/>
<path d="M270.796 309.21C264.933 309.21 260.833 307.336 257.126 305.64C254.406 304.396 252.057 303.321 249.342 303.099C247.304 302.933 245.095 303.332 242.952 303.712C239.081 304.399 235.076 305.112 231.725 302.708C229.52 301.129 228.459 298.751 227.432 296.451C226.408 294.162 225.444 291.998 223.436 290.943C222.051 290.216 220.393 290.162 218.637 290.107C216.915 290.052 215.134 289.994 213.426 289.302C209.093 287.545 207.814 283.227 206.573 279.053C205.623 275.851 204.642 272.541 202.276 270.552C197.67 266.678 192.911 267.181 186.885 267.82C182.979 268.233 178.556 268.701 173.643 267.902C171.2 267.503 169.444 266.165 168.703 264.135C167.369 260.481 169.441 254.949 174.249 249.337C175.202 248.225 176.507 246.986 177.889 245.675C180.585 243.116 184.276 239.611 184.163 237.655C184.148 237.4 184.066 237.057 183.556 236.673C181.704 235.284 179.446 234.455 177.057 233.577C174.335 232.58 171.523 231.547 169.287 229.598C162.966 224.085 167.645 218.23 170.74 214.355C172.274 212.433 173.861 210.446 173.59 209.361C173.059 207.245 170.879 206.029 167.866 204.351C165.841 203.222 163.547 201.944 161.212 200.077C158.905 198.23 157.798 196.391 157.826 194.455C157.877 191.105 161.301 188.525 164.927 185.794C168.447 183.144 172.089 180.402 172.147 177.262C172.214 173.584 167.12 167.483 162.625 162.1C157.759 156.271 153.161 150.766 152.965 146.593C152.824 143.595 153.57 141.332 155.247 139.679C159.376 135.603 168.449 136.146 181.009 136.9L185.127 137.142C185.713 137.175 186.357 137.22 187.037 137.27C191.741 137.606 198.849 138.123 199.445 134.799C199.744 133.127 199.115 131.591 198.447 129.967C197.738 128.239 196.935 126.279 197.293 124.023C198.066 119.155 203.745 119.015 206.171 118.956C208.475 118.896 210.78 119.045 213.009 119.186C218.427 119.533 223.544 119.857 228.181 117.357C229.586 116.6 230.721 115.488 231.923 114.309C233.127 113.13 234.37 111.91 235.952 111.009C240.629 108.344 245.257 109.205 251.658 110.399C255.466 111.109 259.783 111.915 265.266 112.254L268.78 112.469C286.102 113.518 304.014 114.603 320.579 120.962C355.577 134.361 379.784 168.71 380.814 206.436C381.227 221.565 378.031 236.719 371.575 250.26C363.301 267.622 349.669 282.416 333.188 291.921C317.979 300.69 306.071 302.49 297.373 303.804C295.052 304.156 293.049 304.459 291.276 304.85L290.797 304.96C288.849 305.417 286.927 305.971 285.003 306.527C282.009 307.389 278.912 308.282 275.722 308.797C273.946 309.085 272.311 309.21 270.796 309.21ZM248.355 300.703C248.747 300.703 249.14 300.717 249.534 300.749C252.663 301.004 255.308 302.214 258.107 303.495C262.681 305.586 267.409 307.75 275.346 306.47C278.397 305.979 281.423 305.106 284.35 304.263C286.311 303.697 288.272 303.132 290.26 302.666L290.764 302.551C292.619 302.141 294.658 301.834 297.021 301.477C305.532 300.19 317.186 298.429 332.01 289.883C348.08 280.615 361.376 266.185 369.447 249.249C375.743 236.044 378.859 221.262 378.455 206.505C377.452 169.722 353.855 136.231 319.736 123.168C303.51 116.938 285.782 115.865 268.639 114.827L265.123 114.614C259.494 114.265 254.91 113.41 251.228 112.723C245.1 111.58 241.053 110.822 237.121 113.064C235.807 113.813 234.724 114.875 233.578 115.999C232.312 117.239 231.001 118.522 229.302 119.438C224.07 122.258 218.376 121.893 212.862 121.545C210.682 121.407 208.425 121.265 206.231 121.317C201.869 121.424 199.956 122.316 199.625 124.396C199.371 125.999 199.985 127.493 200.633 129.074C201.363 130.853 202.191 132.869 201.768 135.218C200.798 140.629 192.415 140.024 186.869 139.626C186.2 139.577 185.57 139.531 184.994 139.498L180.868 139.257C169.369 138.567 160.285 138.021 156.905 141.361C155.732 142.518 155.215 144.195 155.323 146.486C155.482 149.865 160.036 155.318 164.439 160.591C169.661 166.843 174.593 172.751 174.51 177.309C174.43 181.597 170.322 184.69 166.349 187.682C163.336 189.951 160.221 192.296 160.188 194.492C160.171 195.636 161.012 196.894 162.689 198.235C164.869 199.979 167.072 201.207 169.017 202.291C172.282 204.109 175.1 205.682 175.879 208.79C176.435 211.007 174.651 213.241 172.585 215.829C168.742 220.64 166.544 224.076 170.84 227.822C172.748 229.485 175.237 230.397 177.87 231.366C180.316 232.264 182.846 233.191 184.975 234.789C185.925 235.504 186.461 236.447 186.522 237.521C186.698 240.571 183.045 244.038 179.516 247.388C178.178 248.657 176.915 249.857 176.044 250.874C171.044 256.709 170.119 261.134 170.922 263.328C171.371 264.557 172.415 265.314 174.026 265.574C178.622 266.325 182.7 265.893 186.638 265.476C192.702 264.835 198.421 264.229 203.796 268.748C206.704 271.193 207.789 274.848 208.837 278.383C210.015 282.355 211.034 285.786 214.314 287.118C215.632 287.652 217.128 287.7 218.716 287.75C220.66 287.813 222.669 287.876 224.535 288.856C227.267 290.291 228.448 292.935 229.589 295.492C230.53 297.597 231.417 299.585 233.103 300.793C235.649 302.62 238.996 302.022 242.543 301.391C244.445 301.05 246.406 300.703 248.355 300.703Z" fill="url(#paint9_linear_101_4)"/>
<path d="M268.409 319.911C261.812 319.911 257.249 317.744 253.123 315.783C250.081 314.34 247.455 313.092 244.397 312.852C242.089 312.668 239.572 313.156 237.138 313.621C232.805 314.45 228.328 315.306 224.624 312.585C222.187 310.795 221.056 308.075 219.963 305.443C218.858 302.785 217.815 300.273 215.525 299.06C213.946 298.224 212.059 298.191 210.062 298.154C208.127 298.12 206.128 298.084 204.224 297.318C199.399 295.377 198.069 290.476 196.783 285.739C195.781 282.046 194.743 278.226 192.053 275.953C186.84 271.549 181.435 272.271 174.589 273.193C170.157 273.788 165.129 274.463 159.526 273.68C156.813 273.301 154.879 271.871 154.078 269.652C152.592 265.537 155.135 259.317 160.88 253.014C162.018 251.768 163.581 250.369 165.236 248.888C168.477 245.988 172.919 242.015 172.803 239.812C172.787 239.526 172.693 239.145 172.099 238.716C169.965 237.179 167.359 236.304 164.601 235.379C161.48 234.332 158.251 233.25 155.706 231.104C148.446 224.975 153.745 218.693 157.614 214.105C159.429 211.955 161.302 209.732 160.993 208.52C160.385 206.15 157.872 204.842 154.392 203.033C152.013 201.798 149.317 200.397 146.568 198.299C143.916 196.277 142.644 194.27 142.681 192.168C142.744 188.55 146.659 185.774 150.804 182.836C154.937 179.907 159.208 176.88 159.227 173.33C159.249 169.309 153.109 162.472 147.69 156.442C141.907 150.005 136.443 143.922 136.061 139.412C135.78 136.115 136.512 133.645 138.297 131.862C142.755 127.413 153.068 128.304 167.345 129.539L172.123 129.945C172.755 129.999 173.448 130.065 174.181 130.137C179.572 130.664 187.718 131.454 188.261 127.587C188.533 125.644 187.702 123.878 186.821 122.009C185.859 119.962 184.86 117.845 185.166 115.298C185.826 109.778 192.18 109.71 194.894 109.68C197.447 109.639 200.03 109.842 202.52 110.035C208.591 110.508 214.322 110.951 219.497 108.052C221.075 107.169 222.327 105.866 223.652 104.489C224.955 103.131 226.306 101.727 228.033 100.688C233.109 97.6384 238.181 98.5962 245.197 99.9215C249.317 100.699 254.442 101.668 260.781 102.03L266.751 102.357C285.485 103.362 304.859 104.403 322.874 111.073C362.34 125.651 389.635 163.871 390.79 206.182C391.247 222.958 387.689 239.756 380.499 254.757C371.296 273.973 356.131 290.33 337.796 300.813C320.753 310.556 307.651 312.423 298.082 313.784C295.462 314.158 293.196 314.48 291.241 314.916L290.714 315.039C288.501 315.563 286.275 316.226 284.12 316.868C280.861 317.839 277.489 318.843 274.013 319.421C271.986 319.764 270.128 319.911 268.409 319.911ZM243.369 310.455C243.772 310.455 244.178 310.47 244.581 310.501C248.075 310.776 251.019 312.173 254.134 313.652C259.264 316.088 264.563 318.603 273.625 317.099C276.955 316.545 280.256 315.562 283.447 314.61C285.631 313.96 287.89 313.287 290.166 312.748L290.729 312.616C292.771 312.161 295.077 311.831 297.748 311.451C307.127 310.115 319.973 308.287 336.625 298.767C354.547 288.52 369.373 272.529 378.37 253.74C385.398 239.074 388.878 222.651 388.429 206.248C387.298 164.892 360.624 127.535 322.052 113.287C304.373 106.741 285.18 105.711 266.62 104.714L260.644 104.387C254.151 104.017 248.943 103.034 244.755 102.242C238.007 100.969 233.547 100.124 229.247 102.713C227.786 103.589 226.602 104.822 225.349 106.127C223.963 107.57 222.531 109.06 220.648 110.114C214.852 113.364 208.492 112.871 202.335 112.392C199.903 112.204 197.393 111.998 194.922 112.043C189.949 112.097 187.801 113.122 187.507 115.583C187.283 117.457 188.095 119.182 188.954 121.008C189.943 123.109 190.965 125.279 190.596 127.917C189.742 134.025 180.237 133.098 173.952 132.487C173.23 132.417 172.548 132.351 171.928 132.299L167.139 131.891C154.01 130.755 143.642 129.86 139.962 133.533C138.699 134.794 138.191 136.653 138.409 139.214C138.726 142.935 144.175 149.001 149.444 154.867C155.701 161.833 161.61 168.41 161.583 173.342C161.558 178.106 156.783 181.489 152.167 184.762C148.684 187.231 145.081 189.786 145.038 192.21C145.015 193.493 146.01 194.911 147.996 196.424C150.584 198.398 153.184 199.748 155.477 200.942C159.195 202.875 162.406 204.544 163.276 207.935C163.888 210.325 161.816 212.783 159.417 215.626C154.795 221.103 152.148 225.015 157.226 229.3C159.428 231.157 162.304 232.121 165.35 233.142C168.155 234.082 171.053 235.054 173.476 236.8C174.789 237.746 175.114 238.89 175.156 239.687C175.332 243.018 170.998 246.895 166.808 250.645C165.198 252.083 163.678 253.443 162.623 254.602C156.565 261.247 155.381 266.317 156.297 268.848C156.801 270.244 157.996 271.081 159.85 271.34C165.14 272.078 169.783 271.455 174.272 270.85C181.106 269.935 187.561 269.067 193.573 274.148C196.825 276.896 197.96 281.074 199.058 285.117C200.245 289.492 201.366 293.623 205.102 295.126C206.603 295.729 208.302 295.76 210.101 295.791C212.288 295.831 214.549 295.871 216.627 296.971C219.67 298.582 220.926 301.607 222.141 304.533C223.156 306.973 224.112 309.276 226.02 310.678C228.895 312.792 232.682 312.065 236.692 311.299C238.884 310.886 241.136 310.455 243.369 310.455Z" fill="url(#paint10_linear_101_4)"/>
<path d="M266.022 330.614C258.693 330.614 253.666 328.155 249.118 325.93C245.757 324.286 242.852 322.865 239.449 322.607C236.858 322.408 234.044 322.984 231.322 323.535C226.534 324.506 221.582 325.506 217.524 322.465C214.855 320.464 213.657 317.402 212.498 314.441C211.313 311.412 210.193 308.553 207.615 307.179C205.84 306.233 203.724 306.219 201.482 306.204C199.338 306.189 197.12 306.175 195.02 305.337C189.707 303.214 188.325 297.732 186.99 292.431C185.935 288.245 184.845 283.918 181.829 281.357C176.007 276.417 169.955 277.364 162.289 278.565C157.324 279.342 151.7 280.218 145.402 279.46C142.426 279.099 140.313 277.576 139.452 275.172C137.815 270.596 140.825 263.692 147.508 256.703C148.833 255.316 150.656 253.757 152.587 252.105C156.373 248.866 161.559 244.43 161.438 241.979C161.424 241.687 161.325 241.241 160.636 240.762C158.219 239.079 155.267 238.16 152.143 237.189C148.618 236.093 144.973 234.959 142.119 232.611C139.677 230.603 138.341 228.367 138.146 225.966C137.785 221.485 141.345 217.439 144.485 213.868C146.578 211.489 148.742 209.029 148.392 207.686C147.705 205.059 144.855 203.658 140.913 201.719C138.181 200.377 135.083 198.854 131.914 196.527C128.918 194.327 127.486 192.155 127.53 189.889C127.607 186.005 132.008 183.034 136.67 179.887C141.417 176.684 146.324 173.371 146.3 169.401C146.275 165.036 139.088 157.471 132.746 150.798C126.044 143.744 119.715 137.082 119.151 132.232C118.734 128.637 119.45 125.962 121.343 124.051C126.129 119.221 137.711 120.468 153.735 122.189L159.11 122.759C159.783 122.829 160.523 122.916 161.305 123.007C166.099 123.572 173.344 124.421 176.051 122.261C176.663 121.774 176.988 121.174 177.074 120.374C177.316 118.158 176.281 116.161 175.185 114.046C174.003 111.766 172.783 109.409 173.034 106.575C173.582 100.432 180.606 100.421 183.603 100.415C186.42 100.438 189.24 100.653 191.969 100.895C198.713 101.5 205.081 102.065 210.809 98.7519C212.558 97.7422 213.927 96.249 215.375 94.6678C216.782 93.1321 218.236 91.5446 220.11 90.3701C225.579 86.9377 231.097 87.9928 238.733 89.4516C243.349 90.3324 249.093 91.43 256.286 91.8116C259.039 91.9576 261.795 92.0895 264.549 92.2198C284.757 93.1824 305.653 94.1779 325.163 101.187C369.097 116.943 399.478 159.035 400.759 205.931C401.261 224.349 397.341 242.789 389.42 259.256C379.288 280.328 362.589 298.246 342.401 309.707C323.507 320.434 308.605 322.446 298.746 323.776C295.838 324.167 293.326 324.506 291.201 324.986L290.614 325.123C288.143 325.715 285.654 326.478 283.247 327.214C279.715 328.295 276.063 329.413 272.298 330.055C270.029 330.444 267.945 330.614 266.022 330.614ZM238.375 320.211C238.793 320.211 239.21 320.225 239.626 320.257C243.483 320.549 246.724 322.135 250.156 323.813C255.578 326.464 261.727 329.469 271.907 327.734C275.523 327.117 279.101 326.023 282.562 324.964C285.004 324.217 287.529 323.444 290.074 322.834L290.689 322.691C292.914 322.188 295.474 321.843 298.437 321.442C308.695 320.057 322.747 318.162 341.24 307.661C361.016 296.434 377.374 278.88 387.299 258.237C395.057 242.108 398.898 224.044 398.405 206C397.151 160.068 367.4 118.843 324.372 103.412C305.193 96.5206 284.478 95.5329 264.443 94.5798C261.685 94.4479 258.926 94.316 256.169 94.1716C248.814 93.7822 242.982 92.6689 238.298 91.7739C230.926 90.3654 226.054 89.4374 221.371 92.3721C219.768 93.3786 218.484 94.7824 217.122 96.2662C215.617 97.9087 214.06 99.6076 211.996 100.799C205.622 104.482 198.578 103.857 191.768 103.25C189.094 103.013 186.354 102.79 183.619 102.779C178.028 102.789 175.646 103.951 175.391 106.79C175.2 108.938 176.212 110.894 177.286 112.965C178.495 115.299 179.745 117.71 179.427 120.634C179.271 122.061 178.632 123.231 177.527 124.111C174.047 126.88 166.527 125.998 161.036 125.354C160.264 125.265 159.537 125.178 158.873 125.109L153.49 124.538C138.696 122.946 127.01 121.692 123.027 125.715C121.671 127.083 121.172 129.126 121.502 131.963C121.976 136.03 128.324 142.713 134.464 149.176C141.751 156.846 148.635 164.091 148.666 169.392C148.698 174.624 143.257 178.297 137.997 181.847C134.04 184.518 129.95 187.28 129.896 189.941C129.868 191.364 131.019 192.942 133.316 194.631C136.317 196.834 139.314 198.309 141.958 199.607C146.295 201.738 149.722 203.421 150.681 207.094C151.348 209.65 148.991 212.329 146.262 215.43C143.431 218.648 140.223 222.297 140.503 225.781C140.646 227.543 141.666 229.184 143.623 230.793C146.121 232.847 149.387 233.864 152.848 234.94C156.007 235.923 159.273 236.937 161.988 238.829C163.409 239.819 163.758 241.026 163.798 241.865C163.977 245.473 158.968 249.756 154.124 253.9C152.24 255.513 150.458 257.036 149.216 258.336C143.345 264.475 140.387 270.774 141.677 274.379C142.238 275.943 143.587 276.864 145.689 277.119C151.661 277.843 156.88 277.026 161.928 276.236C169.861 274.993 176.715 273.923 183.358 279.56C186.953 282.61 188.136 287.311 189.283 291.858C190.528 296.803 191.706 301.473 195.901 303.15C197.586 303.822 199.489 303.836 201.504 303.848C203.933 303.864 206.442 303.881 208.73 305.1C212.079 306.885 213.412 310.291 214.701 313.585C215.788 316.36 216.815 318.982 218.947 320.58C222.153 322.984 226.382 322.13 230.86 321.226C233.324 320.725 235.866 320.211 238.375 320.211Z" fill="url(#paint11_linear_101_4)"/>
<path d="M263.637 341.325C255.577 341.325 250.086 338.574 245.12 336.085C241.435 334.24 238.253 332.645 234.504 332.37C231.637 332.157 228.52 332.821 225.507 333.457C220.259 334.562 214.834 335.71 210.431 332.353C207.531 330.145 206.264 326.741 205.039 323.45C203.772 320.051 202.575 316.84 199.711 315.305C197.739 314.249 195.382 314.263 192.906 314.261C190.551 314.272 188.117 314.272 185.821 313.363C180.021 311.06 178.587 304.999 177.204 299.137C176.097 294.456 174.952 289.617 171.608 286.77C165.176 281.293 158.47 282.463 149.988 283.944C144.492 284.902 138.262 285.988 131.276 285.244C128.038 284.9 125.749 283.284 124.83 280.697C123.04 275.664 126.518 268.077 134.132 260.403C135.644 258.879 137.729 257.158 139.937 255.335C144.272 251.756 150.208 246.856 150.08 244.155C150.065 243.83 149.955 243.337 149.174 242.809C146.474 240.982 143.176 240.017 139.686 239C135.76 237.855 131.7 236.67 128.537 234.123C125.824 231.939 124.345 229.507 124.142 226.894C123.764 221.992 127.799 217.553 131.362 213.637C133.735 211.027 136.187 208.331 135.799 206.853C135.03 203.97 131.844 202.476 127.437 200.406C124.351 198.957 120.851 197.316 117.265 194.758C113.93 192.381 112.336 190.046 112.388 187.618C112.479 183.468 117.367 180.3 122.541 176.944C127.906 173.465 133.452 169.867 133.384 165.48C133.312 160.768 125.078 152.476 117.811 145.162C110.191 137.49 102.993 130.243 102.252 125.051C101.698 121.161 102.401 118.281 104.403 116.243C109.517 111.033 122.385 112.637 140.201 114.852L146.102 115.579C146.821 115.667 147.607 115.771 148.441 115.884C153.774 116.595 161.835 117.672 164.801 115.292C165.473 114.75 165.823 114.075 165.902 113.164C166.111 110.674 164.87 108.446 163.557 106.086C162.16 103.572 160.714 100.973 160.916 97.8531C161.356 91.095 169.334 91.1437 172.324 91.1594C175.389 91.1704 178.46 91.4734 181.431 91.7655C188.846 92.4941 195.849 93.1849 202.134 89.462C204.058 88.322 205.543 86.6388 207.115 84.8566C208.624 83.1451 210.185 81.3739 212.204 80.0628C218.072 76.255 224.037 77.4013 232.293 78.9935C237.402 79.978 243.762 81.2043 251.807 81.6047C255.284 81.7774 258.767 81.925 262.251 82.0742C283.97 82.9928 306.431 83.9443 327.469 91.3164C375.87 108.249 409.335 154.215 410.741 205.693C411.288 225.76 407.004 245.843 398.353 263.77C387.327 286.623 369.097 306.101 347.021 318.615C326.188 330.326 310.015 332.417 299.312 333.802C296.162 334.209 293.441 334.561 291.171 335.073L290.535 335.222C287.8 335.881 285.052 336.742 282.393 337.572C278.587 338.763 274.652 339.992 270.592 340.699C268.072 341.134 265.765 341.325 263.637 341.325ZM233.38 329.973C233.813 329.973 234.246 329.988 234.678 330.018C238.894 330.328 242.432 332.1 246.178 333.977C252.131 336.96 258.876 340.341 270.191 338.37C274.098 337.692 277.957 336.484 281.69 335.316C284.386 334.473 287.171 333.601 289.985 332.923L290.651 332.766C293.03 332.229 295.801 331.871 299.009 331.455C309.531 330.095 325.432 328.04 345.862 316.554C367.52 304.276 385.409 285.164 396.23 262.738C404.718 245.149 408.922 225.443 408.385 205.751C407.006 155.246 374.175 110.149 326.692 93.5367C305.984 86.2808 283.703 85.3371 262.153 84.4248C258.664 84.2756 255.177 84.128 251.693 83.9553C243.482 83.5471 237.032 82.3035 231.852 81.3048C223.85 79.7629 218.565 78.7438 213.493 82.0365C211.744 83.1718 210.356 84.7451 208.888 86.4127C207.264 88.2529 205.585 90.1576 203.34 91.4876C196.393 95.6062 188.674 94.8462 181.202 94.1098C178.286 93.8224 175.27 93.5257 172.314 93.5147C166.18 93.5649 163.482 94.7787 163.273 98.0023C163.115 100.43 164.332 102.617 165.621 104.933C167.048 107.499 168.524 110.151 168.252 113.357C168.12 114.912 167.458 116.179 166.279 117.126C162.527 120.144 154.205 119.03 148.129 118.217C147.304 118.107 146.527 118.004 145.817 117.917L139.909 117.189C123.412 115.135 110.386 113.514 106.087 117.89C104.636 119.37 104.144 121.599 104.589 124.711C105.218 129.13 112.473 136.433 119.485 143.494C127.801 151.866 135.657 159.774 135.744 165.439C135.832 171.133 129.727 175.091 123.825 178.919C119.394 181.793 114.812 184.765 114.748 187.667C114.713 189.233 116.021 190.971 118.634 192.833C122.048 195.267 125.444 196.861 128.438 198.267C133.237 200.519 137.026 202.3 138.078 206.246C138.794 208.968 136.159 211.867 133.105 215.222C129.864 218.785 126.191 222.824 126.493 226.71C126.647 228.676 127.798 230.497 130.015 232.283C132.81 234.534 136.47 235.602 140.345 236.733C143.858 237.758 147.488 238.818 150.495 240.853C152.023 241.888 152.392 243.156 152.436 244.04C152.619 247.922 146.935 252.614 141.438 257.152C139.277 258.935 137.236 260.62 135.806 262.062C127.601 270.33 125.962 276.84 127.05 279.904C127.667 281.64 129.172 282.647 131.524 282.897C138.186 283.608 144.238 282.548 149.581 281.617C158.316 280.095 165.861 278.776 173.136 284.971C177.069 288.32 178.305 293.541 179.498 298.592C180.801 304.108 182.032 309.318 186.691 311.168C188.563 311.912 190.661 311.919 192.9 311.901C195.572 311.889 198.326 311.889 200.825 313.225C204.477 315.18 205.887 318.966 207.25 322.626C208.409 325.739 209.505 328.68 211.861 330.475C215.404 333.176 220.074 332.188 225.02 331.147C227.768 330.569 230.594 329.973 233.38 329.973Z" fill="url(#paint12_linear_101_4)"/>
<path d="M261.247 352.031C252.457 352.032 246.503 348.988 241.115 346.237C237.108 344.189 233.649 342.419 229.554 342.127C226.404 341.911 222.99 342.652 219.687 343.373C213.982 344.618 208.084 345.905 203.335 342.237C200.205 339.822 198.869 336.079 197.577 332.458C196.23 328.686 194.958 325.125 191.803 323.428C189.633 322.261 187.06 322.289 184.323 322.313C181.76 322.333 179.105 322.365 176.618 321.382C170.331 318.898 168.848 312.259 167.412 305.838C166.254 300.663 165.056 295.312 161.384 292.176C154.344 286.165 146.991 287.557 137.681 289.317C131.653 290.457 124.826 291.749 117.145 291.025C113.648 290.695 111.183 288.989 110.203 286.217C108.289 280.81 112.331 272.335 120.752 264.101C122.454 262.437 124.803 260.552 127.29 258.558C132.17 254.642 138.854 249.281 138.719 246.329C138.704 245.971 138.581 245.428 137.708 244.852C134.725 242.878 130.911 241.825 127.221 240.806C122.893 239.611 118.417 238.375 114.948 235.63C111.968 233.27 110.349 230.643 110.137 227.822C109.738 222.5 114.252 217.669 118.236 213.407C120.89 210.567 123.633 207.63 123.203 206.016C122.353 202.871 118.833 201.282 113.959 199.081C110.517 197.526 106.617 195.766 102.609 192.98C98.9383 190.427 97.1828 187.927 97.2441 185.34C97.3493 180.929 102.718 177.561 108.404 173.994C114.389 170.241 120.577 166.358 120.464 161.548C120.345 156.489 111.062 147.474 102.872 139.521C94.3314 131.229 86.2652 123.397 85.3514 117.857C84.6605 113.677 85.3498 110.592 87.4602 108.427C92.9088 102.837 107.085 104.798 126.704 107.514L133.084 108.391C133.847 108.494 134.682 108.617 135.566 108.747C141.442 109.614 150.323 110.92 153.547 108.31C154.275 107.722 154.66 106.946 154.724 105.938C154.9 103.174 153.454 100.714 151.923 98.1105C150.309 95.3642 148.64 92.5237 148.794 89.1195C149.128 81.749 157.793 81.8558 161.04 81.8982C164.356 81.9327 167.682 82.286 170.896 82.6283C178.984 83.4872 186.623 84.299 193.458 80.1631C195.557 78.8944 197.157 77.0195 198.853 75.0332C200.464 73.1443 202.132 71.191 204.297 69.7448C210.55 65.5681 216.937 66.8117 225.774 68.5311C231.393 69.6239 238.385 70.9853 247.324 71.3872C251.703 71.6024 256.087 71.7704 260.473 71.94C283.531 72.8318 307.375 73.7535 329.769 81.4334C382.637 99.5456 419.187 149.381 420.718 205.445C421.31 227.157 416.664 248.883 407.28 268.271C395.318 292.991 375.557 314.03 351.634 327.512C328.941 340.221 311.496 342.375 299.954 343.803C296.528 344.227 293.569 344.593 291.137 345.145L290.448 345.309C287.457 346.037 284.454 346.993 281.549 347.918C277.464 349.218 273.24 350.564 268.883 351.333C266.108 351.817 263.577 352.031 261.247 352.031ZM228.375 339.727C228.825 339.727 229.273 339.742 229.72 339.774C234.294 340.1 238.129 342.06 242.188 344.134C248.673 347.447 256.02 351.203 268.468 349.003C272.67 348.261 276.818 346.938 280.83 345.662C283.773 344.726 286.814 343.756 289.889 343.008L290.608 342.837C293.158 342.256 296.171 341.884 299.66 341.454C311.021 340.05 328.188 337.929 350.475 325.449C373.979 312.201 393.4 291.528 405.152 267.237C414.373 248.185 418.939 226.837 418.356 205.501C416.852 150.417 380.943 101.453 329.001 83.6584C306.935 76.09 283.266 75.1746 260.378 74.2905C255.985 74.1194 251.593 73.9514 247.211 73.7363C238.104 73.3249 231.016 71.9462 225.322 70.8377C216.424 69.1073 211.047 68.06 205.607 71.6966C203.712 72.9622 202.221 74.7082 200.646 76.5563C198.905 78.5976 197.103 80.708 194.678 82.1729C187.163 86.7202 178.766 85.8299 170.645 84.9648C167.485 84.6287 164.218 84.2817 161.01 84.2487C154.17 84.1608 151.312 85.6038 151.149 89.2169C151.027 91.9223 152.449 94.3436 153.955 96.9061C155.597 99.7027 157.298 102.593 157.077 106.079C156.97 107.759 156.28 109.124 155.027 110.137C150.998 113.4 141.88 112.055 135.219 111.072C134.343 110.945 133.519 110.823 132.765 110.721L126.378 109.845C108.157 107.321 93.7645 105.33 89.1466 110.066C87.5968 111.657 87.1163 114.078 87.6753 117.466C88.4635 122.238 96.6223 130.16 104.513 137.822C113.855 146.895 122.68 155.464 122.821 161.487C122.966 167.639 116.2 171.883 109.657 175.988C104.75 179.065 99.6763 182.248 99.601 185.392C99.5601 187.102 101.025 189.001 103.955 191.038C107.782 193.7 111.578 195.414 114.926 196.926C120.183 199.3 124.336 201.175 125.478 205.401C126.247 208.284 123.331 211.402 119.957 215.013C116.305 218.922 112.166 223.351 112.486 227.641C112.648 229.808 113.932 231.815 116.41 233.776C119.503 236.224 123.554 237.343 127.844 238.527C131.712 239.593 135.709 240.697 139.005 242.88C140.637 243.958 141.029 245.292 141.072 246.216C141.262 250.366 134.907 255.465 128.761 260.394C126.321 262.352 124.016 264.202 122.397 265.784C113.116 274.86 111.224 282.039 112.422 285.427C113.097 287.337 114.76 288.427 117.362 288.673C124.707 289.362 131.365 288.105 137.237 286.995C146.773 285.19 155.009 283.633 162.91 290.377C167.182 294.024 168.467 299.765 169.709 305.319C171.07 311.408 172.356 317.16 177.48 319.184C179.54 319.997 181.854 319.977 184.294 319.948C187.199 319.915 190.209 319.887 192.916 321.343C196.872 323.469 198.357 327.633 199.795 331.659C201.026 335.11 202.192 338.368 204.775 340.364C208.656 343.363 213.77 342.244 219.181 341.063C222.205 340.406 225.317 339.727 228.375 339.727Z" fill="url(#paint13_linear_101_4)"/>
<path d="M258.852 362.738C249.331 362.738 242.915 359.403 237.108 356.387C232.779 354.137 229.041 352.194 224.598 351.885C221.169 351.64 217.456 352.482 213.861 353.289C207.7 354.672 201.33 356.102 196.234 352.122C192.874 349.498 191.467 345.416 190.107 341.467C188.68 337.321 187.333 333.407 183.888 331.548C181.518 330.269 178.703 330.318 175.731 330.364C172.951 330.409 170.087 330.456 167.405 329.401C160.636 326.737 159.099 319.52 157.612 312.542C156.405 306.87 155.155 301.006 151.152 297.581C143.498 291.03 135.494 292.643 125.363 294.689C118.806 296.009 111.373 297.512 103.001 296.804C99.2478 296.488 96.6067 294.689 95.5673 291.738C93.5024 285.881 98.0231 276.708 107.361 267.799C109.253 265.993 111.866 263.947 114.633 261.781C120.359 257.296 127.486 251.714 127.347 248.504C127.329 248.113 127.196 247.517 126.229 246.887C122.964 244.778 118.794 243.679 114.761 242.616C110.026 241.368 105.13 240.077 101.35 237.128C98.1016 234.596 96.343 231.774 96.1216 228.745C95.7039 223.004 100.696 217.782 105.102 213.173C108.036 210.104 111.07 206.929 110.596 205.173C109.665 201.755 105.797 200.064 100.443 197.724C96.657 196.069 92.3641 194.193 87.9471 191.195C83.9399 188.455 82.0274 185.788 82.0997 183.04C82.2221 178.362 88.0727 174.798 94.2672 171.026C100.87 167.003 107.697 162.844 107.535 157.607C107.37 152.203 97.0385 142.466 87.9235 133.877C78.4631 124.961 69.5255 116.54 68.4389 110.653C67.6146 106.182 68.2898 102.894 70.5084 100.601C76.2899 94.6217 91.7878 96.955 113.245 100.177L120.059 101.195C120.865 101.314 121.746 101.452 122.68 101.601C129.096 102.62 138.79 104.159 142.279 101.322C143.072 100.676 143.487 99.8175 143.54 98.6964C143.677 95.6612 142.026 92.9714 140.279 90.1231C138.451 87.1413 136.56 84.059 136.666 80.3674C136.897 72.3971 146.225 72.5683 149.747 72.6216C153.315 72.6797 156.89 73.0849 160.346 73.4758C169.109 74.4651 177.386 75.4025 184.777 70.8505C187.055 69.4498 188.776 67.3803 190.596 65.1883C192.307 63.1282 194.078 60.9959 196.384 59.4116L196.387 59.41C203.044 54.8705 209.529 56.1377 219.348 58.0565C225.453 59.2498 233.051 60.7352 242.832 61.1592C247.839 61.39 252.857 61.5627 257.877 61.7339C282.547 62.5818 308.058 63.458 332.065 71.5413C389.397 90.8313 429.031 144.538 430.687 205.184C431.325 228.541 426.316 251.909 416.199 272.761C403.304 299.346 382.009 321.946 356.236 336.396C331.68 350.104 312.96 352.325 300.573 353.794C296.876 354.232 293.683 354.611 291.093 355.206L290.354 355.382C287.099 356.178 283.839 357.231 280.688 358.25C276.326 359.662 271.816 361.121 267.163 361.955C264.141 362.503 261.387 362.738 258.852 362.738ZM223.366 349.484C223.832 349.484 224.299 349.498 224.763 349.531C229.695 349.877 233.825 352.021 238.196 354.294C245.214 357.943 253.171 362.072 266.746 359.638C271.241 358.833 275.674 357.399 279.961 356.013C283.153 354.98 286.453 353.912 289.79 353.095L290.561 352.912C293.276 352.287 296.528 351.902 300.293 351.456C312.495 350.008 330.936 347.821 355.082 334.343C380.436 320.126 401.387 297.892 414.074 271.736C424.025 251.224 428.954 228.233 428.324 205.253C426.696 145.594 387.708 92.7579 331.308 73.782C307.629 65.8085 282.294 64.9387 257.792 64.0955C252.765 63.9227 247.739 63.75 242.725 63.5192C232.77 63.0858 225.076 61.5831 218.892 60.3741C209.33 58.5071 203.559 57.3781 197.717 61.3586C195.68 62.7576 194.091 64.6717 192.408 66.6973C190.546 68.9411 188.617 71.2587 186.009 72.8619C177.926 77.8378 168.852 76.8141 160.077 75.8233C156.675 75.4386 153.159 75.0398 149.703 74.9832C142.232 74.8623 139.137 76.431 139.021 80.4397C138.933 83.4278 140.563 86.0814 142.285 88.8936C144.141 91.9194 146.06 95.0488 145.892 98.811C145.803 100.618 145.087 102.079 143.761 103.157C139.456 106.657 129.542 105.084 122.306 103.933C121.381 103.787 120.51 103.649 119.712 103.531L112.89 102.514C92.9136 99.5129 77.1363 97.1419 72.2011 102.243C70.5524 103.949 70.0798 106.56 70.7565 110.226C71.7018 115.355 80.7697 123.898 89.5393 132.162C99.9057 141.93 109.697 151.157 109.892 157.538C110.096 164.145 102.672 168.669 95.4919 173.042C90.1108 176.321 84.546 179.711 84.4565 183.102C84.4063 184.96 86.0283 187.028 89.2723 189.247C93.5056 192.119 97.6917 193.949 101.385 195.564C107.116 198.07 111.643 200.048 112.871 204.558C113.694 207.598 110.501 210.937 106.805 214.805C102.74 219.058 98.1314 223.879 98.4737 228.574C98.6464 230.942 100.061 233.132 102.801 235.269C106.198 237.92 110.649 239.093 115.363 240.335C119.574 241.445 123.93 242.593 127.513 244.909C129.248 246.041 129.663 247.432 129.703 248.402C129.895 252.824 122.876 258.321 116.087 263.638C113.367 265.769 110.798 267.78 108.989 269.506C98.6276 279.39 96.4827 287.237 97.7922 290.953C98.7077 293.547 101.237 294.287 103.2 294.453C111.238 295.13 118.492 293.665 124.897 292.374C135.232 290.291 144.16 288.493 152.686 295.788C157.297 299.732 158.631 305.993 159.92 312.049C161.34 318.711 162.681 325.006 168.271 327.204C170.518 328.088 173.035 328.051 175.693 328.002C178.84 327.953 182.096 327.898 185.009 329.47C189.264 331.766 190.828 336.307 192.34 340.697C193.645 344.488 194.878 348.068 197.687 350.261C201.903 353.556 207.46 352.307 213.345 350.985C216.639 350.246 220.035 349.484 223.366 349.484Z" fill="url(#paint14_linear_101_4)"/>
<path d="M256.419 373.504C246.183 373.504 239.31 369.875 233.089 366.592C228.44 364.137 224.423 362.018 219.636 361.691C215.928 361.438 211.91 362.36 208.027 363.253C201.412 364.775 194.567 366.347 189.127 362.054C185.537 359.224 184.061 354.803 182.635 350.525C181.128 346.008 179.704 341.739 175.968 339.718C173.4 338.328 170.356 338.399 167.136 338.463C164.151 338.534 161.064 338.595 158.189 337.468C150.938 334.624 149.347 326.831 147.81 319.294C146.551 313.126 145.249 306.75 140.917 303.033C132.651 295.948 123.998 297.782 113.039 300.106C105.952 301.609 97.9216 303.311 88.8537 302.63C84.8434 302.327 82.0296 300.436 80.9289 297.307C78.7118 291.002 83.7081 281.132 93.9631 271.548C96.0452 269.6 98.9249 267.391 101.973 265.05C108.277 260.211 116.123 254.187 115.974 250.727C115.955 250.301 115.809 249.654 114.745 248.974C111.194 246.715 106.658 245.57 102.273 244.463C97.138 243.166 91.8292 241.825 87.7451 238.679C84.231 235.97 82.3311 232.957 82.1002 229.721C81.6622 223.564 87.1327 217.947 91.9595 212.993C95.1753 209.693 98.501 206.279 97.9828 204.384C96.9732 200.703 92.7713 198.919 86.9569 196.45C82.8115 194.689 78.1104 192.694 73.271 189.462C68.9278 186.548 66.8552 183.72 66.9353 180.813C67.0703 175.877 73.4013 172.113 80.1045 168.126C87.3337 163.827 94.8094 159.382 94.6006 153.721C94.3871 147.968 83.0062 137.512 72.9664 128.287C62.5827 118.748 52.7752 109.737 51.5175 103.5C50.5596 98.7392 51.2223 95.2486 53.5477 92.8305C59.6637 86.4696 76.5009 89.1688 99.8058 92.9027L107.018 94.0505C107.869 94.184 108.795 94.341 109.78 94.5075C116.739 95.682 127.262 97.4516 131.006 94.3881C131.865 93.6847 132.303 92.7441 132.345 91.5115C132.447 88.2 130.59 85.281 128.624 82.1877C126.576 78.9719 124.461 75.6446 124.527 71.6673C124.557 69.4172 125.281 67.5911 126.678 66.2423C129.465 63.5541 134.421 63.3123 138.441 63.4018C142.262 63.4834 146.091 63.9404 149.793 64.38C159.227 65.5012 168.138 66.561 176.085 61.5945C178.536 60.0636 180.371 57.8009 182.315 55.4063C184.13 53.1688 186.008 50.8543 188.462 49.135L188.466 49.1334C195.525 44.214 202.442 45.5737 212.91 47.6307C219.504 48.9277 227.71 50.5403 238.335 50.9862C243.964 51.2312 249.609 51.4039 255.257 51.5766C281.544 52.3821 308.727 53.2143 334.35 61.7044C396.148 82.1735 438.867 139.751 440.648 204.979C441.331 229.98 435.957 254.99 425.11 277.307C411.282 305.757 388.456 329.92 360.834 345.339C334.406 360.053 314.405 362.335 301.171 363.847C297.208 364.299 293.787 364.69 291.044 365.325L290.249 365.515C286.744 366.375 283.24 367.526 279.85 368.639C275.202 370.164 270.397 371.744 265.435 372.635C262.153 373.243 259.164 373.504 256.419 373.504ZM218.347 359.29C218.832 359.29 219.314 359.304 219.797 359.337C225.084 359.7 229.507 362.033 234.19 364.506C241.741 368.492 250.3 373.011 265.014 370.323C269.816 369.457 274.542 367.908 279.113 366.406C282.546 365.281 286.094 364.116 289.687 363.233L290.511 363.035C293.386 362.369 296.871 361.972 300.906 361.511C313.954 360.02 333.671 357.77 359.688 343.287C386.89 328.101 409.371 304.305 422.991 276.283C433.673 254.307 438.964 229.677 438.291 205.053C436.537 140.814 394.47 84.1112 333.61 63.9529C308.313 55.5696 281.305 54.7421 255.187 53.9429C249.529 53.7702 243.875 53.5975 238.235 53.3509C227.432 52.8972 219.127 51.2657 212.457 49.953C202.225 47.94 196.053 46.7278 189.814 51.0757C187.633 52.6051 185.941 54.6919 184.148 56.8996C182.169 59.3397 180.122 61.863 177.336 63.6012C168.684 69.0058 158.938 67.847 149.517 66.7275C145.869 66.2941 142.098 65.8466 138.39 65.7665C135.112 65.6864 130.502 65.8387 128.318 67.946C127.377 68.8535 126.909 70.0846 126.887 71.7082C126.832 74.9805 128.669 77.8696 130.615 80.9268C132.687 84.1834 134.831 87.5515 134.705 91.5916C134.639 93.5214 133.898 95.0759 132.501 96.2174C127.922 99.9592 117.213 98.1535 109.389 96.8361C108.414 96.6728 107.495 96.5173 106.652 96.3854L99.4321 95.2345C77.6817 91.7486 60.5069 88.9945 55.2483 94.4666C53.4991 96.2865 53.0358 99.0893 53.8304 103.037C54.9358 108.52 64.9128 117.687 74.5617 126.552C85.952 137.016 96.7094 146.899 96.9575 153.635C97.2197 160.696 89.1316 165.506 81.3104 170.155C75.452 173.639 69.3926 177.243 69.2921 180.879C69.2372 182.883 71.0178 185.111 74.5821 187.503C79.2362 190.608 83.8275 192.559 87.877 194.278C94.0605 196.903 98.9438 198.978 100.256 203.76C101.131 206.959 97.6625 210.519 93.6475 214.64C89.1677 219.239 84.0897 224.452 84.4524 229.552C84.6361 232.124 86.1828 234.499 89.1834 236.81C92.8797 239.658 97.7222 240.88 102.849 242.175C107.417 243.328 112.14 244.521 116.013 246.985C117.488 247.929 118.268 249.153 118.329 250.625C118.53 255.31 110.843 261.212 103.408 266.92C100.406 269.224 97.5714 271.4 95.5726 273.268C84.1305 283.962 81.7313 292.478 83.1523 296.522C84.1415 299.332 86.8925 300.114 89.028 300.276C97.7489 300.934 105.612 299.266 112.546 297.797C123.682 295.435 133.297 293.395 142.448 301.242C147.397 305.483 148.78 312.263 150.118 318.82C151.596 326.059 152.99 332.894 159.048 335.269C161.483 336.224 164.198 336.163 167.081 336.103C170.474 336.028 173.97 335.952 177.088 337.64C181.645 340.107 183.284 345.023 184.871 349.778C186.25 353.906 187.552 357.806 190.587 360.199C195.144 363.792 201.145 362.412 207.498 360.952C211.069 360.133 214.746 359.29 218.347 359.29Z" fill="url(#paint15_linear_101_4)"/>
<path d="M254.045 384.184C243.072 384.184 235.732 380.265 229.09 376.718C224.117 374.065 219.823 371.772 214.686 371.427C210.687 371.153 206.378 372.169 202.205 373.149C195.131 374.807 187.82 376.523 182.031 371.918C178.212 368.883 176.667 364.122 175.174 359.518C173.585 354.625 172.087 350.004 168.058 347.817C165.288 346.314 162.017 346.404 158.549 346.495C155.352 346.58 152.051 346.666 148.983 345.468C141.251 342.444 139.607 334.075 138.017 325.982C136.709 319.319 135.355 312.428 130.692 308.424C121.801 300.788 112.49 302.847 100.698 305.455C93.087 307.138 84.4509 309.043 74.7172 308.391C70.4463 308.094 67.4582 306.109 66.2994 302.798C63.9362 296.049 69.4068 285.486 80.574 275.231C82.8477 273.145 85.9912 270.77 89.3201 268.258C96.2038 263.062 104.771 256.595 104.614 252.884C104.593 252.423 104.433 251.726 103.273 250.995C99.4384 248.588 94.5378 247.4 89.8021 246.249C84.264 244.905 78.5375 243.513 74.1504 240.163C70.3693 237.286 68.3281 234.083 68.0863 230.642C67.6262 224.07 73.5772 218.057 78.8264 212.755C82.3264 209.219 85.9457 205.565 85.3836 203.527C84.2923 199.584 79.7591 197.708 73.4846 195.109C68.9797 193.243 63.8718 191.128 58.6085 187.663C53.9309 184.577 51.6996 181.589 51.786 178.529C51.9305 173.333 58.7436 169.369 65.9571 165.17C73.8175 160.596 81.9448 155.863 81.6779 149.772C81.4251 143.667 68.9923 132.491 58.0213 122.63C46.7158 112.468 36.0369 102.869 34.6112 96.2836C33.5199 91.2338 34.1699 87.5407 36.6022 84.997C43.051 78.2467 61.237 81.3227 86.4121 85.5748L93.9914 86.8482C94.8849 86.9974 95.86 87.1686 96.8931 87.3523C104.399 88.6775 115.742 90.6842 119.749 87.3947C120.672 86.6347 121.135 85.6109 121.164 84.2637C121.233 80.6742 119.168 77.5212 116.981 74.1846C114.721 70.7364 112.385 67.1721 112.402 62.9121C112.408 60.4987 113.16 58.547 114.636 57.1102C117.579 54.2493 122.875 54.0185 127.148 54.1237C131.221 54.2305 135.303 54.7361 139.251 55.2244C149.357 56.4759 158.905 57.6566 167.408 52.2787C170.031 50.6174 171.982 48.1648 174.046 45.5677C175.967 43.1527 177.953 40.653 180.557 38.8001L180.558 38.7985C188.017 33.4991 195.365 34.9516 206.485 37.1483C213.567 38.5473 222.38 40.2902 233.849 40.7566C240.091 41.0157 246.351 41.1868 252.618 41.358C280.534 42.1195 309.401 42.9093 336.65 51.8124C401.878 73.12 448.745 135.997 450.621 204.72C451.348 231.368 445.613 258.022 434.035 281.798C419.272 312.115 394.912 337.837 365.443 354.225C337.137 369.946 315.856 372.292 301.774 373.845C297.549 374.309 293.9 374.711 291.008 375.387L290.158 375.592C286.397 376.52 282.638 377.767 279.002 378.975C274.075 380.609 268.981 382.299 263.724 383.258C260.196 383.902 256.989 384.184 254.045 384.184ZM213.338 369.021C213.842 369.021 214.344 369.037 214.845 369.071C220.488 369.451 225.207 371.971 230.202 374.638C238.287 378.953 247.447 383.844 263.297 380.934C268.394 380.003 273.407 378.34 278.258 376.731C281.937 375.509 285.741 374.247 289.594 373.297L290.471 373.086C293.503 372.38 297.216 371.971 301.517 371.497C315.412 369.965 336.408 367.65 364.298 352.162C393.348 336.004 417.362 310.649 431.914 280.763C443.326 257.326 448.979 231.052 448.263 204.783C446.413 137.04 400.215 75.0576 335.917 54.053C308.994 45.2568 280.3 44.4733 252.553 43.7148C246.276 43.5437 240.004 43.371 233.753 43.1119C222.102 42.6393 213.19 40.8775 206.028 39.4627C195.133 37.31 188.558 36.0083 181.926 40.7189C179.592 42.3802 177.798 44.6397 175.895 47.0327C173.798 49.669 171.632 52.3965 168.672 54.2697C159.453 60.103 149.036 58.8123 138.962 57.564C135.071 57.082 131.047 56.5842 127.088 56.4806C123.56 56.3769 118.62 56.5261 116.282 58.7998C115.263 59.789 114.767 61.1362 114.762 62.9153C114.746 66.467 116.792 69.587 118.956 72.8876C121.242 76.3781 123.607 79.9865 123.525 84.3077C123.483 86.3583 122.718 88.0086 121.249 89.2145C116.401 93.1966 104.889 91.1584 96.4849 89.673C95.4595 89.4909 94.4939 89.3213 93.6067 89.1737L86.0211 87.9003C62.4869 83.923 43.8958 80.7794 38.309 86.6253C36.4609 88.5613 36.0055 91.5573 36.9194 95.7827C38.1834 101.624 49.0711 111.411 59.5993 120.874C72.0149 132.034 83.7427 142.576 84.0348 149.67C84.3645 157.184 75.6107 162.279 67.1457 167.206C60.8068 170.895 54.2544 174.71 54.146 178.593C54.0863 180.741 56.0256 183.128 59.9087 185.691C64.9835 189.032 69.9799 191.102 74.389 192.928C81.0216 195.674 86.2597 197.844 87.6588 202.897C88.5836 206.251 84.8403 210.034 80.505 214.413C75.6075 219.361 70.0553 224.969 70.4416 230.474C70.6363 233.247 72.3179 235.801 75.5824 238.285C79.577 241.336 84.8152 242.607 90.3595 243.955C95.2805 245.15 100.37 246.384 104.529 248.995C106.085 249.973 106.906 251.247 106.972 252.782C107.183 257.732 98.8245 264.039 90.7427 270.141C87.461 272.617 84.3614 274.957 82.1725 276.968C69.6517 288.463 66.9965 297.646 68.5275 302.017C69.5889 305.048 72.566 305.875 74.8789 306.036C84.2782 306.67 92.7337 304.798 100.191 303.15C112.133 300.51 122.447 298.232 132.23 306.634C137.514 311.172 138.948 318.47 140.334 325.528C141.868 333.34 143.319 340.72 149.845 343.271C152.469 344.297 155.393 344.221 158.489 344.138C162.111 344.042 165.863 343.943 169.185 345.746C174.042 348.382 175.76 353.674 177.421 358.793C178.87 363.26 180.239 367.481 183.501 370.075C188.397 373.966 194.844 372.455 201.668 370.855C205.51 369.951 209.469 369.021 213.338 369.021Z" fill="url(#paint16_linear_101_4)"/>
<path d="M251.671 394.863C239.96 394.863 232.153 390.653 225.09 386.846C219.794 383.989 215.222 381.524 209.734 381.16C205.472 380.877 200.848 381.98 196.382 383.043C188.852 384.836 181.07 386.692 174.937 381.78C170.89 378.539 169.275 373.439 167.714 368.507C166.046 363.241 164.471 358.266 160.15 355.916C157.181 354.3 153.673 354.405 149.963 354.521C146.562 354.624 143.04 354.733 139.778 353.462C131.565 350.258 129.867 341.313 128.225 332.664C126.865 325.504 125.461 318.101 120.466 313.805C110.973 305.638 101.015 307.918 88.4108 310.805C80.2599 312.672 71.0271 314.791 60.5743 314.144C56.0537 313.864 52.8929 311.79 51.6713 308.303C49.1527 301.105 55.0975 289.842 67.1864 278.91C69.6516 276.68 73.0621 274.143 76.672 271.458C84.1352 265.907 93.4213 258.998 93.2533 255.035C93.2329 254.537 93.0586 253.787 91.7993 253.006C87.676 250.45 82.4095 249.213 77.3174 248.016C71.3852 246.622 65.2488 245.182 60.557 241.64C56.5106 238.584 54.3328 235.185 54.0831 231.537C53.6058 224.547 60.0326 218.146 65.7026 212.5C69.4821 208.735 73.3903 204.844 72.7826 202.664C71.6128 198.458 66.7468 196.486 60.0122 193.76C55.1461 191.789 49.6316 189.555 43.9459 185.855C38.9338 182.596 36.5424 179.447 36.6335 176.23C36.7905 170.775 44.0825 166.608 51.8032 162.195C60.2901 157.345 69.0644 152.33 68.7551 145.809C68.4489 139.36 54.9734 127.471 43.0839 116.98C30.852 106.186 19.2985 95.9927 17.7063 89.0509C16.48 83.7138 17.119 79.8197 19.6581 77.1488C26.4429 70.0138 45.9887 73.4619 73.0464 78.24L80.9665 79.6312C81.9008 79.793 82.9198 79.9814 83.9986 80.1808C92.0553 81.6646 104.229 83.9069 108.497 80.3865C109.486 79.57 109.974 78.4614 109.987 76.9996C110.022 73.1306 107.749 69.7453 105.341 66.1621C102.868 62.4815 100.311 58.6753 100.278 54.1343C100.261 51.5592 101.042 49.4818 102.599 47.9587C105.697 44.9282 111.32 44.6943 115.856 44.8293C120.184 44.9597 124.518 45.5155 128.71 46.0541C139.491 47.439 149.675 48.7454 158.734 42.9467C161.532 41.1551 163.597 38.5108 165.782 35.7096C167.808 33.1156 169.901 30.4337 172.654 28.4459C180.516 22.768 188.294 24.31 200.068 26.6496C207.638 28.1522 217.057 30.0208 229.369 30.5091C236.217 30.7792 243.088 30.9488 249.967 31.1152C279.518 31.8359 310.074 32.5802 338.954 41.8993C408.576 64.3673 458.598 131.204 460.598 204.439C461.371 232.732 455.272 261.029 442.962 286.266C427.266 318.448 401.375 345.731 370.058 363.088C339.874 379.817 317.31 382.226 302.379 383.821C297.893 384.299 294.018 384.715 290.976 385.428L290.072 385.646C286.052 386.641 282.038 387.987 278.157 389.287C272.95 391.032 267.567 392.834 262.012 393.861C258.24 394.56 254.814 394.863 251.671 394.863ZM208.329 378.754C208.851 378.754 209.371 378.77 209.891 378.805C215.889 379.202 220.903 381.906 226.21 384.767C234.827 389.414 244.591 394.678 261.579 391.542C266.971 390.545 272.273 388.769 277.402 387.051C281.327 385.735 285.388 384.376 289.498 383.357L290.434 383.132C293.619 382.386 297.56 381.964 302.124 381.477C316.867 379.904 339.145 377.526 368.911 361.027C399.808 343.902 425.354 316.986 440.839 285.233C452.981 260.335 458.998 232.42 458.237 204.505C456.263 132.253 406.913 66.3128 338.226 44.1479C309.671 34.9339 279.289 34.1928 249.906 33.4752C243.016 33.3072 236.132 33.1392 229.272 32.8675C216.776 32.3729 207.256 30.4824 199.606 28.964C188.04 26.6668 181.057 25.2819 174.034 30.3584C171.553 32.15 169.653 34.5838 167.64 37.1605C165.428 39.9947 163.141 42.9231 160.004 44.933C150.223 51.1933 139.629 49.832 128.409 48.3921C124.273 47.8614 119.997 47.3134 115.786 47.1878C112.03 47.0763 106.74 47.2098 104.248 49.6436C103.15 50.7176 102.623 52.181 102.637 54.1171C102.664 57.9468 104.915 61.2976 107.297 64.8462C109.8 68.5692 112.386 72.4193 112.344 77.02C112.325 79.1916 111.534 80.9361 109.995 82.2064C104.881 86.4286 92.5624 84.1581 83.5683 82.5C82.4975 82.3022 81.4863 82.1169 80.5598 81.9551L72.6335 80.5624C47.2936 76.0889 27.2735 72.5575 21.3664 78.7739C19.4147 80.8277 18.9687 84.0168 20.0035 88.5233C21.4277 94.7256 33.2293 105.139 44.6431 115.21C58.0714 127.059 70.7555 138.25 71.1104 145.696C71.4888 153.661 62.0754 159.041 52.973 164.243C46.1583 168.137 39.1113 172.166 38.9919 176.297C38.926 178.592 41.0253 181.142 45.2319 183.877C50.7276 187.452 56.1322 189.639 60.8994 191.569C67.9825 194.438 73.5756 196.704 75.0578 202.028C76.0329 205.539 72.2095 209.347 67.3686 214.169C62.055 219.461 56.0349 225.457 56.44 231.374C56.6426 234.351 58.4561 237.094 61.9812 239.756C66.2757 242.996 71.9018 244.32 77.8591 245.718C83.1381 246.956 88.5945 248.239 93.0476 251C94.6838 252.014 95.5474 253.336 95.6149 254.933C95.8347 260.145 86.8108 266.857 78.0852 273.348C74.5208 276 71.1543 278.503 68.7739 280.656C55.165 292.963 52.2585 302.821 53.9025 307.521C55.0394 310.768 58.2394 311.633 60.7235 311.787C70.8419 312.413 79.8925 310.334 87.888 308.502C100.614 305.585 111.609 303.069 122.008 312.015C127.628 316.848 129.112 324.664 130.546 332.221C132.138 340.609 133.642 348.534 140.639 351.262C143.451 352.359 146.584 352.263 149.892 352.161C153.753 352.042 157.749 351.921 161.279 353.84C166.436 356.644 168.23 362.313 169.965 367.793C171.489 372.601 172.925 377.142 176.414 379.937C181.649 384.128 188.539 382.485 195.838 380.744C199.952 379.766 204.193 378.754 208.329 378.754Z" fill="url(#paint17_linear_101_4)"/>
</g>
</g>
<defs>
<linearGradient id="paint0_linear_101_4" x1="237.193" y1="210.61" x2="489.083" y2="210.61" gradientUnits="userSpaceOnUse">
<stop stop-color="white"/>
<stop offset="0.0088" stop-color="#FAFAFA"/>
<stop offset="0.1278" stop-color="#C0C0C0"/>
<stop offset="0.25" stop-color="#8D8D8D"/>
<stop offset="0.3724" stop-color="#626262"/>
<stop offset="0.4954" stop-color="#3E3E3E"/>
<stop offset="0.619" stop-color="#232323"/>
<stop offset="0.7436" stop-color="#101010"/>
<stop offset="0.8698" stop-color="#040404"/>
<stop offset="1"/>
</linearGradient>
<linearGradient id="paint1_linear_101_4" x1="168.176" y1="140.651" x2="343.393" y2="243.641" gradientUnits="userSpaceOnUse">
<stop stop-color="#BE0081"/>
<stop offset="0.1581" stop-color="#A60889"/>
<stop offset="0.4927" stop-color="#681B9D"/>
<stop offset="0.9735" stop-color="#063ABC"/>
<stop offset="1" stop-color="#003CBE"/>
</linearGradient>
<linearGradient id="paint2_linear_101_4" x1="168.174" y1="140.655" x2="343.393" y2="243.646" gradientUnits="userSpaceOnUse">
<stop stop-color="#BE0081"/>
<stop offset="0.1581" stop-color="#A60889"/>
<stop offset="0.4927" stop-color="#681B9D"/>
<stop offset="0.9735" stop-color="#063ABC"/>
<stop offset="1" stop-color="#003CBE"/>
</linearGradient>
<linearGradient id="paint3_linear_101_4" x1="168.172" y1="140.657" x2="343.39" y2="243.648" gradientUnits="userSpaceOnUse">
<stop stop-color="#BE0081"/>
<stop offset="0.1581" stop-color="#A60889"/>
<stop offset="0.4927" stop-color="#681B9D"/>
<stop offset="0.9735" stop-color="#063ABC"/>
<stop offset="1" stop-color="#003CBE"/>
</linearGradient>
<linearGradient id="paint4_linear_101_4" x1="167.684" y1="141.488" x2="342.902" y2="244.479" gradientUnits="userSpaceOnUse">
<stop stop-color="#BE0081"/>
<stop offset="0.1581" stop-color="#A60889"/>
<stop offset="0.4927" stop-color="#681B9D"/>
<stop offset="0.9735" stop-color="#063ABC"/>
<stop offset="1" stop-color="#003CBE"/>
</linearGradient>
<linearGradient id="paint5_linear_101_4" x1="167.248" y1="142.23" x2="342.466" y2="245.22" gradientUnits="userSpaceOnUse">
<stop stop-color="#BE0081"/>
<stop offset="0.1581" stop-color="#A60889"/>
<stop offset="0.4927" stop-color="#681B9D"/>
<stop offset="0.9735" stop-color="#063ABC"/>
<stop offset="1" stop-color="#003CBE"/>
</linearGradient>
<linearGradient id="paint6_linear_101_4" x1="166.711" y1="143.145" x2="341.929" y2="246.136" gradientUnits="userSpaceOnUse">
<stop stop-color="#BE0081"/>
<stop offset="0.1581" stop-color="#A60889"/>
<stop offset="0.4927" stop-color="#681B9D"/>
<stop offset="0.9735" stop-color="#063ABC"/>
<stop offset="1" stop-color="#003CBE"/>
</linearGradient>
<linearGradient id="paint7_linear_101_4" x1="166.179" y1="144.049" x2="341.398" y2="247.04" gradientUnits="userSpaceOnUse">
<stop stop-color="#BE0081"/>
<stop offset="0.1581" stop-color="#A60889"/>
<stop offset="0.4927" stop-color="#681B9D"/>
<stop offset="0.9735" stop-color="#063ABC"/>
<stop offset="1" stop-color="#003CBE"/>
</linearGradient>
<linearGradient id="paint8_linear_101_4" x1="165.64" y1="144.967" x2="340.858" y2="247.957" gradientUnits="userSpaceOnUse">
<stop stop-color="#BE0081"/>
<stop offset="0.1581" stop-color="#A60889"/>
<stop offset="0.4927" stop-color="#681B9D"/>
<stop offset="0.9735" stop-color="#063ABC"/>
<stop offset="1" stop-color="#003CBE"/>
</linearGradient>
<linearGradient id="paint9_linear_101_4" x1="165.109" y1="145.87" x2="340.327" y2="248.86" gradientUnits="userSpaceOnUse">
<stop stop-color="#BE0081"/>
<stop offset="0.1581" stop-color="#A60889"/>
<stop offset="0.4927" stop-color="#681B9D"/>
<stop offset="0.9735" stop-color="#063ABC"/>
<stop offset="1" stop-color="#003CBE"/>
</linearGradient>
<linearGradient id="paint10_linear_101_4" x1="164.57" y1="146.786" x2="339.788" y2="249.776" gradientUnits="userSpaceOnUse">
<stop stop-color="#BE0081"/>
<stop offset="0.1581" stop-color="#A60889"/>
<stop offset="0.4927" stop-color="#681B9D"/>
<stop offset="0.9735" stop-color="#063ABC"/>
<stop offset="1" stop-color="#003CBE"/>
</linearGradient>
<linearGradient id="paint11_linear_101_4" x1="164.011" y1="147.738" x2="339.229" y2="250.729" gradientUnits="userSpaceOnUse">
<stop stop-color="#BE0081"/>
<stop offset="0.1581" stop-color="#A60889"/>
<stop offset="0.4927" stop-color="#681B9D"/>
<stop offset="0.9735" stop-color="#063ABC"/>
<stop offset="1" stop-color="#003CBE"/>
</linearGradient>
<linearGradient id="paint12_linear_101_4" x1="163.451" y1="148.689" x2="338.669" y2="251.68" gradientUnits="userSpaceOnUse">
<stop stop-color="#BE0081"/>
<stop offset="0.1581" stop-color="#A60889"/>
<stop offset="0.4927" stop-color="#681B9D"/>
<stop offset="0.9735" stop-color="#063ABC"/>
<stop offset="1" stop-color="#003CBE"/>
</linearGradient>
<linearGradient id="paint13_linear_101_4" x1="162.893" y1="149.639" x2="338.111" y2="252.63" gradientUnits="userSpaceOnUse">
<stop stop-color="#BE0081"/>
<stop offset="0.1581" stop-color="#A60889"/>
<stop offset="0.4927" stop-color="#681B9D"/>
<stop offset="0.9735" stop-color="#063ABC"/>
<stop offset="1" stop-color="#003CBE"/>
</linearGradient>
<linearGradient id="paint14_linear_101_4" x1="162.334" y1="150.589" x2="337.552" y2="253.579" gradientUnits="userSpaceOnUse">
<stop stop-color="#BE0081"/>
<stop offset="0.1581" stop-color="#A60889"/>
<stop offset="0.4927" stop-color="#681B9D"/>
<stop offset="0.9735" stop-color="#063ABC"/>
<stop offset="1" stop-color="#003CBE"/>
</linearGradient>
<linearGradient id="paint15_linear_101_4" x1="161.754" y1="151.577" x2="336.972" y2="254.568" gradientUnits="userSpaceOnUse">
<stop stop-color="#BE0081"/>
<stop offset="0.1581" stop-color="#A60889"/>
<stop offset="0.4927" stop-color="#681B9D"/>
<stop offset="0.9735" stop-color="#063ABC"/>
<stop offset="1" stop-color="#003CBE"/>
</linearGradient>
<linearGradient id="paint16_linear_101_4" x1="161.172" y1="152.567" x2="336.39" y2="255.558" gradientUnits="userSpaceOnUse">
<stop stop-color="#BE0081"/>
<stop offset="0.1581" stop-color="#A60889"/>
<stop offset="0.4927" stop-color="#681B9D"/>
<stop offset="0.9735" stop-color="#063ABC"/>
<stop offset="1" stop-color="#003CBE"/>
</linearGradient>
<linearGradient id="paint17_linear_101_4" x1="160.622" y1="153.502" x2="335.84" y2="256.492" gradientUnits="userSpaceOnUse">
<stop stop-color="#BE0081"/>
<stop offset="0.1581" stop-color="#A60889"/>
<stop offset="0.4927" stop-color="#681B9D"/>
<stop offset="0.9735" stop-color="#063ABC"/>
<stop offset="1" stop-color="#003CBE"/>
</linearGradient>
</defs>
</svg>
