<svg width="404" height="371" viewBox="0 0 404 371" fill="none" xmlns="http://www.w3.org/2000/svg">
<path d="M267.863 192.271C264.076 192.271 260.941 189.242 260.836 185.433C260.786 183.555 261.469 181.77 262.76 180.408C264.05 179.044 265.795 178.267 267.673 178.215C269.562 178.173 271.335 178.845 272.697 180.137C274.062 181.428 274.839 183.172 274.891 185.05C274.998 188.924 271.931 192.163 268.056 192.27C267.992 192.271 267.927 192.271 267.863 192.271ZM267.869 180.572C267.825 180.572 267.781 180.573 267.737 180.573C266.489 180.606 265.33 181.124 264.473 182.029C263.615 182.933 263.162 184.12 263.196 185.367C263.265 187.939 265.432 189.966 267.992 189.908C269.24 189.875 270.399 189.357 271.256 188.453C272.113 187.547 272.566 186.361 272.531 185.113C272.498 183.864 271.98 182.706 271.075 181.848C270.202 181.022 269.069 180.572 267.869 180.572Z" fill="url(#paint0_linear_101_8)"/>
<path d="M267.845 211.978C260.977 211.978 254.481 209.395 249.48 204.661C244.297 199.754 241.335 193.117 241.141 185.972C240.946 178.828 243.54 172.04 248.448 166.857C253.355 161.673 259.992 158.712 267.137 158.516C274.256 158.323 281.068 160.915 286.252 165.824C291.436 170.73 294.397 177.369 294.593 184.512C294.788 191.656 292.192 198.446 287.286 203.628C282.379 208.811 275.74 211.772 268.597 211.967C268.344 211.975 268.095 211.978 267.845 211.978ZM267.875 160.866C267.65 160.866 267.426 160.868 267.2 160.876C260.685 161.053 254.633 163.754 250.16 168.479C245.686 173.203 243.32 179.393 243.499 185.908C243.676 192.423 246.377 198.474 251.1 202.948C255.827 207.423 262.015 209.817 268.53 209.609C275.044 209.431 281.096 206.73 285.568 202.006C290.043 197.281 292.409 191.091 292.23 184.576C291.872 171.368 281.009 160.866 267.875 160.866Z" fill="url(#paint1_linear_101_8)"/>
<path d="M267.852 221.346C248.397 221.347 232.311 205.794 231.775 186.228C231.232 166.329 246.981 149.697 266.88 149.153C286.743 148.614 303.409 164.357 303.956 184.258C304.499 204.157 288.75 220.788 268.851 221.333C268.518 221.343 268.184 221.346 267.852 221.346ZM267.877 151.498C267.567 151.498 267.257 151.502 266.945 151.511C248.346 152.02 233.627 167.565 234.135 186.162C234.644 204.763 250.258 219.507 268.787 218.972C287.386 218.463 302.105 202.918 301.596 184.32C301.097 166.035 286.059 151.498 267.877 151.498Z" fill="url(#paint2_linear_101_8)"/>
<path d="M265.626 231.875C263.395 231.875 261.545 231.441 259.879 231.05C258.915 230.824 257.971 230.601 256.984 230.473C256.309 230.388 255.621 230.367 254.939 230.347C253.402 230.297 251.81 230.248 250.304 229.545C249.323 229.088 248.593 228.472 247.884 227.877C247.261 227.353 246.672 226.858 245.958 226.525C245.466 226.296 244.918 226.155 244.337 226.005C243.689 225.837 243.018 225.665 242.343 225.354C240.608 224.556 239.536 223.24 238.499 221.967C237.819 221.132 237.177 220.343 236.364 219.712C234.736 218.446 233.066 217.782 231.298 217.08C229.888 216.52 228.43 215.94 226.9 215.028C224.73 213.734 223.713 211.26 223.875 207.672C223.897 207.191 223.958 206.686 224.024 206.166C224.201 204.746 224.369 203.407 223.648 202.432C223.16 201.773 222.626 201.19 222.099 200.609C221.384 199.827 220.648 199.017 220.002 198.031C218.606 195.894 219.001 193.774 219.316 192.072C219.483 191.183 219.638 190.343 219.513 189.665C219.318 188.611 218.818 187.741 218.186 186.644C217.853 186.066 217.504 185.457 217.17 184.774C215.692 181.738 217.05 179.066 218.247 176.707C218.899 175.423 219.514 174.209 219.713 172.975C220.012 171.122 219.902 169.031 219.798 167.007C219.644 164.056 219.486 161.005 220.532 158.369C222.477 153.472 227.224 151.382 232.765 149.337C233.167 149.188 233.597 149.044 234.037 148.893C235.714 148.323 237.615 147.676 238.562 146.635C239.024 146.125 239.352 145.66 239.672 145.206C240.088 144.617 240.519 144.01 241.175 143.349C242.312 142.202 244.022 141.745 245.385 141.475C246.697 141.215 248.023 141.051 249.349 140.886C251.212 140.657 252.97 140.44 254.715 139.962C255.283 139.808 255.814 139.615 256.342 139.425C257.084 139.158 257.852 138.88 258.713 138.696C261.633 138.071 264.483 138.536 267.78 139.07C268.704 139.219 269.673 139.377 270.703 139.522C279.111 140.696 286.131 143.019 292.166 146.621C305.139 154.337 313.456 168.604 313.874 183.852C314.062 190.743 312.685 197.677 309.892 203.905C306.252 212.029 300.448 218.834 293.109 223.583C286.46 227.883 280.174 229.524 274.372 230.659C271.943 231.143 269.586 231.591 267.151 231.806C266.623 231.854 266.114 231.875 265.626 231.875ZM259.207 141.001C258.48 141.157 257.816 141.401 257.144 141.643C256.557 141.854 255.968 142.066 255.338 142.237C253.43 142.76 251.504 142.997 249.64 143.228C248.37 143.385 247.099 143.54 245.845 143.788C244.813 143.992 243.538 144.316 242.852 145.008C242.332 145.531 241.993 146.012 241.599 146.567C241.227 147.093 240.845 147.629 240.31 148.219C238.953 149.713 236.744 150.463 234.797 151.126C234.376 151.269 233.966 151.408 233.581 151.55C228.401 153.459 224.314 155.238 222.725 159.237C221.868 161.393 222.008 164.059 222.154 166.881C222.265 169.028 222.381 171.248 222.044 173.347C221.786 174.946 221.056 176.382 220.351 177.772C219.266 179.911 218.329 181.757 219.293 183.737C219.6 184.368 219.924 184.931 220.232 185.464C220.916 186.658 221.566 187.784 221.833 189.234C222.039 190.343 221.833 191.439 221.637 192.502C221.348 194.053 221.098 195.394 221.976 196.738C222.516 197.566 223.16 198.271 223.84 199.017C224.423 199.656 225.007 200.298 225.544 201.027C226.826 202.762 226.571 204.811 226.363 206.458C226.307 206.912 226.249 207.356 226.231 207.775C226.11 210.429 226.743 212.185 228.108 213.001C229.477 213.818 230.845 214.361 232.168 214.887C234.01 215.619 235.916 216.375 237.81 217.847C238.835 218.643 239.595 219.574 240.329 220.475C241.274 221.637 242.092 222.639 243.329 223.209C243.813 223.432 244.353 223.57 244.928 223.719C245.586 223.889 246.267 224.063 246.952 224.383C247.95 224.848 248.688 225.468 249.403 226.068C250.02 226.588 250.601 227.078 251.3 227.403C252.369 227.902 253.652 227.941 255.013 227.985C255.768 228.009 256.53 228.034 257.282 228.13C258.373 228.271 259.411 228.516 260.416 228.75C262.366 229.207 264.386 229.68 266.944 229.454C269.261 229.248 271.547 228.814 273.691 228.387C279.491 227.252 285.516 225.682 291.828 221.599C298.784 217.099 304.286 210.646 307.739 202.938C310.388 197.032 311.694 190.453 311.515 183.913C311.121 169.466 303.243 155.951 290.96 148.643C285.199 145.203 278.467 142.984 270.379 141.854C269.33 141.708 268.344 141.547 267.404 141.395C264.215 140.879 261.691 140.47 259.207 141.001Z" fill="url(#paint3_linear_101_8)"/>
<path d="M263.288 242.488C260.366 242.488 258.108 241.777 256.071 241.137C254.712 240.708 253.427 240.304 252.08 240.154C251.144 240.053 250.171 240.105 249.141 240.16C247.132 240.27 245.057 240.377 243.161 239.312C241.918 238.615 241.089 237.593 240.357 236.69C239.628 235.792 238.997 235.016 238.057 234.556C237.41 234.239 236.646 234.113 235.839 233.983C234.973 233.84 234.078 233.694 233.184 233.301C230.9 232.301 229.799 230.367 228.733 228.498C227.977 227.171 227.263 225.917 226.153 225.028C223.917 223.235 221.617 222.826 218.953 222.355C217.058 222.019 215.1 221.674 212.944 220.809C209.677 219.496 208.793 215.811 210.58 210.948C210.793 210.365 211.106 209.722 211.435 209.051C212.464 206.953 213.128 205.397 212.28 204.488C211.53 203.681 210.653 203.04 209.725 202.362C208.622 201.553 207.48 200.718 206.513 199.561C204.092 196.662 205.313 193.729 206.205 191.587C206.66 190.498 207.089 189.468 206.943 188.77C206.693 187.558 205.861 186.679 204.709 185.462C204.074 184.791 203.355 184.03 202.65 183.105C199.863 179.448 202.294 176.268 204.245 173.715C205.417 172.183 206.629 170.597 206.81 169.008C207.072 166.701 206.097 163.754 205.155 160.904C204.049 157.558 202.904 154.099 203.598 151.228C205.144 144.833 211.596 143.605 219.764 142.049C220.359 141.934 220.808 141.861 221.277 141.782C223.455 141.421 226.436 140.928 227.263 139.505C227.674 138.799 227.805 138.171 227.954 137.445C228.12 136.646 228.307 135.74 228.899 134.74C229.99 132.895 232.187 132.38 234.192 132.119C235.572 131.939 236.959 131.862 238.342 131.785C241.024 131.639 243.559 131.499 245.975 130.605C246.708 130.337 247.373 129.968 248.076 129.574C248.886 129.122 249.726 128.654 250.714 128.322C253.873 127.264 256.918 127.779 260.768 128.426C262.374 128.696 264.193 129.002 266.212 129.221C274.298 130.09 284.812 131.719 294.428 136.624C312.046 145.569 323.329 163.542 323.874 183.524C324.107 192.065 322.367 200.643 318.84 208.337C314.236 218.386 306.935 226.711 297.727 232.413C289.206 237.688 281.755 239.177 275.768 240.372L272.295 241.1C270.1 241.584 267.829 242.083 265.494 242.357C264.719 242.449 263.984 242.488 263.288 242.488ZM250.896 237.739C251.373 237.739 251.854 237.757 252.336 237.811C253.917 237.987 255.371 238.445 256.78 238.888C259.19 239.646 261.685 240.432 265.223 240.015C267.44 239.755 269.651 239.27 271.789 238.797L275.308 238.059C281.11 236.902 288.328 235.459 296.487 230.406C305.299 224.949 312.286 216.979 316.697 207.354C320.074 199.986 321.742 191.769 321.517 183.589C321.004 164.76 309.953 147.151 293.361 138.725C284.085 133.994 273.846 132.413 265.961 131.565C263.874 131.34 262.016 131.028 260.379 130.751C256.712 130.134 254.065 129.687 251.464 130.558C250.684 130.819 249.977 131.213 249.227 131.632C248.476 132.052 247.699 132.487 246.792 132.818C244.045 133.832 241.213 133.988 238.474 134.137C237.149 134.211 235.821 134.281 234.498 134.454C233.143 134.631 231.51 134.96 230.933 135.936C230.542 136.6 230.414 137.211 230.268 137.921C230.1 138.731 229.91 139.65 229.306 140.689C227.921 143.07 224.454 143.644 221.667 144.108C221.218 144.183 220.786 144.254 220.387 144.331C212.305 145.869 207.083 146.863 205.894 151.781C205.36 153.997 206.395 157.131 207.398 160.161C208.421 163.253 209.479 166.452 209.157 169.273C208.903 171.509 207.489 173.359 206.123 175.146C204.024 177.894 202.914 179.55 204.531 181.673C205.159 182.499 205.803 183.18 206.426 183.838C207.683 185.167 208.87 186.421 209.257 188.288C209.55 189.7 208.958 191.119 208.386 192.493C207.413 194.828 206.923 196.367 208.326 198.046C209.108 198.983 210.087 199.699 211.123 200.457C212.098 201.172 213.108 201.911 214.011 202.88C216.03 205.049 214.601 207.963 213.555 210.091C213.265 210.681 212.985 211.246 212.795 211.761C212.175 213.451 211.033 217.499 213.827 218.62C215.755 219.394 217.592 219.719 219.366 220.033C222.224 220.539 224.925 221.016 227.63 223.188C229.091 224.357 229.951 225.868 230.785 227.33C231.738 229.007 232.564 230.453 234.133 231.141C234.754 231.412 235.467 231.53 236.223 231.654C237.163 231.808 238.135 231.968 239.094 232.436C240.501 233.125 241.398 234.229 242.189 235.203C242.846 236.013 243.467 236.778 244.319 237.255C245.614 237.984 247.269 237.897 249.017 237.805C249.632 237.772 250.26 237.739 250.896 237.739Z" fill="url(#paint4_linear_101_8)"/>
<path d="M260.93 253.147C257.275 253.147 254.563 252.147 252.114 251.244C250.435 250.625 248.849 250.041 247.158 249.872C245.959 249.754 244.694 249.887 243.357 250.024C240.879 250.28 238.315 250.545 236.043 249.132C234.549 248.206 233.65 246.81 232.857 245.579C232.047 244.319 231.345 243.231 230.156 242.633C229.333 242.22 228.353 242.112 227.314 241.995C226.231 241.876 225.111 241.754 224.007 241.284C221.192 240.088 220.05 237.545 218.945 235.088C218.125 233.265 217.351 231.543 215.938 230.388C213.121 228.085 210.149 227.914 206.707 227.716C204.386 227.584 201.754 227.433 198.915 226.582C197.311 226.102 196.153 225.084 195.571 223.641C194.638 221.336 195.246 218.072 197.281 214.448C197.672 213.749 198.226 212.967 198.81 212.149C200.624 209.604 201.925 207.57 200.856 206.52C199.846 205.526 198.592 204.827 197.263 204.086C195.781 203.259 194.249 202.404 192.985 201.078C189.558 197.485 191.606 193.859 193.099 191.214C193.806 189.962 194.536 188.668 194.366 187.907C194.052 186.497 192.879 185.545 191.259 184.228C190.284 183.436 189.18 182.538 188.081 181.375C184.069 177.129 187.473 173.572 190.209 170.716C191.947 168.899 193.745 167.021 193.9 165.067C194.114 162.411 192.195 158.718 190.34 155.148C188.238 151.101 186.252 147.278 186.683 144.09C187.717 136.473 195.207 135.814 205.575 134.901L207.041 134.771C207.496 134.73 207.993 134.696 208.514 134.661C211.207 134.478 215.277 134.201 216.03 132.364C216.404 131.449 216.357 130.627 216.305 129.677C216.246 128.633 216.178 127.448 216.714 126.104C217.849 123.26 221.432 122.944 222.963 122.808C224.552 122.666 226.146 122.652 227.688 122.638C231.076 122.605 234.278 122.575 237.264 121.285C238.162 120.898 238.944 120.346 239.775 119.76C240.679 119.123 241.615 118.463 242.752 117.986C246.266 116.51 249.741 117.119 254.144 117.887C256.334 118.268 258.818 118.702 261.725 118.962C272.627 119.933 285.218 121.41 296.709 126.685C318.616 136.699 333.204 158.897 333.868 183.239C334.147 193.426 332.042 203.651 327.78 212.805C322.302 224.585 313.271 234.697 302.346 241.278C292.367 247.289 284.147 248.83 277.543 250.068C276.425 250.277 275.36 250.476 274.356 250.688L273.782 249.606L274.035 250.759C272.991 250.988 271.955 251.241 270.918 251.492C268.626 252.049 266.256 252.626 263.818 252.954C262.789 253.086 261.832 253.147 260.93 253.147ZM246.167 247.468C246.574 247.468 246.981 247.485 247.389 247.524C249.383 247.724 251.106 248.358 252.929 249.03C255.862 250.113 258.905 251.225 263.502 250.61C265.818 250.299 268.128 249.736 270.361 249.193C271.415 248.937 272.47 248.681 273.53 248.447L273.874 248.372C274.894 248.158 275.973 247.954 277.11 247.742C283.529 246.54 291.516 245.042 301.131 239.251C311.656 232.909 320.361 223.162 325.641 211.804C329.749 202.979 331.778 193.121 331.508 183.297C330.869 159.849 316.822 138.467 295.726 128.823C284.576 123.706 272.22 122.26 261.516 121.307C258.511 121.04 255.976 120.595 253.739 120.206C249.561 119.476 246.543 118.948 243.664 120.156L243.209 119.068L243.664 120.156C242.765 120.534 241.973 121.092 241.135 121.684C240.243 122.313 239.32 122.962 238.199 123.445C234.776 124.926 231.184 124.957 227.71 124.99C226.215 125.005 224.668 125.019 223.17 125.152C220.598 125.38 219.323 125.925 218.904 126.972C218.563 127.828 218.607 128.621 218.659 129.538C218.722 130.618 218.791 131.841 218.213 133.251C216.902 136.448 212.146 136.772 208.674 137.009C208.17 137.043 207.69 137.076 207.25 137.114L205.782 137.244C194.988 138.194 189.767 138.896 189.021 144.401C188.69 146.848 190.593 150.511 192.432 154.055C194.442 157.921 196.518 161.918 196.251 165.25C196.028 168.041 193.935 170.226 191.911 172.341C188.651 175.747 187.547 177.371 189.792 179.75C190.786 180.802 191.782 181.61 192.744 182.392C194.583 183.887 196.172 185.179 196.665 187.389C197.033 189.036 196.119 190.656 195.152 192.369C193.482 195.324 192.619 197.275 194.688 199.445C195.707 200.512 197.02 201.246 198.41 202.02C199.815 202.805 201.269 203.615 202.506 204.833C205.094 207.379 202.571 210.924 200.727 213.512C200.198 214.256 199.691 214.963 199.335 215.597C197.683 218.54 197.106 221.148 197.755 222.753C198.069 223.53 198.67 224.042 199.59 224.317C202.162 225.088 204.54 225.223 206.839 225.356C210.53 225.568 214.016 225.767 217.428 228.556C219.271 230.062 220.198 232.124 221.093 234.116C222.095 236.346 222.96 238.274 224.926 239.109C225.711 239.442 226.612 239.541 227.567 239.648C228.768 239.78 230.008 239.916 231.211 240.521C232.975 241.41 233.964 242.944 234.837 244.297C235.559 245.418 236.242 246.478 237.285 247.125C238.869 248.11 240.926 247.898 243.11 247.673C244.114 247.574 245.137 247.468 246.167 247.468Z" fill="url(#paint5_linear_101_8)"/>
<path d="M258.556 263.824C254.164 263.824 250.993 262.533 248.124 261.365C246.134 260.555 244.255 259.792 242.225 259.605C240.752 259.473 239.13 259.694 237.564 259.908C234.62 260.313 231.571 260.727 228.933 258.977C227.198 257.827 226.27 256.141 225.375 254.511C224.516 252.949 223.703 251.473 222.25 250.725C221.245 250.21 220.042 250.119 218.766 250.025C217.469 249.928 216.126 249.827 214.818 249.282C211.488 247.896 210.302 244.755 209.155 241.72C208.275 239.393 207.445 237.193 205.719 235.766C202.309 232.943 198.827 233.002 194.445 233.081C191.6 233.134 188.375 233.186 184.846 232.354C182.935 231.902 181.587 230.785 180.951 229.126C179.892 226.368 180.987 222.328 183.954 218.038C184.54 217.19 185.341 216.266 186.186 215.286C187.8 213.416 190.011 210.858 189.896 209.385C189.88 209.176 189.814 208.895 189.45 208.587C188.207 207.534 186.679 206.837 185.06 206.1C183.056 205.188 180.987 204.246 179.388 202.544C175.238 198.125 178.018 193.914 180.048 190.839C180.998 189.401 181.979 187.914 181.777 187.052C181.376 185.342 179.79 184.251 177.597 182.739C176.348 181.88 174.935 180.906 173.497 179.634C171.859 178.188 171.06 176.719 171.051 175.141C171.035 172.35 173.484 170.133 176.078 167.786C178.427 165.661 180.855 163.466 180.984 161.126C181.147 158.131 178.256 153.715 175.46 149.443C172.429 144.814 169.568 140.442 169.774 136.931C170.292 128.055 179.231 127.863 191.604 127.6L194.09 127.545C194.589 127.534 195.134 127.53 195.711 127.527C199.06 127.512 204.125 127.487 204.822 125.188C205.173 124.035 204.946 123.005 204.684 121.817C204.403 120.538 204.084 119.089 204.559 117.428C205.573 113.882 209.872 113.623 211.706 113.512C213.523 113.4 215.346 113.444 217.106 113.482C221.176 113.576 225.021 113.661 228.559 111.968C229.624 111.461 230.525 110.725 231.48 109.943C232.482 109.123 233.519 108.274 234.804 107.653C238.698 105.771 242.438 106.444 247.612 107.374C250.355 107.867 253.463 108.424 257.236 108.715C272.49 109.889 286.16 111.304 298.992 116.762C325.448 127.975 343.057 153.959 343.85 182.959C344.171 194.795 341.705 206.662 336.711 217.278C330.3 230.922 319.733 242.596 306.958 250.147C295.311 257.031 285.702 258.7 278.686 259.919C277.118 260.192 275.664 260.443 274.329 260.729L274.076 260.787C272.581 261.125 271.22 261.481 269.855 261.839C267.36 262.492 264.781 263.168 262.122 263.555C260.849 263.742 259.663 263.824 258.556 263.824ZM241.276 257.205C241.662 257.205 242.052 257.221 242.438 257.256C244.82 257.474 246.857 258.305 249.014 259.181C252.487 260.594 256.071 262.056 261.785 261.22C264.313 260.851 266.828 260.192 269.262 259.554C270.65 259.192 272.04 258.827 273.442 258.51L273.837 258.421C275.202 258.129 276.686 257.871 278.287 257.593C285.124 256.406 294.486 254.78 305.761 248.116C318.133 240.803 328.367 229.493 334.579 216.273C339.417 205.99 341.808 194.492 341.493 183.023C340.725 154.943 323.682 129.787 298.072 118.934C285.57 113.615 272.101 112.223 257.057 111.067C253.166 110.767 249.996 110.199 247.197 109.696C242.286 108.814 239.04 108.23 235.832 109.778C234.799 110.277 233.915 111.001 232.976 111.769C231.956 112.604 230.899 113.468 229.578 114.097C225.532 116.032 221.22 115.933 217.054 115.842C215.341 115.803 213.572 115.763 211.849 115.867C208.676 116.059 207.222 116.699 206.828 118.078C206.517 119.164 206.735 120.158 206.989 121.311C207.28 122.633 207.61 124.133 207.08 125.877C205.876 129.84 200.007 129.869 195.722 129.889C195.161 129.892 194.63 129.895 194.145 129.906L191.653 129.961C178.73 130.236 172.501 130.652 172.126 137.071C171.968 139.803 174.745 144.047 177.43 148.152C180.434 152.743 183.542 157.488 183.336 161.257C183.157 164.565 180.362 167.093 177.66 169.538C175.565 171.435 173.396 173.393 173.407 175.128C173.412 175.996 173.951 176.893 175.056 177.868C176.388 179.044 177.74 179.975 178.931 180.796C181.362 182.47 183.461 183.916 184.071 186.512C184.506 188.365 183.293 190.197 182.014 192.138C179.729 195.599 178.432 198.08 181.106 200.928C182.384 202.289 184.157 203.098 186.033 203.952C187.728 204.723 189.48 205.521 190.972 206.786C191.732 207.43 192.173 208.265 192.245 209.201C192.435 211.654 190.165 214.284 187.968 216.826C187.166 217.757 186.406 218.635 185.891 219.379C183.41 222.963 182.386 226.29 183.149 228.278C183.504 229.203 184.236 229.783 185.386 230.057C188.624 230.821 191.561 230.766 194.399 230.721C198.889 230.635 203.136 230.567 207.22 233.946C209.428 235.772 210.409 238.371 211.358 240.885C212.416 243.688 213.331 246.107 215.72 247.103C216.677 247.502 217.775 247.583 218.937 247.67C220.389 247.78 221.892 247.891 223.321 248.624C225.417 249.7 226.444 251.567 227.436 253.373C228.231 254.816 228.98 256.18 230.23 257.008C232.127 258.267 234.609 257.928 237.239 257.568C238.564 257.392 239.918 257.205 241.276 257.205Z" fill="url(#paint6_linear_101_8)"/>
<path d="M256.177 274.513C251.051 274.513 247.414 272.931 244.126 271.499C241.829 270.498 239.657 269.555 237.286 269.349C235.536 269.2 233.615 269.508 231.761 269.806C228.35 270.354 224.824 270.919 221.828 268.839C219.857 267.474 218.863 265.441 217.901 263.473C216.96 261.548 216.071 259.73 214.343 258.83C213.151 258.21 211.72 258.139 210.207 258.062C208.696 257.987 207.134 257.909 205.623 257.288C201.789 255.715 200.556 251.984 199.364 248.376C198.429 245.54 197.541 242.86 195.499 241.155C191.491 237.808 187.378 238.091 182.171 238.449C178.796 238.681 174.975 238.944 170.754 238.127C168.554 237.702 167.023 236.491 166.329 234.627C165.125 231.391 166.684 226.671 170.609 221.675C171.377 220.698 172.428 219.618 173.539 218.473C175.692 216.256 178.641 213.224 178.529 211.512C178.514 211.283 178.442 210.975 178.008 210.631C176.483 209.424 174.606 208.676 172.618 207.887C170.22 206.932 167.741 205.944 165.828 204.06C160.69 198.998 164.294 194.116 166.926 190.552C168.152 188.89 169.421 187.173 169.185 186.205C168.73 184.335 166.886 183.213 164.336 181.658C162.666 180.639 160.769 179.483 158.85 177.849C156.894 176.181 155.953 174.514 155.972 172.747C156.007 169.67 158.936 167.284 162.038 164.76C164.955 162.385 167.97 159.931 168.066 157.197C168.18 153.861 164.3 148.731 160.551 143.769C156.6 138.547 152.871 133.612 152.868 129.772C152.866 127.078 153.628 125.026 155.192 123.498C159.001 119.783 166.872 119.985 177.754 120.262L181.114 120.343C181.656 120.356 182.249 120.379 182.877 120.403C186.894 120.56 192.98 120.802 193.627 118.005C193.954 116.597 193.542 115.352 193.066 113.912C192.569 112.406 192.005 110.699 192.419 108.736C193.313 104.519 198.308 104.319 200.44 104.235C202.497 104.151 204.557 104.246 206.55 104.337C211.296 104.553 215.778 104.761 219.865 102.666C221.099 102.035 222.118 101.11 223.197 100.132C224.299 99.1315 225.439 98.0967 226.873 97.3352C231.158 95.0584 235.339 95.8247 241.122 96.8861C244.401 97.4875 248.118 98.169 252.747 98.4846L253.539 98.5395C269.541 99.6324 286.09 100.763 301.28 106.863C331.804 119.082 352.922 149.558 353.828 182.699C354.197 196.182 351.364 209.694 345.638 221.772C338.294 237.276 326.194 250.511 311.568 259.036C298.165 266.848 287.426 268.583 279.587 269.848C277.645 270.162 275.882 270.445 274.299 270.79L273.872 270.886C272.204 271.273 270.553 271.728 268.902 272.185C266.165 272.942 263.334 273.725 260.419 274.176C258.9 274.41 257.49 274.513 256.177 274.513ZM236.329 266.951C236.716 266.951 237.101 266.965 237.489 266.998C240.248 267.236 242.59 268.255 245.07 269.336C249.094 271.089 253.258 272.899 260.065 271.843C262.846 271.412 265.608 270.648 268.281 269.91C269.964 269.443 271.647 268.978 273.352 268.584L273.803 268.482C275.425 268.129 277.231 267.837 279.219 267.517C286.876 266.279 297.362 264.585 310.387 256.995C324.607 248.707 336.372 235.838 343.515 220.759C349.083 209.014 351.836 195.875 351.476 182.76C350.597 150.548 330.074 120.924 300.408 109.05C285.564 103.088 269.205 101.97 253.386 100.892L252.593 100.837C247.83 100.51 244.043 99.8161 240.705 99.2037C235.189 98.1909 231.546 97.5236 227.986 99.4141C226.815 100.038 225.83 100.929 224.789 101.875C223.644 102.914 222.46 103.988 220.947 104.762C216.299 107.14 211.289 106.913 206.448 106.69C204.505 106.601 202.5 106.511 200.542 106.588C196.781 106.739 195.1 107.502 194.735 109.222C194.453 110.561 194.85 111.768 195.313 113.168C195.827 114.722 196.409 116.482 195.934 118.534C194.844 123.232 187.88 122.958 182.791 122.758C182.179 122.735 181.598 122.711 181.067 122.7L177.699 122.619C167.78 122.366 159.938 122.166 156.843 125.184C155.757 126.244 155.229 127.744 155.231 129.768C155.232 132.817 158.894 137.66 162.435 142.343C166.619 147.877 170.572 153.104 170.426 157.276C170.294 161.082 166.855 163.882 163.529 166.589C160.986 168.658 158.356 170.8 158.334 172.772C158.323 173.796 158.991 174.869 160.381 176.054C162.157 177.566 163.969 178.67 165.564 179.643C168.369 181.353 170.792 182.829 171.478 185.65C171.974 187.689 170.444 189.76 168.824 191.955C165.792 196.062 164.06 199.007 167.485 202.382C169.056 203.931 171.211 204.789 173.491 205.696C175.548 206.516 177.675 207.362 179.472 208.783C180.329 209.462 180.817 210.353 180.883 211.36C181.062 214.117 178.098 217.168 175.23 220.119C174.163 221.216 173.155 222.254 172.462 223.135C169.157 227.341 167.653 231.43 168.538 233.806C168.936 234.872 169.832 235.547 171.201 235.814C175.117 236.571 178.622 236.334 182.007 236.098C187.291 235.739 192.278 235.393 197.011 239.347C199.57 241.484 200.605 244.614 201.605 247.641C202.723 251.026 203.689 253.95 206.52 255.11C207.655 255.575 208.952 255.641 210.324 255.71C212.025 255.795 213.782 255.883 215.431 256.74C217.849 257.998 218.953 260.256 220.02 262.439C220.887 264.211 221.705 265.885 223.172 266.901C225.387 268.438 228.3 267.974 231.387 267.479C233.006 267.218 234.667 266.951 236.329 266.951Z" fill="url(#paint7_linear_101_8)"/>
<path d="M253.796 285.21C247.933 285.21 243.833 283.336 240.126 281.64C237.406 280.396 235.057 279.321 232.342 279.099C230.304 278.933 228.095 279.332 225.952 279.712C222.081 280.399 218.076 281.112 214.725 278.708C212.52 277.129 211.459 274.751 210.432 272.451C209.408 270.162 208.444 267.998 206.436 266.943C205.051 266.216 203.393 266.162 201.637 266.107C199.915 266.052 198.134 265.994 196.426 265.302C192.093 263.545 190.814 259.227 189.573 255.053C188.623 251.851 187.642 248.541 185.276 246.552C180.67 242.678 175.911 243.181 169.885 243.82C165.979 244.233 161.556 244.701 156.643 243.902C154.2 243.503 152.444 242.165 151.703 240.135C150.369 236.481 152.441 230.949 157.249 225.337C158.202 224.225 159.507 222.986 160.889 221.675C163.585 219.116 167.276 215.611 167.163 213.655C167.148 213.4 167.066 213.057 166.556 212.673C164.704 211.284 162.446 210.455 160.057 209.577C157.335 208.58 154.523 207.547 152.287 205.598C145.966 200.085 150.645 194.23 153.74 190.355C155.274 188.433 156.861 186.446 156.59 185.361C156.059 183.245 153.879 182.029 150.866 180.351C148.841 179.222 146.547 177.944 144.212 176.077C141.905 174.23 140.798 172.391 140.826 170.455C140.877 167.105 144.301 164.525 147.927 161.794C151.447 159.144 155.089 156.402 155.147 153.262C155.214 149.584 150.12 143.483 145.625 138.1C140.759 132.271 136.161 126.766 135.965 122.593C135.824 119.595 136.57 117.332 138.247 115.679C142.376 111.603 151.449 112.146 164.009 112.9L168.127 113.142C168.713 113.175 169.357 113.22 170.037 113.27C174.741 113.606 181.849 114.123 182.445 110.799C182.744 109.127 182.115 107.591 181.447 105.967C180.738 104.239 179.935 102.279 180.293 100.023C181.066 95.1549 186.745 95.0152 189.171 94.9555C191.475 94.8958 193.78 95.045 196.009 95.1863C201.427 95.5333 206.544 95.8568 211.181 93.357C212.586 92.6002 213.721 91.4885 214.923 90.3093C216.127 89.1301 217.37 87.91 218.952 87.0087C223.629 84.3441 228.257 85.2046 234.658 86.3995C238.466 87.1092 242.783 87.9147 248.266 88.2539L251.78 88.469C269.102 89.5179 287.014 90.6029 303.579 96.9622C338.577 110.361 362.784 144.71 363.814 182.436C364.227 197.565 361.031 212.719 354.575 226.26C346.301 243.622 332.669 258.416 316.188 267.921C300.979 276.69 289.071 278.49 280.373 279.804C278.052 280.156 276.049 280.459 274.276 280.85L273.797 280.96C271.849 281.417 269.927 281.971 268.003 282.527C265.009 283.389 261.912 284.282 258.722 284.797C256.946 285.085 255.311 285.21 253.796 285.21ZM231.355 276.703C231.747 276.703 232.14 276.717 232.534 276.749C235.663 277.004 238.308 278.214 241.107 279.495C245.681 281.586 250.409 283.75 258.346 282.47C261.397 281.979 264.423 281.106 267.35 280.263C269.311 279.697 271.272 279.132 273.26 278.666L273.764 278.551C275.619 278.141 277.658 277.834 280.021 277.477C288.532 276.19 300.186 274.429 315.01 265.883C331.08 256.615 344.376 242.185 352.447 225.249C358.743 212.044 361.859 197.262 361.455 182.505C360.452 145.722 336.855 112.231 302.736 99.1684C286.51 92.9378 268.782 91.8653 251.639 90.8274L248.123 90.6139C242.494 90.2653 237.91 89.4096 234.228 88.7234C228.1 87.5803 224.053 86.8219 220.121 89.0641C218.807 89.8131 217.724 90.8746 216.578 91.9988C215.312 93.2393 214.001 94.5221 212.302 95.4376C207.07 98.2576 201.376 97.8933 195.862 97.5448C193.682 97.4066 191.425 97.2653 189.231 97.3171C184.869 97.4239 182.956 98.3157 182.625 100.396C182.371 101.999 182.985 103.493 183.633 105.074C184.363 106.853 185.191 108.869 184.768 111.218C183.798 116.629 175.415 116.024 169.869 115.626C169.2 115.577 168.57 115.531 167.994 115.498L163.868 115.257C152.369 114.567 143.285 114.021 139.905 117.361C138.732 118.518 138.215 120.195 138.323 122.486C138.482 125.865 143.036 131.318 147.439 136.591C152.661 142.843 157.593 148.751 157.51 153.309C157.43 157.597 153.322 160.69 149.349 163.682C146.336 165.951 143.221 168.296 143.188 170.492C143.171 171.636 144.012 172.894 145.689 174.235C147.869 175.979 150.072 177.207 152.017 178.291C155.282 180.109 158.1 181.682 158.879 184.79C159.435 187.007 157.651 189.241 155.585 191.829C151.742 196.64 149.544 200.076 153.84 203.822C155.748 205.485 158.237 206.397 160.87 207.366C163.316 208.264 165.846 209.191 167.975 210.789C168.925 211.504 169.461 212.447 169.522 213.521C169.698 216.571 166.045 220.038 162.516 223.388C161.178 224.657 159.915 225.857 159.044 226.874C154.044 232.709 153.119 237.134 153.922 239.328C154.371 240.557 155.415 241.314 157.026 241.574C161.622 242.325 165.7 241.893 169.638 241.476C175.702 240.835 181.421 240.229 186.796 244.748C189.704 247.193 190.789 250.848 191.837 254.383C193.015 258.355 194.034 261.786 197.314 263.118C198.632 263.652 200.128 263.7 201.716 263.75C203.66 263.813 205.669 263.876 207.535 264.856C210.267 266.291 211.448 268.935 212.589 271.492C213.53 273.597 214.417 275.585 216.103 276.793C218.649 278.62 221.996 278.022 225.543 277.391C227.445 277.05 229.406 276.703 231.355 276.703Z" fill="url(#paint8_linear_101_8)"/>
<path d="M251.409 295.911C244.812 295.911 240.249 293.744 236.123 291.783C233.081 290.34 230.455 289.092 227.397 288.852C225.089 288.668 222.572 289.156 220.138 289.621C215.805 290.45 211.328 291.306 207.624 288.585C205.187 286.795 204.056 284.075 202.963 281.443C201.858 278.785 200.815 276.273 198.525 275.06C196.946 274.224 195.059 274.191 193.062 274.154C191.127 274.12 189.128 274.084 187.224 273.318C182.399 271.377 181.069 266.476 179.783 261.739C178.781 258.046 177.743 254.226 175.053 251.953C169.84 247.549 164.435 248.271 157.589 249.193C153.157 249.788 148.129 250.463 142.526 249.68C139.813 249.301 137.879 247.871 137.078 245.652C135.592 241.537 138.135 235.317 143.88 229.014C145.018 227.768 146.581 226.369 148.236 224.888C151.477 221.988 155.919 218.015 155.803 215.812C155.787 215.526 155.693 215.145 155.099 214.716C152.965 213.179 150.359 212.304 147.601 211.379C144.48 210.332 141.251 209.25 138.706 207.104C131.446 200.975 136.745 194.693 140.614 190.105C142.429 187.955 144.302 185.732 143.993 184.52C143.385 182.15 140.872 180.842 137.392 179.033C135.013 177.798 132.317 176.397 129.568 174.299C126.916 172.277 125.644 170.27 125.681 168.168C125.744 164.55 129.659 161.774 133.804 158.836C137.937 155.907 142.208 152.88 142.227 149.33C142.249 145.309 136.109 138.472 130.69 132.442C124.907 126.005 119.443 119.922 119.061 115.412C118.78 112.115 119.512 109.645 121.297 107.862C125.755 103.413 136.068 104.304 150.345 105.539L155.123 105.945C155.755 105.999 156.448 106.065 157.181 106.137C162.572 106.664 170.718 107.454 171.261 103.587C171.533 101.644 170.702 99.878 169.821 98.0095C168.859 95.9619 167.86 93.8453 168.166 91.2984C168.826 85.7776 175.18 85.7101 177.894 85.6802C180.447 85.6394 183.03 85.842 185.52 86.0351C191.591 86.5077 197.322 86.9505 202.497 84.0519C204.075 83.1695 205.327 81.8662 206.652 80.4892C207.955 79.1309 209.306 77.7272 211.033 76.6877C216.109 73.6384 221.181 74.5962 228.197 75.9215C232.317 76.6987 237.442 77.6675 243.781 78.0302L249.751 78.3568C268.485 79.3618 287.859 80.4028 305.874 87.073C345.34 101.651 372.635 139.871 373.79 182.182C374.247 198.958 370.689 215.756 363.499 230.757C354.296 249.973 339.131 266.33 320.796 276.813C303.753 286.556 290.651 288.423 281.082 289.784C278.462 290.158 276.196 290.48 274.241 290.916L273.714 291.039C271.501 291.563 269.275 292.226 267.12 292.868C263.861 293.839 260.489 294.843 257.013 295.421C254.986 295.764 253.128 295.911 251.409 295.911ZM226.369 286.455C226.772 286.455 227.178 286.47 227.581 286.501C231.075 286.776 234.019 288.173 237.134 289.652C242.264 292.088 247.563 294.603 256.625 293.099C259.955 292.545 263.256 291.562 266.447 290.61C268.631 289.96 270.89 289.287 273.166 288.748L273.729 288.616C275.771 288.161 278.077 287.831 280.748 287.451C290.127 286.115 302.973 284.287 319.625 274.767C337.547 264.52 352.373 248.529 361.37 229.74C368.398 215.074 371.878 198.651 371.429 182.248C370.298 140.892 343.624 103.535 305.052 89.287C287.373 82.7408 268.18 81.7108 249.62 80.7137L243.644 80.3871C237.151 80.0165 231.943 79.0336 227.755 78.2422C221.007 76.9688 216.547 76.124 212.247 78.7133C210.786 79.5894 209.602 80.822 208.349 82.1269C206.963 83.5699 205.531 85.06 203.648 86.1136C197.852 89.3639 191.492 88.8709 185.335 88.392C182.903 88.2036 180.393 87.9979 177.922 88.0434C172.949 88.0968 170.801 89.1221 170.507 91.5826C170.283 93.4574 171.095 95.1815 171.954 97.0077C172.943 99.1086 173.965 101.279 173.596 103.917C172.742 110.025 163.237 109.098 156.952 108.487C156.23 108.417 155.548 108.351 154.928 108.299L150.139 107.891C137.01 106.755 126.642 105.86 122.962 109.533C121.699 110.794 121.191 112.653 121.409 115.214C121.726 118.935 127.175 125.001 132.444 130.867C138.701 137.833 144.61 144.41 144.583 149.342C144.558 154.106 139.783 157.489 135.167 160.762C131.684 163.231 128.081 165.786 128.038 168.21C128.015 169.493 129.01 170.911 130.996 172.424C133.584 174.398 136.184 175.748 138.477 176.942C142.195 178.875 145.406 180.544 146.276 183.935C146.888 186.325 144.816 188.783 142.417 191.626C137.795 197.103 135.148 201.015 140.226 205.3C142.428 207.157 145.304 208.121 148.35 209.142C151.155 210.082 154.053 211.054 156.476 212.8C157.789 213.746 158.114 214.89 158.156 215.687C158.332 219.018 153.998 222.895 149.808 226.645C148.198 228.083 146.678 229.443 145.623 230.602C139.565 237.247 138.381 242.317 139.297 244.848C139.801 246.244 140.996 247.081 142.85 247.34C148.14 248.078 152.783 247.455 157.272 246.85C164.106 245.935 170.561 245.067 176.573 250.148C179.825 252.896 180.96 257.074 182.058 261.117C183.245 265.492 184.366 269.623 188.102 271.126C189.603 271.729 191.302 271.76 193.101 271.791C195.288 271.831 197.549 271.871 199.627 272.971C202.67 274.582 203.926 277.607 205.141 280.533C206.156 282.973 207.112 285.276 209.02 286.678C211.895 288.792 215.682 288.065 219.692 287.299C221.884 286.886 224.136 286.455 226.369 286.455Z" fill="url(#paint9_linear_101_8)"/>
<path d="M249.022 306.614C241.693 306.614 236.666 304.155 232.118 301.93C228.757 300.286 225.852 298.865 222.449 298.607C219.858 298.408 217.044 298.984 214.322 299.535C209.534 300.506 204.582 301.506 200.524 298.465C197.855 296.464 196.657 293.402 195.498 290.441C194.313 287.412 193.193 284.553 190.615 283.179C188.84 282.233 186.724 282.219 184.482 282.204C182.338 282.189 180.12 282.175 178.02 281.337C172.707 279.214 171.325 273.732 169.99 268.431C168.935 264.245 167.845 259.918 164.829 257.357C159.007 252.417 152.955 253.364 145.289 254.565C140.324 255.342 134.7 256.218 128.402 255.46C125.426 255.099 123.313 253.576 122.452 251.172C120.815 246.596 123.825 239.692 130.508 232.703C131.833 231.316 133.656 229.757 135.587 228.105C139.373 224.866 144.559 220.43 144.438 217.979C144.424 217.687 144.325 217.241 143.636 216.762C141.219 215.079 138.267 214.16 135.143 213.189C131.618 212.093 127.973 210.959 125.119 208.611C122.677 206.603 121.341 204.367 121.146 201.966C120.785 197.485 124.345 193.439 127.485 189.868C129.578 187.489 131.742 185.029 131.392 183.686C130.705 181.059 127.855 179.658 123.913 177.719C121.181 176.377 118.083 174.854 114.914 172.527C111.918 170.327 110.486 168.155 110.53 165.889C110.607 162.005 115.008 159.034 119.67 155.887C124.417 152.684 129.324 149.371 129.3 145.401C129.275 141.036 122.088 133.471 115.746 126.798C109.044 119.744 102.715 113.082 102.151 108.232C101.734 104.637 102.45 101.962 104.343 100.051C109.129 95.221 120.711 96.4677 136.735 98.1887L142.11 98.7586C142.783 98.8293 143.523 98.9157 144.305 99.0067C149.099 99.572 156.344 100.421 159.051 98.2609C159.663 97.7741 159.988 97.1743 160.074 96.3735C160.316 94.158 159.281 92.1607 158.185 90.0456C157.003 87.7657 155.783 85.4088 156.034 82.5746C156.582 76.432 163.606 76.421 166.603 76.4147C169.42 76.4382 172.24 76.6534 174.969 76.8952C181.713 77.4997 188.081 78.065 193.809 74.7519C195.558 73.7422 196.927 72.249 198.375 70.6678C199.782 69.1321 201.236 67.5446 203.11 66.3701C208.579 62.9377 214.097 63.9928 221.733 65.4516C226.349 66.3324 232.093 67.43 239.286 67.8116C242.039 67.9576 244.795 68.0895 247.549 68.2198C267.757 69.1824 288.653 70.1779 308.163 77.1872C352.097 92.9426 382.478 135.035 383.759 181.931C384.261 200.349 380.341 218.789 372.42 235.256C362.288 256.328 345.589 274.246 325.401 285.707C306.507 296.434 291.605 298.446 281.746 299.776C278.838 300.167 276.326 300.506 274.201 300.986L273.614 301.123C271.143 301.715 268.654 302.478 266.247 303.214C262.715 304.295 259.063 305.413 255.298 306.055C253.029 306.444 250.945 306.614 249.022 306.614ZM221.375 296.211C221.793 296.211 222.21 296.225 222.626 296.257C226.483 296.549 229.724 298.135 233.156 299.813C238.578 302.464 244.727 305.469 254.907 303.734C258.523 303.117 262.101 302.023 265.562 300.964C268.004 300.217 270.529 299.444 273.074 298.834L273.689 298.691C275.914 298.188 278.474 297.843 281.437 297.442C291.695 296.057 305.747 294.162 324.24 283.661C344.016 272.434 360.374 254.88 370.299 234.237C378.057 218.108 381.898 200.044 381.405 182C380.151 136.068 350.4 94.8426 307.372 79.4122C288.193 72.5206 267.478 71.5329 247.443 70.5798C244.685 70.4479 241.926 70.316 239.169 70.1716C231.814 69.7822 225.982 68.6689 221.298 67.7739C213.926 66.3654 209.054 65.4374 204.371 68.3721C202.768 69.3786 201.484 70.7824 200.122 72.2662C198.617 73.9087 197.06 75.6076 194.996 76.7994C188.622 80.4815 181.578 79.8566 174.768 79.2505C172.094 79.0134 169.354 78.7904 166.619 78.7794C161.028 78.7888 158.646 79.9508 158.391 82.7897C158.2 84.9377 159.212 86.8942 160.286 88.9653C161.495 91.2986 162.745 93.7105 162.427 96.6342C162.271 98.0615 161.632 99.2313 160.527 100.111C157.047 102.88 149.527 101.998 144.036 101.354C143.264 101.265 142.537 101.178 141.873 101.109L136.49 100.538C121.696 98.9455 110.01 97.6925 106.027 101.715C104.671 103.083 104.172 105.126 104.502 107.963C104.976 112.03 111.324 118.713 117.464 125.176C124.751 132.846 131.635 140.091 131.666 145.392C131.698 150.624 126.257 154.297 120.997 157.847C117.04 160.518 112.95 163.28 112.896 165.941C112.868 167.364 114.019 168.942 116.316 170.631C119.317 172.834 122.314 174.309 124.958 175.607C129.295 177.738 132.722 179.421 133.681 183.094C134.348 185.65 131.991 188.329 129.262 191.43C126.431 194.648 123.223 198.297 123.503 201.781C123.646 203.543 124.666 205.184 126.623 206.793C129.121 208.847 132.387 209.864 135.848 210.94C139.007 211.923 142.273 212.937 144.988 214.829C146.409 215.819 146.758 217.026 146.798 217.865C146.977 221.473 141.968 225.756 137.124 229.9C135.24 231.513 133.458 233.036 132.216 234.336C126.345 240.475 123.387 246.774 124.677 250.379C125.238 251.943 126.587 252.864 128.689 253.119C134.661 253.843 139.88 253.026 144.928 252.236C152.861 250.993 159.715 249.923 166.358 255.56C169.953 258.61 171.136 263.311 172.283 267.858C173.528 272.803 174.706 277.473 178.901 279.15C180.586 279.822 182.489 279.836 184.504 279.848C186.933 279.864 189.442 279.881 191.73 281.1C195.079 282.885 196.412 286.291 197.701 289.585C198.788 292.36 199.815 294.982 201.947 296.58C205.153 298.984 209.382 298.13 213.86 297.226C216.324 296.725 218.866 296.211 221.375 296.211Z" fill="url(#paint10_linear_101_8)"/>
<path d="M246.637 317.325C238.577 317.325 233.086 314.574 228.12 312.085C224.435 310.24 221.253 308.645 217.504 308.37C214.637 308.157 211.52 308.821 208.507 309.457C203.259 310.562 197.834 311.71 193.431 308.353C190.531 306.145 189.264 302.741 188.039 299.45C186.772 296.051 185.575 292.84 182.711 291.305C180.739 290.249 178.382 290.263 175.906 290.261C173.551 290.272 171.117 290.272 168.821 289.363C163.021 287.06 161.587 280.999 160.204 275.137C159.097 270.456 157.952 265.617 154.608 262.77C148.176 257.293 141.47 258.463 132.988 259.944C127.492 260.902 121.262 261.988 114.276 261.244C111.038 260.9 108.749 259.284 107.83 256.697C106.04 251.664 109.518 244.077 117.132 236.403C118.644 234.879 120.729 233.158 122.937 231.335C127.272 227.756 133.208 222.856 133.08 220.155C133.065 219.83 132.955 219.337 132.174 218.809C129.474 216.982 126.176 216.017 122.686 215C118.76 213.855 114.7 212.67 111.537 210.123C108.824 207.939 107.345 205.507 107.142 202.894C106.764 197.992 110.799 193.553 114.362 189.637C116.735 187.027 119.187 184.331 118.799 182.853C118.03 179.97 114.844 178.476 110.437 176.406C107.351 174.957 103.851 173.316 100.265 170.758C96.9297 168.381 95.3359 166.046 95.3877 163.618C95.4788 159.468 100.367 156.3 105.541 152.944C110.906 149.465 116.452 145.867 116.384 141.48C116.312 136.768 108.078 128.476 100.811 121.162C93.191 113.49 85.9932 106.243 85.2521 101.051C84.6978 97.1612 85.4013 94.2814 87.4033 92.2433C92.5174 87.0334 105.385 88.6366 123.201 90.8521L129.102 91.5791C129.821 91.6671 130.607 91.7707 131.441 91.8838C136.774 92.5951 144.835 93.6722 147.801 91.2918C148.473 90.7501 148.823 90.0749 148.902 89.1642C149.111 86.6738 147.87 84.4457 146.557 82.0857C145.16 79.5718 143.714 76.9731 143.916 73.8531C144.356 67.095 152.334 67.1437 155.324 67.1594C158.389 67.1704 161.46 67.4734 164.431 67.7655C171.846 68.4941 178.849 69.1849 185.134 65.462C187.058 64.322 188.543 62.6388 190.115 60.8566C191.624 59.1451 193.185 57.3739 195.204 56.0628C201.072 52.255 207.037 53.4013 215.293 54.9935C220.402 55.978 226.762 57.2043 234.807 57.6047C238.284 57.7774 241.767 57.925 245.251 58.0742C266.97 58.9928 289.431 59.9443 310.469 67.3164C358.87 84.2494 392.335 130.215 393.741 181.693C394.288 201.76 390.004 221.843 381.353 239.77C370.327 262.623 352.097 282.101 330.021 294.615C309.188 306.326 293.015 308.417 282.312 309.802C279.162 310.209 276.441 310.561 274.171 311.073L273.535 311.222C270.8 311.881 268.052 312.742 265.393 313.572C261.587 314.763 257.652 315.992 253.592 316.699C251.072 317.134 248.765 317.325 246.637 317.325ZM216.38 305.973C216.813 305.973 217.246 305.988 217.678 306.018C221.894 306.328 225.432 308.1 229.178 309.977C235.131 312.96 241.876 316.341 253.191 314.37C257.098 313.692 260.957 312.484 264.69 311.316C267.386 310.473 270.171 309.601 272.985 308.923L273.651 308.766C276.03 308.229 278.801 307.871 282.009 307.455C292.531 306.095 308.432 304.04 328.862 292.554C350.52 280.276 368.409 261.164 379.23 238.738C387.718 221.149 391.922 201.443 391.385 181.751C390.006 131.246 357.175 86.1494 309.692 69.5367C288.984 62.2808 266.703 61.3371 245.153 60.4248C241.664 60.2756 238.177 60.128 234.693 59.9553C226.482 59.5471 220.032 58.3035 214.852 57.3048C206.85 55.7629 201.565 54.7438 196.493 58.0365C194.744 59.1718 193.356 60.7451 191.888 62.4127C190.264 64.2529 188.585 66.1576 186.34 67.4876C179.393 71.6062 171.674 70.8462 164.202 70.1098C161.286 69.8224 158.27 69.5257 155.314 69.5147C149.18 69.5649 146.482 70.7787 146.273 74.0023C146.115 76.4298 147.332 78.6171 148.621 80.9332C150.048 83.4989 151.524 86.151 151.252 89.3573C151.12 90.9118 150.458 92.179 149.279 93.1258C145.527 96.1437 137.205 95.0304 131.129 94.2171C130.304 94.1072 129.527 94.0035 128.817 93.9172L122.909 93.1886C106.412 91.1348 93.3857 89.5143 89.0865 93.8905C87.6357 95.3696 87.1442 97.5993 87.5886 100.711C88.2182 105.13 95.4725 112.433 102.485 119.494C110.801 127.866 118.657 135.774 118.744 141.439C118.832 147.133 112.727 151.091 106.825 154.919C102.394 157.793 97.8121 160.765 97.7478 163.667C97.7132 165.233 99.0212 166.971 101.634 168.833C105.048 171.267 108.444 172.861 111.438 174.267C116.237 176.519 120.026 178.3 121.078 182.246C121.794 184.968 119.159 187.867 116.105 191.222C112.864 194.785 109.191 198.824 109.493 202.71C109.647 204.676 110.798 206.497 113.015 208.283C115.81 210.534 119.47 211.602 123.345 212.733C126.858 213.758 130.488 214.818 133.495 216.853C135.023 217.888 135.392 219.156 135.436 220.04C135.619 223.922 129.935 228.614 124.438 233.152C122.277 234.935 120.236 236.62 118.806 238.062C110.601 246.33 108.962 252.84 110.05 255.904C110.667 257.64 112.172 258.647 114.524 258.897C121.186 259.608 127.238 258.548 132.581 257.617C141.316 256.095 148.861 254.776 156.136 260.971C160.069 264.32 161.305 269.541 162.498 274.592C163.801 280.108 165.032 285.318 169.691 287.168C171.563 287.912 173.661 287.919 175.9 287.901C178.572 287.889 181.326 287.889 183.825 289.225C187.477 291.18 188.887 294.966 190.25 298.626C191.409 301.739 192.505 304.68 194.861 306.475C198.404 309.176 203.074 308.188 208.02 307.147C210.768 306.569 213.594 305.973 216.38 305.973Z" fill="url(#paint11_linear_101_8)"/>
<path d="M244.247 328.031C235.457 328.032 229.503 324.988 224.115 322.237C220.108 320.189 216.649 318.419 212.554 318.127C209.404 317.911 205.99 318.652 202.687 319.373C196.982 320.618 191.084 321.905 186.335 318.237C183.205 315.822 181.869 312.079 180.577 308.458C179.23 304.686 177.958 301.125 174.803 299.428C172.633 298.261 170.06 298.289 167.323 298.313C164.76 298.333 162.105 298.365 159.618 297.382C153.331 294.898 151.848 288.259 150.412 281.838C149.254 276.663 148.056 271.312 144.384 268.176C137.344 262.165 129.991 263.557 120.681 265.317C114.653 266.457 107.826 267.749 100.145 267.025C96.648 266.695 94.1828 264.989 93.203 262.217C91.2889 256.81 95.3306 248.335 103.752 240.101C105.454 238.437 107.803 236.552 110.29 234.558C115.17 230.642 121.854 225.281 121.719 222.329C121.704 221.971 121.581 221.428 120.708 220.852C117.725 218.878 113.911 217.825 110.221 216.806C105.893 215.611 101.417 214.375 97.9481 211.63C94.9679 209.27 93.349 206.643 93.137 203.822C92.7382 198.5 97.2525 193.669 101.236 189.407C103.89 186.567 106.633 183.63 106.203 182.016C105.353 178.871 101.833 177.282 96.9589 175.081C93.517 173.526 89.6166 171.766 85.6095 168.98C81.9383 166.427 80.1828 163.927 80.2441 161.34C80.3493 156.929 85.7178 153.561 91.4035 149.994C97.3891 146.241 103.577 142.358 103.464 137.548C103.345 132.489 94.0618 123.474 85.8717 115.521C77.3314 107.229 69.2652 99.397 68.3514 93.8573C67.6605 89.6774 68.3498 86.592 70.4602 84.4267C75.9088 78.8368 90.0845 80.798 109.704 83.5144L116.084 84.3906C116.847 84.4942 117.682 84.6167 118.566 84.747C124.442 85.6138 133.323 86.9202 136.547 84.3105C137.275 83.7217 137.66 82.946 137.724 81.9379C137.9 79.1744 136.454 76.7139 134.923 74.1105C133.309 71.3642 131.64 68.5237 131.794 65.1195C132.128 57.749 140.793 57.8558 144.04 57.8982C147.356 57.9327 150.682 58.286 153.896 58.6283C161.984 59.4872 169.623 60.299 176.458 56.1631C178.557 54.8944 180.157 53.0195 181.853 51.0332C183.464 49.1443 185.132 47.191 187.297 45.7448C193.55 41.5681 199.937 42.8117 208.774 44.5311C214.393 45.6239 221.385 46.9853 230.324 47.3872C234.703 47.6024 239.087 47.7704 243.473 47.94C266.531 48.8318 290.375 49.7535 312.769 57.4334C365.637 75.5456 402.187 125.381 403.718 181.445C404.31 203.157 399.664 224.883 390.28 244.271C378.318 268.991 358.557 290.03 334.634 303.512C311.941 316.221 294.496 318.375 282.954 319.803C279.528 320.227 276.569 320.593 274.137 321.145L273.448 321.309C270.457 322.037 267.454 322.993 264.549 323.918C260.464 325.218 256.24 326.564 251.883 327.333C249.108 327.817 246.577 328.031 244.247 328.031ZM211.375 315.727C211.825 315.727 212.273 315.742 212.72 315.774C217.294 316.1 221.129 318.06 225.188 320.134C231.673 323.447 239.02 327.203 251.468 325.003C255.67 324.261 259.818 322.938 263.83 321.662C266.773 320.726 269.814 319.756 272.889 319.008L273.608 318.837C276.158 318.256 279.171 317.884 282.66 317.454C294.021 316.05 311.188 313.929 333.475 301.449C356.979 288.201 376.4 267.528 388.152 243.237C397.373 224.185 401.939 202.837 401.356 181.501C399.852 126.417 363.943 77.4534 312.001 59.6584C289.935 52.09 266.266 51.1746 243.378 50.2905C238.985 50.1194 234.593 49.9514 230.211 49.7363C221.104 49.3249 214.016 47.9462 208.322 46.8377C199.424 45.1073 194.047 44.06 188.607 47.6966C186.712 48.9622 185.221 50.7082 183.646 52.5563C181.905 54.5976 180.103 56.708 177.678 58.1729C170.163 62.7202 161.766 61.8299 153.645 60.9648C150.485 60.6287 147.218 60.2817 144.01 60.2487C137.17 60.1608 134.312 61.6038 134.149 65.2169C134.027 67.9223 135.449 70.3436 136.955 72.9061C138.597 75.7027 140.298 78.5934 140.077 82.0792C139.97 83.7594 139.28 85.1239 138.027 86.1366C133.998 89.3995 124.88 88.0554 118.219 87.0725C117.343 86.9453 116.519 86.8228 115.765 86.7207L109.378 85.8446C91.157 83.3213 76.7645 81.3303 72.1466 86.066C70.5968 87.6566 70.1163 90.0778 70.6753 93.4663C71.4635 98.2382 79.6223 106.16 87.5125 113.822C96.8552 122.895 105.68 131.464 105.821 137.487C105.966 143.639 99.1995 147.883 92.6565 151.988C87.7496 155.065 82.6763 158.248 82.601 161.392C82.5601 163.102 84.0251 165.001 86.9551 167.038C90.7817 169.7 94.5784 171.414 97.9261 172.926C103.183 175.3 107.336 177.175 108.478 181.401C109.247 184.284 106.331 187.402 102.957 191.013C99.3048 194.922 95.1657 199.351 95.486 203.641C95.6477 205.808 96.9322 207.815 99.41 209.776C102.503 212.224 106.554 213.343 110.844 214.527C114.712 215.593 118.709 216.697 122.005 218.88C123.637 219.958 124.029 221.292 124.072 222.216C124.262 226.366 117.907 231.465 111.761 236.394C109.321 238.352 107.016 240.202 105.397 241.784C96.1157 250.86 94.2236 258.039 95.4216 261.427C96.0968 263.337 97.7597 264.427 100.362 264.673C107.707 265.362 114.365 264.105 120.237 262.995C129.773 261.19 138.009 259.633 145.91 266.377C150.182 270.024 151.467 275.765 152.709 281.319C154.07 287.408 155.356 293.16 160.48 295.184C162.54 295.997 164.854 295.977 167.294 295.948C170.199 295.915 173.209 295.887 175.916 297.343C179.872 299.469 181.357 303.633 182.795 307.659C184.026 311.11 185.192 314.368 187.775 316.364C191.656 319.363 196.77 318.244 202.181 317.063C205.205 316.406 208.317 315.727 211.375 315.727Z" fill="url(#paint12_linear_101_8)"/>
<path d="M241.852 338.738C232.331 338.738 225.915 335.403 220.108 332.387C215.779 330.137 212.041 328.194 207.598 327.885C204.169 327.64 200.456 328.482 196.861 329.289C190.7 330.672 184.33 332.102 179.234 328.122C175.874 325.498 174.467 321.416 173.107 317.467C171.68 313.321 170.333 309.407 166.888 307.548C164.518 306.269 161.703 306.318 158.731 306.364C155.951 306.409 153.087 306.456 150.405 305.401C143.636 302.737 142.099 295.52 140.612 288.542C139.405 282.87 138.155 277.006 134.152 273.581C126.498 267.03 118.494 268.643 108.363 270.689C101.806 272.009 94.3729 273.512 86.0006 272.804C82.2478 272.488 79.6067 270.689 78.5673 267.738C76.5024 261.881 81.0231 252.708 90.361 243.799C92.2531 241.993 94.866 239.947 97.6326 237.781C103.359 233.296 110.486 227.714 110.347 224.504C110.329 224.113 110.196 223.517 109.229 222.887C105.964 220.778 101.794 219.679 97.7614 218.616C93.0257 217.368 88.1298 216.077 84.3503 213.128C81.1016 210.596 79.343 207.774 79.1216 204.745C78.7039 199.004 83.6955 193.782 88.1015 189.173C91.0362 186.104 94.0698 182.929 93.5956 181.173C92.6645 177.755 88.7971 176.064 83.4427 173.724C79.657 172.069 75.3641 170.193 70.9471 167.195C66.9399 164.455 65.0274 161.788 65.0997 159.04C65.2221 154.362 71.0727 150.798 77.2672 147.026C83.8698 143.003 90.6971 138.844 90.5353 133.607C90.3705 128.203 80.0385 118.466 70.9235 109.877C61.4631 100.961 52.5255 92.5401 51.4389 86.6535C50.6146 82.1815 51.2898 78.8935 53.5084 76.601C59.2899 70.6217 74.7878 72.955 96.2446 76.1771L103.059 77.1946C103.865 77.3139 104.746 77.4521 105.68 77.6013C112.096 78.6203 121.79 80.1591 125.279 77.3218C126.072 76.6764 126.487 75.8175 126.54 74.6964C126.677 71.6612 125.026 68.9714 123.279 66.1231C121.451 63.1413 119.56 60.059 119.666 56.3674C119.897 48.3971 129.225 48.5683 132.747 48.6216C136.315 48.6797 139.89 49.0849 143.346 49.4758C152.109 50.4651 160.386 51.4025 167.777 46.8505C170.055 45.4498 171.776 43.3803 173.596 41.1883C175.307 39.1282 177.078 36.9959 179.384 35.4116L179.387 35.41C186.044 30.8705 192.529 32.1377 202.348 34.0565C208.453 35.2498 216.051 36.7352 225.832 37.1592C230.839 37.39 235.857 37.5627 240.877 37.7339C265.547 38.5818 291.058 39.458 315.065 47.5413C372.397 66.8313 412.031 120.538 413.687 181.184C414.325 204.541 409.316 227.909 399.199 248.761C386.304 275.346 365.009 297.946 339.236 312.396C314.68 326.104 295.96 328.325 283.573 329.794C279.876 330.232 276.683 330.611 274.093 331.206L273.354 331.382C270.099 332.178 266.839 333.231 263.688 334.25C259.326 335.662 254.816 337.121 250.163 337.955C247.141 338.503 244.387 338.738 241.852 338.738ZM206.366 325.484C206.832 325.484 207.299 325.498 207.763 325.531C212.695 325.877 216.825 328.021 221.196 330.294C228.214 333.943 236.171 338.072 249.746 335.638C254.241 334.833 258.674 333.399 262.961 332.013C266.153 330.98 269.453 329.912 272.79 329.095L273.561 328.912C276.276 328.287 279.528 327.902 283.293 327.456C295.495 326.008 313.936 323.821 338.082 310.343C363.436 296.126 384.387 273.892 397.074 247.736C407.025 227.224 411.954 204.233 411.324 181.253C409.696 121.594 370.708 68.7579 314.308 49.782C290.629 41.8085 265.294 40.9387 240.792 40.0955C235.765 39.9227 230.739 39.75 225.725 39.5192C215.77 39.0858 208.076 37.5831 201.892 36.3741C192.33 34.5071 186.559 33.3781 180.717 37.3586C178.68 38.7576 177.091 40.6717 175.408 42.6973C173.546 44.9411 171.617 47.2587 169.009 48.8619C160.926 53.8378 151.852 52.8141 143.077 51.8233C139.675 51.4386 136.159 51.0398 132.703 50.9832C125.232 50.8623 122.137 52.431 122.021 56.4397C121.933 59.4278 123.563 62.0814 125.285 64.8936C127.141 67.9194 129.06 71.0488 128.892 74.811C128.803 76.6183 128.087 78.0786 126.761 79.1573C122.456 82.6573 112.542 81.084 105.306 79.933C104.381 79.787 103.51 79.6488 102.712 79.531L95.8897 78.5135C75.9136 75.5129 60.1363 73.1419 55.2011 78.2435C53.5524 79.9487 53.0798 82.5599 53.7565 86.2264C54.7018 91.3546 63.7697 99.8981 72.5393 108.162C82.9057 117.93 92.6975 127.157 92.8922 133.538C93.0963 140.145 85.6724 144.669 78.4919 149.042C73.1108 152.321 67.546 155.711 67.4565 159.102C67.4063 160.96 69.0283 163.028 72.2723 165.247C76.5056 168.119 80.6917 169.949 84.3849 171.564C90.1161 174.07 94.643 176.048 95.8709 180.558C96.6937 183.598 93.5015 186.937 89.8052 190.805C85.74 195.058 81.1314 199.879 81.4737 204.574C81.6464 206.942 83.0612 209.132 85.8012 211.269C89.1975 213.92 93.649 215.093 98.3628 216.335C102.574 217.445 106.93 218.593 110.513 220.909C112.248 222.041 112.663 223.432 112.703 224.402C112.895 228.824 105.876 234.321 99.0866 239.638C96.3671 241.769 93.7982 243.78 91.9893 245.506C81.6276 255.39 79.4827 263.237 80.7922 266.953C81.7077 269.547 84.2373 270.287 86.2 270.453C94.2379 271.13 101.492 269.665 107.897 268.374C118.232 266.291 127.16 264.493 135.686 271.788C140.297 275.732 141.631 281.993 142.92 288.049C144.34 294.711 145.681 301.006 151.271 303.204C153.518 304.088 156.035 304.051 158.693 304.002C161.84 303.953 165.096 303.898 168.009 305.47C172.264 307.766 173.828 312.307 175.34 316.697C176.645 320.488 177.878 324.068 180.687 326.261C184.903 329.556 190.46 328.307 196.345 326.985C199.639 326.246 203.035 325.484 206.366 325.484Z" fill="url(#paint13_linear_101_8)"/>
<path d="M239.419 349.504C229.183 349.504 222.31 345.875 216.089 342.592C211.44 340.137 207.423 338.018 202.636 337.691C198.928 337.438 194.91 338.36 191.027 339.253C184.412 340.775 177.567 342.347 172.127 338.054C168.537 335.224 167.061 330.803 165.635 326.525C164.128 322.008 162.704 317.739 158.968 315.718C156.4 314.328 153.356 314.399 150.136 314.463C147.151 314.534 144.064 314.595 141.189 313.468C133.938 310.624 132.347 302.831 130.81 295.294C129.551 289.126 128.249 282.75 123.917 279.033C115.651 271.948 106.998 273.782 96.0395 276.106C88.9516 277.609 80.9216 279.311 71.8537 278.63C67.8434 278.327 65.0296 276.436 63.9289 273.307C61.7118 267.002 66.7081 257.132 76.9631 247.548C79.0452 245.6 81.9249 243.391 84.9727 241.05C91.2771 236.211 99.1233 230.187 98.9742 226.727C98.9553 226.301 98.8093 225.654 97.7447 224.974C94.1945 222.715 89.6582 221.57 85.2726 220.463C80.138 219.166 74.8292 217.825 70.7451 214.679C67.231 211.97 65.3311 208.957 65.1002 205.721C64.6622 199.564 70.1327 193.947 74.9595 188.993C78.1753 185.693 81.501 182.279 80.9828 180.384C79.9732 176.703 75.7713 174.919 69.9569 172.45C65.8115 170.689 61.1104 168.694 56.271 165.462C51.9278 162.548 49.8552 159.72 49.9353 156.813C50.0703 151.877 56.4013 148.113 63.1045 144.126C70.3337 139.827 77.8094 135.382 77.6006 129.721C77.3871 123.968 66.0062 113.512 55.9664 104.287C45.5827 94.7482 35.7752 85.7368 34.5175 79.5C33.5596 74.7392 34.2223 71.2486 36.5477 68.8305C42.6637 62.4696 59.5009 65.1688 82.8058 68.9027L90.0178 70.0505C90.8688 70.184 91.7952 70.341 92.7797 70.5075C99.7389 71.682 110.262 73.4516 114.006 70.3881C114.865 69.6847 115.303 68.7441 115.345 67.5115C115.447 64.2 113.59 61.281 111.624 58.1877C109.576 54.9719 107.461 51.6446 107.527 47.6673C107.557 45.4172 108.281 43.5911 109.678 42.2423C112.465 39.5541 117.421 39.3123 121.441 39.4018C125.262 39.4834 129.091 39.9404 132.793 40.38C142.227 41.5012 151.138 42.561 159.085 37.5945C161.536 36.0636 163.371 33.8009 165.315 31.4063C167.13 29.1688 169.008 26.8543 171.462 25.135L171.466 25.1334C178.525 20.214 185.442 21.5737 195.91 23.6307C202.504 24.9277 210.71 26.5403 221.335 26.9862C226.964 27.2312 232.609 27.4039 238.257 27.5766C264.544 28.3821 291.727 29.2143 317.35 37.7044C379.148 58.1735 421.867 115.751 423.648 180.979C424.331 205.98 418.957 230.99 408.11 253.307C394.282 281.757 371.456 305.92 343.834 321.339C317.406 336.053 297.405 338.335 284.171 339.847C280.208 340.299 276.787 340.69 274.044 341.325L273.249 341.515C269.744 342.375 266.24 343.526 262.85 344.639C258.202 346.164 253.397 347.744 248.435 348.635C245.153 349.243 242.164 349.504 239.419 349.504ZM201.347 335.29C201.832 335.29 202.314 335.304 202.797 335.337C208.084 335.7 212.507 338.033 217.19 340.506C224.741 344.492 233.3 349.011 248.014 346.323C252.816 345.457 257.542 343.908 262.113 342.406C265.546 341.281 269.094 340.116 272.687 339.233L273.511 339.035C276.386 338.369 279.871 337.972 283.906 337.511C296.954 336.02 316.671 333.77 342.688 319.287C369.89 304.101 392.371 280.305 405.991 252.283C416.673 230.307 421.964 205.677 421.291 181.053C419.537 116.814 377.47 60.1112 316.61 39.9529C291.313 31.5696 264.305 30.7421 238.187 29.9429C232.529 29.7702 226.875 29.5975 221.235 29.3509C210.432 28.8972 202.127 27.2657 195.457 25.953C185.225 23.94 179.053 22.7278 172.814 27.0757C170.633 28.6051 168.941 30.6919 167.148 32.8996C165.169 35.3397 163.122 37.863 160.336 39.6012C151.684 45.0058 141.938 43.847 132.517 42.7275C128.869 42.2941 125.098 41.8466 121.39 41.7665C118.112 41.6864 113.502 41.8387 111.318 43.946C110.377 44.8535 109.909 46.0846 109.887 47.7082C109.832 50.9805 111.669 53.8696 113.615 56.9268C115.687 60.1834 117.831 63.5515 117.705 67.5916C117.639 69.5214 116.898 71.0759 115.501 72.2174C110.922 75.9592 100.213 74.1535 92.3887 72.8361C91.4137 72.6728 90.4951 72.5173 89.6519 72.3854L82.4321 71.2345C60.6817 67.7486 43.5069 64.9945 38.2483 70.4666C36.4991 72.2865 36.0358 75.0893 36.8304 79.0368C37.9358 84.5199 47.9128 93.6868 57.5617 102.552C68.952 113.016 79.7094 122.899 79.9575 129.635C80.2197 136.696 72.1316 141.506 64.3104 146.155C58.452 149.639 52.3926 153.243 52.2921 156.879C52.2372 158.883 54.0178 161.111 57.5821 163.503C62.2362 166.608 66.8275 168.559 70.877 170.278C77.0605 172.903 81.9438 174.978 83.2565 179.76C84.1311 182.959 80.6625 186.519 76.6475 190.64C72.1677 195.239 67.0897 200.452 67.4524 205.552C67.6361 208.124 69.1828 210.499 72.1834 212.81C75.8797 215.658 80.7222 216.88 85.8489 218.175C90.4166 219.328 95.1398 220.521 99.0134 222.985C100.488 223.929 101.268 225.153 101.329 226.625C101.53 231.31 93.8428 237.212 86.4079 242.92C83.4056 245.224 80.5714 247.4 78.5726 249.268C67.1305 259.962 64.7313 268.478 66.1523 272.522C67.1415 275.332 69.8925 276.114 72.028 276.276C80.7489 276.934 88.6124 275.266 95.5464 273.797C106.682 271.435 116.297 269.395 125.448 277.242C130.397 281.483 131.78 288.263 133.118 294.82C134.596 302.059 135.99 308.894 142.048 311.269C144.483 312.224 147.198 312.163 150.081 312.103C153.474 312.028 156.97 311.952 160.088 313.64C164.645 316.107 166.284 321.023 167.871 325.778C169.25 329.906 170.552 333.806 173.587 336.199C178.144 339.792 184.145 338.412 190.498 336.952C194.069 336.133 197.746 335.29 201.347 335.29Z" fill="url(#paint14_linear_101_8)"/>
<path d="M237.045 360.184C226.072 360.184 218.732 356.265 212.09 352.718C207.117 350.065 202.823 347.772 197.686 347.427C193.687 347.153 189.378 348.169 185.205 349.149C178.131 350.807 170.82 352.523 165.031 347.918C161.212 344.883 159.667 340.122 158.174 335.518C156.585 330.625 155.087 326.004 151.058 323.817C148.288 322.314 145.017 322.404 141.549 322.495C138.352 322.58 135.051 322.666 131.983 321.468C124.251 318.444 122.607 310.075 121.017 301.982C119.709 295.319 118.355 288.428 113.692 284.424C104.801 276.788 95.4899 278.847 83.6977 281.455C76.087 283.138 67.4509 285.043 57.7172 284.391C53.4463 284.094 50.4582 282.109 49.2994 278.798C46.9362 272.049 52.4068 261.486 63.574 251.231C65.8477 249.145 68.9912 246.77 72.3201 244.258C79.2038 239.062 87.7708 232.595 87.6138 228.884C87.5934 228.423 87.4333 227.726 86.2729 226.995C82.4384 224.588 77.5378 223.4 72.8021 222.249C67.264 220.905 61.5375 219.513 57.1504 216.163C53.3693 213.286 51.3281 210.083 51.0863 206.642C50.6262 200.07 56.5772 194.057 61.8264 188.755C65.3264 185.219 68.9457 181.565 68.3836 179.527C67.2923 175.584 62.7591 173.708 56.4846 171.109C51.9797 169.243 46.8718 167.128 41.6085 163.663C36.9309 160.577 34.6996 157.589 34.786 154.529C34.9305 149.333 41.7436 145.369 48.9571 141.17C56.8175 136.596 64.9448 131.863 64.6779 125.772C64.4251 119.667 51.9923 108.491 41.0213 98.63C29.7158 88.4676 19.0369 78.869 17.6112 72.2836C16.5199 67.2338 17.1699 63.5407 19.6022 60.997C26.051 54.2467 44.237 57.3227 69.4121 61.5748L76.9914 62.8482C77.8849 62.9974 78.86 63.1686 79.8931 63.3523C87.3987 64.6775 98.7418 66.6842 102.749 63.3947C103.672 62.6347 104.135 61.6109 104.164 60.2637C104.233 56.6742 102.168 53.5212 99.9807 50.1846C97.7212 46.7364 95.3847 43.1721 95.402 38.9121C95.4083 36.4987 96.1604 34.547 97.6364 33.1102C100.579 30.2493 105.875 30.0185 110.148 30.1237C114.221 30.2305 118.303 30.7361 122.251 31.2244C132.357 32.4759 141.905 33.6566 150.408 28.2787C153.031 26.6174 154.982 24.1648 157.046 21.5677C158.967 19.1527 160.953 16.653 163.557 14.8001L163.558 14.7985C171.017 9.49912 178.365 10.9516 189.485 13.1483C196.567 14.5473 205.38 16.2902 216.849 16.7566C223.091 17.0157 229.351 17.1868 235.618 17.358C263.534 18.1195 292.401 18.9093 319.65 27.8124C384.878 49.12 431.745 111.997 433.621 180.72C434.348 207.368 428.613 234.022 417.035 257.798C402.272 288.115 377.912 313.837 348.443 330.225C320.137 345.946 298.856 348.292 284.774 349.845C280.549 350.309 276.9 350.711 274.008 351.387L273.158 351.592C269.397 352.52 265.638 353.767 262.002 354.975C257.075 356.609 251.981 358.299 246.724 359.258C243.196 359.902 239.989 360.184 237.045 360.184ZM196.338 345.021C196.842 345.021 197.344 345.037 197.845 345.071C203.488 345.451 208.207 347.971 213.202 350.638C221.287 354.953 230.447 359.844 246.297 356.934C251.394 356.003 256.407 354.34 261.258 352.731C264.937 351.509 268.741 350.247 272.594 349.297L273.471 349.086C276.503 348.38 280.216 347.971 284.517 347.497C298.412 345.965 319.408 343.65 347.298 328.162C376.348 312.004 400.362 286.649 414.914 256.763C426.326 233.326 431.979 207.052 431.263 180.783C429.413 113.04 383.215 51.0576 318.917 30.053C291.994 21.2568 263.3 20.4733 235.553 19.7148C229.276 19.5437 223.004 19.371 216.753 19.1119C205.102 18.6393 196.19 16.8775 189.028 15.4627C178.133 13.31 171.558 12.0083 164.926 16.7189C162.592 18.3802 160.798 20.6397 158.895 23.0327C156.798 25.669 154.632 28.3965 151.672 30.2697C142.453 36.103 132.036 34.8123 121.962 33.564C118.071 33.082 114.047 32.5842 110.088 32.4806C106.56 32.3769 101.62 32.5261 99.282 34.7998C98.2629 35.789 97.7667 37.1362 97.762 38.9153C97.7463 42.467 99.7923 45.587 101.956 48.8876C104.242 52.3781 106.607 55.9865 106.525 60.3077C106.483 62.3583 105.718 64.0086 104.249 65.2145C99.4013 69.1966 87.8886 67.1584 79.4849 65.673C78.4595 65.4909 77.4939 65.3213 76.6067 65.1737L69.0211 63.9003C45.4869 59.923 26.8958 56.7794 21.309 62.6253C19.4609 64.5613 19.0055 67.5573 19.9194 71.7827C21.1834 77.6238 32.0711 87.4109 42.5993 96.8745C55.0149 108.034 66.7427 118.576 67.0348 125.67C67.3645 133.184 58.6107 138.279 50.1457 143.206C43.8068 146.895 37.2544 150.71 37.146 154.593C37.0863 156.741 39.0256 159.128 42.9087 161.691C47.9835 165.032 52.9799 167.102 57.389 168.928C64.0216 171.674 69.2597 173.844 70.6588 178.897C71.5836 182.251 67.8403 186.034 63.505 190.413C58.6075 195.361 53.0553 200.969 53.4416 206.474C53.6363 209.247 55.3179 211.801 58.5824 214.285C62.577 217.336 67.8152 218.607 73.3595 219.955C78.2805 221.15 83.3696 222.384 87.529 224.995C89.0851 225.973 89.9063 227.247 89.9722 228.782C90.1827 233.732 81.8245 240.039 73.7427 246.141C70.461 248.617 67.3614 250.957 65.1725 252.968C52.6517 264.463 49.9965 273.646 51.5275 278.017C52.5889 281.048 55.566 281.875 57.8789 282.036C67.2782 282.67 75.7337 280.798 83.1906 279.15C95.1335 276.51 105.447 274.232 115.23 282.634C120.514 287.172 121.948 294.47 123.334 301.528C124.868 309.34 126.319 316.72 132.845 319.271C135.469 320.297 138.393 320.221 141.489 320.138C145.111 320.042 148.863 319.943 152.185 321.746C157.042 324.382 158.76 329.674 160.421 334.793C161.87 339.26 163.239 343.481 166.501 346.075C171.397 349.966 177.844 348.455 184.668 346.855C188.51 345.951 192.469 345.021 196.338 345.021Z" fill="url(#paint15_linear_101_8)"/>
<path d="M234.671 370.863C222.96 370.863 215.153 366.653 208.09 362.846C202.794 359.989 198.222 357.524 192.734 357.16C188.472 356.877 183.848 357.98 179.382 359.043C171.852 360.836 164.07 362.692 157.937 357.78C153.89 354.539 152.275 349.439 150.714 344.507C149.046 339.241 147.471 334.266 143.15 331.916C140.181 330.3 136.673 330.405 132.963 330.521C129.562 330.624 126.04 330.733 122.778 329.462C114.565 326.258 112.867 317.313 111.225 308.664C109.865 301.504 108.461 294.101 103.466 289.805C93.973 281.638 84.0148 283.918 71.4108 286.805C63.2599 288.672 54.0271 290.791 43.5743 290.144C39.0537 289.864 35.8929 287.79 34.6713 284.303C32.1527 277.105 38.0975 265.842 50.1864 254.91C52.6516 252.68 56.0621 250.143 59.672 247.458C67.1352 241.907 76.4213 234.998 76.2533 231.035C76.2329 230.537 76.0586 229.787 74.7993 229.006C70.676 226.45 65.4095 225.213 60.3174 224.016C54.3852 222.622 48.2488 221.182 43.557 217.64C39.5106 214.584 37.3328 211.185 37.0831 207.537C36.6058 200.547 43.0326 194.146 48.7026 188.5C52.4821 184.735 56.3903 180.844 55.7826 178.664C54.6128 174.458 49.7468 172.486 43.0122 169.76C38.1461 167.789 32.6316 165.555 26.9459 161.855C21.9338 158.596 19.5424 155.447 19.6335 152.23C19.7905 146.775 27.0825 142.608 34.8032 138.195C43.2901 133.345 52.0644 128.33 51.7551 121.809C51.4489 115.36 37.9734 103.471 26.0839 92.98C13.852 82.1865 2.29848 71.9927 0.706302 65.0509C-0.520024 59.7138 0.119041 55.8197 2.65805 53.1488C9.44289 46.0138 28.9887 49.4619 56.0464 54.24L63.9665 55.6312C64.9008 55.793 65.9198 55.9814 66.9986 56.1808C75.0553 57.6646 87.229 59.9069 91.4968 56.3865C92.4861 55.57 92.9744 54.4614 92.987 52.9996C93.0215 49.1306 90.7494 45.7453 88.3407 42.1621C85.8677 38.4815 83.3114 34.6753 83.2784 30.1343C83.2611 27.5592 84.0415 25.4818 85.5992 23.9587C88.6972 20.9282 94.32 20.6943 98.8564 20.8293C103.184 20.9597 107.518 21.5155 111.71 22.0541C122.491 23.439 132.675 24.7454 141.734 18.9467C144.532 17.1551 146.597 14.5108 148.782 11.7096C150.808 9.11564 152.901 6.43373 155.654 4.44586C163.516 -1.23198 171.294 0.309954 183.068 2.64955C190.638 4.15223 200.057 6.02077 212.369 6.5091C219.217 6.77918 226.088 6.94876 232.967 7.1152C262.518 7.83592 293.074 8.5802 321.954 17.8993C391.576 40.3673 441.598 107.204 443.598 180.439C444.371 208.732 438.272 237.029 425.962 262.266C410.266 294.448 384.375 321.731 353.058 339.088C322.874 355.817 300.31 358.226 285.379 359.821C280.893 360.299 277.018 360.715 273.976 361.428L273.072 361.646C269.052 362.641 265.038 363.987 261.157 365.287C255.95 367.032 250.567 368.834 245.012 369.861C241.24 370.56 237.814 370.863 234.671 370.863ZM191.329 354.754C191.851 354.754 192.371 354.77 192.891 354.805C198.889 355.202 203.903 357.906 209.21 360.767C217.827 365.414 227.591 370.678 244.579 367.542C249.971 366.545 255.273 364.769 260.402 363.051C264.327 361.735 268.388 360.376 272.498 359.357L273.434 359.132C276.619 358.386 280.56 357.964 285.124 357.477C299.867 355.904 322.145 353.526 351.911 337.027C382.808 319.902 408.354 292.986 423.839 261.233C435.981 236.335 441.998 208.42 441.237 180.505C439.263 108.253 389.913 42.3128 321.226 20.1479C292.671 10.9339 262.289 10.1928 232.906 9.47521C226.016 9.3072 219.132 9.13919 212.272 8.86754C199.776 8.37293 190.256 6.48241 182.606 4.96402C171.04 2.66682 164.057 1.28191 157.034 6.35836C154.553 8.14996 152.653 10.5838 150.64 13.1605C148.428 15.9947 146.141 18.9231 143.004 20.933C133.223 27.1933 122.629 25.832 111.409 24.3921C107.273 23.8614 102.997 23.3134 98.7857 23.1878C95.0298 23.0763 89.7398 23.2098 87.2479 25.6436C86.1503 26.7176 85.6227 28.181 85.6368 30.1171C85.6635 33.9468 87.9152 37.2976 90.2972 40.8462C92.8001 44.5692 95.3862 48.4193 95.3438 53.02C95.325 55.1916 94.5336 56.9361 92.9948 58.2064C87.8807 62.4286 75.5624 60.1581 66.5683 58.5C65.4975 58.3022 64.4863 58.1169 63.5598 57.9551L55.6335 56.5624C30.2936 52.0889 10.2735 48.5575 4.36643 54.7739C2.41467 56.8277 1.96874 60.0168 3.0035 64.5233C4.42767 70.7256 16.2293 81.1391 27.6431 91.2104C41.0714 103.059 53.7555 114.25 54.1104 121.696C54.4888 129.661 45.0754 135.041 35.973 140.243C29.1583 144.137 22.1113 148.166 21.9919 152.297C21.926 154.592 24.0253 157.142 28.2319 159.877C33.7276 163.452 39.1322 165.639 43.8994 167.569C50.9825 170.438 56.5756 172.704 58.0578 178.028C59.0329 181.539 55.2095 185.347 50.3686 190.169C45.055 195.461 39.0349 201.457 39.44 207.374C39.6426 210.351 41.4561 213.094 44.9812 215.756C49.2757 218.996 54.9018 220.32 60.8591 221.718C66.1381 222.956 71.5945 224.239 76.0476 227C77.6838 228.014 78.5474 229.336 78.6149 230.933C78.8347 236.145 69.8108 242.857 61.0852 249.348C57.5208 252 54.1543 254.503 51.7739 256.656C38.165 268.963 35.2585 278.821 36.9025 283.521C38.0394 286.768 41.2394 287.633 43.7235 287.787C53.8419 288.413 62.8925 286.334 70.888 284.502C83.6144 281.585 94.609 279.069 105.008 288.015C110.628 292.848 112.112 300.664 113.546 308.221C115.138 316.609 116.642 324.534 123.639 327.262C126.451 328.359 129.584 328.263 132.892 328.161C136.753 328.042 140.749 327.921 144.279 329.84C149.436 332.644 151.23 338.313 152.965 343.793C154.489 348.601 155.925 353.142 159.414 355.937C164.649 360.128 171.539 358.485 178.838 356.744C182.952 355.766 187.193 354.754 191.329 354.754Z" fill="url(#paint16_linear_101_8)"/>
<defs>
<linearGradient id="paint0_linear_101_8" x1="151.176" y1="116.651" x2="326.393" y2="219.641" gradientUnits="userSpaceOnUse">
<stop stop-color="#BE0081"/>
<stop offset="0.1581" stop-color="#A60889"/>
<stop offset="0.4927" stop-color="#681B9D"/>
<stop offset="0.9735" stop-color="#063ABC"/>
<stop offset="1" stop-color="#003CBE"/>
</linearGradient>
<linearGradient id="paint1_linear_101_8" x1="151.174" y1="116.655" x2="326.393" y2="219.646" gradientUnits="userSpaceOnUse">
<stop stop-color="#BE0081"/>
<stop offset="0.1581" stop-color="#A60889"/>
<stop offset="0.4927" stop-color="#681B9D"/>
<stop offset="0.9735" stop-color="#063ABC"/>
<stop offset="1" stop-color="#003CBE"/>
</linearGradient>
<linearGradient id="paint2_linear_101_8" x1="151.172" y1="116.657" x2="326.39" y2="219.648" gradientUnits="userSpaceOnUse">
<stop stop-color="#BE0081"/>
<stop offset="0.1581" stop-color="#A60889"/>
<stop offset="0.4927" stop-color="#681B9D"/>
<stop offset="0.9735" stop-color="#063ABC"/>
<stop offset="1" stop-color="#003CBE"/>
</linearGradient>
<linearGradient id="paint3_linear_101_8" x1="150.684" y1="117.488" x2="325.902" y2="220.479" gradientUnits="userSpaceOnUse">
<stop stop-color="#BE0081"/>
<stop offset="0.1581" stop-color="#A60889"/>
<stop offset="0.4927" stop-color="#681B9D"/>
<stop offset="0.9735" stop-color="#063ABC"/>
<stop offset="1" stop-color="#003CBE"/>
</linearGradient>
<linearGradient id="paint4_linear_101_8" x1="150.248" y1="118.23" x2="325.466" y2="221.22" gradientUnits="userSpaceOnUse">
<stop stop-color="#BE0081"/>
<stop offset="0.1581" stop-color="#A60889"/>
<stop offset="0.4927" stop-color="#681B9D"/>
<stop offset="0.9735" stop-color="#063ABC"/>
<stop offset="1" stop-color="#003CBE"/>
</linearGradient>
<linearGradient id="paint5_linear_101_8" x1="149.711" y1="119.145" x2="324.929" y2="222.136" gradientUnits="userSpaceOnUse">
<stop stop-color="#BE0081"/>
<stop offset="0.1581" stop-color="#A60889"/>
<stop offset="0.4927" stop-color="#681B9D"/>
<stop offset="0.9735" stop-color="#063ABC"/>
<stop offset="1" stop-color="#003CBE"/>
</linearGradient>
<linearGradient id="paint6_linear_101_8" x1="149.179" y1="120.049" x2="324.398" y2="223.04" gradientUnits="userSpaceOnUse">
<stop stop-color="#BE0081"/>
<stop offset="0.1581" stop-color="#A60889"/>
<stop offset="0.4927" stop-color="#681B9D"/>
<stop offset="0.9735" stop-color="#063ABC"/>
<stop offset="1" stop-color="#003CBE"/>
</linearGradient>
<linearGradient id="paint7_linear_101_8" x1="148.64" y1="120.967" x2="323.858" y2="223.957" gradientUnits="userSpaceOnUse">
<stop stop-color="#BE0081"/>
<stop offset="0.1581" stop-color="#A60889"/>
<stop offset="0.4927" stop-color="#681B9D"/>
<stop offset="0.9735" stop-color="#063ABC"/>
<stop offset="1" stop-color="#003CBE"/>
</linearGradient>
<linearGradient id="paint8_linear_101_8" x1="148.109" y1="121.87" x2="323.327" y2="224.86" gradientUnits="userSpaceOnUse">
<stop stop-color="#BE0081"/>
<stop offset="0.1581" stop-color="#A60889"/>
<stop offset="0.4927" stop-color="#681B9D"/>
<stop offset="0.9735" stop-color="#063ABC"/>
<stop offset="1" stop-color="#003CBE"/>
</linearGradient>
<linearGradient id="paint9_linear_101_8" x1="147.57" y1="122.786" x2="322.788" y2="225.776" gradientUnits="userSpaceOnUse">
<stop stop-color="#BE0081"/>
<stop offset="0.1581" stop-color="#A60889"/>
<stop offset="0.4927" stop-color="#681B9D"/>
<stop offset="0.9735" stop-color="#063ABC"/>
<stop offset="1" stop-color="#003CBE"/>
</linearGradient>
<linearGradient id="paint10_linear_101_8" x1="147.011" y1="123.738" x2="322.229" y2="226.729" gradientUnits="userSpaceOnUse">
<stop stop-color="#BE0081"/>
<stop offset="0.1581" stop-color="#A60889"/>
<stop offset="0.4927" stop-color="#681B9D"/>
<stop offset="0.9735" stop-color="#063ABC"/>
<stop offset="1" stop-color="#003CBE"/>
</linearGradient>
<linearGradient id="paint11_linear_101_8" x1="146.451" y1="124.689" x2="321.669" y2="227.68" gradientUnits="userSpaceOnUse">
<stop stop-color="#BE0081"/>
<stop offset="0.1581" stop-color="#A60889"/>
<stop offset="0.4927" stop-color="#681B9D"/>
<stop offset="0.9735" stop-color="#063ABC"/>
<stop offset="1" stop-color="#003CBE"/>
</linearGradient>
<linearGradient id="paint12_linear_101_8" x1="145.893" y1="125.639" x2="321.111" y2="228.63" gradientUnits="userSpaceOnUse">
<stop stop-color="#BE0081"/>
<stop offset="0.1581" stop-color="#A60889"/>
<stop offset="0.4927" stop-color="#681B9D"/>
<stop offset="0.9735" stop-color="#063ABC"/>
<stop offset="1" stop-color="#003CBE"/>
</linearGradient>
<linearGradient id="paint13_linear_101_8" x1="145.334" y1="126.589" x2="320.552" y2="229.579" gradientUnits="userSpaceOnUse">
<stop stop-color="#BE0081"/>
<stop offset="0.1581" stop-color="#A60889"/>
<stop offset="0.4927" stop-color="#681B9D"/>
<stop offset="0.9735" stop-color="#063ABC"/>
<stop offset="1" stop-color="#003CBE"/>
</linearGradient>
<linearGradient id="paint14_linear_101_8" x1="144.754" y1="127.577" x2="319.972" y2="230.568" gradientUnits="userSpaceOnUse">
<stop stop-color="#BE0081"/>
<stop offset="0.1581" stop-color="#A60889"/>
<stop offset="0.4927" stop-color="#681B9D"/>
<stop offset="0.9735" stop-color="#063ABC"/>
<stop offset="1" stop-color="#003CBE"/>
</linearGradient>
<linearGradient id="paint15_linear_101_8" x1="144.172" y1="128.567" x2="319.39" y2="231.558" gradientUnits="userSpaceOnUse">
<stop stop-color="#BE0081"/>
<stop offset="0.1581" stop-color="#A60889"/>
<stop offset="0.4927" stop-color="#681B9D"/>
<stop offset="0.9735" stop-color="#063ABC"/>
<stop offset="1" stop-color="#003CBE"/>
</linearGradient>
<linearGradient id="paint16_linear_101_8" x1="143.622" y1="129.502" x2="318.84" y2="232.492" gradientUnits="userSpaceOnUse">
<stop stop-color="#BE0081"/>
<stop offset="0.1581" stop-color="#A60889"/>
<stop offset="0.4927" stop-color="#681B9D"/>
<stop offset="0.9735" stop-color="#063ABC"/>
<stop offset="1" stop-color="#003CBE"/>
</linearGradient>
</defs>
</svg>
