<svg width="242" height="234" viewBox="0 0 242 234" fill="none" xmlns="http://www.w3.org/2000/svg">
<path d="M140.079 165.928L141.379 198.695C141.606 204.408 146.33 208.921 152.075 208.912L230.564 208.783C234.404 208.777 237.654 205.963 238.186 202.178C239.351 193.892 240.803 179.071 238.938 165.183L140.079 165.928Z" fill="url(#paint0_linear_101_1308)"/>
<path d="M154.338 207.037C154.219 207.033 154.123 206.936 154.123 206.816C154.122 206.694 154.221 206.594 154.344 206.594L156.114 206.591C156.26 206.579 156.335 206.69 156.336 206.812C156.336 206.935 156.237 207.034 156.115 207.034L154.344 207.037C154.342 207.037 154.34 207.037 154.338 207.037ZM160.239 207.027C160.12 207.024 160.024 206.926 160.024 206.806C160.024 206.684 160.123 206.585 160.245 206.584L162.015 206.582C162.146 206.575 162.237 206.681 162.237 206.803C162.237 206.925 162.138 207.024 162.016 207.024L160.246 207.027C160.243 207.027 160.241 207.027 160.239 207.027ZM166.141 207.017C166.021 207.014 165.925 206.916 165.925 206.796C165.925 206.674 166.024 206.575 166.146 206.575L167.916 206.572C168.049 206.582 168.138 206.671 168.138 206.793C168.138 206.915 168.039 207.014 167.917 207.015L166.147 207.017C166.145 207.017 166.143 207.017 166.141 207.017ZM172.042 207.008C171.923 207.005 171.827 206.907 171.826 206.787C171.826 206.665 171.925 206.566 172.047 206.566L173.818 206.562C173.943 206.567 174.039 206.662 174.039 206.783C174.039 206.905 173.941 207.005 173.818 207.005L172.048 207.008C172.046 207.008 172.044 207.008 172.042 207.008ZM150.287 206.387C150.263 206.386 150.238 206.382 150.215 206.373C149.653 206.161 149.105 205.899 148.586 205.592C148.481 205.53 148.446 205.394 148.508 205.289C148.57 205.184 148.706 205.148 148.811 205.211C149.308 205.504 149.832 205.756 150.37 205.958C150.485 206.001 150.543 206.129 150.5 206.244C150.466 206.334 150.378 206.389 150.287 206.387ZM177.943 206.998C177.824 206.995 177.728 206.897 177.727 206.778C177.727 206.655 177.826 206.556 177.948 206.556L179.719 206.552C179.838 206.551 179.941 206.652 179.941 206.774C179.941 206.896 179.842 206.995 179.72 206.995L177.949 206.999C177.947 206.998 177.945 206.998 177.943 206.998ZM183.844 206.989C183.725 206.985 183.629 206.888 183.629 206.768C183.628 206.646 183.727 206.546 183.85 206.546L185.62 206.543C185.75 206.536 185.841 206.642 185.842 206.764C185.842 206.887 185.743 206.986 185.621 206.986L183.85 206.989C183.848 206.989 183.846 206.989 183.844 206.989ZM189.745 206.979C189.626 206.976 189.53 206.878 189.53 206.758C189.53 206.636 189.629 206.536 189.751 206.536L191.521 206.534C191.662 206.521 191.743 206.632 191.743 206.755C191.743 206.877 191.644 206.976 191.522 206.976L189.752 206.979C189.749 206.979 189.747 206.979 189.745 206.979ZM195.647 206.969C195.527 206.966 195.432 206.868 195.431 206.748C195.431 206.626 195.53 206.527 195.652 206.527L197.422 206.524C197.562 206.516 197.644 206.623 197.644 206.745C197.644 206.867 197.546 206.967 197.423 206.967L195.653 206.969C195.651 206.969 195.649 206.969 195.647 206.969ZM201.548 206.959C201.428 206.956 201.333 206.859 201.332 206.739C201.332 206.616 201.431 206.517 201.553 206.517L203.324 206.514C203.468 206.526 203.545 206.613 203.545 206.735C203.546 206.857 203.447 206.957 203.325 206.957L201.554 206.96C201.552 206.96 201.55 206.96 201.548 206.959ZM207.449 206.95C207.329 206.947 207.234 206.849 207.233 206.729C207.233 206.607 207.332 206.507 207.454 206.507L209.225 206.505C209.361 206.519 209.447 206.603 209.447 206.725C209.447 206.848 209.348 206.947 209.226 206.947L207.455 206.95C207.453 206.95 207.451 206.95 207.449 206.95ZM213.35 206.94C213.231 206.937 213.135 206.839 213.135 206.719C213.135 206.597 213.234 206.498 213.356 206.497L215.126 206.495C215.27 206.504 215.347 206.594 215.348 206.716C215.348 206.838 215.249 206.937 215.127 206.938L213.356 206.94C213.354 206.94 213.352 206.94 213.35 206.94ZM219.251 206.93C219.132 206.927 219.036 206.829 219.036 206.709C219.035 206.587 219.134 206.488 219.257 206.488L221.027 206.485C221.169 206.48 221.249 206.584 221.249 206.706C221.249 206.828 221.15 206.928 221.028 206.928L219.257 206.93C219.255 206.93 219.253 206.93 219.251 206.93ZM225.152 206.921C225.033 206.918 224.937 206.82 224.937 206.7C224.937 206.578 225.036 206.479 225.158 206.479L226.928 206.475C227.046 206.464 227.15 206.574 227.15 206.696C227.15 206.818 227.051 206.918 226.929 206.918L225.159 206.921C225.157 206.921 225.154 206.921 225.152 206.921ZM231.008 206.506C230.919 206.503 230.836 206.447 230.805 206.357C230.765 206.242 230.825 206.116 230.941 206.075C231.482 205.887 231.999 205.633 232.479 205.321C232.581 205.254 232.718 205.284 232.785 205.386C232.852 205.488 232.823 205.625 232.72 205.692C232.211 206.023 231.661 206.293 231.087 206.493C231.061 206.502 231.034 206.506 231.008 206.506ZM145.654 202.868C145.588 202.867 145.524 202.836 145.481 202.778C145.125 202.29 144.811 201.771 144.546 201.231C144.492 201.122 144.538 200.989 144.647 200.936C144.758 200.882 144.89 200.927 144.943 201.037C145.197 201.552 145.498 202.05 145.839 202.516C145.911 202.615 145.889 202.754 145.791 202.826C145.75 202.856 145.702 202.87 145.654 202.868ZM235.258 202.645C235.229 202.644 235.2 202.638 235.172 202.625C235.061 202.574 235.012 202.443 235.063 202.332C235.3 201.812 235.475 201.263 235.58 200.7C235.603 200.58 235.718 200.503 235.838 200.523C235.959 200.546 236.038 200.661 236.015 200.782C235.903 201.38 235.718 201.964 235.465 202.516C235.427 202.599 235.344 202.647 235.258 202.645ZM143.721 197.383C143.606 197.379 143.512 197.289 143.506 197.172L143.435 195.401C143.431 195.279 143.526 195.176 143.648 195.171C143.769 195.16 143.873 195.262 143.878 195.384L143.948 197.151C143.954 197.272 143.86 197.377 143.738 197.382C143.732 197.383 143.726 197.383 143.721 197.383ZM236.331 196.866C236.325 196.866 236.318 196.866 236.311 196.864C236.19 196.85 236.103 196.741 236.117 196.619C236.184 196.052 236.25 195.465 236.314 194.862C236.327 194.74 236.438 194.652 236.558 194.665C236.679 194.678 236.767 194.787 236.754 194.909C236.689 195.514 236.623 196.101 236.557 196.67C236.543 196.785 236.445 196.869 236.331 196.866ZM143.486 191.486C143.371 191.483 143.276 191.391 143.272 191.273L143.201 189.505C143.197 189.383 143.292 189.28 143.414 189.275C143.538 189.264 143.639 189.365 143.643 189.488L143.714 191.257C143.718 191.378 143.623 191.481 143.501 191.486C143.496 191.487 143.491 191.486 143.486 191.486ZM236.914 190.993C236.91 190.993 236.906 190.993 236.902 190.993C236.78 190.983 236.69 190.876 236.699 190.754C236.746 190.177 236.791 189.589 236.833 188.992C236.841 188.869 236.958 188.776 237.069 188.786C237.191 188.795 237.283 188.901 237.274 189.022C237.232 189.621 237.188 190.21 237.141 190.79C237.131 190.908 237.031 190.996 236.914 190.993ZM143.252 185.589C143.137 185.586 143.042 185.494 143.037 185.377L142.967 183.608C142.962 183.486 143.057 183.383 143.179 183.378C143.298 183.368 143.404 183.468 143.409 183.59L143.479 185.36C143.484 185.481 143.389 185.584 143.267 185.589C143.262 185.59 143.257 185.589 143.252 185.589ZM237.282 185.104C237.281 185.104 237.28 185.104 237.279 185.104C237.156 185.098 237.062 184.995 237.067 184.873C237.092 184.29 237.114 183.701 237.132 183.106C237.136 182.984 237.262 182.878 237.36 182.892C237.482 182.896 237.579 182.998 237.575 183.12C237.556 183.717 237.534 184.308 237.509 184.892C237.504 185.013 237.403 185.107 237.282 185.104ZM143.018 179.693C142.903 179.69 142.808 179.597 142.804 179.481L142.733 177.712C142.729 177.59 142.824 177.487 142.946 177.482C143.066 177.472 143.171 177.572 143.175 177.694L143.246 179.463C143.25 179.585 143.155 179.688 143.033 179.693C143.028 179.693 143.023 179.693 143.018 179.693ZM237.413 179.205C237.293 179.201 237.197 179.104 237.197 178.983C237.197 178.398 237.193 177.809 237.185 177.217C237.184 177.095 237.281 176.994 237.404 176.992C237.513 176.995 237.626 177.088 237.628 177.211C237.636 177.805 237.64 178.396 237.64 178.984C237.64 179.106 237.541 179.205 237.418 179.205C237.416 179.205 237.414 179.205 237.413 179.205ZM142.784 173.797C142.669 173.794 142.574 173.701 142.569 173.585L142.499 171.815C142.494 171.693 142.589 171.59 142.712 171.585C142.835 171.576 142.937 171.675 142.941 171.798L143.012 173.566C143.016 173.689 142.921 173.792 142.799 173.796C142.794 173.797 142.789 173.797 142.784 173.797ZM237.27 173.307C237.156 173.304 237.061 173.213 237.056 173.096C237.027 172.51 236.993 171.922 236.953 171.333C236.945 171.211 237.037 171.106 237.159 171.098C237.283 171.091 237.386 171.182 237.395 171.303C237.434 171.894 237.468 172.485 237.498 173.075C237.504 173.197 237.41 173.301 237.288 173.307C237.282 173.307 237.276 173.307 237.27 173.307ZM142.55 167.9C142.435 167.897 142.34 167.804 142.335 167.687L142.256 165.69L144.166 165.676C144.306 165.683 144.388 165.773 144.389 165.895C144.389 166.018 144.291 166.118 144.169 166.118L142.716 166.129L142.777 167.669C142.782 167.792 142.687 167.895 142.565 167.899C142.56 167.9 142.555 167.9 142.55 167.9ZM148.292 166.087C148.174 166.084 148.078 165.987 148.077 165.867C148.076 165.745 148.174 165.645 148.297 165.644L150.067 165.631C150.208 165.629 150.289 165.729 150.29 165.851C150.291 165.973 150.192 166.073 150.07 166.074L148.3 166.087C148.297 166.087 148.295 166.087 148.292 166.087ZM154.193 166.043C154.074 166.04 153.979 165.943 153.977 165.823C153.977 165.701 154.075 165.601 154.197 165.6L155.968 165.587C156.097 165.588 156.19 165.685 156.191 165.807C156.192 165.929 156.093 166.029 155.971 166.03L154.2 166.043C154.198 166.043 154.195 166.043 154.193 166.043ZM160.094 165.998C159.975 165.995 159.88 165.899 159.879 165.779C159.878 165.656 159.976 165.557 160.098 165.556L161.869 165.542C162 165.548 162.091 165.64 162.092 165.762C162.093 165.884 161.994 165.984 161.872 165.985L160.101 165.999C160.099 165.999 160.096 165.998 160.094 165.998ZM165.995 165.954C165.876 165.951 165.781 165.854 165.78 165.734C165.779 165.612 165.877 165.513 165.999 165.511L167.77 165.498C167.904 165.495 167.992 165.595 167.993 165.718C167.994 165.84 167.895 165.939 167.773 165.941L166.003 165.954C166 165.954 165.997 165.954 165.995 165.954ZM171.896 165.909C171.777 165.906 171.682 165.809 171.681 165.69C171.68 165.567 171.778 165.467 171.9 165.467L173.671 165.453C173.806 165.471 173.893 165.551 173.894 165.673C173.895 165.796 173.796 165.895 173.674 165.896L171.904 165.909C171.901 165.909 171.898 165.909 171.896 165.909ZM177.797 165.865C177.678 165.862 177.583 165.765 177.582 165.645C177.581 165.523 177.679 165.423 177.801 165.422L179.572 165.409C179.71 165.417 179.794 165.507 179.795 165.629C179.796 165.751 179.697 165.851 179.575 165.852L177.805 165.865C177.802 165.865 177.799 165.865 177.797 165.865ZM236.806 167.424C236.697 167.422 236.604 167.339 236.592 167.227C236.528 166.642 236.457 166.058 236.381 165.474C236.365 165.353 236.45 165.242 236.571 165.226C236.689 165.213 236.803 165.295 236.82 165.417C236.896 166.003 236.967 166.591 237.032 167.179C237.046 167.301 236.958 167.41 236.837 167.423C236.826 167.424 236.816 167.425 236.806 167.424ZM183.698 165.821C183.579 165.817 183.484 165.721 183.483 165.601C183.482 165.479 183.58 165.379 183.703 165.378L185.473 165.365C185.604 165.363 185.695 165.462 185.696 165.585C185.697 165.707 185.598 165.807 185.476 165.808L183.706 165.821C183.703 165.821 183.701 165.821 183.698 165.821ZM189.599 165.776C189.481 165.773 189.385 165.677 189.384 165.557C189.383 165.434 189.481 165.335 189.604 165.334L191.374 165.32C191.516 165.31 191.596 165.417 191.597 165.54C191.598 165.662 191.5 165.761 191.377 165.763L189.607 165.776C189.604 165.776 189.602 165.776 189.599 165.776ZM195.5 165.732C195.382 165.729 195.286 165.632 195.285 165.512C195.284 165.39 195.382 165.291 195.504 165.289L197.275 165.276C197.404 165.286 197.497 165.373 197.498 165.495C197.499 165.618 197.4 165.717 197.278 165.718L195.508 165.732C195.505 165.732 195.503 165.732 195.5 165.732ZM201.401 165.687C201.282 165.684 201.187 165.587 201.186 165.467C201.185 165.345 201.284 165.245 201.406 165.244L203.176 165.231C203.31 165.231 203.398 165.329 203.399 165.451C203.4 165.573 203.301 165.673 203.179 165.674L201.409 165.687C201.406 165.687 201.404 165.687 201.401 165.687ZM207.302 165.643C207.184 165.64 207.088 165.543 207.087 165.423C207.086 165.301 207.185 165.201 207.307 165.2L209.077 165.187C209.213 165.177 209.299 165.284 209.3 165.407C209.301 165.529 209.202 165.629 209.08 165.63L207.31 165.643C207.307 165.643 207.305 165.643 207.302 165.643ZM213.204 165.598C213.085 165.595 212.989 165.499 212.988 165.379C212.987 165.256 213.086 165.157 213.208 165.156L214.978 165.143C215.099 165.146 215.2 165.24 215.201 165.362C215.202 165.485 215.103 165.585 214.981 165.585L213.211 165.599C213.208 165.599 213.206 165.598 213.204 165.598ZM219.105 165.554C218.986 165.551 218.89 165.454 218.889 165.334C218.888 165.212 218.987 165.112 219.109 165.111L220.879 165.098C221.016 165.098 221.101 165.196 221.102 165.318C221.103 165.44 221.005 165.54 220.882 165.541L219.112 165.554C219.109 165.554 219.107 165.554 219.105 165.554ZM225.006 165.51C224.887 165.507 224.791 165.41 224.79 165.29C224.789 165.168 224.888 165.068 225.01 165.067L226.78 165.053C226.92 165.047 227.002 165.151 227.003 165.273C227.004 165.396 226.906 165.495 226.784 165.496L225.013 165.51C225.011 165.51 225.008 165.51 225.006 165.51ZM230.907 165.466C230.788 165.462 230.692 165.366 230.691 165.246C230.69 165.124 230.789 165.024 230.911 165.023L232.681 165.009C232.822 165.024 232.903 165.107 232.904 165.229C232.905 165.351 232.807 165.451 232.684 165.452L230.914 165.466C230.912 165.466 230.909 165.466 230.907 165.466Z" fill="white"/>
<path d="M162.901 141.961L163.118 139.432C163.38 138.826 163.93 138.395 164.583 138.286C167.025 137.878 173.084 137.149 176.021 139.309L176.479 142.243L162.901 141.961Z" fill="url(#paint1_linear_101_1308)"/>
<path d="M170.521 139.472C169.959 139.613 169.395 139.617 168.829 139.482C168.144 139.32 167.657 138.712 167.652 138.011L167.592 130.096L171.62 130.065L171.68 137.974C171.685 138.679 171.207 139.299 170.521 139.472Z" fill="url(#paint2_linear_101_1308)"/>
<path d="M201.915 141.668L202.132 139.138C202.394 138.533 202.944 138.101 203.597 137.992C206.039 137.585 212.099 136.855 215.035 139.015L215.493 141.949L201.915 141.668Z" fill="url(#paint3_linear_101_1308)"/>
<path d="M209.535 139.178C208.973 139.32 208.409 139.324 207.843 139.189C207.158 139.026 206.671 138.418 206.666 137.717L206.6 128.968L210.628 128.938L210.694 137.681C210.699 138.385 210.221 139.006 209.535 139.178Z" fill="url(#paint4_linear_101_1308)"/>
<path d="M167.198 132.039L210.505 130.279C211.492 130.239 212.325 129.52 212.487 128.55C212.715 127.192 212.908 125.16 212.581 123.058C212.208 120.667 210.136 118.905 207.706 118.865C199.623 118.734 179.051 118.895 167.746 123.465C166.551 123.949 165.669 124.98 165.375 126.231C165.094 127.424 164.914 129.015 165.304 130.63C165.512 131.489 166.312 132.075 167.198 132.039Z" fill="url(#paint5_linear_101_1308)"/>
<path d="M166.413 130.192C166.122 130.185 165.875 129.963 165.843 129.666C165.835 129.595 165.657 127.897 166.088 126.255C166.436 124.928 167.475 123.855 168.8 123.456C171.228 122.724 175.871 121.476 179.679 121.34C180.002 121.334 180.278 121.583 180.289 121.909C180.301 122.235 180.046 122.508 179.72 122.52C176.045 122.65 171.514 123.871 169.141 124.586C168.207 124.867 167.474 125.622 167.23 126.555C166.856 127.98 167.014 129.524 167.016 129.539C167.051 129.863 166.816 130.154 166.493 130.189C166.466 130.192 166.439 130.193 166.413 130.192Z" fill="white"/>
<path d="M142.795 141.128C156.788 140.844 217.324 139.752 234.926 141.741C236.441 141.913 237.685 143.011 238.024 144.491C239.099 149.181 241.271 160.078 241.105 170.898C241.082 172.37 240.012 173.62 238.561 173.906L198.476 181.803L184.217 181.91L141.381 173.73C139.871 173.441 138.75 172.173 138.66 170.645C138.341 165.205 137.811 152.439 139.22 144.208C139.52 142.459 141.013 141.164 142.795 141.128Z" fill="url(#paint6_linear_101_1308)"/>
<path d="M184.526 178.67C184.514 178.669 184.502 178.668 184.49 178.666L182.751 178.334C182.631 178.311 182.552 178.195 182.575 178.075C182.598 177.955 182.713 177.877 182.834 177.899L184.573 178.231C184.693 178.254 184.772 178.37 184.749 178.49C184.728 178.598 184.632 178.673 184.526 178.67ZM187.071 178.65C186.953 178.647 186.857 178.551 186.856 178.431C186.855 178.308 186.954 178.208 187.076 178.208L188.846 178.195C188.969 178.2 189.068 178.291 189.069 178.414C189.07 178.537 188.972 178.637 188.849 178.637L187.079 178.651C187.076 178.65 187.074 178.65 187.071 178.65ZM192.972 178.606C192.854 178.603 192.758 178.506 192.757 178.386C192.756 178.264 192.855 178.164 192.977 178.163L194.747 178.15C194.88 178.142 194.969 178.248 194.97 178.37C194.971 178.492 194.873 178.592 194.751 178.593L192.98 178.606C192.977 178.606 192.975 178.606 192.972 178.606ZM198.859 178.422C198.758 178.419 198.669 178.347 198.648 178.243C198.625 178.123 198.703 178.007 198.822 177.983L200.559 177.641C200.679 177.62 200.796 177.695 200.819 177.816C200.843 177.936 200.765 178.052 200.645 178.076L198.908 178.418C198.892 178.421 198.875 178.422 198.859 178.422ZM178.729 177.563C178.717 177.562 178.705 177.561 178.693 177.559L176.954 177.227C176.834 177.204 176.756 177.088 176.778 176.968C176.801 176.848 176.914 176.772 177.037 176.792L178.777 177.124C178.896 177.147 178.975 177.263 178.952 177.383C178.932 177.491 178.836 177.566 178.729 177.563ZM172.933 176.456C172.921 176.455 172.909 176.454 172.897 176.452L171.158 176.12C171.038 176.097 170.959 175.981 170.982 175.861C171.005 175.741 171.118 175.663 171.241 175.685L172.98 176.017C173.1 176.04 173.179 176.156 173.156 176.276C173.135 176.384 173.039 176.459 172.933 176.456ZM204.649 177.281C204.548 177.279 204.459 177.207 204.438 177.103C204.415 176.983 204.493 176.867 204.612 176.843L206.349 176.5C206.468 176.478 206.586 176.555 206.609 176.675C206.633 176.795 206.555 176.911 206.435 176.935L204.698 177.278C204.682 177.281 204.665 177.282 204.649 177.281ZM167.136 175.349C167.125 175.349 167.112 175.347 167.1 175.345L165.361 175.013C165.241 174.99 165.163 174.874 165.186 174.754C165.209 174.635 165.325 174.558 165.445 174.578L167.184 174.911C167.304 174.933 167.382 175.05 167.359 175.17C167.339 175.277 167.243 175.352 167.136 175.349ZM210.439 176.14C210.338 176.138 210.248 176.066 210.228 175.962C210.204 175.842 210.282 175.726 210.402 175.702L212.139 175.36C212.26 175.338 212.375 175.414 212.399 175.535C212.423 175.655 212.344 175.771 212.225 175.795L210.488 176.137C210.471 176.14 210.455 176.141 210.439 176.14ZM161.34 174.242C161.328 174.242 161.316 174.24 161.304 174.238L159.565 173.906C159.445 173.883 159.366 173.767 159.389 173.647C159.412 173.527 159.53 173.451 159.648 173.471L161.387 173.803C161.507 173.826 161.586 173.943 161.563 174.062C161.542 174.17 161.446 174.245 161.34 174.242ZM216.229 175C216.128 174.997 216.038 174.925 216.018 174.822C215.995 174.702 216.072 174.585 216.192 174.562L217.929 174.219C218.05 174.197 218.165 174.274 218.189 174.394C218.213 174.514 218.135 174.63 218.015 174.654L216.278 174.996C216.261 174.999 216.245 175.001 216.229 175ZM155.543 173.135C155.531 173.135 155.519 173.133 155.507 173.131L153.769 172.799C153.649 172.777 153.57 172.66 153.593 172.54C153.616 172.421 153.729 172.342 153.852 172.365L155.591 172.697C155.71 172.719 155.789 172.836 155.766 172.956C155.745 173.063 155.65 173.138 155.543 173.135ZM149.747 172.028C149.735 172.028 149.723 172.026 149.711 172.024L147.972 171.692C147.852 171.67 147.774 171.553 147.796 171.433C147.819 171.314 147.933 171.237 148.055 171.258L149.794 171.59C149.914 171.612 149.993 171.729 149.97 171.849C149.949 171.956 149.853 172.031 149.747 172.028ZM222.019 173.859C221.918 173.857 221.828 173.784 221.808 173.681C221.785 173.561 221.863 173.445 221.982 173.421L223.719 173.079C223.837 173.057 223.956 173.133 223.979 173.253C224.003 173.373 223.925 173.489 223.805 173.513L222.068 173.855C222.052 173.858 222.035 173.86 222.019 173.859ZM143.95 170.921C143.939 170.921 143.927 170.919 143.915 170.917L142.176 170.585C142.056 170.562 141.977 170.446 142 170.326C142.023 170.206 142.138 170.128 142.259 170.15L143.998 170.482C144.118 170.505 144.196 170.622 144.173 170.741C144.153 170.849 144.057 170.924 143.95 170.921ZM227.809 172.719C227.708 172.716 227.618 172.644 227.598 172.54C227.574 172.42 227.652 172.304 227.772 172.28L229.509 171.938C229.629 171.916 229.746 171.993 229.769 172.113C229.792 172.233 229.714 172.349 229.595 172.373L227.858 172.715C227.841 172.718 227.825 172.719 227.809 172.719ZM233.599 171.578C233.498 171.575 233.408 171.503 233.388 171.399C233.364 171.28 233.442 171.163 233.562 171.14L235.299 170.798C235.416 170.776 235.536 170.852 235.559 170.972C235.582 171.092 235.504 171.208 235.385 171.232L233.648 171.574C233.631 171.577 233.615 171.578 233.599 171.578ZM141.906 166.551C141.791 166.548 141.696 166.456 141.691 166.339C141.669 165.773 141.647 165.181 141.628 164.567C141.625 164.445 141.72 164.342 141.842 164.339C141.969 164.324 142.067 164.431 142.071 164.553C142.09 165.166 142.111 165.757 142.133 166.322C142.138 166.443 142.043 166.546 141.921 166.551C141.916 166.551 141.911 166.551 141.906 166.551ZM237.643 169.002C237.525 168.999 237.43 168.903 237.428 168.784C237.421 168.195 237.407 167.606 237.387 167.019C237.383 166.897 237.479 166.794 237.601 166.79C237.716 166.779 237.825 166.882 237.83 167.004C237.85 167.594 237.863 168.186 237.871 168.778C237.872 168.901 237.775 169.001 237.652 169.003C237.649 169.002 237.646 169.002 237.643 169.002ZM141.755 160.65C141.637 160.646 141.541 160.55 141.54 160.431C141.533 159.847 141.53 159.255 141.53 158.658C141.53 158.535 141.629 158.437 141.751 158.436C141.87 158.453 141.972 158.535 141.972 158.658C141.973 159.253 141.976 159.844 141.982 160.426C141.983 160.549 141.886 160.649 141.763 160.65C141.76 160.65 141.758 160.65 141.755 160.65ZM237.369 163.108C237.257 163.105 237.164 163.017 237.155 162.904C237.108 162.311 237.057 161.723 237.002 161.143C236.99 161.021 237.08 160.913 237.202 160.902C237.323 160.889 237.431 160.979 237.443 161.101C237.498 161.684 237.549 162.274 237.596 162.869C237.605 162.991 237.514 163.098 237.392 163.107C237.385 163.108 237.377 163.108 237.369 163.108ZM141.799 154.747H141.799C141.677 154.744 141.58 154.643 141.584 154.52C141.601 153.926 141.622 153.335 141.647 152.748C141.653 152.626 141.735 152.518 141.878 152.536C142 152.541 142.095 152.644 142.089 152.766C142.064 153.351 142.043 153.942 142.026 154.533C142.023 154.654 141.921 154.751 141.799 154.747ZM236.75 157.237C236.643 157.235 236.551 157.154 236.536 157.045C236.458 156.449 236.377 155.864 236.294 155.294C236.276 155.173 236.36 155.06 236.481 155.043C236.6 155.025 236.714 155.109 236.732 155.229C236.815 155.802 236.897 156.389 236.975 156.987C236.991 157.108 236.906 157.22 236.785 157.235C236.773 157.237 236.761 157.238 236.75 157.237ZM235.845 151.403C235.743 151.4 235.652 151.325 235.634 151.221C235.525 150.612 235.417 150.032 235.312 149.481C235.289 149.361 235.367 149.245 235.487 149.223C235.607 149.199 235.723 149.278 235.746 149.398C235.852 149.95 235.96 150.533 236.069 151.142C236.091 151.263 236.011 151.378 235.89 151.399C235.875 151.402 235.86 151.403 235.845 151.403ZM142.135 148.856C142.13 148.856 142.125 148.856 142.12 148.855C141.998 148.844 141.909 148.736 141.92 148.614C141.975 148.012 142.038 147.421 142.108 146.847C142.123 146.726 142.232 146.641 142.355 146.655C142.476 146.67 142.563 146.78 142.548 146.901C142.478 147.471 142.416 148.057 142.361 148.655C142.35 148.772 142.25 148.859 142.135 148.856ZM144.548 144.774C144.43 144.771 144.335 144.675 144.333 144.557C144.331 144.435 144.428 144.334 144.55 144.331L146.321 144.297C146.438 144.299 146.544 144.392 146.546 144.514C146.549 144.637 146.452 144.738 146.329 144.74L144.558 144.774C144.555 144.774 144.551 144.774 144.548 144.774ZM150.451 144.665C150.334 144.662 150.238 144.567 150.236 144.448C150.234 144.325 150.331 144.225 150.453 144.222L152.225 144.192C152.333 144.194 152.447 144.287 152.449 144.41C152.452 144.532 152.354 144.633 152.232 144.635L150.461 144.665C150.458 144.665 150.455 144.665 150.451 144.665ZM156.354 144.568C156.236 144.565 156.141 144.469 156.139 144.35C156.137 144.228 156.234 144.127 156.357 144.125L158.128 144.098C158.25 144.1 158.35 144.194 158.352 144.316C158.354 144.439 158.257 144.539 158.134 144.541L156.363 144.568C156.36 144.568 156.357 144.568 156.354 144.568ZM162.257 144.482C162.139 144.479 162.044 144.383 162.042 144.264C162.04 144.142 162.138 144.041 162.26 144.039L164.032 144.016C164.145 144.024 164.254 144.112 164.255 144.235C164.257 144.357 164.159 144.457 164.037 144.459L162.266 144.482C162.264 144.482 162.26 144.482 162.257 144.482ZM168.16 144.408C168.042 144.405 167.946 144.309 167.945 144.19C167.943 144.068 168.041 143.967 168.164 143.966L169.934 143.946C170.072 143.956 170.157 144.042 170.158 144.164C170.16 144.287 170.061 144.387 169.939 144.389L168.169 144.409C168.166 144.409 168.163 144.408 168.16 144.408ZM174.063 144.347C173.944 144.344 173.849 144.247 173.848 144.128C173.847 144.005 173.945 143.905 174.067 143.904L175.838 143.888C175.959 143.899 176.061 143.985 176.062 144.108C176.062 144.23 175.964 144.33 175.842 144.331L174.071 144.347C174.068 144.347 174.066 144.347 174.063 144.347ZM179.965 144.3C179.846 144.297 179.751 144.201 179.75 144.081C179.749 143.958 179.847 143.858 179.969 143.858L181.74 143.846C181.873 143.845 181.962 143.944 181.963 144.067C181.963 144.189 181.865 144.288 181.743 144.289L179.973 144.3C179.97 144.3 179.967 144.3 179.965 144.3ZM234.676 145.615C234.578 145.612 234.489 145.543 234.467 145.442L234.455 145.392C234.015 145.342 233.543 145.294 233.04 145.248C232.918 145.238 232.829 145.13 232.84 145.008C232.851 144.886 232.968 144.789 233.08 144.808C233.609 144.856 234.103 144.906 234.562 144.958C234.713 144.974 234.836 145.077 234.868 145.213L234.898 145.345C234.925 145.464 234.85 145.583 234.731 145.61C234.713 145.614 234.694 145.616 234.676 145.615ZM234.514 145.398L234.519 145.399L234.514 145.398ZM185.866 144.268C185.747 144.265 185.651 144.168 185.651 144.048C185.65 143.926 185.749 143.826 185.871 143.825L187.642 143.819C187.776 143.834 187.864 143.918 187.864 144.04C187.864 144.162 187.766 144.262 187.644 144.262L185.873 144.268C185.871 144.268 185.869 144.268 185.866 144.268ZM191.767 144.254C191.648 144.251 191.552 144.153 191.552 144.032C191.552 143.91 191.651 143.811 191.773 143.811L193.544 143.811C193.663 143.819 193.765 143.91 193.765 144.032C193.765 144.154 193.666 144.253 193.544 144.253L191.773 144.254C191.772 144.254 191.77 144.254 191.767 144.254ZM197.669 144.26C197.549 144.256 197.453 144.158 197.453 144.038C197.454 143.915 197.553 143.817 197.675 143.817L199.446 143.824C199.448 143.824 199.45 143.824 199.451 143.824C199.571 143.827 199.667 143.925 199.667 144.046C199.666 144.168 199.566 144.267 199.444 144.266L197.674 144.26C197.672 144.26 197.671 144.26 197.669 144.26ZM203.57 144.291C203.45 144.288 203.354 144.189 203.355 144.068C203.356 143.946 203.456 143.848 203.578 143.849L205.349 143.864C205.491 143.883 205.569 143.966 205.568 144.088C205.567 144.21 205.467 144.308 205.344 144.307L203.574 144.292C203.573 144.291 203.572 144.291 203.57 144.291ZM228.935 144.948C228.933 144.947 228.93 144.947 228.928 144.947C228.363 144.914 227.774 144.882 227.162 144.851C227.04 144.844 226.946 144.74 226.952 144.618C226.959 144.496 227.056 144.397 227.185 144.408C227.798 144.44 228.387 144.472 228.954 144.505C229.076 144.513 229.169 144.617 229.162 144.739C229.155 144.859 229.054 144.951 228.935 144.948ZM209.471 144.353C209.35 144.35 209.254 144.25 209.256 144.129C209.257 144.007 209.358 143.909 209.48 143.911C210.079 143.919 210.669 143.927 211.251 143.937C211.252 143.937 211.253 143.937 211.253 143.937C211.374 143.94 211.471 144.04 211.468 144.162C211.466 144.284 211.366 144.381 211.244 144.379C210.662 144.369 210.072 144.361 209.474 144.353C209.473 144.353 209.472 144.353 209.471 144.353ZM223.04 144.672C223.04 144.672 223.039 144.672 223.038 144.672C222.463 144.651 221.874 144.63 221.27 144.611C221.147 144.607 221.052 144.505 221.056 144.383C221.059 144.26 221.161 144.165 221.283 144.168C221.283 144.168 221.283 144.168 221.283 144.168C221.889 144.188 222.479 144.209 223.054 144.23C223.176 144.234 223.272 144.337 223.267 144.459C223.263 144.581 223.161 144.675 223.04 144.672ZM215.372 144.454C215.25 144.451 215.154 144.35 215.156 144.228C215.159 144.106 215.26 144.009 215.382 144.012C215.984 144.024 216.574 144.038 217.153 144.052C217.153 144.052 217.153 144.052 217.153 144.052C217.275 144.055 217.372 144.157 217.369 144.279C217.366 144.401 217.264 144.498 217.142 144.495C216.563 144.48 215.974 144.467 215.373 144.454C215.373 144.454 215.372 144.454 215.372 144.454Z" fill="white"/>
<path d="M197.179 187.799L184.686 187.893C183.049 187.905 181.662 186.698 181.455 185.081L179.921 173.071C179.677 171.158 181.167 169.462 183.104 169.448L198.111 169.335C200.01 169.321 201.512 170.93 201.358 172.813L200.377 184.842C200.241 186.503 198.853 187.786 197.179 187.799Z" fill="url(#paint7_linear_101_1308)"/>
<mask id="mask0_101_1308" style="mask-type:alpha" maskUnits="userSpaceOnUse" x="182" y="171" width="17" height="15">
<path d="M195.625 185.6L186.118 185.671C184.872 185.681 183.815 184.762 183.658 183.531L182.491 174.39C182.305 172.934 183.439 171.644 184.913 171.632L196.336 171.546C197.78 171.536 198.923 172.76 198.806 174.194L198.06 183.349C197.956 184.613 196.9 185.59 195.625 185.6Z" fill="url(#paint8_linear_101_1308)"/>
</mask>
<g mask="url(#mask0_101_1308)">
<path opacity="0.32" d="M195.625 185.6L186.118 185.671C184.872 185.681 183.815 184.762 183.658 183.531L182.491 174.39C182.305 172.934 183.439 171.644 184.913 171.632L196.336 171.546C197.78 171.536 198.923 172.76 198.806 174.194L198.06 183.349C197.956 184.613 196.9 185.59 195.625 185.6Z" fill="url(#paint9_linear_101_1308)"/>
</g>
<path d="M158.524 205.216C158.199 211.102 152.858 215.784 146.591 215.784H37.8181C31.528 215.784 26.2406 211.093 26.0079 205.194L18.8049 22.6921C18.5047 15.0876 24.1197 8.9017 31.3473 8.92512L156.298 9.33729C163.495 9.3607 168.987 15.5578 168.569 23.1422L158.524 205.216Z" fill="url(#paint10_linear_101_1308)"/>
<path d="M156.342 13.2008L31.6951 12.8039C26.4888 12.7873 22.4334 17.247 22.6366 22.7304L29.3975 205.248C29.5554 209.512 33.373 212.95 37.9246 212.95L146.927 212.955C151.462 212.956 155.32 209.525 155.546 205.269L165.203 23.1622C165.494 17.6925 161.528 13.2173 156.342 13.2008Z" fill="url(#paint11_linear_101_1308)"/>
<path d="M42.5526 26.4521C42.6198 29.1938 40.568 31.4034 37.9697 31.3958C35.3711 31.3884 33.1969 29.1662 33.1133 26.424C33.0293 23.6722 35.0811 21.4409 37.696 21.4489C40.3108 21.457 42.4852 23.7008 42.5526 26.4521Z" fill="url(#paint12_linear_101_1308)"/>
<path d="M154.711 26.7854C154.583 29.5218 152.382 31.7269 149.792 31.7195C147.203 31.712 145.193 29.4943 145.304 26.7574C145.416 24.0111 147.619 21.7842 150.225 21.7921C152.83 21.8001 154.838 24.0395 154.711 26.7854Z" fill="url(#paint13_linear_101_1308)"/>
<path d="M46.8478 201.624C46.9009 203.792 45.0708 205.544 42.7601 205.544C40.4492 205.543 38.5223 203.79 38.4562 201.622C38.3898 199.448 40.22 197.68 42.5438 197.681C44.8674 197.682 46.7944 199.45 46.8478 201.624Z" fill="url(#paint14_linear_101_1308)"/>
<path d="M146.578 201.647C146.477 203.811 144.528 205.56 142.225 205.56C139.921 205.559 138.125 203.809 138.212 201.645C138.3 199.474 140.25 197.709 142.567 197.71C144.883 197.71 146.679 199.476 146.578 201.647Z" fill="url(#paint15_linear_101_1308)"/>
<path d="M125.084 71.6086C124.581 89.2137 110.384 103.167 93.3552 103.137C76.3172 103.107 62.3235 89.09 62.1033 71.4659C61.8778 53.4275 76.1041 38.5302 93.8743 38.5797C111.634 38.6292 125.599 53.5898 125.084 71.6086Z" fill="url(#paint16_linear_101_1308)"/>
<path d="M120.157 71.5973C119.78 86.4738 107.804 98.302 93.3939 98.2753C78.9778 98.2487 67.1763 86.3669 67.0382 71.4769C66.8972 56.2921 78.8948 43.7929 93.8317 43.8332C108.761 43.8735 120.542 56.4265 120.157 71.5973Z" fill="url(#paint17_linear_101_1308)"/>
<path d="M114.08 71.5835C113.834 83.0802 104.598 92.2569 93.4425 92.2353C82.2835 92.2136 73.1856 82.9955 73.1244 71.4907C73.0624 59.8107 82.3114 50.2351 93.78 50.265C105.244 50.2948 114.33 59.9118 114.08 71.5835Z" fill="url(#paint18_linear_101_1308)"/>
<path d="M102.937 71.5583C102.863 76.8187 98.6531 81.0477 93.5329 81.0368C88.4118 81.026 84.268 76.778 84.2783 71.516C84.2887 66.2177 88.5012 61.9058 93.6866 61.9183C98.871 61.9308 103.012 66.2617 102.937 71.5583Z" fill="url(#paint19_linear_101_1308)"/>
<path d="M87.7691 71.5912C87.5517 71.5907 87.3762 71.4098 87.377 71.1868C87.3913 67.5813 90.2711 64.642 93.796 64.6504C94.0061 64.6509 94.2178 64.6622 94.425 64.6833C94.6422 64.7057 94.7995 64.9046 94.7764 65.1282C94.7531 65.3517 94.5601 65.514 94.3417 65.4925C94.1598 65.4738 93.974 65.4643 93.7895 65.4639C90.7023 65.4566 88.1788 68.0301 88.1647 71.1887C88.1636 71.4117 87.9865 71.5916 87.7691 71.5912Z" fill="white"/>
<path d="M136.398 154.896C135.528 177.784 115.942 195.809 92.6098 195.802C69.261 195.795 49.9241 177.733 49.4209 154.812C48.9013 131.144 68.5421 111.416 93.2879 111.457C118.015 111.497 137.296 131.262 136.398 154.896Z" fill="url(#paint20_linear_101_1308)"/>
<path d="M129.597 154.889C128.952 174.244 112.427 189.552 92.6598 189.544C72.8807 189.536 56.5729 174.196 56.2386 154.819C55.8951 134.91 72.459 118.391 93.2317 118.423C113.991 118.454 130.259 135.004 129.597 154.889Z" fill="url(#paint21_linear_101_1308)"/>
<path d="M121.206 154.881C120.794 169.851 108.048 181.756 92.7223 181.747C77.3895 181.739 64.8177 169.811 64.646 154.827C64.4707 139.527 77.24 126.903 93.1631 126.925C109.078 126.948 121.627 139.595 121.206 154.881Z" fill="url(#paint22_linear_101_1308)"/>
<path d="M105.821 154.866C105.705 161.727 99.8937 167.237 92.8395 167.231C85.7837 167.226 80.0579 161.705 80.0522 154.842C80.0463 147.913 85.8619 142.254 93.0402 142.262C100.217 142.27 105.938 147.94 105.821 154.866Z" fill="url(#paint23_linear_101_1308)"/>
<path d="M84.8742 154.934C84.574 154.934 84.331 154.698 84.3316 154.407C84.3415 149.693 88.3175 145.839 93.1939 145.845C93.4845 145.845 93.7774 145.859 94.064 145.887C94.3644 145.916 94.5821 146.176 94.55 146.469C94.518 146.762 94.2511 146.975 93.9489 146.947C93.6972 146.923 93.4403 146.911 93.1851 146.91C88.9153 146.906 85.4312 150.279 85.4194 154.408C85.4186 154.699 85.1745 154.935 84.8742 154.934Z" fill="white"/>
<path d="M237.091 32.6502C236.641 31.917 236.11 31.2626 235.54 30.6369C235.262 30.3174 234.954 30.0275 234.657 29.7268C234.353 29.4342 234.033 29.1573 233.72 28.8736C232.434 27.7763 231.024 26.8255 229.532 26.0327C228.042 25.2387 226.486 24.5579 224.873 24.053C223.273 23.5061 221.617 23.1502 219.956 22.8471C216.623 22.2805 213.224 22.1824 209.859 22.3954C209.015 22.4161 208.178 22.5278 207.339 22.6095L206.08 22.7397C205.661 22.7822 205.247 22.8635 204.829 22.9235C203.997 23.0567 203.162 23.1761 202.333 23.3257L199.858 23.8446C199.029 24.0016 198.217 24.2251 197.402 24.436C196.587 24.6514 195.768 24.8497 194.958 25.0794L192.543 25.8207L191.335 26.1915C190.934 26.318 190.54 26.468 190.142 26.6052C188.558 27.1733 186.957 27.6989 185.404 28.3487L183.058 29.2826L182.472 29.5172L181.895 29.7721L180.741 30.2816L178.432 31.3011L177.855 31.556L177.286 31.8295L176.151 32.3787L173.879 33.4772C173.502 33.6626 173.119 33.8383 172.746 34.0316L171.629 34.6173L169.395 35.7888L168.278 36.3747L167.72 36.6682L167.171 36.978L162.777 39.4558C151.226 46.2343 139.092 51.9995 126.583 56.7725C120.326 59.1536 113.977 61.2932 107.546 63.1432C104.333 64.0791 101.098 64.9378 97.8455 65.7215C94.5935 66.5063 91.3246 67.2235 88.0365 67.836C84.7494 68.4533 81.4471 68.9877 78.1322 69.4235C74.8169 69.8561 71.4881 70.1774 68.1533 70.3854C61.4869 70.7937 54.7789 70.7378 48.1608 69.9027C41.5577 69.0625 35.0097 67.4268 29.053 64.4845C26.0783 63.0193 23.2984 61.1695 20.8198 58.9808C20.4995 58.7185 20.2094 58.4238 19.9131 58.1357C19.6184 57.8462 19.3185 57.5614 19.0275 57.2681L18.195 56.3497L17.7784 55.8906C17.6453 55.7329 17.5197 55.5686 17.3899 55.4081L16.6168 54.4391C16.3647 54.1119 16.1396 53.7647 15.8995 53.4284C15.4069 52.7634 14.9968 52.0447 14.5658 51.3393C14.3407 50.9918 14.1643 50.617 13.9697 50.2522C13.78 49.8848 13.5833 49.5207 13.3992 49.1506L12.8962 48.0159C12.7271 47.6383 12.5555 47.2615 12.4216 46.8692C12.1368 46.0917 11.8285 45.3221 11.6097 44.5216L11.2499 43.3316L10.9601 42.1218C10.8704 41.717 10.753 41.3182 10.6858 40.9083L10.4669 39.6825C10.3039 38.8687 10.2199 38.0383 10.1037 37.2145C9.9246 35.5605 9.79306 33.9003 9.78054 32.2379C9.77126 30.5763 9.84993 28.9149 10.0441 27.2666C10.2389 25.6185 10.5667 23.988 11.0163 22.3936C11.9171 19.206 13.3673 16.1714 15.3445 13.5098C16.3306 12.1781 17.442 10.9387 18.6537 9.80456C19.8695 8.67439 21.184 7.64978 22.5699 6.7311C23.9561 5.81276 25.4122 4.99761 26.9183 4.28591C28.4262 3.57778 29.9814 2.96876 31.5671 2.45144C34.74 1.42029 38.0365 0.762903 41.3631 0.47342C43.0266 0.336341 44.7005 0.286959 46.365 0.392705C47.1966 0.445834 48.0267 0.536001 48.8415 0.694961C49.2488 0.773632 49.6516 0.873589 50.0412 1.00471C50.4298 1.13344 50.8135 1.29853 51.1194 1.5428L51.2801 1.35268C50.9311 1.06788 50.5302 0.895299 50.1277 0.754985C49.7242 0.613734 49.3123 0.506455 48.8975 0.420973C48.0677 0.248475 47.2277 0.147156 46.3867 0.0829587C44.7036 -0.0444138 43.0144 -0.0150376 41.334 0.102714C37.9738 0.354394 34.6425 0.994064 31.4244 2.0053C29.8163 2.51376 28.2364 3.11589 26.7012 3.81993C25.1677 4.52746 23.6814 5.3415 22.2627 6.26299C20.8443 7.18474 19.4948 8.21683 18.2427 9.35978C16.9947 10.5066 15.8458 11.7644 14.8232 13.1193C12.7715 15.8264 11.2526 18.9307 10.3164 22.1931C9.84661 23.824 9.50229 25.491 9.29378 27.1737C9.08595 28.8564 8.99638 30.5508 8.99655 32.2435C8.99996 33.937 9.12409 35.6255 9.29702 37.307C9.41017 38.1445 9.49072 38.9854 9.65215 39.8185L9.86874 41.0707C9.93532 41.4891 10.0525 41.898 10.142 42.3122L10.4317 43.5507L10.793 44.7712C11.0129 45.5916 11.3238 46.383 11.6119 47.1819C11.7473 47.5848 11.9211 47.9727 12.0924 48.3616L12.6027 49.5299C12.7898 49.9114 12.9896 50.2869 13.1826 50.6656C13.3805 51.0418 13.5604 51.428 13.7895 51.7871C14.2285 52.5155 14.6475 53.2571 15.1502 53.945C15.3952 54.2926 15.6257 54.6511 15.8832 54.9897L16.6737 55.992C16.8065 56.1582 16.9352 56.3279 17.0714 56.4911L17.4974 56.9664L18.3497 57.9166C18.6474 58.2203 18.9541 58.5152 19.256 58.8149C19.5594 59.1131 19.8568 59.4179 20.1843 59.6898C22.7211 61.9559 25.5666 63.8698 28.6016 65.3858C31.6362 66.9067 34.833 68.0748 38.0915 68.9787C41.3526 69.8809 44.68 70.5149 48.0277 70.9465C54.7281 71.8042 61.4987 71.8716 68.2197 71.4726C71.5815 71.2692 74.9355 70.9515 78.274 70.5221C81.6123 70.0896 84.9364 69.558 88.2443 68.9429C91.5535 68.3327 94.842 67.6177 98.1132 66.8346C101.384 66.0507 104.64 65.1998 107.868 64.2562C114.328 62.3817 120.701 60.2171 126.98 57.8108C139.532 52.9874 151.71 47.1684 163.29 40.333L167.645 37.8361L168.19 37.524L168.743 37.2281L169.85 36.6376L172.064 35.4565L173.171 34.8659C173.541 34.6708 173.92 34.4936 174.294 34.3066L176.545 33.1985L177.671 32.6443L178.234 32.3683L178.806 32.1111L181.093 31.0815L182.237 30.5669L182.809 30.3095L183.389 30.0724L185.712 29.1286C187.251 28.4716 188.835 27.9396 190.405 27.3643C190.798 27.2255 191.188 27.0735 191.586 26.9453L192.781 26.5692L195.171 25.8168C195.973 25.5834 196.783 25.3815 197.589 25.1622C198.396 24.9474 199.2 24.7199 200.019 24.559L202.466 24.0276C203.286 23.8747 204.111 23.75 204.933 23.6073C205.345 23.5432 205.755 23.4575 206.169 23.4109L207.411 23.2681C208.24 23.1776 209.067 23.0573 209.901 23.0275C213.224 22.7786 216.581 22.8372 219.873 23.358C221.513 23.6382 223.15 23.9698 224.733 24.4904C226.328 24.9694 227.867 25.6223 229.343 26.3871C230.822 27.1507 232.227 28.0613 233.51 29.1238C233.822 29.3983 234.141 29.6662 234.446 29.9498C234.742 30.2412 235.05 30.5222 235.328 30.8323C235.896 31.4357 236.436 32.0833 236.874 32.7743L237.091 32.6502Z" fill="url(#paint24_linear_101_1308)"/>
<path d="M227.896 26.3113C227.896 26.3113 228.096 35.8722 225.908 42.421C225.667 43.1419 224.726 43.3138 224.24 42.7291C221.403 39.3138 213.811 29.804 212.618 24.4741C212.618 24.4741 219.492 22.8297 227.896 26.3113Z" fill="url(#paint25_linear_101_1308)"/>
<path d="M207.757 23.932C207.757 23.932 209.618 35.02 205.969 43.8133C205.686 44.4942 204.81 44.6835 204.275 44.1761C201.523 41.5641 194.239 34.2592 191.437 27.5942C191.437 27.5941 201.564 24.5926 207.757 23.932Z" fill="url(#paint26_linear_101_1308)"/>
<path d="M188.591 28.7684C188.591 28.7684 190.129 39.2121 187.218 47.8184C186.922 48.6942 185.872 49.0489 185.098 48.5444C182.456 46.8241 176.938 42.5746 173.445 35.2773C173.445 35.2773 181.383 31.0883 188.591 28.7684Z" fill="url(#paint27_linear_101_1308)"/>
<path d="M172.04 35.9874C172.04 35.9874 173.647 46.8996 170.127 52.9241C169.772 53.5313 168.978 53.7094 168.404 53.3027C166.386 51.8713 161.76 48.3397 158.625 44.0026C158.625 44.0026 169.475 37.3717 172.04 35.9874Z" fill="url(#paint28_linear_101_1308)"/>
<path d="M156.554 45.3145C156.554 45.3145 159.148 55.7257 155.878 61.7343C155.547 62.3432 154.774 62.5489 154.19 62.1759C151.681 60.5742 145.214 56.1427 143.168 51.8157C143.168 51.8157 154.482 46.6262 156.554 45.3145Z" fill="url(#paint29_linear_101_1308)"/>
<path d="M141.06 52.881L128.269 58.2882C128.269 58.2882 134.826 68.186 139.273 70.1125C139.732 70.3116 140.264 70.0745 140.443 69.6069C141.246 67.505 143.11 61.2915 141.06 52.881Z" fill="url(#paint30_linear_101_1308)"/>
<path d="M126.371 59.071C126.371 59.071 116.353 62.8114 113.434 63.4931C113.434 63.4931 116.482 71.409 120.764 74.9257C121.428 75.4707 122.417 75.3163 122.868 74.5857C124.396 72.1128 127.415 66.1584 126.371 59.071Z" fill="url(#paint31_linear_101_1308)"/>
<path d="M111.464 63.7831C111.464 63.7831 102.148 67.1684 99.4392 67.5675C99.4392 67.5675 103.702 76.3175 107.747 81.1751C108.052 81.5411 108.627 81.5094 108.891 81.1128C110.169 79.1923 113.099 73.53 111.464 63.7831Z" fill="url(#paint32_linear_101_1308)"/>
<path d="M98.2078 67.7489C98.2078 67.7489 89.2038 69.8301 85.2269 70.1643C85.2269 70.1643 88.6206 80.8291 93.7184 83.3279C94.152 83.5404 94.6764 83.3624 94.9015 82.9353C96.0013 80.8477 98.9876 74.444 98.2078 67.7489Z" fill="url(#paint33_linear_101_1308)"/>
<path d="M83.995 70.3458C83.995 70.3458 74.9548 72.1807 71.9267 72.1235C71.9267 72.1235 75.9278 82.0888 79.9072 85.2112C80.5693 85.7307 81.529 85.6103 82.0548 84.9531C83.2805 83.4216 85.0121 79.5629 83.995 70.3458Z" fill="url(#paint34_linear_101_1308)"/>
<path d="M69.7105 72.4498C69.7105 72.4498 61.2278 72.9445 58.6923 72.8147C58.6923 72.8147 59.2892 79.9183 64.2778 85.2835C64.8078 85.8536 65.7125 85.8726 66.2595 85.3187C67.7712 83.788 70.2935 80.047 69.7105 72.4498Z" fill="url(#paint35_linear_101_1308)"/>
<path d="M56.403 72.6486C56.403 72.6486 49.3254 72.433 45.6597 71.4631C45.6597 71.4631 45.0822 79.4228 49.1558 83.7632C49.7203 84.3646 50.6426 84.4728 51.3346 84.0237C53.1065 82.8739 56.2088 79.8421 56.403 72.6486Z" fill="url(#paint36_linear_101_1308)"/>
<path d="M44.1097 71.1885C44.1097 71.1885 36.7496 70.7629 34.2427 69.1191C34.2427 69.1191 33.4178 77.4478 37.0001 82.4848C37.3049 82.9133 37.9136 82.9842 38.3028 82.6305C39.7127 81.3489 42.8017 77.8796 44.1097 71.1885Z" fill="url(#paint37_linear_101_1308)"/>
<path d="M32.6562 68.5976C32.6562 68.5976 23.8755 65.3616 20.3033 61.61C20.3033 61.61 16.4383 71.3278 20.5824 78.653C20.7495 78.9484 21.094 79.0931 21.4201 78.999C23.3569 78.4396 29.9138 76.0387 32.6562 68.5976Z" fill="url(#paint38_linear_101_1308)"/>
<path d="M11.0273 49.8912C11.0273 49.8912 14.3324 56.9535 18.042 59.9298C18.042 59.9298 12.9044 66.8424 6.70601 68.5651C6.16664 68.715 5.61373 68.3855 5.49036 67.8395C4.9331 65.3737 4.2151 58.3483 11.0273 49.8912Z" fill="url(#paint39_linear_101_1308)"/>
<path d="M7.46668 32.5498C7.46668 32.5498 7.14987 40.6489 9.82486 48.5587C9.82486 48.5587 5.01578 50.7327 2.12334 54.4253C1.40985 55.3363 -0.0555295 54.7902 0.00143052 53.6345C0.230718 48.9836 1.65123 41.2798 7.46668 32.5498Z" fill="url(#paint40_linear_101_1308)"/>
<path d="M28.7066 101.019C28.7066 101.019 26.3414 96.414 28.562 95.0327C30.7824 93.6513 32.5611 95.7078 33.4504 96.736C34.3398 97.7644 31.3497 101.789 30.5548 102.116C29.7599 102.445 28.7066 101.019 28.7066 101.019Z" fill="url(#paint41_linear_101_1308)"/>
<path d="M31.124 100.223C31.124 100.223 23.393 120.548 36.8439 128.546C38.7471 129.677 39.2796 132.187 38.0672 134.04C37.8062 134.439 37.5136 134.841 37.1871 135.233C35.6295 137.1 32.7717 137.109 31.1917 135.26C26.8763 130.21 19.5846 118.099 28.8997 100.885L31.124 100.223Z" fill="url(#paint42_linear_101_1308)"/>
<path d="M44.3184 183.519L34.3685 180.733L31.8755 195.023C31.8755 195.023 27.8301 195.086 24.4902 197.161C21.1504 199.236 9.37047 210.124 9.37047 210.124L7.30901 209.649L6.51497 210.152L5.36743 218.902L8.66336 214.248C9.18648 213.509 10.6221 212.373 10.5941 212.293C16.9526 209.283 32.2478 200.545 36.308 198.213C36.9632 197.837 37.4901 197.276 37.8259 196.6L44.3184 183.519Z" fill="url(#paint43_linear_101_1308)"/>
<path d="M43.6754 225.365C43.5928 225.364 43.5117 225.37 43.4287 225.365C43.7974 220.766 45.4822 200.524 47.1681 192.938C49.0754 184.355 44.3073 167.189 44.3073 167.189L35.7244 175.772L40.4926 191.984C37.225 196.885 41.0256 225.589 40.9437 225.577L40.9489 225.641L39.7048 227.352L39.8561 228.279L47.4567 232.764L44.4661 227.908C43.9913 227.137 43.729 226.263 43.6754 225.365Z" fill="url(#paint44_linear_101_1308)"/>
<path d="M47.9569 233.468H45.5312C45.0772 233.468 44.6491 233.259 44.3721 232.899C43.6161 231.917 42.0495 230 41.3003 229.95C40.2918 229.883 40.4209 233.468 40.4209 233.468H39.8556L39.1396 229.013C38.9594 227.892 39.5169 226.782 40.5234 226.256C40.5234 226.256 40.7539 227.961 42.0037 228.715C43.2536 229.469 47.0901 232.17 47.0901 232.17C47.0901 232.17 47.5601 232.103 48.076 232.196C48.8414 232.334 48.7346 233.468 47.9569 233.468Z" fill="url(#paint45_linear_101_1308)"/>
<path d="M4.91599 219.639L3.96555 217.408C3.7876 216.99 3.81161 216.514 4.034 216.118C4.64149 215.038 5.79125 212.845 5.54365 212.136C5.21049 211.182 1.96275 212.706 1.96275 212.706L1.74121 212.186L5.55906 209.781C6.51964 209.176 7.75973 209.254 8.6372 209.974C8.6372 209.974 7.15922 210.854 6.95531 212.3C6.75139 213.745 5.77039 218.333 5.77039 218.333C5.77039 218.333 6.01619 218.739 6.13258 219.25C6.30542 220.009 5.22088 220.354 4.91599 219.639Z" fill="url(#paint46_linear_101_1308)"/>
<path d="M46.4929 152.676C46.4929 152.676 46.2124 154.395 46.6233 159.121C47.0343 163.847 48.9986 174.941 48.5986 185.557C48.5986 185.557 43.0145 186.858 33.313 186.242C33.313 186.242 29.2186 169.668 30.2162 163.367C31.2135 157.066 36.6241 152.546 36.6241 152.546L46.4929 152.676Z" fill="url(#paint47_linear_101_1308)"/>
<path d="M42.3668 121.098L43.0493 129.123H36.5651L38.1774 116.873L42.3668 121.098Z" fill="url(#paint48_linear_101_1308)"/>
<path d="M34.6437 128.014C36.8815 127.89 41.8849 127.662 45.4294 127.855C47.2956 127.957 48.8589 129.296 49.2406 131.125L50.1051 135.268C50.4272 136.811 50.379 138.409 49.9647 139.93L46.4923 152.676C46.4923 152.676 43.4039 154.532 36.6235 152.546C36.6235 152.546 30.669 138.347 33.1065 129.264C33.2957 128.558 33.9144 128.054 34.6437 128.014Z" fill="url(#paint49_linear_101_1308)"/>
<path d="M45.1121 111.83C45.3436 111.967 47.1679 118.401 45.6392 121.098C44.1105 123.796 39.4423 120.774 38.1773 116.874C36.9121 112.973 38.9446 108.193 45.1121 111.83Z" fill="url(#paint50_linear_101_1308)"/>
<path d="M33.013 116.873C31.9659 122.004 28.4966 120.6 26.0393 122.882C22.0568 126.581 16.3596 122.768 10.8209 126.273C6.82247 128.804 4.89597 135.279 6.81473 140.506C9.47235 147.746 18.5545 150.723 23.2611 148.518C27.7593 146.411 27.1188 140.099 33.171 137.659C35.7405 136.624 37.009 137.297 38.5478 135.762C41.2416 133.075 40.5147 127.86 40.2347 125.852C39.627 121.493 38.1656 120.704 38.8641 118.788C40.2226 115.062 46.5593 115.831 47.0874 113.201C47.5682 110.805 42.9754 106.265 38.6532 106.981C31.9659 108.087 33.4795 114.588 33.013 116.873Z" fill="url(#paint51_linear_101_1308)"/>
<path opacity="0.6" d="M8.8123 139.28C8.73295 139.28 8.66143 139.226 8.64201 139.146C7.78583 135.591 8.17424 132.676 9.79714 130.481C12.4902 126.839 17.7241 126.478 17.7768 126.475C17.8591 126.462 17.9559 126.543 17.9621 126.64C17.9679 126.736 17.8947 126.819 17.798 126.825C17.747 126.828 12.6714 127.18 10.0771 130.692C8.51992 132.799 8.15168 135.616 8.98258 139.064C9.00514 139.158 8.94733 139.252 8.85334 139.275C8.83963 139.278 8.82558 139.28 8.8123 139.28Z" fill="white"/>
<path opacity="0.72" d="M25.9545 142.534C25.9474 142.534 25.9398 142.533 25.9323 142.531C25.8858 142.519 25.8577 142.471 25.8697 142.424C26.7037 139.224 28.1671 137.002 30.2189 135.818C31.7114 134.957 33.1091 134.877 34.3421 134.807C35.5311 134.738 36.5579 134.679 37.3844 133.944C39.0926 132.425 38.9939 128.772 37.0903 123.088C37.0749 123.042 37.0998 122.992 37.1456 122.977C37.1918 122.962 37.2411 122.986 37.2565 123.032C39.1843 128.789 39.2663 132.505 37.5006 134.075C36.6286 134.85 35.5738 134.911 34.352 134.981C33.1385 135.051 31.7629 135.13 30.3062 135.97C28.2966 137.129 26.8609 139.315 26.0393 142.468C26.0291 142.508 25.9936 142.534 25.9545 142.534Z" fill="white"/>
<path opacity="0.72" d="M35.4902 115.6C35.4809 115.6 35.4718 115.599 35.4622 115.596C35.4164 115.58 35.3918 115.531 35.4072 115.485C36.0701 113.512 37.9803 113.805 40.0041 114.117C41.2851 114.314 42.6093 114.516 43.7326 114.184C44.5707 113.935 45.0685 113.55 45.2125 113.039C45.4583 112.169 44.5974 111.199 44.5888 111.189C44.5563 111.153 44.5595 111.097 44.5953 111.065C44.6309 111.033 44.6866 111.036 44.7187 111.072C44.7571 111.114 45.6526 112.122 45.3813 113.086C45.22 113.659 44.6821 114.085 43.7825 114.352C42.621 114.696 41.2775 114.489 39.9775 114.29C37.946 113.978 36.1895 113.707 35.5733 115.541C35.5611 115.577 35.5268 115.6 35.4902 115.6Z" fill="white"/>
<path d="M60.7899 103.7C60.7899 103.7 64.225 99.8269 62.4172 97.9374C60.6096 96.0477 58.3758 97.5979 57.2588 98.3731C56.1419 99.1481 58.0386 103.789 58.7271 104.304C59.4155 104.819 60.7899 103.7 60.7899 103.7Z" fill="url(#paint52_linear_101_1308)"/>
<path d="M58.6463 102.328C58.6463 102.328 61.0861 123.937 46.0701 128.343C43.9453 128.966 42.8061 131.265 43.5203 133.361C43.6739 133.812 43.8575 134.274 44.0766 134.735C45.1214 136.931 47.8874 137.649 49.8771 136.251C55.3117 132.431 65.3835 122.511 60.6364 103.522L58.6463 102.328Z" fill="url(#paint53_linear_101_1308)"/>
<path d="M153.553 187.3C153.553 187.3 154.951 185.23 156.477 183.314C157.074 182.565 158.12 182.407 158.773 182.962C160.99 184.845 165.715 188.892 167.27 190.494C167.504 190.735 167.402 191.166 167.074 191.337C166.798 191.48 166.49 191.516 166.213 191.438L155.102 188.297L153.553 187.3Z" fill="url(#paint54_linear_101_1308)"/>
<path d="M152.354 188.165L154.623 186.245C154.623 186.245 156.734 186.933 157.02 188.643L154.167 190.479L152.354 188.165Z" fill="url(#paint55_linear_101_1308)"/>
<path d="M102.066 136.907C98.5252 128.962 95.1828 117.089 99.0766 105.222L101.332 102.966C101.332 102.966 101.334 121.552 105.958 130.782C104.665 132.827 103.372 134.872 102.066 136.907Z" fill="url(#paint56_linear_101_1308)"/>
<path d="M101.874 99.4144L102.725 100.691C102.959 101.043 103.021 101.48 102.888 101.881C102.542 102.928 101.761 104.987 100.661 106.088C99.1439 107.604 97.6271 103.964 97.3239 102.751C97.0205 101.538 99.1439 98.5044 99.7506 97.8977C100.357 97.2909 102.784 97.5943 101.874 99.4144Z" fill="url(#paint57_linear_101_1308)"/>
<path d="M113.495 224.458C113.495 224.458 113.931 226.926 114.144 229.369C114.228 230.323 113.492 231.152 112.534 231.192C109.282 231.327 102.324 231.591 99.8271 231.479C99.4518 231.463 99.2065 231.079 99.3453 230.729C99.4617 230.437 99.6862 230.2 99.9723 230.069L111.465 224.787L113.495 224.458Z" fill="url(#paint58_linear_101_1308)"/>
<path d="M113.852 223.009L113.502 225.96C113.502 225.96 111.488 226.898 110.113 225.842L110.947 222.553L113.852 223.009Z" fill="url(#paint59_linear_101_1308)"/>
<path d="M113.588 167.52C113.739 168.291 114.4 205.983 110.371 222.874C110.305 223.15 110.445 223.434 110.707 223.541C111.325 223.793 112.537 224.159 113.989 224.208C114.438 224.223 114.841 223.93 114.968 223.499C116.12 219.58 124.033 196.903 124.752 178.147C125.557 157.187 121.887 167.519 121.887 167.519L113.588 167.52Z" fill="url(#paint60_linear_101_1308)"/>
<path d="M130.998 168.195C134.376 176.716 135.481 178.047 136.989 187.775C138.797 199.44 147.623 191.385 152.335 187.598C152.931 187.119 154.701 188.834 154.873 191.244C155.098 194.386 136.058 209.306 130.908 198.758C127.618 192.021 126.706 184.44 124.522 180.245C124.25 179.722 123.805 179.31 123.262 179.077L116.541 176.199L114.645 169.602L130.998 168.195Z" fill="url(#paint61_linear_101_1308)"/>
<path d="M134.676 137.932C138.216 129.987 141.559 118.114 137.665 106.247L135.409 103.992C135.409 103.992 135.408 122.578 130.784 131.808C132.076 133.852 133.369 135.897 134.676 137.932Z" fill="url(#paint62_linear_101_1308)"/>
<path d="M113.583 135.089H124.702C125.819 135.089 126.892 134.66 127.701 133.89C128.737 132.904 130.07 131.233 131.014 128.602C131.158 128.203 131.586 127.983 131.992 128.104C133.423 128.528 136.554 129.742 138.196 132.569C138.349 132.833 138.347 133.161 138.181 133.418L131.246 144.151L131.929 170.628C131.929 170.628 114.501 173.362 112.109 170.628L109.717 146.366C109.717 146.366 101.173 141.24 98.7814 133.038L105.958 128.938C105.958 128.938 106.793 128.972 107.507 130.894C108.446 133.425 110.884 135.089 113.583 135.089Z" fill="url(#paint63_linear_101_1308)"/>
<path d="M123.103 127L123.36 135.581C123.376 136.131 123.033 136.627 122.511 136.799C121.442 137.153 119.508 137.591 117.345 137.124C116.7 136.985 116.288 136.347 116.401 135.697L117.577 128.937L123.103 127Z" fill="url(#paint64_linear_101_1308)"/>
<path d="M117.221 119.142C117.144 119.239 114.55 126.298 113.409 129.409C113.12 130.196 113.549 131.063 114.35 131.314L116.859 131.772C118.522 132.075 120.174 131.188 120.841 129.635L123.862 126.115C125.505 124.201 124.94 121.242 122.694 120.096C120.481 118.968 118.055 118.097 117.221 119.142Z" fill="url(#paint65_linear_101_1308)"/>
<path d="M122.215 126.904L121.497 126.545C121.497 126.545 124.37 121.877 121.138 121.518C117.906 121.159 115.033 120.441 115.033 118.645C115.033 116.85 115.033 113.618 118.983 115.054C122.933 116.491 122.574 119.004 124.729 119.363C126.883 119.722 128.679 120.082 127.961 122.236C127.242 124.391 125.806 125.827 126.524 126.545C127.243 127.263 124.011 130.854 122.215 126.904Z" fill="url(#paint66_linear_101_1308)"/>
<path d="M121.449 128.303C121.449 128.303 122.046 125.146 123.378 125.068C124.711 124.989 125.935 126.152 124.515 127.861C122.748 129.986 121.449 128.303 121.449 128.303Z" fill="url(#paint67_linear_101_1308)"/>
<path d="M134.868 100.439L134.016 101.716C133.782 102.068 133.721 102.505 133.853 102.906C134.199 103.953 134.98 106.012 136.081 107.113C137.598 108.629 139.114 104.989 139.418 103.776C139.721 102.563 137.598 99.5294 136.991 98.9227C136.384 98.316 133.958 98.6194 134.868 100.439Z" fill="url(#paint68_linear_101_1308)"/>
<path d="M116.875 119.218C116.87 119.218 116.865 119.218 116.861 119.217C116.841 119.213 116.373 119.112 116.106 118.607C115.812 118.051 115.883 117.247 116.316 116.217C116.331 116.18 116.374 116.162 116.41 116.179C116.447 116.194 116.464 116.236 116.449 116.273C116.04 117.245 115.965 118.028 116.232 118.537C116.466 118.982 116.885 119.074 116.89 119.075C116.929 119.083 116.954 119.122 116.946 119.161C116.939 119.195 116.909 119.218 116.875 119.218Z" fill="white"/>
<path d="M174.929 162.209C174.959 162.197 191.447 133.324 193.675 130.607C194.049 130.15 194.629 129.917 195.216 129.987L199.818 130.536L205.224 142.231L196.218 136.986C197.109 143.15 185.539 152.309 181.571 155.652C181.168 155.991 181.135 156.599 181.499 156.979L183.083 158.638C180.482 161.274 177.481 162.966 174.094 163.749L174.929 162.209Z" fill="url(#paint69_linear_101_1308)"/>
<path d="M182.167 157.742C182.167 157.742 183.178 158.069 183.52 158.97C183.684 159.4 183.507 159.888 183.133 160.157C181.468 161.349 175.976 165.2 173.442 165.954C173.234 166.016 173.037 165.828 173.084 165.617C173.214 165.028 173.634 163.852 174.989 162.131L174.868 162.377C174.714 162.689 175.053 163.013 175.355 162.842C177.05 161.885 180.503 159.791 182.167 157.742Z" fill="url(#paint70_linear_101_1308)"/>
<path d="M181.351 169.295C181.378 169.277 183.852 163.318 183.879 163.3C186.147 149.491 191.681 137.665 193.313 134.554C193.587 134.03 194.108 133.685 194.697 133.635L199.315 133.24L206.976 143.6L197.094 140.286C199.215 146.141 189.738 157.453 186.528 161.529C186.202 161.943 186.293 162.545 186.726 162.844L188.613 164.148C186.6 167.256 184.003 169.521 180.845 170.973L181.351 169.295Z" fill="url(#paint71_linear_101_1308)"/>
<path d="M187.535 163.457C187.535 163.457 188.591 163.572 189.109 164.384C189.356 164.773 189.282 165.287 188.969 165.626C187.58 167.131 182.982 172.013 180.653 173.264C180.462 173.367 180.23 173.223 180.233 173.006C180.241 172.403 180.415 171.167 181.394 169.207L181.325 169.473C181.237 169.809 181.635 170.057 181.896 169.829C183.363 168.549 186.32 165.8 187.535 163.457Z" fill="url(#paint72_linear_101_1308)"/>
<path d="M220.929 131.059C220.929 131.059 225.107 137.272 225.449 140.106C225.792 142.94 224.294 143.92 219.922 144.281C206.911 145.357 200.498 141.458 200.498 141.458C199.608 135.783 198.974 134.339 191.541 131.254C191.541 131.254 200.943 132 202.835 131.266C204.727 130.531 220.929 131.059 220.929 131.059Z" fill="url(#paint73_linear_101_1308)"/>
<path d="M204.272 96.2491C204.272 96.2491 207.181 92.8068 210.275 97.0302C210.835 97.7951 212.986 97.1641 213.775 98.7652C214.182 99.5918 215.062 100.061 215.968 99.8943C218.225 99.478 221.915 99.443 223.736 102.98C225.126 105.68 224.053 107.26 222.663 108.16C221.642 108.822 221.278 110.165 221.895 111.213C222.487 112.219 222.599 113.58 221.07 115.219C217.644 118.89 210.863 112.888 210.863 112.888L205.478 100.165L204.272 96.2491Z" fill="url(#paint74_linear_101_1308)"/>
<path d="M209.633 130.236C209.633 130.236 204.769 125.604 202.374 122.536C201.08 120.878 200.673 118.695 201.272 116.678C202.365 112.995 204.308 109.18 204.485 108.587C204.757 107.677 210.211 107.715 210.211 107.715C210.211 107.715 220.944 114.68 225.161 126.48L220.425 127.954C220.425 127.954 217.622 123.253 214.854 120.264C214.854 120.264 219.645 126.593 219.813 129.184L209.633 130.236Z" fill="url(#paint75_linear_101_1308)"/>
<path d="M200.365 132.064L204.02 128.087L208.241 129.224C208.241 129.224 213.162 129.986 215.979 129.224C218.796 128.462 218.796 128.462 218.796 128.462L225.161 126.48L226.16 129.305C226.414 130.022 226.159 130.819 225.539 131.259C224.988 131.651 224.343 132.081 223.931 132.261C223.093 132.628 204.622 132.377 204.622 132.377L200.365 132.064Z" fill="url(#paint76_linear_101_1308)"/>
<path d="M206.462 101.157L210.128 107.973C209.886 109.461 206.138 109.503 205.559 108.615C205.5 108.524 205.467 108.42 205.444 108.314L203.251 103.759C203.157 103.315 204.375 101.819 204.776 101.605L206.233 100.83C206.794 100.531 204.453 100.508 206.462 101.157Z" fill="url(#paint77_linear_101_1308)"/>
<path d="M199.044 99.557C199.044 99.557 198.63 101.86 200.44 104.788C202.25 107.716 204.053 107.584 204.968 106.54C205.884 105.496 206.981 103.756 206.482 100.836C205.983 97.9153 199.669 96.6201 199.044 99.557Z" fill="url(#paint78_linear_101_1308)"/>
<path d="M204.29 101.153C204.29 101.153 201.359 97.3031 199.109 100.659L199.147 101.819C199.147 101.819 196.221 101.682 196.538 98.9846C196.855 96.2874 199.244 94.4449 202.556 95.3664C205.868 96.2879 207.804 97.3374 208.178 99.6369C208.552 101.936 206.674 101.561 206.674 101.561C206.674 101.561 205.957 99.974 205.091 99.8657C204.225 99.7573 204.538 101.012 204.538 101.012L204.29 101.153Z" fill="url(#paint79_linear_101_1308)"/>
<path d="M204.963 101.05C204.963 101.05 203.445 99.0801 204.827 98.6713C206.209 98.2623 206.157 100.602 206.067 101.472L204.963 101.05Z" fill="url(#paint80_linear_101_1308)"/>
<path d="M212.464 133.638C212.451 133.638 212.438 133.639 212.425 133.639L195.613 133.62C195.198 133.62 194.861 133.283 194.862 132.867C194.862 132.451 195.201 132.108 195.615 132.115L212.427 132.133C212.842 132.134 213.179 132.471 213.179 132.887C213.178 133.29 212.861 133.618 212.464 133.638Z" fill="url(#paint81_linear_101_1308)"/>
<path d="M180.5 118.374H194.501C195.534 118.374 196.474 118.97 196.914 119.904L203.387 133.629H185.987C185.322 133.629 184.724 133.222 184.479 132.603L179.46 119.903C179.17 119.169 179.711 118.374 180.5 118.374Z" fill="url(#paint82_linear_101_1308)"/>
<path d="M190.364 125.411C190.667 126.353 190.443 127.269 189.863 127.455C189.283 127.642 188.567 127.029 188.264 126.087C187.96 125.144 188.185 124.229 188.765 124.042C189.344 123.855 190.06 124.468 190.364 125.411Z" fill="url(#paint83_linear_101_1308)"/>
<defs>
<linearGradient id="paint0_linear_101_1308" x1="191.545" y1="258.923" x2="189.35" y2="139.174" gradientUnits="userSpaceOnUse">
<stop stop-color="#CB236D"/>
<stop offset="1" stop-color="#4C246D"/>
</linearGradient>
<linearGradient id="paint1_linear_101_1308" x1="170" y1="148.462" x2="169.319" y2="134.488" gradientUnits="userSpaceOnUse">
<stop stop-color="#CB236D"/>
<stop offset="1" stop-color="#4C246D"/>
</linearGradient>
<linearGradient id="paint2_linear_101_1308" x1="169.113" y1="127.479" x2="172.296" y2="167.523" gradientUnits="userSpaceOnUse">
<stop stop-color="#CB236D"/>
<stop offset="1" stop-color="#4C246D"/>
</linearGradient>
<linearGradient id="paint3_linear_101_1308" x1="208.936" y1="146.563" x2="208.255" y2="132.588" gradientUnits="userSpaceOnUse">
<stop stop-color="#CB236D"/>
<stop offset="1" stop-color="#4C246D"/>
</linearGradient>
<linearGradient id="paint4_linear_101_1308" x1="207.935" y1="124.393" x2="211.118" y2="164.436" gradientUnits="userSpaceOnUse">
<stop stop-color="#CB236D"/>
<stop offset="1" stop-color="#4C246D"/>
</linearGradient>
<linearGradient id="paint5_linear_101_1308" x1="198.828" y1="114.899" x2="165.105" y2="157.125" gradientUnits="userSpaceOnUse">
<stop stop-color="#CB236D"/>
<stop offset="1" stop-color="#4C246D"/>
</linearGradient>
<linearGradient id="paint6_linear_101_1308" x1="193.13" y1="127.216" x2="179.861" y2="260.494" gradientUnits="userSpaceOnUse">
<stop stop-color="#CB236D"/>
<stop offset="1" stop-color="#4C246D"/>
</linearGradient>
<linearGradient id="paint7_linear_101_1308" x1="194.29" y1="143.643" x2="189.003" y2="188.219" gradientUnits="userSpaceOnUse">
<stop stop-color="#A737D5"/>
<stop offset="1" stop-color="#EF497A"/>
</linearGradient>
<linearGradient id="paint8_linear_101_1308" x1="182.505" y1="178.674" x2="198.849" y2="178.552" gradientUnits="userSpaceOnUse">
<stop stop-color="white"/>
<stop offset="1"/>
</linearGradient>
<linearGradient id="paint9_linear_101_1308" x1="182.505" y1="178.674" x2="198.849" y2="178.552" gradientUnits="userSpaceOnUse">
<stop stop-color="white"/>
<stop offset="1" stop-color="white"/>
</linearGradient>
<linearGradient id="paint10_linear_101_1308" x1="97.9372" y1="30.1837" x2="76.0435" y2="226.385" gradientUnits="userSpaceOnUse">
<stop stop-color="#2B3582"/>
<stop offset="1" stop-color="#150E42"/>
</linearGradient>
<linearGradient id="paint11_linear_101_1308" x1="22.6293" y1="112.88" x2="165.218" y2="112.88" gradientUnits="userSpaceOnUse">
<stop stop-color="#2B3582"/>
<stop offset="1" stop-color="#150E42"/>
</linearGradient>
<linearGradient id="paint12_linear_101_1308" x1="38.2448" y1="22.7275" x2="37.2518" y2="31.6264" gradientUnits="userSpaceOnUse">
<stop stop-color="#85CCFF"/>
<stop offset="0.9964" stop-color="#9A76FF"/>
</linearGradient>
<linearGradient id="paint13_linear_101_1308" x1="150.423" y1="23.0393" x2="149.424" y2="31.9903" gradientUnits="userSpaceOnUse">
<stop stop-color="#85CCFF"/>
<stop offset="0.9964" stop-color="#9A76FF"/>
</linearGradient>
<linearGradient id="paint14_linear_101_1308" x1="42.9781" y1="198.687" x2="42.1918" y2="205.733" gradientUnits="userSpaceOnUse">
<stop stop-color="#85CCFF"/>
<stop offset="0.9964" stop-color="#9A76FF"/>
</linearGradient>
<linearGradient id="paint15_linear_101_1308" x1="142.724" y1="198.691" x2="141.933" y2="205.781" gradientUnits="userSpaceOnUse">
<stop stop-color="#85CCFF"/>
<stop offset="0.9964" stop-color="#9A76FF"/>
</linearGradient>
<linearGradient id="paint16_linear_101_1308" x1="122.359" y1="-27.5865" x2="91.6091" y2="77.6576" gradientUnits="userSpaceOnUse">
<stop stop-color="#53D8FF"/>
<stop offset="1" stop-color="#3840F7"/>
</linearGradient>
<linearGradient id="paint17_linear_101_1308" x1="95.8673" y1="50.743" x2="90.4089" y2="99.6589" gradientUnits="userSpaceOnUse">
<stop stop-color="#2B3582"/>
<stop offset="1" stop-color="#150E42"/>
</linearGradient>
<linearGradient id="paint18_linear_101_1308" x1="122.472" y1="-27.5537" x2="91.7215" y2="77.6904" gradientUnits="userSpaceOnUse">
<stop stop-color="#53D8FF"/>
<stop offset="1" stop-color="#3840F7"/>
</linearGradient>
<linearGradient id="paint19_linear_101_1308" x1="94.4041" y1="64.3451" x2="92.4873" y2="81.523" gradientUnits="userSpaceOnUse">
<stop stop-color="#2B3582"/>
<stop offset="1" stop-color="#150E42"/>
</linearGradient>
<linearGradient id="paint20_linear_101_1308" x1="154.853" y1="9.33885" x2="82.525" y2="177.817" gradientUnits="userSpaceOnUse">
<stop stop-color="#53D8FF"/>
<stop offset="1" stop-color="#3840F7"/>
</linearGradient>
<linearGradient id="paint21_linear_101_1308" x1="95.8863" y1="127.427" x2="88.7498" y2="191.381" gradientUnits="userSpaceOnUse">
<stop stop-color="#2B3582"/>
<stop offset="1" stop-color="#150E42"/>
</linearGradient>
<linearGradient id="paint22_linear_101_1308" x1="155.124" y1="9.45551" x2="82.7956" y2="177.933" gradientUnits="userSpaceOnUse">
<stop stop-color="#53D8FF"/>
<stop offset="1" stop-color="#3840F7"/>
</linearGradient>
<linearGradient id="paint23_linear_101_1308" x1="93.9773" y1="145.424" x2="91.4718" y2="167.877" gradientUnits="userSpaceOnUse">
<stop stop-color="#2B3582"/>
<stop offset="1" stop-color="#150E42"/>
</linearGradient>
<linearGradient id="paint24_linear_101_1308" x1="233.704" y1="9.65738" x2="10.0454" y2="42.5969" gradientUnits="userSpaceOnUse">
<stop stop-color="#53D8FF"/>
<stop offset="1" stop-color="#3840F7"/>
</linearGradient>
<linearGradient id="paint25_linear_101_1308" x1="210.305" y1="49.3917" x2="245.387" y2="-12.9751" gradientUnits="userSpaceOnUse">
<stop stop-color="#53D8FF"/>
<stop offset="1" stop-color="#3840F7"/>
</linearGradient>
<linearGradient id="paint26_linear_101_1308" x1="192.666" y1="6.18599" x2="207.491" y2="48.0592" gradientUnits="userSpaceOnUse">
<stop stop-color="#FDF53F"/>
<stop offset="1" stop-color="#D93C65"/>
</linearGradient>
<linearGradient id="paint27_linear_101_1308" x1="188.998" y1="58.4725" x2="171.517" y2="0.535494" gradientUnits="userSpaceOnUse">
<stop stop-color="#53D8FF"/>
<stop offset="1" stop-color="#3840F7"/>
</linearGradient>
<linearGradient id="paint28_linear_101_1308" x1="158.625" y1="44.7546" x2="172.406" y2="44.7546" gradientUnits="userSpaceOnUse">
<stop stop-color="#FDF53F"/>
<stop offset="1" stop-color="#D93C65"/>
</linearGradient>
<linearGradient id="paint29_linear_101_1308" x1="151.993" y1="72.212" x2="146.796" y2="8.54559" gradientUnits="userSpaceOnUse">
<stop stop-color="#53D8FF"/>
<stop offset="1" stop-color="#3840F7"/>
</linearGradient>
<linearGradient id="paint30_linear_101_1308" x1="142.436" y1="61.2276" x2="128.993" y2="63.2074" gradientUnits="userSpaceOnUse">
<stop stop-color="#FDF53F"/>
<stop offset="1" stop-color="#D93C65"/>
</linearGradient>
<linearGradient id="paint31_linear_101_1308" x1="119.603" y1="82.003" x2="120.902" y2="20.9354" gradientUnits="userSpaceOnUse">
<stop stop-color="#53D8FF"/>
<stop offset="1" stop-color="#3840F7"/>
</linearGradient>
<linearGradient id="paint32_linear_101_1308" x1="112.71" y1="72.1941" x2="100.388" y2="74.0089" gradientUnits="userSpaceOnUse">
<stop stop-color="#FDF53F"/>
<stop offset="1" stop-color="#D93C65"/>
</linearGradient>
<linearGradient id="paint33_linear_101_1308" x1="99.2942" y1="75.1259" x2="86.2408" y2="77.0484" gradientUnits="userSpaceOnUse">
<stop stop-color="#A737D5"/>
<stop offset="1" stop-color="#EF497A"/>
</linearGradient>
<linearGradient id="paint34_linear_101_1308" x1="70.3141" y1="102.076" x2="91.9693" y2="28.8816" gradientUnits="userSpaceOnUse">
<stop stop-color="#53D8FF"/>
<stop offset="1" stop-color="#3840F7"/>
</linearGradient>
<linearGradient id="paint35_linear_101_1308" x1="68.65" y1="88.0361" x2="60.5991" y2="61.2076" gradientUnits="userSpaceOnUse">
<stop stop-color="#A737D5"/>
<stop offset="1" stop-color="#EF497A"/>
</linearGradient>
<linearGradient id="paint36_linear_101_1308" x1="45.5412" y1="92.7828" x2="64.8577" y2="24.1489" gradientUnits="userSpaceOnUse">
<stop stop-color="#FDF53F"/>
<stop offset="1" stop-color="#D93C65"/>
</linearGradient>
<linearGradient id="paint37_linear_101_1308" x1="17.4128" y1="104.271" x2="64.6211" y2="34.1078" gradientUnits="userSpaceOnUse">
<stop stop-color="#53D8FF"/>
<stop offset="1" stop-color="#3840F7"/>
</linearGradient>
<linearGradient id="paint38_linear_101_1308" x1="20.623" y1="85.7704" x2="39.9392" y2="17.1375" gradientUnits="userSpaceOnUse">
<stop stop-color="#FDF53F"/>
<stop offset="1" stop-color="#D93C65"/>
</linearGradient>
<linearGradient id="paint39_linear_101_1308" x1="-7.62408" y1="87.5618" x2="32.2215" y2="28.6596" gradientUnits="userSpaceOnUse">
<stop stop-color="#53D8FF"/>
<stop offset="1" stop-color="#3840F7"/>
</linearGradient>
<linearGradient id="paint40_linear_101_1308" x1="-3.39908" y1="79.0107" x2="15.9173" y2="10.3771" gradientUnits="userSpaceOnUse">
<stop stop-color="#A737D5"/>
<stop offset="1" stop-color="#EF497A"/>
</linearGradient>
<linearGradient id="paint41_linear_101_1308" x1="30.0757" y1="91.6774" x2="31.5598" y2="107.11" gradientUnits="userSpaceOnUse">
<stop stop-color="#F9B776"/>
<stop offset="1" stop-color="#F47960"/>
</linearGradient>
<linearGradient id="paint42_linear_101_1308" x1="39.1373" y1="142.388" x2="16.5435" y2="80.2608" gradientUnits="userSpaceOnUse">
<stop stop-color="#F9B776"/>
<stop offset="1" stop-color="#F47960"/>
</linearGradient>
<linearGradient id="paint43_linear_101_1308" x1="-1.18251" y1="209.482" x2="51.7419" y2="185.185" gradientUnits="userSpaceOnUse">
<stop stop-color="#F9B776"/>
<stop offset="1" stop-color="#F47960"/>
</linearGradient>
<linearGradient id="paint44_linear_101_1308" x1="24.0356" y1="409.44" x2="95.2241" y2="-422.575" gradientUnits="userSpaceOnUse">
<stop stop-color="#F9B776"/>
<stop offset="1" stop-color="#F47960"/>
</linearGradient>
<linearGradient id="paint45_linear_101_1308" x1="34.0311" y1="215.796" x2="42.02" y2="229.316" gradientUnits="userSpaceOnUse">
<stop stop-color="#53D8FF"/>
<stop offset="1" stop-color="#3840F7"/>
</linearGradient>
<linearGradient id="paint46_linear_101_1308" x1="15.7167" y1="199.902" x2="6.40893" y2="212.55" gradientUnits="userSpaceOnUse">
<stop stop-color="#53D8FF"/>
<stop offset="1" stop-color="#3840F7"/>
</linearGradient>
<linearGradient id="paint47_linear_101_1308" x1="44.4087" y1="146.07" x2="37.2862" y2="186.495" gradientUnits="userSpaceOnUse">
<stop stop-color="#FDF53F"/>
<stop offset="1" stop-color="#D93C65"/>
</linearGradient>
<linearGradient id="paint48_linear_101_1308" x1="36.5651" y1="122.998" x2="43.0493" y2="122.998" gradientUnits="userSpaceOnUse">
<stop stop-color="#F9B776"/>
<stop offset="1" stop-color="#F47960"/>
</linearGradient>
<linearGradient id="paint49_linear_101_1308" x1="48.2469" y1="130.024" x2="13.9105" y2="174.074" gradientUnits="userSpaceOnUse">
<stop stop-color="#FDF53F"/>
<stop offset="1" stop-color="#D93C65"/>
</linearGradient>
<linearGradient id="paint50_linear_101_1308" x1="47.3648" y1="122.996" x2="34.7643" y2="104.571" gradientUnits="userSpaceOnUse">
<stop stop-color="#F9B776"/>
<stop offset="1" stop-color="#F47960"/>
</linearGradient>
<linearGradient id="paint51_linear_101_1308" x1="52.1376" y1="97.4781" x2="5.55255" y2="153.881" gradientUnits="userSpaceOnUse">
<stop stop-color="#CB236D"/>
<stop offset="1" stop-color="#4C246D"/>
</linearGradient>
<linearGradient id="paint52_linear_101_1308" x1="61.7844" y1="94.3112" x2="56.5131" y2="108.891" gradientUnits="userSpaceOnUse">
<stop stop-color="#F9B776"/>
<stop offset="1" stop-color="#F47960"/>
</linearGradient>
<linearGradient id="paint53_linear_101_1308" x1="40.4104" y1="141.182" x2="77.728" y2="86.6135" gradientUnits="userSpaceOnUse">
<stop stop-color="#F9B776"/>
<stop offset="1" stop-color="#F47960"/>
</linearGradient>
<linearGradient id="paint54_linear_101_1308" x1="-1646.65" y1="1786.01" x2="-1630.36" y2="1772.3" gradientUnits="userSpaceOnUse">
<stop stop-color="#2B3582"/>
<stop offset="1" stop-color="#150E42"/>
</linearGradient>
<linearGradient id="paint55_linear_101_1308" x1="153.336" y1="187.112" x2="156.069" y2="189.662" gradientUnits="userSpaceOnUse">
<stop stop-color="#F9B776"/>
<stop offset="1" stop-color="#F47960"/>
</linearGradient>
<linearGradient id="paint56_linear_101_1308" x1="99.3496" y1="101.606" x2="103.798" y2="146.221" gradientUnits="userSpaceOnUse">
<stop stop-color="#F9B776"/>
<stop offset="1" stop-color="#F47960"/>
</linearGradient>
<linearGradient id="paint57_linear_101_1308" x1="100.082" y1="101.533" x2="104.53" y2="146.148" gradientUnits="userSpaceOnUse">
<stop stop-color="#F9B776"/>
<stop offset="1" stop-color="#F47960"/>
</linearGradient>
<linearGradient id="paint58_linear_101_1308" x1="113.587" y1="151.377" x2="112.727" y2="161.261" gradientUnits="userSpaceOnUse">
<stop stop-color="#2B3582"/>
<stop offset="1" stop-color="#150E42"/>
</linearGradient>
<linearGradient id="paint59_linear_101_1308" x1="113.852" y1="224.448" x2="110.113" y2="224.448" gradientUnits="userSpaceOnUse">
<stop stop-color="#F9B776"/>
<stop offset="1" stop-color="#F47960"/>
</linearGradient>
<linearGradient id="paint60_linear_101_1308" x1="116.153" y1="188.258" x2="129.905" y2="259.595" gradientUnits="userSpaceOnUse">
<stop stop-color="#CB236D"/>
<stop offset="1" stop-color="#4C246D"/>
</linearGradient>
<linearGradient id="paint61_linear_101_1308" x1="135.567" y1="184.515" x2="149.319" y2="255.853" gradientUnits="userSpaceOnUse">
<stop stop-color="#CB236D"/>
<stop offset="1" stop-color="#4C246D"/>
</linearGradient>
<linearGradient id="paint62_linear_101_1308" x1="137.392" y1="102.631" x2="132.943" y2="147.246" gradientUnits="userSpaceOnUse">
<stop stop-color="#F9B776"/>
<stop offset="1" stop-color="#F47960"/>
</linearGradient>
<linearGradient id="paint63_linear_101_1308" x1="113.211" y1="136.23" x2="150.257" y2="183.725" gradientUnits="userSpaceOnUse">
<stop stop-color="#FDF53F"/>
<stop offset="1" stop-color="#D93C65"/>
</linearGradient>
<linearGradient id="paint64_linear_101_1308" x1="116.382" y1="132.163" x2="123.36" y2="132.163" gradientUnits="userSpaceOnUse">
<stop stop-color="#F9B776"/>
<stop offset="1" stop-color="#F47960"/>
</linearGradient>
<linearGradient id="paint65_linear_101_1308" x1="119.217" y1="120.844" x2="118.663" y2="142.156" gradientUnits="userSpaceOnUse">
<stop stop-color="#F9B776"/>
<stop offset="1" stop-color="#F47960"/>
</linearGradient>
<linearGradient id="paint66_linear_101_1308" x1="242.469" y1="392.013" x2="235.593" y2="376.542" gradientUnits="userSpaceOnUse">
<stop stop-color="#2B3582"/>
<stop offset="1" stop-color="#150E42"/>
</linearGradient>
<linearGradient id="paint67_linear_101_1308" x1="124.614" y1="140.523" x2="123.237" y2="126.71" gradientUnits="userSpaceOnUse">
<stop stop-color="#F9B776"/>
<stop offset="1" stop-color="#F47960"/>
</linearGradient>
<linearGradient id="paint68_linear_101_1308" x1="136.659" y1="102.558" x2="132.211" y2="147.173" gradientUnits="userSpaceOnUse">
<stop stop-color="#F9B776"/>
<stop offset="1" stop-color="#F47960"/>
</linearGradient>
<linearGradient id="paint69_linear_101_1308" x1="170.977" y1="138.022" x2="196.97" y2="152.858" gradientUnits="userSpaceOnUse">
<stop stop-color="#F9B776"/>
<stop offset="1" stop-color="#F47960"/>
</linearGradient>
<linearGradient id="paint70_linear_101_1308" x1="174.375" y1="152.856" x2="186.084" y2="181.194" gradientUnits="userSpaceOnUse">
<stop stop-color="#CB236D"/>
<stop offset="1" stop-color="#4C246D"/>
</linearGradient>
<linearGradient id="paint71_linear_101_1308" x1="173.491" y1="141.722" x2="84.556" y2="86.0471" gradientUnits="userSpaceOnUse">
<stop stop-color="#F9B776"/>
<stop offset="1" stop-color="#F47960"/>
</linearGradient>
<linearGradient id="paint72_linear_101_1308" x1="178.916" y1="160.25" x2="196.116" y2="185.628" gradientUnits="userSpaceOnUse">
<stop stop-color="#CB236D"/>
<stop offset="1" stop-color="#4C246D"/>
</linearGradient>
<linearGradient id="paint73_linear_101_1308" x1="212.215" y1="0.55802" x2="211.335" y2="32.8139" gradientUnits="userSpaceOnUse">
<stop stop-color="#53D8FF"/>
<stop offset="1" stop-color="#3840F7"/>
</linearGradient>
<linearGradient id="paint74_linear_101_1308" x1="199.818" y1="87.6101" x2="211.119" y2="100.657" gradientUnits="userSpaceOnUse">
<stop stop-color="#2B3582"/>
<stop offset="1" stop-color="#150E42"/>
</linearGradient>
<linearGradient id="paint75_linear_101_1308" x1="202.642" y1="105.302" x2="219.943" y2="134.332" gradientUnits="userSpaceOnUse">
<stop stop-color="#53D8FF"/>
<stop offset="1" stop-color="#3840F7"/>
</linearGradient>
<linearGradient id="paint76_linear_101_1308" x1="216.503" y1="129.47" x2="242.396" y2="129.47" gradientUnits="userSpaceOnUse">
<stop stop-color="#F9B776"/>
<stop offset="1" stop-color="#F47960"/>
</linearGradient>
<linearGradient id="paint77_linear_101_1308" x1="205.965" y1="117.094" x2="206.563" y2="107.768" gradientUnits="userSpaceOnUse">
<stop stop-color="#F9B776"/>
<stop offset="1" stop-color="#F47960"/>
</linearGradient>
<linearGradient id="paint78_linear_101_1308" x1="206.846" y1="109.203" x2="195.579" y2="87.641" gradientUnits="userSpaceOnUse">
<stop stop-color="#F9B776"/>
<stop offset="1" stop-color="#F47960"/>
</linearGradient>
<linearGradient id="paint79_linear_101_1308" x1="192.768" y1="96.9746" x2="208.545" y2="100.14" gradientUnits="userSpaceOnUse">
<stop stop-color="#2B3582"/>
<stop offset="1" stop-color="#150E42"/>
</linearGradient>
<linearGradient id="paint80_linear_101_1308" x1="209.425" y1="107.855" x2="198.158" y2="86.2933" gradientUnits="userSpaceOnUse">
<stop stop-color="#F9B776"/>
<stop offset="1" stop-color="#F47960"/>
</linearGradient>
<linearGradient id="paint81_linear_101_1308" x1="215.316" y1="129.171" x2="201.97" y2="133.548" gradientUnits="userSpaceOnUse">
<stop stop-color="#2B3582"/>
<stop offset="1" stop-color="#150E42"/>
</linearGradient>
<linearGradient id="paint82_linear_101_1308" x1="200.701" y1="114.037" x2="179.882" y2="141.601" gradientUnits="userSpaceOnUse">
<stop stop-color="#2B3582"/>
<stop offset="1" stop-color="#150E42"/>
</linearGradient>
<linearGradient id="paint83_linear_101_1308" x1="191.173" y1="122.95" x2="186.812" y2="129.517" gradientUnits="userSpaceOnUse">
<stop stop-color="#53D8FF"/>
<stop offset="1" stop-color="#3840F7"/>
</linearGradient>
</defs>
</svg>
