<svg width="28" height="28" viewBox="0 0 28 28" fill="none" xmlns="http://www.w3.org/2000/svg">
<path d="M14.4133 27.9942C14.4122 27.9942 14.411 27.9942 14.4098 27.9942C14.0143 27.9942 13.6445 27.888 13.3272 27.7013L13.3377 27.7072L9.91117 25.6807C9.40017 25.3937 9.64983 25.2933 9.81783 25.2338C10.4082 25.0483 10.9215 24.808 11.3952 24.5128L11.3672 24.5292C11.3998 24.514 11.4372 24.5058 11.4768 24.5058C11.5305 24.5058 11.5807 24.5222 11.6227 24.5502L11.6215 24.549L14.2535 26.1112C14.299 26.1357 14.3538 26.1508 14.4122 26.1508C14.4705 26.1508 14.5253 26.1357 14.5732 26.11L14.5708 26.1112L24.8305 20.188C24.925 20.1297 24.9868 20.027 24.9868 19.9103C24.9868 19.9092 24.9868 19.9092 24.9868 19.908V8.06983C24.9857 7.952 24.9227 7.84817 24.8282 7.791L24.827 7.78983L14.5708 1.8725C14.5253 1.84683 14.4705 1.83167 14.4133 1.83167C14.3562 1.83167 14.3013 1.84683 14.2535 1.87367L14.2547 1.8725L4.00083 7.791C3.904 7.84817 3.83983 7.952 3.83867 8.071V19.9115C3.83867 20.0293 3.90283 20.1308 3.9985 20.1845L3.99967 20.1857L6.81133 21.8097C8.33617 22.5727 9.2695 21.6743 9.2695 20.7725V9.08017C9.2695 8.91683 9.4025 8.78383 9.56583 8.78383H9.56933H10.8702H10.8713C11.0347 8.78383 11.1677 8.91567 11.1677 9.08017V20.7725C11.1677 22.8083 10.0593 23.9762 8.12967 23.9762C8.10633 23.9762 8.0795 23.9773 8.05267 23.9773C7.20683 23.9773 6.417 23.7382 5.74733 23.324L3.07567 21.7863C2.427 21.4037 2 20.7095 2 19.9138V8.071C2.00117 7.27767 2.42933 6.58583 3.06633 6.21017L3.07683 6.20433L13.3377 0.275333C13.6492 0.1015 14.0202 0 14.4157 0C14.8112 0 15.1833 0.102667 15.5053 0.281167L15.4937 0.275333L25.7533 6.20433C26.4008 6.58583 26.8278 7.27767 26.8302 8.071V19.9127C26.829 20.7072 26.4008 21.4013 25.7627 21.7793L25.7522 21.7852L15.4948 27.7095C15.1868 27.8903 14.8158 27.9965 14.4192 27.9965C14.4168 27.9965 14.4133 27.9965 14.411 27.9965L14.4133 27.9942Z" fill="#02FFDD"/>
<path d="M17.5832 19.8379C13.0938 19.8379 12.1523 17.7776 12.1523 16.0474V16.0462C12.1523 15.8829 12.2842 15.7511 12.4475 15.7511H12.4498H13.7763H13.7775C13.9257 15.7511 14.0482 15.8596 14.0715 16.0008V16.0019C14.271 17.3529 14.8683 18.0343 17.5832 18.0343C19.745 18.0343 20.6632 17.5454 20.6632 16.3986C20.6632 15.7371 20.403 15.2471 17.0442 14.9181C14.2372 14.6381 12.5012 14.0198 12.5012 11.7739C12.5012 9.70425 14.2465 8.46875 17.1678 8.46875C20.4555 8.46875 22.0818 9.60975 22.2872 12.0574C22.2883 12.0656 22.2883 12.0749 22.2883 12.0831C22.2883 12.2476 22.1553 12.3794 21.992 12.3794H20.6702C20.5302 12.3794 20.4123 12.2803 20.3832 12.1484V12.1461C20.0635 10.7251 19.2865 10.2713 17.1795 10.2713C14.8193 10.2713 14.5452 11.0938 14.5452 11.7086C14.5452 12.4553 14.8695 12.6722 18.0557 13.0934C21.208 13.5111 22.706 14.1002 22.706 16.3157C22.7013 18.5546 20.8382 19.8356 17.5867 19.8356L17.5832 19.8379Z" fill="#02FFDD"/>
</svg>
