<svg width="292" height="292" viewBox="0 0 292 292" fill="none" xmlns="http://www.w3.org/2000/svg">
<path d="M200.341 62.436C214.493 62.436 225.965 50.9637 225.965 36.812C225.965 22.6602 214.493 11.188 200.341 11.188C186.189 11.188 174.717 22.6602 174.717 36.812C174.717 50.9637 186.189 62.436 200.341 62.436Z" fill="#02FFDD"/>
<g opacity="0.55">
<path d="M218.456 54.9325C228.462 44.9258 228.462 28.7017 218.456 18.695C208.449 8.6883 192.225 8.6883 182.218 18.695C172.211 28.7017 172.211 44.9257 182.218 54.9324C192.225 64.9391 208.449 64.9392 218.456 54.9325Z" fill="#02FFDD"/>
</g>
<path d="M223.819 75.9332C233.586 75.9332 241.503 68.0158 241.503 58.2492C241.503 48.4826 233.586 40.5652 223.819 40.5652C214.052 40.5652 206.135 48.4826 206.135 58.2492C206.135 68.0158 214.052 75.9332 223.819 75.9332Z" fill="#02FFDD"/>
<g opacity="0.55">
<path d="M223.819 75.9332C233.586 75.9332 241.503 68.0158 241.503 58.2492C241.503 48.4826 233.586 40.5652 223.819 40.5652C214.052 40.5652 206.135 48.4826 206.135 58.2492C206.135 68.0158 214.052 75.9332 223.819 75.9332Z" fill="#00BFA5"/>
</g>
<path d="M252.223 43.6131C254.809 43.6131 256.906 41.5164 256.906 38.9301C256.906 36.3437 254.809 34.2471 252.223 34.2471C249.637 34.2471 247.54 36.3437 247.54 38.9301C247.54 41.5164 249.637 43.6131 252.223 43.6131Z" fill="#02FFDD"/>
<g opacity="0.55">
<path d="M252.223 43.6131C254.809 43.6131 256.906 41.5164 256.906 38.9301C256.906 36.3437 254.809 34.2471 252.223 34.2471C249.637 34.2471 247.54 36.3437 247.54 38.9301C247.54 41.5164 249.637 43.6131 252.223 43.6131Z" fill="#02FFDD"/>
</g>
<path d="M34.277 205.411C44.4843 205.411 52.759 197.137 52.759 186.929C52.759 176.722 44.4843 168.447 34.277 168.447C24.0697 168.447 15.795 176.722 15.795 186.929C15.795 197.137 24.0697 205.411 34.277 205.411Z" fill="#02FFDD"/>
<g opacity="0.55">
<path d="M34.277 205.411C44.4843 205.411 52.759 197.137 52.759 186.929C52.759 176.722 44.4843 168.447 34.277 168.447C24.0697 168.447 15.795 176.722 15.795 186.929C15.795 197.137 24.0697 205.411 34.277 205.411Z" fill="#02FFDD"/>
</g>
<path d="M12.042 190.747C12.042 194.072 9.346 196.768 6.021 196.768C2.696 196.768 0 194.072 0 190.747C0 187.422 2.696 184.726 6.021 184.726C9.346 184.726 12.042 187.422 12.042 190.747Z" fill="#02FFDD"/>
<g opacity="0.55">
<path d="M12.042 190.747C12.042 194.072 9.346 196.768 6.021 196.768C2.696 196.768 0 194.072 0 190.747C0 187.422 2.696 184.726 6.021 184.726C9.346 184.726 12.042 187.422 12.042 190.747Z" fill="#02FFDD"/>
</g>
<path d="M51.211 215.145C58.2554 215.145 63.966 209.435 63.966 202.39C63.966 195.346 58.2554 189.635 51.211 189.635C44.1666 189.635 38.456 195.346 38.456 202.39C38.456 209.435 44.1666 215.145 51.211 215.145Z" fill="#02FFDD"/>
<g opacity="0.55">
<path d="M60.2262 211.409C65.2073 206.428 65.2073 198.352 60.2263 193.371C55.2452 188.39 47.1692 188.39 42.1881 193.371C37.207 198.352 37.207 206.428 42.1881 211.409C47.1692 216.39 55.2451 216.39 60.2262 211.409Z" fill="#00BFA5"/>
</g>
<g opacity="0.28">
<path d="M283.723 98.1272C288.094 100.651 291.627 106.771 291.613 111.793L291.287 226.668C291.273 231.691 287.716 233.711 283.345 231.187L115.265 134.146C110.894 131.622 107.361 125.509 107.375 120.486L107.701 5.61119C107.715 0.588186 111.272 -1.43781 115.643 1.08519L283.723 98.1272Z" fill="url(#paint0_linear_101_76)"/>
</g>
<path d="M262.025 115.382C266.396 117.906 269.929 124.026 269.915 129.048L269.589 243.923C269.575 248.946 266.018 250.966 261.647 248.442L93.567 151.401C89.196 148.877 85.663 142.764 85.677 137.741L86.003 22.8663C86.017 17.8433 89.574 15.8173 93.945 18.3403L262.025 115.382Z" stroke="#B391FF" stroke-width="0.5555" stroke-miterlimit="10"/>
<path d="M246.077 122.702C250.448 125.226 253.981 131.345 253.967 136.368L253.641 251.243C253.627 256.266 250.07 258.286 245.699 255.762L77.619 158.721C73.248 156.197 69.715 150.084 69.729 145.061L70.055 30.1861C70.069 25.1631 73.626 23.1371 77.997 25.6601L246.077 122.702Z" fill="#02FFDD" fill-opacity="0.19"/>
<path d="M249.223 120.874L81.143 23.8332C78.943 22.5632 76.95 22.4452 75.511 23.2822L72.366 25.1102C73.805 24.2732 75.799 24.3912 77.998 25.6612L246.078 122.702C250.449 125.226 253.982 131.345 253.968 136.368L253.642 251.243C253.635 253.737 252.755 255.49 251.335 256.315L254.481 254.487C255.9 253.662 256.78 251.909 256.788 249.415L257.114 134.54C257.127 129.517 253.594 123.397 249.223 120.874Z" fill="url(#paint1_linear_101_76)"/>
<path d="M103.167 78.5112C107.909 81.2492 111.731 87.8792 111.716 93.3272L111.379 212.295C111.364 217.743 107.516 219.936 102.774 217.199L54.991 189.612C50.249 186.874 46.426 180.253 46.442 174.804L46.779 55.8362C46.795 50.3882 50.642 48.1862 55.384 50.9232L103.167 78.5112Z" fill="url(#paint2_linear_101_76)"/>
<path d="M95.559 92.2091C99.241 94.3351 102.225 99.5031 102.213 103.733C102.201 107.972 99.198 109.683 95.516 107.558L59.068 86.5151C55.386 84.3891 52.402 79.2211 52.414 74.9821C52.426 70.7511 55.429 69.0401 59.111 71.1661L95.559 92.2091Z" fill="#FFC21A"/>
<path d="M95.559 121.228C99.241 123.354 102.225 128.522 102.213 132.753C102.201 136.992 99.198 138.703 95.516 136.578L59.068 115.535C55.386 113.409 52.402 108.241 52.414 104.002C52.426 99.7722 55.429 98.0602 59.111 100.186L95.559 121.228Z" fill="#EFF4FF"/>
<path d="M95.559 150.246C99.241 152.372 102.225 157.54 102.213 161.771C102.201 166.01 99.198 167.721 95.516 165.596L59.068 144.552C55.386 142.426 52.402 137.258 52.414 133.019C52.426 128.788 55.429 127.077 59.111 129.203L95.559 150.246Z" fill="#EFF4FF"/>
<path d="M93.16 178.656L59.261 159.085C57.43 158.028 55.77 157.929 54.573 158.625L52.486 159.838C53.684 159.142 55.343 159.24 57.174 160.297L91.072 179.868C94.711 181.969 97.656 187.064 97.644 191.246C97.638 193.322 96.905 194.783 95.722 195.47L97.809 194.257C98.992 193.57 99.725 192.109 99.731 190.033C99.743 185.851 96.799 180.757 93.16 178.656Z" fill="#1AE5FF"/>
<path d="M91.073 179.869C94.712 181.97 97.657 187.065 97.645 191.247C97.633 195.429 94.669 197.112 91.03 195.011L57.132 175.44C53.493 173.339 50.553 168.247 50.565 164.065C50.577 159.883 53.536 158.197 57.175 160.298L91.073 179.869Z" fill="url(#paint3_linear_101_76)"/>
<path d="M64.568 169.31C65.015 169.568 65.417 169.896 65.787 170.293L65.626 170.714C65.263 170.328 64.905 170.033 64.561 169.834C64.286 169.675 64.069 169.624 63.916 169.667C63.762 169.711 63.685 169.857 63.685 170.099C63.684 170.275 63.716 170.433 63.767 170.58C63.824 170.723 63.92 170.881 64.053 171.054C64.187 171.227 64.397 171.451 64.671 171.727C65.137 172.187 65.455 172.577 65.633 172.893C65.805 173.213 65.893 173.55 65.892 173.895C65.891 174.35 65.749 174.614 65.461 174.697C65.179 174.792 64.796 174.695 64.304 174.411C63.78 174.109 63.378 173.796 63.092 173.476L63.094 172.904C63.279 173.099 63.477 173.287 63.687 173.46C63.904 173.629 64.115 173.78 64.325 173.902C64.67 174.101 64.932 174.179 65.105 174.124C65.278 174.077 65.368 173.916 65.369 173.651C65.37 173.475 65.338 173.31 65.274 173.163C65.217 173.012 65.115 172.851 64.968 172.671C64.821 172.491 64.605 172.263 64.311 171.968C63.896 171.56 63.603 171.185 63.425 170.854C63.247 170.516 63.158 170.164 63.159 169.789C63.16 169.393 63.289 169.151 63.551 169.075C63.808 168.988 64.146 169.066 64.568 169.31Z" fill="#EFF4FF"/>
<path d="M66.718 175.732L66.728 171.909L67.233 172.2L67.222 176.023L66.718 175.732Z" fill="#EFF4FF"/>
<path d="M66.985 171.411C66.902 171.363 66.832 171.286 66.775 171.194C66.718 171.095 66.686 170.981 66.686 170.849C66.686 170.717 66.719 170.64 66.776 170.607C66.834 170.581 66.904 170.593 66.987 170.641C67.07 170.689 67.14 170.759 67.197 170.851C67.254 170.95 67.286 171.064 67.286 171.196C67.286 171.328 67.253 171.405 67.196 171.438C67.139 171.463 67.068 171.459 66.985 171.411Z" fill="#EFF4FF"/>
<path d="M71.025 174.39L71.024 174.757L70.404 174.487C70.461 174.601 70.512 174.733 70.556 174.891C70.6 175.049 70.625 175.21 70.625 175.379C70.624 175.753 70.508 175.98 70.284 176.079C70.066 176.174 69.76 176.114 69.37 175.889C69.268 175.83 69.179 175.764 69.089 175.697C68.872 175.696 68.769 175.806 68.768 176.004C68.768 176.107 68.799 176.206 68.876 176.294C68.952 176.39 69.08 176.493 69.265 176.6L69.852 176.939C70.21 177.145 70.49 177.396 70.681 177.675C70.872 177.962 70.967 178.274 70.966 178.604C70.965 179.03 70.817 179.268 70.523 179.318C70.229 179.368 69.794 179.228 69.226 178.9C68.792 178.649 68.46 178.37 68.224 178.042C67.988 177.722 67.868 177.388 67.869 177.051C67.87 176.816 67.934 176.655 68.069 176.564C68.197 176.462 68.383 176.459 68.613 176.525C68.53 176.433 68.46 176.326 68.403 176.198C68.346 176.077 68.314 175.948 68.314 175.824C68.314 175.685 68.347 175.578 68.417 175.516C68.481 175.45 68.584 175.406 68.718 175.388C68.552 175.211 68.412 174.991 68.304 174.73C68.196 174.477 68.139 174.216 68.14 173.967C68.141 173.549 68.251 173.289 68.475 173.19C68.693 173.088 68.999 173.155 69.402 173.387C69.574 173.487 69.734 173.601 69.874 173.726L71.025 174.39ZM69.086 177.011C68.856 176.878 68.677 176.841 68.549 176.892C68.421 176.943 68.357 177.09 68.356 177.324C68.355 177.529 68.432 177.735 68.585 177.926C68.738 178.125 68.955 178.301 69.236 178.463C69.664 178.71 69.977 178.817 70.182 178.789C70.38 178.757 70.483 178.625 70.484 178.375C70.485 178.162 70.434 177.993 70.319 177.846C70.211 177.703 70 177.537 69.694 177.36L69.086 177.011ZM69.385 175.486C69.877 175.77 70.126 175.635 70.128 175.092C70.13 174.512 69.881 174.082 69.383 173.795C69.147 173.659 68.961 173.625 68.833 173.698C68.705 173.771 68.64 173.954 68.64 174.24C68.639 174.511 68.709 174.75 68.836 174.963C68.97 175.18 69.149 175.35 69.385 175.486Z" fill="#EFF4FF"/>
<path d="M73.279 175.625C73.681 175.857 73.981 176.141 74.185 176.479C74.389 176.817 74.49 177.236 74.488 177.72L74.481 180.215L73.977 179.924L73.984 177.452C73.985 177.144 73.922 176.872 73.801 176.648C73.674 176.42 73.482 176.236 73.221 176.085C72.87 175.882 72.614 175.838 72.454 175.965C72.294 176.086 72.21 176.397 72.208 176.896L72.202 178.899L71.698 178.608L71.709 174.786L72.118 175.022L72.2 175.591L72.226 175.606C72.329 175.482 72.476 175.42 72.661 175.424C72.845 175.426 73.056 175.496 73.279 175.625Z" fill="#EFF4FF"/>
<path d="M80.574 178.625L80.565 181.927C80.563 182.507 80.409 182.88 80.101 183.034C79.794 183.187 79.372 183.113 78.842 182.807C78.306 182.497 77.891 182.089 77.598 181.582C77.312 181.086 77.166 180.539 77.168 179.952L77.177 176.665L77.6879 176.96L77.6789 180.291C77.6779 180.717 77.779 181.098 77.983 181.444C78.187 181.79 78.48 182.076 78.876 182.305C79.253 182.522 79.5399 182.571 79.7389 182.458C79.9439 182.349 80.047 182.077 80.048 181.652L80.057 178.328L80.574 178.625Z" fill="#EFF4FF"/>
<path d="M84.24 182.476C84.475 182.957 84.595 183.511 84.593 184.135C84.591 184.766 84.469 185.18 84.225 185.392C83.975 185.593 83.636 185.574 83.208 185.327C82.991 185.202 82.793 185.043 82.615 184.845C82.43 184.65 82.284 184.419 82.163 184.158L82.125 184.136C82.15 184.378 82.162 184.598 82.161 184.796L82.157 186.366L81.653 186.075L81.669 180.536L82.078 180.772L82.147 181.333L82.173 181.348C82.301 181.216 82.455 181.151 82.628 181.162C82.801 181.166 82.999 181.236 83.222 181.365C83.66 181.619 83.998 181.984 84.24 182.476ZM83.824 184.793C83.984 184.621 84.068 184.295 84.07 183.825C84.071 183.348 83.989 182.933 83.83 182.592C83.665 182.239 83.435 181.982 83.142 181.812C82.804 181.617 82.554 181.576 82.407 181.711C82.253 181.835 82.176 182.136 82.168 182.609V182.734C82.166 183.277 82.242 183.703 82.401 184.022C82.554 184.345 82.802 184.606 83.147 184.805C83.434 184.972 83.657 184.961 83.824 184.793Z" fill="#EFF4FF"/>
<path d="M60.138 74.7253C60.819 75.1183 61.5 75.5743 62.18 76.0923C63.062 76.7623 63.753 77.9583 63.89 79.0533C64.103 80.7423 64.099 82.3103 63.877 83.7483C63.734 84.6813 63.039 85.0773 62.156 84.7293C61.475 84.4613 60.794 84.1303 60.112 83.7373C59.431 83.3443 58.75 82.8883 58.069 82.3703C57.187 81.7003 56.496 80.5033 56.359 79.4093C56.146 77.7203 56.15 76.1523 56.372 74.7143C56.515 73.7813 57.21 73.3853 58.093 73.7333C58.775 74.0013 59.456 74.3323 60.138 74.7253Z" fill="white"/>
<path d="M60.132 77.0282C60.154 77.0412 60.176 77.0592 60.197 77.0822L61.751 78.8422C61.803 78.9002 61.835 78.9792 61.834 79.0442L61.825 82.0742C61.825 82.1672 61.758 82.2062 61.676 82.1592L60.963 81.7472C60.881 81.6992 60.815 81.5842 60.815 81.4912L60.819 79.9792C60.819 79.8852 60.753 79.7702 60.671 79.7232L59.576 79.0912C59.494 79.0432 59.427 79.0812 59.427 79.1762L59.423 80.6882C59.423 80.7812 59.356 80.8202 59.274 80.7732L58.561 80.3622C58.479 80.3142 58.413 80.1992 58.413 80.1062L58.421 77.0762C58.421 77.0112 58.455 76.9702 58.505 76.9712L60.065 77.0092C60.088 77.0082 60.11 77.0152 60.132 77.0282Z" fill="#FFC21A"/>
<path d="M73.084 83.8823L73.07 88.9893L72.553 88.6903L72.56 86.2843L70.223 84.9353L70.216 87.3413L69.699 87.0423L69.713 81.9363L70.23 82.2353L70.224 84.4063L72.561 85.7563L72.567 83.5843L73.084 83.8823Z" fill="white"/>
<path d="M76.68 87.7083C76.954 88.2193 77.093 88.7843 77.091 89.3933C77.089 90.0173 76.947 90.4203 76.672 90.6133C76.403 90.8033 76.019 90.7583 75.54 90.4813C75.24 90.3083 74.978 90.0763 74.749 89.7823C74.52 89.4883 74.341 89.1573 74.215 88.7833C74.095 88.4123 74.032 88.0233 74.033 87.6273C74.035 87.0033 74.17 86.5893 74.439 86.3993C74.715 86.2133 75.092 86.2543 75.571 86.5313C76.037 86.8003 76.407 87.1903 76.68 87.7083ZM76.309 90.0583C76.476 89.8973 76.566 89.5743 76.568 89.0903C76.569 88.5983 76.481 88.1803 76.316 87.8353C76.144 87.4793 75.889 87.2073 75.557 87.0153C75.225 86.8233 74.976 86.8043 74.809 86.9583C74.642 87.1123 74.552 87.4273 74.55 87.9263C74.549 88.4103 74.637 88.8363 74.802 89.1893C74.974 89.5453 75.222 89.8143 75.554 90.0053C75.887 90.1963 76.136 90.2153 76.309 90.0583Z" fill="white"/>
<path d="M81.598 90.0113C81.975 90.2283 82.255 90.5013 82.44 90.8283C82.631 91.1663 82.719 91.5703 82.718 92.0613L82.711 94.5563L82.207 94.2653L82.214 91.7783C82.215 91.4703 82.164 91.2133 82.05 90.9933C81.936 90.7733 81.757 90.5963 81.521 90.4603C81.208 90.2793 80.978 90.2493 80.824 90.3663C80.677 90.4873 80.599 90.7653 80.598 91.1983L80.592 93.3333L80.088 93.0423L80.095 90.5553C80.096 90.2473 80.039 89.9863 79.925 89.7663C79.817 89.5493 79.638 89.3733 79.396 89.2333C79.083 89.0523 78.847 89.0263 78.699 89.1543C78.552 89.2893 78.48 89.6083 78.479 90.1003L78.473 92.1103L77.969 91.8193L77.98 87.9893L78.389 88.2253L78.471 88.8013L78.497 88.8163C78.593 88.6813 78.728 88.6193 78.9 88.6083C79.073 88.6053 79.264 88.6643 79.481 88.7893C79.998 89.0883 80.342 89.4993 80.501 90.0243L80.527 90.0393C80.623 89.8963 80.771 89.8273 80.956 89.8163C81.145 89.8083 81.355 89.8713 81.598 90.0113Z" fill="white"/>
<path d="M86.388 94.4962L86.387 94.8632L84.095 93.5402C84.1 93.9912 84.201 94.3952 84.386 94.7372C84.571 95.0712 84.838 95.3442 85.177 95.5392C85.535 95.7452 85.892 95.8642 86.238 95.8942L86.237 96.4082C86.064 96.3972 85.892 96.3632 85.732 96.3082C85.572 96.2602 85.381 96.1642 85.157 96.0352C84.665 95.7512 84.276 95.3582 83.996 94.8512C83.71 94.3402 83.571 93.7822 83.572 93.1662C83.574 92.5502 83.709 92.1432 83.972 91.9272C84.235 91.7192 84.593 91.7422 85.04 92.0002C85.455 92.2402 85.787 92.5852 86.028 93.0412C86.269 93.4942 86.389 93.9822 86.388 94.4962ZM84.109 93.0772L85.846 94.0802C85.847 93.7132 85.778 93.3942 85.638 93.1222C85.498 92.8432 85.294 92.6292 85.032 92.4782C84.764 92.3232 84.546 92.3012 84.393 92.4102C84.232 92.5162 84.136 92.7402 84.109 93.0772Z" fill="white"/>
<path d="M60.138 104.136C60.819 104.529 61.5 104.985 62.18 105.503C63.062 106.173 63.753 107.369 63.89 108.464C64.103 110.153 64.099 111.721 63.877 113.159C63.734 114.092 63.039 114.488 62.156 114.14C61.475 113.872 60.794 113.541 60.112 113.148C59.431 112.755 58.75 112.299 58.069 111.781C57.187 111.111 56.496 109.915 56.359 108.82C56.146 107.131 56.15 105.563 56.372 104.125C56.515 103.192 57.21 102.796 58.093 103.144C58.775 103.412 59.456 103.743 60.138 104.136Z" fill="#6098F0"/>
<path d="M61.865 109.414C61.951 109.464 62.02 109.584 62.02 109.683L62.019 110.191C62.019 110.29 61.949 110.329 61.863 110.28L61.664 110.165C61.622 110.344 61.552 110.495 61.458 110.613L61.598 110.856C61.658 110.961 61.658 111.074 61.597 111.109L61.283 111.287C61.253 111.304 61.213 111.299 61.173 111.276C61.133 111.253 61.094 111.213 61.063 111.16L60.923 110.917C60.773 110.937 60.607 110.922 60.429 110.867L60.428 111.096C60.428 111.195 60.358 111.234 60.273 111.185L59.831 110.93C59.745 110.881 59.676 110.761 59.676 110.662L59.677 110.433C59.5 110.284 59.335 110.108 59.185 109.914L59.044 109.994C59.014 110.011 58.974 110.006 58.934 109.983C58.894 109.96 58.855 109.92 58.824 109.867L58.512 109.327C58.451 109.222 58.452 109.109 58.513 109.074L58.654 108.994C58.562 108.768 58.492 108.537 58.452 108.31L58.253 108.195C58.167 108.145 58.098 108.025 58.098 107.926L58.099 107.418C58.099 107.319 58.169 107.28 58.255 107.329L58.454 107.444C58.496 107.265 58.566 107.114 58.659 106.996L58.519 106.753C58.459 106.648 58.459 106.535 58.52 106.5L58.834 106.322C58.865 106.305 58.904 106.31 58.944 106.333C58.984 106.356 59.023 106.396 59.054 106.449L59.194 106.692C59.345 106.671 59.511 106.687 59.688 106.742L59.689 106.514C59.689 106.415 59.759 106.375 59.845 106.425L60.287 106.68C60.373 106.729 60.442 106.85 60.441 106.948L60.44 107.176C60.617 107.326 60.783 107.502 60.932 107.696L61.073 107.616C61.103 107.599 61.143 107.604 61.183 107.627C61.223 107.65 61.262 107.69 61.292 107.743L61.604 108.283C61.664 108.388 61.664 108.5 61.603 108.536L61.462 108.616C61.554 108.842 61.624 109.072 61.664 109.3L61.865 109.414ZM60.057 109.712C60.493 109.964 60.847 109.761 60.848 109.26C60.849 108.759 60.498 108.15 60.062 107.898C59.626 107.646 59.272 107.848 59.271 108.349C59.269 108.85 59.621 109.46 60.057 109.712Z" fill="#EFF4FF"/>
<path d="M69.934 111.315C70.375 111.569 70.783 111.893 71.153 112.298L70.992 112.719C70.622 112.329 70.265 112.035 69.92 111.836C69.645 111.677 69.435 111.622 69.281 111.673C69.127 111.717 69.05 111.863 69.05 112.098C69.05 112.274 69.075 112.436 69.132 112.579C69.189 112.73 69.285 112.888 69.418 113.06C69.552 113.233 69.756 113.453 70.036 113.726C70.502 114.186 70.82 114.576 70.992 114.895C71.17 115.218 71.252 115.545 71.251 115.897C71.25 116.345 71.108 116.616 70.827 116.703C70.539 116.787 70.156 116.697 69.67 116.417C69.146 116.115 68.738 115.798 68.458 115.482L68.46 114.91C68.639 115.101 68.843 115.285 69.053 115.458C69.27 115.635 69.481 115.786 69.691 115.907C70.036 116.106 70.298 116.177 70.471 116.129C70.644 116.082 70.734 115.921 70.735 115.657C70.735 115.481 70.704 115.316 70.64 115.162C70.576 115.015 70.475 114.853 70.334 114.677C70.187 114.497 69.971 114.261 69.671 113.971C69.263 113.566 68.963 113.188 68.792 112.853C68.614 112.522 68.525 112.163 68.526 111.788C68.527 111.399 68.656 111.157 68.912 111.07C69.174 110.993 69.513 111.071 69.934 111.315Z" fill="#89939A"/>
<path d="M74.721 117.084L74.72 117.451L72.428 116.128C72.433 116.579 72.534 116.976 72.719 117.317C72.904 117.659 73.171 117.931 73.51 118.126C73.868 118.332 74.225 118.451 74.571 118.474L74.57 118.995C74.391 118.98 74.225 118.943 74.065 118.895C73.905 118.84 73.714 118.751 73.49 118.622C72.998 118.338 72.609 117.937 72.329 117.43C72.043 116.919 71.904 116.361 71.905 115.752C71.907 115.136 72.042 114.722 72.305 114.506C72.568 114.298 72.926 114.321 73.373 114.579C73.788 114.819 74.12 115.172 74.361 115.627C74.602 116.082 74.722 116.563 74.721 117.084ZM72.435 115.654L74.178 116.66C74.179 116.301 74.11 115.981 73.97 115.702C73.83 115.43 73.626 115.209 73.364 115.058C73.096 114.903 72.878 114.881 72.725 114.99C72.565 115.104 72.468 115.32 72.435 115.654Z" fill="#89939A"/>
<path d="M76.126 115.353L76.123 116.241L77.087 116.798L77.086 117.246L76.122 116.689L76.116 118.941C76.115 119.168 76.16 119.37 76.255 119.55C76.35 119.73 76.484 119.866 76.65 119.962C76.739 120.014 76.822 120.054 76.905 120.087C76.988 120.12 77.052 120.142 77.103 120.157L77.102 120.597C77.044 120.593 76.968 120.578 76.859 120.53C76.757 120.493 76.661 120.452 76.572 120.401C75.927 120.029 75.609 119.448 75.611 118.67L75.617 116.396L75.138 116.12L75.139 115.841L75.619 115.875L75.832 115.182L76.126 115.353Z" fill="#89939A"/>
<path d="M78.322 116.621L78.319 117.509L79.283 118.066L79.282 118.514L78.318 117.957L78.312 120.209C78.311 120.436 78.356 120.638 78.451 120.818C78.546 120.998 78.674 121.13 78.84 121.226C78.929 121.278 79.019 121.322 79.102 121.355C79.185 121.388 79.249 121.41 79.3 121.425L79.299 121.865C79.241 121.861 79.165 121.846 79.056 121.798C78.947 121.757 78.852 121.717 78.769 121.669C78.124 121.297 77.806 120.716 77.808 119.938L77.814 117.664L77.335 117.388L77.336 117.109L77.816 117.143L78.029 116.45L78.322 116.621Z" fill="#89939A"/>
<path d="M79.963 122.286L79.973 118.463L80.478 118.754L80.467 122.577L79.963 122.286Z" fill="#89939A"/>
<path d="M80.231 117.958C80.148 117.91 80.071 117.836 80.021 117.741C79.964 117.649 79.932 117.528 79.932 117.403C79.932 117.264 79.965 117.187 80.022 117.161C80.073 117.124 80.15 117.139 80.233 117.187C80.31 117.231 80.38 117.308 80.443 117.404C80.5 117.503 80.526 117.613 80.525 117.745C80.525 117.87 80.499 117.958 80.441 117.983C80.378 118.013 80.307 118.002 80.231 117.958Z" fill="#89939A"/>
<path d="M83.121 120.207C83.517 120.436 83.823 120.723 84.02 121.064C84.224 121.402 84.325 121.813 84.323 122.305L84.316 124.8L83.812 124.509L83.819 122.036C83.82 121.721 83.757 121.456 83.636 121.232C83.515 121.008 83.317 120.813 83.056 120.662C82.711 120.463 82.456 120.426 82.289 120.55C82.129 120.671 82.045 120.982 82.043 121.481L82.037 123.484L81.533 123.193L81.544 119.371L81.953 119.607L82.035 120.176L82.061 120.191C82.164 120.059 82.311 120.005 82.496 120.001C82.681 120.004 82.891 120.075 83.121 120.207Z" fill="#89939A"/>
<path d="M88.088 123.149L88.087 123.516L87.467 123.239C87.524 123.353 87.575 123.492 87.619 123.65C87.663 123.808 87.682 123.966 87.682 124.127C87.681 124.501 87.572 124.739 87.347 124.838C87.123 124.929 86.816 124.862 86.427 124.637C86.331 124.582 86.236 124.519 86.153 124.449C85.936 124.456 85.827 124.554 85.826 124.753C85.826 124.863 85.864 124.959 85.94 125.054C86.016 125.15 86.144 125.245 86.323 125.349L86.91 125.688C87.274 125.898 87.548 126.145 87.746 126.435C87.937 126.722 88.032 127.026 88.031 127.364C88.03 127.782 87.882 128.02 87.588 128.078C87.287 128.125 86.859 127.988 86.291 127.66C85.857 127.409 85.519 127.119 85.283 126.799C85.047 126.479 84.933 126.149 84.934 125.804C84.935 125.577 84.999 125.408 85.127 125.313C85.262 125.222 85.441 125.208 85.677 125.285C85.594 125.193 85.518 125.083 85.461 124.954C85.404 124.825 85.379 124.708 85.379 124.583C85.379 124.444 85.412 124.337 85.476 124.271C85.54 124.205 85.643 124.161 85.783 124.147C85.611 123.959 85.471 123.746 85.363 123.486C85.255 123.225 85.205 122.976 85.205 122.726C85.206 122.308 85.316 122.048 85.533 121.946C85.751 121.844 86.064 121.907 86.466 122.139C86.638 122.239 86.798 122.353 86.932 122.481L88.088 123.149ZM86.15 125.77C85.92 125.637 85.741 125.6 85.613 125.651C85.485 125.702 85.421 125.841 85.42 126.076C85.419 126.289 85.496 126.487 85.649 126.686C85.796 126.874 86.012 127.058 86.3 127.223C86.721 127.466 87.034 127.574 87.239 127.545C87.444 127.516 87.546 127.377 87.547 127.128C87.548 126.923 87.491 126.743 87.382 126.607C87.267 126.46 87.057 126.294 86.75 126.117L86.15 125.77ZM86.448 124.245C86.94 124.529 87.183 124.39 87.185 123.84C87.187 123.268 86.938 122.838 86.44 122.55C86.204 122.414 86.025 122.384 85.897 122.457C85.769 122.53 85.704 122.706 85.704 122.999C85.703 123.263 85.767 123.505 85.9 123.715C86.027 123.928 86.212 124.108 86.448 124.245Z" fill="#89939A"/>
<path d="M60.138 133.155C60.819 133.548 61.5 134.004 62.18 134.522C63.062 135.192 63.753 136.389 63.89 137.483C64.103 139.172 64.099 140.74 63.877 142.178C63.734 143.111 63.039 143.507 62.156 143.159C61.475 142.891 60.794 142.56 60.112 142.167C59.431 141.774 58.75 141.318 58.069 140.8C57.187 140.13 56.496 138.933 56.359 137.839C56.146 136.15 56.15 134.582 56.372 133.144C56.515 132.211 57.21 131.815 58.093 132.163C58.775 132.431 59.456 132.762 60.138 133.155Z" fill="#6098F0"/>
<path d="M59.972 135.156C60.59 135.513 61.09 136.379 61.088 137.089C61.087 137.582 60.842 137.869 60.486 137.88C61.188 138.59 61.696 139.785 61.693 140.849L58.224 138.846C58.227 137.782 58.741 137.176 59.444 137.278C59.09 136.857 58.848 136.289 58.85 135.797C58.853 135.087 59.354 134.8 59.972 135.156Z" fill="white"/>
<path d="M69.66 140.524C70.771 141.165 71.325 141.978 71.322 142.976C71.321 143.49 71.166 143.797 70.859 143.899C70.552 144.001 70.111 143.886 69.543 143.558L69.019 143.256L69.013 145.259L68.496 144.96L68.51 139.861L69.66 140.524ZM70.477 143.333C70.682 143.282 70.785 143.062 70.786 142.688C70.787 142.351 70.692 142.046 70.501 141.774C70.31 141.495 70.01 141.241 69.601 141.005L69.026 140.673L69.02 142.742L69.486 143.011C69.94 143.273 70.272 143.384 70.477 143.333Z" fill="#89939A"/>
<path d="M73.692 144.065C73.839 144.15 73.973 144.235 74.094 144.334L74.022 144.829C73.882 144.719 73.76 144.627 73.658 144.568C73.39 144.413 73.153 144.401 72.961 144.548C72.769 144.687 72.678 144.951 72.677 145.325L72.671 147.372L72.167 147.081L72.178 143.259L72.593 143.499L72.648 144.244L72.674 144.259C72.796 144.08 72.943 143.966 73.123 143.937C73.296 143.902 73.487 143.947 73.692 144.065Z" fill="#89939A"/>
<path d="M77.176 146.606C77.449 147.124 77.582 147.678 77.581 148.287C77.579 148.911 77.444 149.317 77.168 149.511C76.892 149.705 76.515 149.663 76.03 149.383C75.736 149.213 75.468 148.978 75.239 148.684C75.01 148.39 74.831 148.059 74.711 147.688C74.584 147.313 74.521 146.924 74.522 146.521C74.524 145.897 74.659 145.491 74.935 145.304C75.204 145.107 75.581 145.155 76.067 145.436C76.533 145.705 76.903 146.095 77.176 146.606ZM76.799 148.96C76.972 148.803 77.056 148.476 77.058 147.985C77.059 147.501 76.977 147.086 76.806 146.73C76.634 146.381 76.386 146.113 76.047 145.917C75.721 145.729 75.472 145.71 75.299 145.86C75.132 146.006 75.048 146.333 75.047 146.824C75.046 147.316 75.128 147.738 75.299 148.087C75.471 148.443 75.719 148.719 76.045 148.907C76.376 149.098 76.626 149.11 76.799 148.96Z" fill="#89939A"/>
<path d="M80.57 151.931L80.58 148.109L81.078 148.396L81.068 152.219L80.57 151.931Z" fill="#89939A"/>
<path d="M80.831 147.607C80.748 147.559 80.678 147.482 80.621 147.383C80.564 147.291 80.538 147.181 80.539 147.049C80.539 146.917 80.565 146.836 80.623 146.803C80.681 146.777 80.751 146.781 80.834 146.829C80.917 146.877 80.987 146.954 81.044 147.046C81.108 147.149 81.133 147.259 81.133 147.391C81.133 147.523 81.107 147.604 81.043 147.626C80.985 147.658 80.914 147.655 80.831 147.607Z" fill="#89939A"/>
<path d="M78.621 146.742C78.624 145.803 78.983 145.54 79.698 145.953C79.87 146.053 80.081 146.218 80.317 146.435L80.182 146.82C79.991 146.636 79.825 146.504 79.684 146.422C79.492 146.311 79.352 146.304 79.262 146.399C79.172 146.494 79.127 146.703 79.126 147.019L79.125 147.268L79.968 147.755L79.967 148.203L79.124 147.716L79.114 151.091L78.61 150.8L78.62 147.425L78.026 147.082L78.027 146.825L78.621 146.955V146.742Z" fill="#89939A"/>
<path d="M82.66 147.7L82.645 153.129L82.14 152.838L82.156 147.409L82.66 147.7Z" fill="#89939A"/>
<path d="M86.347 153.092L86.346 153.459L84.054 152.136C84.066 152.591 84.16 152.991 84.345 153.325C84.536 153.67 84.797 153.939 85.136 154.134C85.494 154.34 85.851 154.459 86.203 154.493L86.202 155.007C86.023 154.992 85.857 154.962 85.697 154.907C85.537 154.852 85.346 154.763 85.122 154.634C84.624 154.346 84.241 153.949 83.955 153.439C83.675 152.939 83.53 152.37 83.531 151.761C83.533 151.145 83.668 150.731 83.931 150.522C84.2 150.31 84.552 150.337 84.999 150.595C85.414 150.835 85.746 151.18 85.987 151.636C86.229 152.09 86.349 152.578 86.347 153.092ZM84.068 151.673L85.805 152.676C85.806 152.309 85.737 151.99 85.597 151.711C85.457 151.439 85.253 151.226 84.991 151.075C84.723 150.92 84.512 150.894 84.352 151.007C84.192 151.112 84.095 151.336 84.068 151.673Z" fill="#89939A"/>
<path d="M105.88 49.3032C108.972 51.0882 111.47 55.4152 111.46 58.9682L111.43 69.6222C111.42 73.1752 108.905 74.6082 105.813 72.8232L42.866 36.4802C39.774 34.6952 37.276 30.3682 37.286 26.8152L37.316 16.1612C37.326 12.6082 39.841 11.1752 42.933 12.9602L105.88 49.3032Z" fill="#EFF4FF"/>
<path d="M103.295 64.5233C103.464 64.9013 103.407 65.2523 103.163 65.3063L102.507 65.4603C102.412 65.4813 102.303 65.4553 102.195 65.3933C102.026 65.2953 101.86 65.1093 101.757 64.8783L100.043 61.0803C99.695 61.0153 99.334 60.8733 98.975 60.6663C97.815 59.9963 96.677 58.6443 96.058 56.9933C95.322 55.0233 95.624 53.2123 96.775 52.7083C97.423 52.4253 98.212 52.5663 98.99 53.0163C100.036 53.6203 101.064 54.7793 101.71 56.2113C102.576 58.1323 102.481 59.9453 101.58 60.7213L103.295 64.5233ZM100.095 59.3063C100.97 59.1013 101.184 57.8363 100.57 56.4763C100.196 55.6433 99.598 54.9693 98.99 54.6183C98.605 54.3953 98.215 54.3023 97.875 54.3813C97 54.5863 96.786 55.8513 97.397 57.2093C97.773 58.0443 98.371 58.7193 98.98 59.0703C99.365 59.2923 99.755 59.3853 100.095 59.3063Z" fill="#6098F0"/>
<path d="M46.267 23.8752C46.714 24.1332 47.116 24.4532 47.486 24.8582L47.325 25.2792C46.962 24.8932 46.604 24.5982 46.26 24.3992C45.985 24.2402 45.768 24.1812 45.615 24.2252C45.461 24.2762 45.384 24.4152 45.384 24.6572C45.383 24.8332 45.409 24.9952 45.466 25.1382C45.523 25.2892 45.619 25.4472 45.752 25.6192C45.886 25.7842 46.096 26.0162 46.37 26.2852C46.836 26.7452 47.154 27.1352 47.332 27.4582C47.504 27.7782 47.592 28.1082 47.591 28.4602C47.59 28.9082 47.448 29.1792 47.16 29.2622C46.878 29.3492 46.495 29.2532 46.01 28.9732C45.48 28.6672 45.078 28.3612 44.791 28.0342L44.793 27.4622C44.978 27.6642 45.176 27.8452 45.393 28.0212C45.604 28.1942 45.814 28.3382 46.025 28.4592C46.37 28.6582 46.632 28.7362 46.805 28.6892C46.978 28.6342 47.068 28.4812 47.069 28.2092C47.07 28.0332 47.038 27.8752 46.974 27.7212C46.917 27.5782 46.815 27.4162 46.668 27.2362C46.521 27.0562 46.305 26.8202 46.011 26.5262C45.596 26.1182 45.303 25.7502 45.125 25.4122C44.947 25.0742 44.858 24.7222 44.859 24.3472C44.86 23.9512 44.989 23.7162 45.251 23.6332C45.507 23.5462 45.845 23.6322 46.267 23.8752Z" fill="#89939A"/>
<path d="M51.053 29.6441L51.052 30.0041L48.76 28.6811C48.771 29.1431 48.866 29.5361 49.051 29.8781C49.242 30.2231 49.503 30.4851 49.842 30.6801C50.2 30.8861 50.557 31.0121 50.909 31.0391L50.908 31.5601C50.729 31.5451 50.556 31.5041 50.397 31.4561C50.244 31.4041 50.052 31.3081 49.822 31.1761C49.33 30.8921 48.941 30.4991 48.661 29.9911C48.375 29.4801 48.236 28.9221 48.237 28.3061C48.239 27.6971 48.374 27.2831 48.637 27.0671C48.906 26.8621 49.258 26.8821 49.705 27.1401C50.12 27.3801 50.452 27.7331 50.693 28.1881C50.934 28.6421 51.055 29.1231 51.053 29.6441ZM48.774 28.2181L50.511 29.2211C50.512 28.8541 50.443 28.5351 50.303 28.2631C50.163 27.9841 49.959 27.7701 49.697 27.6191C49.429 27.4641 49.218 27.4451 49.058 27.5511C48.897 27.6571 48.801 27.8811 48.774 28.2181Z" fill="#89939A"/>
<path d="M54.051 29.9572C54.242 30.2732 54.337 30.6512 54.336 31.0992L54.329 33.7112L53.952 33.4942L53.851 32.8922L53.832 32.8812C53.665 33.0202 53.499 33.0862 53.333 33.0782C53.167 33.0702 52.962 32.9892 52.713 32.8452C52.381 32.6532 52.126 32.4102 51.941 32.1052C51.75 31.8042 51.661 31.4732 51.662 31.1142C51.664 30.3362 52.202 30.2422 53.274 30.8252L53.842 31.1312L53.843 30.8962C53.844 30.5952 53.787 30.3422 53.672 30.1292C53.564 29.9272 53.379 29.7472 53.136 29.6072C52.855 29.4452 52.542 29.3672 52.19 29.3552L52.038 28.8262C52.204 28.8192 52.383 28.8422 52.581 28.8972C52.773 28.9492 52.971 29.0342 53.169 29.1482C53.567 29.3762 53.861 29.6482 54.051 29.9572ZM53.829 31.8862L53.83 31.5342L53.326 31.2722C52.924 31.0542 52.636 30.9622 52.457 30.9832C52.278 31.0052 52.188 31.1512 52.187 31.4222C52.186 31.6272 52.243 31.8222 52.352 31.9952C52.467 32.1712 52.62 32.3112 52.818 32.4262C53.131 32.6072 53.38 32.6552 53.559 32.5602C53.737 32.4652 53.828 32.2382 53.829 31.8862Z" fill="#89939A"/>
<path d="M56.893 31.2891C57.04 31.3741 57.174 31.4661 57.289 31.5621L57.217 32.0571C57.083 31.9431 56.962 31.8581 56.853 31.7961C56.585 31.6411 56.355 31.6331 56.162 31.7721C55.97 31.9181 55.873 32.1711 55.872 32.5451L55.866 34.5991L55.362 34.3081L55.373 30.4861L55.788 30.7261L55.843 31.4641L55.869 31.4791C55.997 31.3031 56.145 31.1971 56.318 31.1651C56.491 31.1231 56.683 31.1681 56.893 31.2891Z" fill="#89939A"/>
<path d="M59.275 32.6641C59.435 32.7561 59.594 32.8701 59.76 33.0031C59.919 33.1391 60.041 33.2531 60.13 33.3561L59.975 33.7591C59.867 33.6451 59.745 33.5381 59.611 33.4241C59.483 33.3141 59.362 33.2291 59.26 33.1701C58.59 32.7831 58.25 33.0861 58.247 34.0771C58.246 34.5471 58.328 34.9541 58.487 35.2961C58.652 35.6411 58.901 35.9101 59.22 36.0941C59.501 36.2561 59.7819 36.3521 60.0759 36.3831L60.075 36.8971C59.851 36.9001 59.57 36.8041 59.232 36.6081C58.753 36.3321 58.377 35.9451 58.116 35.4571C57.855 34.9611 57.722 34.4071 57.724 33.7831C57.726 33.1371 57.861 32.7231 58.13 32.5261C58.4 32.3351 58.783 32.3811 59.275 32.6641Z" fill="#89939A"/>
<path d="M61.386 32.3472L61.381 33.9902C61.38 34.1882 61.367 34.3422 61.354 34.4672L61.386 34.4852C61.482 34.3572 61.623 34.2912 61.809 34.2952C61.994 34.2922 62.199 34.3582 62.435 34.4952C62.844 34.7312 63.15 35.0182 63.347 35.3522C63.551 35.6972 63.652 36.1092 63.65 36.5932L63.643 39.0882L63.139 38.7971L63.146 36.3242C63.147 36.0092 63.09 35.7412 62.963 35.5202C62.842 35.2962 62.651 35.1051 62.383 34.9501C62.038 34.7511 61.783 34.7141 61.616 34.8382C61.456 34.9662 61.378 35.2812 61.377 35.7732L61.371 37.7762L60.867 37.4852L60.882 32.0562L61.386 32.3472Z" fill="#89939A"/>
<path d="M190.644 120.379L128.577 84.5453C127.648 84.0093 126.805 83.9593 126.196 84.3123L124.82 85.1113C125.428 84.7573 126.271 84.8073 127.201 85.3443L189.267 121.178C191.116 122.245 192.606 124.827 192.6 126.947L192.472 172.03C192.469 173.082 192.098 173.823 191.498 174.172L192.874 173.372C193.473 173.024 193.845 172.283 193.848 171.231L193.976 126.148C193.983 124.029 192.493 121.447 190.644 120.379Z" fill="#1AE5FF"/>
<path d="M189.268 121.179C191.117 122.246 192.607 124.828 192.601 126.948L192.473 172.031C192.467 174.151 190.967 175.006 189.118 173.938L127.052 138.104C125.207 137.039 123.713 134.455 123.719 132.335L123.847 87.2522C123.853 85.1322 125.358 84.2802 127.202 85.3452L189.268 121.179Z" fill="url(#paint4_linear_101_76)"/>
<path d="M246.077 122.702L205.741 99.4143V232.692L245.699 255.762C250.07 258.286 253.627 256.266 253.641 251.243L253.967 136.368C253.982 131.345 250.448 125.225 246.077 122.702Z" fill="url(#paint5_linear_101_76)"/>
<path d="M229.716 136.576C237.341 140.978 243.5 151.647 243.475 160.401L243.304 220.721C243.279 229.482 237.079 233.015 229.455 228.613C221.837 224.215 215.677 213.545 215.702 204.785L215.873 144.465C215.898 135.711 222.098 132.178 229.716 136.576Z" fill="#FFC21A"/>
<path d="M229.16 148.426C230.538 149.222 231.916 150.144 233.292 151.191C235.076 152.547 236.473 154.967 236.75 157.181C237.181 160.599 237.172 163.769 236.723 166.679C236.434 168.567 235.028 169.368 233.242 168.663C231.865 168.121 230.486 167.452 229.108 166.656C227.73 165.86 226.352 164.938 224.976 163.891C223.192 162.535 221.795 160.115 221.518 157.901C221.087 154.483 221.096 151.313 221.545 148.403C221.834 146.515 223.24 145.714 225.026 146.419C226.404 146.961 227.782 147.63 229.16 148.426Z" fill="#EFF4FF"/>
<path d="M229.16 173.944C230.538 174.74 231.916 175.662 233.292 176.709C235.076 178.065 236.473 180.485 236.75 182.699C237.181 186.116 237.172 189.287 236.723 192.197C236.434 194.085 235.028 194.886 233.242 194.181C231.865 193.639 230.486 192.97 229.108 192.174C227.73 191.378 226.352 190.456 224.976 189.409C223.192 188.053 221.795 185.634 221.518 183.419C221.087 180.001 221.096 176.831 221.545 173.921C221.834 172.033 223.24 171.232 225.026 171.937C226.404 172.48 227.782 173.149 229.16 173.944Z" fill="#EFF4FF"/>
<path d="M229.16 199.463C230.538 200.259 231.916 201.181 233.292 202.228C235.076 203.584 236.473 206.004 236.75 208.218C237.181 211.636 237.172 214.806 236.723 217.716C236.434 219.604 235.028 220.405 233.242 219.7C231.865 219.158 230.486 218.489 229.108 217.693C227.73 216.897 226.352 215.975 224.976 214.928C223.192 213.572 221.795 211.152 221.518 208.938C221.087 205.52 221.096 202.35 221.545 199.44C221.834 197.552 223.24 196.751 225.026 197.456C226.404 197.998 227.782 198.668 229.16 199.463Z" fill="#EFF4FF"/>
<path d="M227.332 153.109C227.48 153.195 227.633 153.326 227.776 153.505L232.161 158.955C232.755 159.693 232.752 160.68 232.156 160.732L227.755 161.109C227.611 161.121 227.458 161.077 227.31 160.991C226.844 160.722 226.417 160.046 226.419 159.448L226.436 153.62C226.436 153.021 226.865 152.84 227.332 153.109Z" fill="#FF63AA"/>
<path d="M231.282 181.615C231.927 181.987 232.453 182.896 232.451 183.637L232.44 187.553C232.438 188.294 231.908 188.596 231.264 188.223L226.462 185.45C225.817 185.078 225.293 184.168 225.295 183.427L225.306 179.511C225.308 178.77 225.836 178.47 226.48 178.842L226.896 179.082L227.493 178.461C227.539 178.411 227.617 178.411 227.697 178.458L230.072 179.829C230.154 179.877 230.23 179.965 230.277 180.069L230.868 181.376L231.282 181.615ZM228.867 185.485C229.82 186.035 230.595 185.591 230.598 184.496C230.601 183.401 229.831 182.067 228.878 181.517C227.925 180.967 227.148 181.407 227.144 182.502C227.142 183.597 227.914 184.934 228.867 185.485Z" fill="#6098F0"/>
<path d="M227.938 205.518C228.464 205.822 228.989 206.176 229.514 206.583C230.093 207.028 230.544 207.812 230.641 208.535C230.817 209.846 230.814 211.053 230.631 212.157C230.53 212.77 230.077 213.024 229.497 212.804C228.971 212.604 228.446 212.352 227.92 212.048C227.394 211.744 226.868 211.389 226.342 210.982C225.763 210.533 225.312 209.757 225.215 209.03C225.039 207.719 225.042 206.512 225.225 205.408C225.326 204.799 225.779 204.537 226.359 204.761C226.886 204.962 227.412 205.214 227.938 205.518Z" fill="#6098F0"/>
<path d="M232.406 209.675C232.664 209.824 232.899 210.198 232.898 210.527L232.892 212.695C232.891 213.027 232.654 213.128 232.396 212.979C232.314 212.932 232.23 212.859 232.151 212.761L231.588 212.06C231.38 211.804 231.25 211.47 231.25 211.19L231.253 210.134C231.254 209.858 231.386 209.676 231.594 209.656L232.159 209.61C232.239 209.603 232.324 209.627 232.406 209.675Z" fill="#6098F0"/>
<path d="M246.437 136.902C246.772 137.095 247.042 137.565 247.041 137.947C247.04 138.332 246.769 138.489 246.434 138.296L241.886 135.67C241.554 135.478 241.281 135.007 241.282 134.622C241.283 134.24 241.557 134.084 241.889 134.276L246.437 136.902Z" fill="#EFF4FF"/>
<path d="M246.445 134.29C246.78 134.483 247.05 134.951 247.049 135.335C247.048 135.72 246.777 135.875 246.442 135.681L241.894 133.055C241.562 132.863 241.289 132.395 241.29 132.01C241.291 131.625 241.565 131.472 241.898 131.664L246.445 134.29Z" fill="#EFF4FF"/>
<path d="M246.452 131.676C246.787 131.869 247.057 132.339 247.055 132.724C247.054 133.109 246.783 133.264 246.448 133.07L241.9 130.444C241.568 130.252 241.295 129.783 241.296 129.399C241.297 129.014 241.571 128.858 241.904 129.05L246.452 131.676Z" fill="#EFF4FF"/>
<path d="M219.51 85.7873L143.324 41.8014C141.441 40.7144 139.734 40.6134 138.502 41.3294L137.186 42.0944C138.418 41.3784 140.124 41.4794 142.008 42.5664L218.194 86.5523C221.937 88.7133 224.96 93.9503 224.948 98.2503L224.911 111.145C224.905 113.281 224.151 114.784 222.935 115.491L224.251 114.726C225.467 114.019 226.221 112.516 226.228 110.38L226.265 97.4853C226.276 93.1853 223.253 87.9483 219.51 85.7873Z" fill="url(#paint6_linear_101_76)"/>
<path d="M218.194 86.5523C221.937 88.7133 224.96 93.9503 224.948 98.2503L224.911 111.145C224.899 115.445 221.855 117.18 218.113 115.019L141.927 71.0333C138.184 68.8723 135.161 63.6353 135.173 59.3353L135.209 46.4403C135.221 42.1393 138.265 40.4053 142.007 42.5663L218.194 86.5523Z" fill="#EFF4FF"/>
<path d="M161.622 65.0212L159.352 70.6712L155.005 68.1622L157.275 62.5112L161.622 65.0212Z" fill="#487DCF"/>
<path d="M180.142 75.7143L177.872 81.3643L173.525 78.8543L175.796 73.2043L180.142 75.7143Z" fill="#487DCF"/>
<path d="M152.36 59.6733L150.09 65.3243L145.743 62.8143L148.013 57.1643L152.36 59.6733Z" fill="#487DCF"/>
<path d="M170.885 70.3692L168.61 76.0162L164.263 73.5072L166.533 67.8562L170.885 70.3692Z" fill="#487DCF"/>
<path d="M181.424 76.4542L181.404 83.4042L145.058 62.4202C143.733 61.6552 142.666 59.8082 142.671 58.2902L142.675 56.8392C142.679 55.3222 143.753 54.7052 145.078 55.4702L148.013 57.1652L145.743 62.8152L150.09 65.3252L152.36 59.6752L157.276 62.5132L155.006 68.1632L159.353 70.6732L161.623 65.0232L166.534 67.8582L164.264 73.5082L168.611 76.0182L170.886 70.3702L175.797 73.2052L173.527 78.8552L177.874 81.3652L180.144 75.7152L181.424 76.4542Z" fill="#6098F0"/>
<path d="M181.405 83.4031L181.425 76.4531L192.702 82.9641C194.027 83.7291 195.094 85.5821 195.089 87.0991L195.085 88.5501C195.081 90.0671 194.007 90.6791 192.682 89.9141L181.405 83.4031Z" fill="#CAD8F2"/>
<path d="M210.083 86.0913C211.575 86.9533 213.068 87.9513 214.558 89.0863C216.49 90.5543 218.003 93.1753 218.303 95.5733C218.77 99.2743 218.76 102.708 218.274 105.859C217.961 107.904 216.438 108.771 214.504 108.007C213.012 107.42 211.52 106.695 210.027 105.834C208.535 104.972 207.042 103.974 205.552 102.839C203.62 101.371 202.107 98.7503 201.807 96.3523C201.34 92.6513 201.35 89.2173 201.836 86.0663C202.149 84.0213 203.672 83.1533 205.606 83.9183C207.098 84.5043 208.591 85.2293 210.083 86.0913Z" fill="url(#paint7_linear_101_76)"/>
<path d="M213.124 97.0713C214.187 97.7733 215.03 99.2593 215.048 100.51C215.07 101.869 214.107 102.413 212.937 101.738L207.579 98.6443C206.141 97.8143 204.994 95.7973 205.065 94.1833C205.124 92.7953 206.084 92.2023 207.294 92.7483C207.823 91.9063 208.866 91.7213 210.069 92.4163C211.584 93.2913 212.846 95.2633 213.124 97.0713ZM211.806 98.1133C211.928 98.0443 211.844 97.7543 211.667 97.6523L210.891 97.2043L210.896 95.5143C210.896 95.3913 210.808 95.2393 210.702 95.1773L209.426 94.4403C209.319 94.3783 209.231 94.4293 209.231 94.5513L209.226 96.2373L208.446 95.7913C208.273 95.6913 208.188 95.8833 208.309 96.0933L209.915 98.8743C209.953 98.9413 210.003 98.9923 210.053 99.0203C210.103 99.0493 210.152 99.0553 210.191 99.0333L211.806 98.1133Z" fill="#EFF4FF"/>
<path d="M176.663 123.072C177.401 123.498 177.995 124.527 177.992 125.375C177.99 126.223 177.392 126.572 176.654 126.146C175.916 125.72 175.322 124.683 175.325 123.835C175.328 122.987 175.926 122.647 176.663 123.072Z" fill="#EFF4FF"/>
<path d="M185.019 125.594C185.934 126.122 186.684 127.412 186.681 128.472L186.657 136.909C186.654 137.969 185.9 138.399 184.984 137.87L174.967 132.087C174.045 131.555 173.302 130.261 173.305 129.201L173.329 120.764C173.332 119.704 174.079 119.278 175.002 119.811L185.019 125.594ZM185.332 133.147L185.348 127.702C185.349 127.49 185.2 127.233 185.016 127.126L174.999 121.343C174.814 121.236 174.665 121.322 174.664 121.534L174.643 128.772L176.493 127.726C176.721 127.592 177.021 127.633 177.32 127.806C177.62 127.979 177.919 128.285 178.145 128.68L178.951 130.068L181.436 128.082C181.664 127.903 181.984 127.917 182.331 128.109C182.679 128.326 183.004 128.669 183.224 129.098L185.332 133.147Z" fill="#EFF4FF"/>
<path d="M189.846 181.635L156.516 162.392C155.692 161.916 154.946 161.872 154.407 162.185L153.831 162.519C154.37 162.206 155.116 162.25 155.94 162.726L189.27 181.969C190.907 182.914 192.23 185.205 192.225 187.087L192.209 192.728C192.206 193.663 191.877 194.32 191.344 194.629L191.92 194.295C192.452 193.986 192.782 193.328 192.785 192.394L192.801 186.753C192.806 184.871 191.483 182.58 189.846 181.635Z" fill="url(#paint8_linear_101_76)"/>
<path d="M189.271 181.969C190.908 182.914 192.231 185.205 192.226 187.087L192.21 192.728C192.205 194.609 190.873 195.368 189.236 194.423L155.906 175.18C154.269 174.235 152.946 171.944 152.951 170.062L152.967 164.421C152.972 162.54 154.304 161.781 155.941 162.726L189.271 181.969Z" fill="#EFF4FF"/>
<path d="M164.945 171.72C165.32 171.936 165.663 172.307 165.913 172.764C166.16 173.218 166.295 173.718 166.294 174.175C166.293 174.646 166.139 174.989 165.81 175.254C165.516 175.492 165.092 175.662 164.603 175.857C164.436 175.924 164.247 176.001 164.05 176.085C163.998 176.107 163.931 176.097 163.862 176.057C163.794 176.018 163.727 175.95 163.675 175.868C163.479 175.557 163.291 175.262 163.125 175.003C162.638 174.244 162.217 173.586 161.925 173.01C161.599 172.366 161.446 171.846 161.448 171.376C161.449 170.919 161.588 170.576 161.837 170.409C162.088 170.242 162.433 170.268 162.808 170.485C163.087 170.646 163.343 170.895 163.569 171.227C163.682 171.393 163.785 171.576 163.875 171.773C163.967 171.681 164.071 171.618 164.184 171.582C164.409 171.511 164.665 171.558 164.945 171.72Z" fill="#FF63AA"/>
<path d="M172.964 176.002C173.45 176.283 173.844 176.966 173.843 177.524C173.842 178.084 173.444 178.308 172.959 178.028C172.703 177.88 172.472 177.621 172.313 177.328L170.715 177.452C170.739 177.559 170.752 177.666 170.752 177.768C170.752 177.871 170.738 177.962 170.713 178.042L172.305 180.006C172.466 179.898 172.697 179.906 172.953 180.054C173.439 180.334 173.833 181.018 173.832 181.576C173.83 182.135 173.433 182.36 172.947 182.08C172.46 181.799 172.067 181.118 172.068 180.558C172.068 180.476 172.078 180.4 172.094 180.333L170.48 178.342C170.321 178.427 170.104 178.411 169.867 178.273C169.381 177.993 168.987 177.311 168.988 176.751C168.99 176.193 169.387 175.967 169.872 176.247C170.11 176.384 170.325 176.619 170.484 176.887L172.104 176.761C172.088 176.675 172.079 176.59 172.079 176.506C172.081 175.947 172.477 175.721 172.964 176.002Z" fill="#A3BBE8"/>
<path d="M182.938 186.253C183.171 186.387 183.359 186.714 183.358 186.981V187.119C183.357 187.387 183.169 187.494 182.936 187.36L177.996 184.508C177.764 184.374 177.575 184.049 177.576 183.781V183.643C177.577 183.375 177.767 183.267 177.999 183.401L182.938 186.253Z" fill="#A3BBE8"/>
<path d="M180.782 180.571C180.947 180.666 181.083 180.9 181.082 181.091L181.078 182.683L181.74 183.065C181.899 183.157 181.979 183.422 181.869 183.492L180.6 184.284C180.565 184.305 180.518 184.3 180.468 184.272C180.42 184.244 180.372 184.194 180.338 184.133L179.078 181.881C178.969 181.685 179.051 181.514 179.209 181.605L179.871 181.987L179.876 180.395C179.877 180.204 180.013 180.127 180.179 180.223L180.782 180.571Z" fill="#A3BBE8"/>
<path d="M155.862 111.479L155.806 131.161L138.678 121.272L138.734 101.591L155.862 111.479Z" fill="#0063C4"/>
<path d="M150.078 115.205L153.292 113.337L153.236 133.018L150.022 134.886L150.078 115.205Z" fill="#EB9D1A"/>
<path d="M132.95 105.316L136.164 103.448L153.292 113.337L150.078 115.205L132.95 105.316Z" fill="#FBEFA0"/>
<path d="M150.078 115.205L150.022 134.886L132.894 124.997L132.95 105.316L150.078 115.205Z" fill="#FFC21A"/>
<path d="M160.569 133.431C162.579 134.591 164.202 137.403 164.196 139.713C164.189 142.022 162.555 142.954 160.546 141.793C158.536 140.633 156.913 137.821 156.919 135.511C156.925 133.202 158.559 132.271 160.569 133.431Z" fill="#0063C4"/>
<path d="M158.587 135.065C157.576 134.481 156.66 134.427 155.998 134.811L154.255 135.824C154.917 135.44 155.833 135.494 156.844 136.078C158.854 137.238 160.477 140.05 160.471 142.36C160.468 143.507 160.063 144.314 159.41 144.694L161.153 143.681C161.806 143.301 162.211 142.494 162.214 141.347C162.22 139.037 160.597 136.225 158.587 135.065Z" fill="#FF9AC8"/>
<path d="M156.843 136.078C158.853 137.238 160.476 140.05 160.47 142.36C160.463 144.669 158.829 145.601 156.82 144.44C154.81 143.28 153.187 140.468 153.193 138.158C153.199 135.849 154.833 134.918 156.843 136.078Z" fill="#FF63AA"/>
<path d="M148.198 180.276L130.981 170.336C128.859 169.111 126.937 168.997 125.55 169.803L123.616 170.927C125.004 170.12 126.926 170.234 129.047 171.46L146.263 181.4C150.48 183.834 153.885 189.733 153.871 194.578L153.815 214.368C153.808 216.771 152.959 218.462 151.59 219.258L153.524 218.134C154.893 217.338 155.742 215.647 155.749 213.244L155.805 193.454C155.819 188.609 152.414 182.711 148.198 180.276Z" fill="#1AE5FF"/>
<path d="M146.263 181.4C150.48 183.834 153.885 189.733 153.871 194.578L153.815 214.368C153.801 219.206 150.374 221.16 146.157 218.725L128.94 208.785C124.724 206.351 121.318 200.452 121.332 195.614L121.388 175.824C121.402 170.979 124.829 169.026 129.046 171.46L146.263 181.4Z" fill="url(#paint9_linear_101_76)"/>
<path d="M145.351 198.77C145.757 199.004 146.085 199.573 146.084 200.039L146.077 202.44C146.076 202.906 145.745 203.095 145.339 202.86L144.399 202.317C144.201 203.165 143.869 203.876 143.427 204.435L144.09 205.583C144.376 206.078 144.374 206.614 144.087 206.778L142.603 207.62C142.459 207.702 142.271 207.676 142.084 207.568C141.896 207.46 141.709 207.269 141.566 207.021L140.903 205.873C140.194 205.969 139.409 205.895 138.569 205.635L138.566 206.718C138.565 207.184 138.237 207.371 137.831 207.137L135.741 205.93C135.335 205.696 135.007 205.13 135.008 204.664L135.011 203.581C134.176 202.874 133.393 202.043 132.683 201.127L132.016 201.507C131.872 201.589 131.684 201.563 131.497 201.455C131.31 201.347 131.122 201.156 130.979 200.908L129.504 198.357C129.218 197.862 129.22 197.325 129.507 197.161L130.174 196.781C129.737 195.714 129.41 194.623 129.218 193.549L128.278 193.006C127.872 192.772 127.544 192.203 127.545 191.737L127.552 189.335C127.553 188.869 127.884 188.68 128.29 188.915L129.23 189.458C129.428 188.61 129.76 187.899 130.202 187.34L129.539 186.192C129.253 185.693 129.255 185.16 129.542 184.997L131.026 184.155C131.17 184.073 131.358 184.099 131.545 184.207C131.733 184.315 131.92 184.506 132.063 184.754L132.726 185.902C133.438 185.804 134.223 185.878 135.06 186.136L135.063 185.056C135.064 184.59 135.395 184.401 135.801 184.636L137.891 185.843C138.297 186.077 138.622 186.644 138.621 187.111L138.618 188.191C139.456 188.9 140.239 189.731 140.946 190.648L141.613 190.268C141.757 190.186 141.945 190.212 142.132 190.32C142.32 190.428 142.507 190.619 142.65 190.867L144.125 193.418C144.411 193.913 144.409 194.446 144.122 194.613L143.455 194.993C143.892 196.06 144.219 197.151 144.412 198.225L145.351 198.77ZM136.803 200.177C138.862 201.366 140.537 200.408 140.543 198.042C140.55 195.676 138.886 192.794 136.827 191.605C134.768 190.416 133.093 191.37 133.087 193.737C133.08 196.103 134.743 198.988 136.803 200.177Z" fill="#EFF4FF"/>
<path d="M230.609 238.614C234.646 240.945 237.908 246.595 237.895 251.234L237.796 286.176C237.783 290.815 234.499 292.686 230.462 290.355L174.423 258.001C170.38 255.667 167.124 250.02 167.137 245.381L167.236 210.44C167.249 205.801 170.527 203.927 174.57 206.261L230.609 238.614Z" fill="url(#paint10_linear_101_76)"/>
<path d="M200.409 241.705C201.044 242.072 201.56 242.964 201.557 243.694C201.555 244.428 201.036 244.724 200.401 244.357L177.479 231.123C176.844 230.756 176.328 229.864 176.331 229.129C176.333 228.399 176.852 228.104 177.487 228.47L200.409 241.705Z" fill="#EFF4FF"/>
<path d="M224.593 248.685C225.228 249.052 225.743 249.944 225.741 250.674C225.739 251.409 225.22 251.699 224.585 251.333L177.499 224.148C176.864 223.781 176.348 222.893 176.35 222.159C176.352 221.429 176.871 221.134 177.506 221.5L224.593 248.685Z" fill="#FFC21A"/>
<path d="M223.388 270.141C225.221 271.199 226.703 273.764 226.697 275.87C226.691 277.976 225.199 278.824 223.366 277.766L206.296 267.911C204.463 266.853 202.983 264.289 202.989 262.183C202.995 260.077 204.485 259.228 206.318 260.286L223.388 270.141Z" fill="#FFC21A"/>
<defs>
<linearGradient id="paint0_linear_101_76" x1="199.495" y1="26.6183" x2="199.495" y2="199.512" gradientUnits="userSpaceOnUse">
<stop stop-color="#02FFDD"/>
<stop offset="0.6139" stop-color="#02FFDD" stop-opacity="0.3861"/>
<stop offset="1" stop-color="#02FFDD" stop-opacity="0"/>
</linearGradient>
<linearGradient id="paint1_linear_101_76" x1="72.3647" y1="139.531" x2="257.113" y2="139.531" gradientUnits="userSpaceOnUse">
<stop stop-color="#02FFDD" stop-opacity="0.48"/>
<stop offset="1" stop-color="#02FFDD"/>
</linearGradient>
<linearGradient id="paint2_linear_101_76" x1="78.7864" y1="40.4987" x2="79.3091" y2="207.815" gradientUnits="userSpaceOnUse">
<stop stop-color="#8B68FF"/>
<stop offset="0.6139" stop-color="#6947DA"/>
<stop offset="1" stop-color="#5836C7"/>
</linearGradient>
<linearGradient id="paint3_linear_101_76" x1="50.5637" y1="177.655" x2="97.6445" y2="177.655" gradientUnits="userSpaceOnUse">
<stop stop-color="#0070E0"/>
<stop offset="1" stop-color="#00A5FF"/>
</linearGradient>
<linearGradient id="paint4_linear_101_76" x1="123.719" y1="129.642" x2="192.602" y2="129.642" gradientUnits="userSpaceOnUse">
<stop stop-color="#0070E0"/>
<stop offset="1" stop-color="#00A5FF"/>
</linearGradient>
<linearGradient id="paint5_linear_101_76" x1="251.347" y1="290.837" x2="205.466" y2="62.6079" gradientUnits="userSpaceOnUse">
<stop stop-color="#0070E0"/>
<stop offset="1" stop-color="#00A5FF"/>
</linearGradient>
<linearGradient id="paint6_linear_101_76" x1="137.187" y1="78.1818" x2="226.264" y2="78.1818" gradientUnits="userSpaceOnUse">
<stop stop-color="#A3AEEB"/>
<stop offset="1" stop-color="#A3BBE8"/>
</linearGradient>
<linearGradient id="paint7_linear_101_76" x1="201.217" y1="77.7453" x2="219.656" y2="115.752" gradientUnits="userSpaceOnUse">
<stop stop-color="#FF63AA"/>
<stop offset="1" stop-color="#FF4174"/>
</linearGradient>
<linearGradient id="paint8_linear_101_76" x1="153.832" y1="178.308" x2="192.801" y2="178.308" gradientUnits="userSpaceOnUse">
<stop stop-color="#A3AEEB"/>
<stop offset="1" stop-color="#A3BBE8"/>
</linearGradient>
<linearGradient id="paint9_linear_101_76" x1="121.333" y1="195.093" x2="153.872" y2="195.093" gradientUnits="userSpaceOnUse">
<stop stop-color="#0070E0"/>
<stop offset="1" stop-color="#00A5FF"/>
</linearGradient>
<linearGradient id="paint10_linear_101_76" x1="169.974" y1="195.568" x2="238.207" y2="306.153" gradientUnits="userSpaceOnUse">
<stop stop-color="#C039B2"/>
<stop offset="1" stop-color="#A3189C"/>
</linearGradient>
</defs>
</svg>
