<svg width="239" height="161" viewBox="0 0 239 161" fill="none" xmlns="http://www.w3.org/2000/svg">
<path d="M49.257 160.705H21.4723C20.9842 160.705 20.5884 160.31 20.5884 159.821V159.336C20.5884 158.848 20.9842 158.452 21.4723 158.452H49.2565C49.7446 158.452 50.1404 158.848 50.1404 159.336V159.821C50.1409 160.31 49.7451 160.705 49.257 160.705Z" fill="#ADBEC4"/>
<path d="M225.313 160.705H217.711C217.223 160.705 216.827 160.31 216.827 159.821V159.336C216.827 158.848 217.223 158.452 217.711 158.452H225.313C225.801 158.452 226.197 158.848 226.197 159.336V159.821C226.196 160.31 225.801 160.705 225.313 160.705Z" fill="#ADBEC4"/>
<path d="M101.544 160.705H73.7598C73.2717 160.705 72.8759 160.31 72.8759 159.821V159.336C72.8759 158.848 73.2717 158.452 73.7598 158.452H101.544C102.033 158.452 102.428 158.848 102.428 159.336V159.821C102.428 160.31 102.033 160.705 101.544 160.705Z" fill="#ADBEC4"/>
<path d="M142.341 160.705H114.557C114.068 160.705 113.673 160.31 113.673 159.821V159.336C113.673 158.848 114.068 158.452 114.557 158.452H142.341C142.829 158.452 143.225 158.848 143.225 159.336V159.821C143.225 160.31 142.829 160.705 142.341 160.705Z" fill="#ADBEC4"/>
<path d="M192.304 160.705H154.429C153.941 160.705 153.545 160.31 153.545 159.821V159.336C153.545 158.848 153.941 158.452 154.429 158.452H192.304C192.792 158.452 193.188 158.848 193.188 159.336V159.821C193.188 160.31 192.792 160.705 192.304 160.705Z" fill="#ADBEC4"/>
<path d="M58.5749 34.5108C58.5749 34.5108 55.6402 32.5145 51.3481 34.0519C47.056 35.5899 46.0919 41.37 47.1493 46.0609C48.2067 50.7519 42.2975 66.7676 42.2975 66.7676C42.2975 66.7676 45.3688 71.0869 56.1026 69.434C56.1026 69.434 64.1064 54.8887 63.5124 44.4464C62.9184 34.004 58.5749 34.5108 58.5749 34.5108Z" fill="#0E3944"/>
<path d="M61.962 52.5531C65.996 51.2632 68.4647 54.622 70.7762 60.8736C73.0876 67.1251 73.8651 67.7519 73.8651 67.7519L82.7867 73.4841L82.0449 76.8252C82.0449 76.8252 73.554 73.5008 71.5013 71.386C69.4485 69.2717 63.5428 58.5601 63.5428 58.5601L61.962 52.5531Z" fill="#EF6E4B"/>
<path d="M42.3 92.9456C42.3 92.9456 40.5498 101.81 40.8382 115.152C40.8382 115.152 33.9412 125.323 39.633 154.341H42.6187C42.6187 154.341 45.0577 129.652 46.9239 122.962C48.7901 116.272 55.681 114.219 56.0541 93.8784L42.3 92.9456Z" fill="#FF8B66"/>
<path d="M28.6546 119.005C26.9195 113.287 22.4605 103.711 11.0218 90.7313C11.0218 90.7313 10.3395 90.3798 9.41729 90.9436C8.4436 91.5386 8.4436 92.2374 8.4436 92.2374C8.4436 92.2374 14.1793 104.738 17.8371 113.896C19.0685 116.98 22.0475 119.005 25.3674 119.005H28.6546Z" fill="#FF8B66"/>
<path d="M49.4801 130.061C49.4801 130.061 49.5195 134.327 46.7204 134.4C42.7682 134.506 42.6225 130.201 38.1438 130.341C33.6651 130.481 24.428 131.601 21.4887 124.603C19.9715 120.986 22.0484 116.345 17.1502 112.846C12.2515 109.347 14.6311 105.428 17.1502 103.329C19.6694 101.236 16.0641 98.9404 18.6897 97.8709C19.3165 97.6188 19.9326 97.647 20.5034 97.8371C20.8393 97.9546 21.1529 98.117 21.4549 98.3187C22.8431 99.2425 23.8173 100.849 23.8173 100.849C31.2352 80.5326 44.4418 77.8511 44.4418 77.8511L57.5026 82.358C57.8157 113.966 49.4801 130.061 49.4801 130.061Z" fill="#164353"/>
<path d="M61.9624 52.5565C61.9624 52.5565 58.9152 53.5847 54.5808 52.9266C50.2463 52.2686 48.8375 49.5472 45.7909 51.299C41.2169 53.9286 43.3574 62.9792 44.506 67.6853C44.9341 69.44 45.4767 74.0498 44.444 77.8543C44.444 77.8543 50.5342 82.5931 57.5049 82.3577L61.3078 74.0866C61.3073 74.0861 69.5779 64.1904 61.9624 52.5565Z" fill="#CFD8DC"/>
<path d="M54.2218 44.9616C54.2218 44.9616 54.7286 49.2431 53.1448 53.1384C53.1448 53.1384 55.4063 56.4769 57.5644 54.28C57.5644 54.28 57.7616 50.356 60.186 45.9166C61.8091 42.9436 54.2218 44.9616 54.2218 44.9616Z" fill="#EF6E4B"/>
<path d="M50.758 45.1096C50.758 45.1096 48.8505 43.903 49.0658 45.7646C49.3154 47.9218 51.4196 48.3423 51.6435 47.588C51.8673 46.8341 50.758 45.1096 50.758 45.1096Z" fill="#FF8B66"/>
<path d="M61.7024 42.7764C61.7024 42.7764 62.9131 40.8714 63.5127 42.6473C64.207 44.7051 62.483 45.9824 61.9586 45.3959C61.4347 44.8095 61.7024 42.7764 61.7024 42.7764Z" fill="#FF8B66"/>
<path d="M57.7636 51.5599C54.304 52.3344 51.8453 50.5121 50.3276 43.7341C49.5445 40.2377 50.8434 37.6948 54.7185 36.8275C58.5941 35.9597 60.7059 37.7387 61.4889 41.2351C63.1197 48.5179 61.3377 50.7597 57.7636 51.5599Z" fill="#FF8B66"/>
<path d="M60.8821 43.9067C61.0208 44.241 60.7944 44.6525 60.3764 44.8254C59.9584 44.9984 59.5071 44.8683 59.3689 44.534C59.2302 44.1996 59.4566 43.7882 59.8747 43.6152C60.2922 43.4423 60.7435 43.5729 60.8821 43.9067Z" fill="#DB614D"/>
<path d="M53.8097 45.6869C53.8657 46.0444 53.5485 46.3908 53.1018 46.4604C52.655 46.5305 52.2471 46.2975 52.1911 45.94C52.1351 45.5825 52.4523 45.2361 52.899 45.1665C53.3463 45.0964 53.7537 45.3294 53.8097 45.6869Z" fill="#DB614D"/>
<path d="M58.4738 40.7426C58.44 40.7426 58.4062 40.733 58.3754 40.7129C57.784 40.3181 56.9459 40.5278 56.9368 40.5298C56.8405 40.5551 56.7452 40.4971 56.721 40.4023C56.6968 40.3075 56.7538 40.2107 56.8486 40.1865C56.8894 40.1764 57.8505 39.9358 58.5726 40.4184C58.6543 40.4729 58.676 40.5828 58.6215 40.664C58.5872 40.7149 58.5312 40.7426 58.4738 40.7426Z" fill="#0E3944"/>
<path d="M51.9594 42.2072C51.9287 42.2072 51.8969 42.1992 51.8687 42.182C51.785 42.1316 51.7577 42.0232 51.8082 41.939C52.2554 41.1952 53.2276 41.0021 53.269 40.994C53.3633 40.9789 53.4575 41.0384 53.4757 41.1347C53.4938 41.2305 53.4313 41.3233 53.335 41.342C53.3264 41.344 52.4763 41.5149 52.1112 42.1215C52.0784 42.1765 52.0194 42.2072 51.9594 42.2072Z" fill="#0E3944"/>
<path d="M58.6254 42.6447C58.7212 43.0744 58.6058 43.4662 58.3673 43.5191C58.1287 43.5725 57.857 43.2675 57.7607 42.8379C57.6643 42.4083 57.7798 42.0165 58.0188 41.963C58.2573 41.9101 58.5291 42.2146 58.6254 42.6447Z" fill="#1A4850"/>
<path d="M53.8187 43.6806C53.915 44.1102 53.7995 44.502 53.5605 44.555C53.322 44.6084 53.0502 44.3034 52.9539 43.8737C52.8576 43.4441 52.9731 43.0523 53.2121 42.9989C53.4511 42.9459 53.7224 43.251 53.8187 43.6806Z" fill="#1A4850"/>
<path d="M55.3734 47.7494C55.3734 47.7494 57.5956 47.5684 58.5748 46.7415C58.5748 46.7415 58.3051 48.4776 57.0964 48.5976C55.8872 48.7186 55.3734 47.7494 55.3734 47.7494Z" fill="#1A4850"/>
<path d="M57.4141 42.6901C57.4141 42.6901 57.4923 41.5611 57.9249 41.5439C58.3576 41.5268 58.8759 42.3628 58.8759 42.3628L59.417 41.8999L58.821 42.1178C58.821 42.1178 58.2895 41.2439 57.878 41.3342C57.2926 41.4623 57.4141 42.6901 57.4141 42.6901Z" fill="#1A4850"/>
<path d="M54.0832 43.5756C54.0832 43.5756 53.531 42.5877 53.1322 42.7567C52.7333 42.9256 52.6214 43.9028 52.6214 43.9028L51.9341 43.7152L52.5664 43.6577C52.5664 43.6577 52.6748 42.6407 53.0853 42.5469C53.6702 42.4128 54.0832 43.5756 54.0832 43.5756Z" fill="#1A4850"/>
<path d="M56.4932 45.7498L56.3152 45.412C56.6032 45.2602 56.6279 45.055 56.5976 44.9108C56.5552 44.7061 56.3888 44.5437 56.2683 44.5341C56.1993 44.5306 56.1398 44.5896 56.0934 44.7126L55.7354 44.579C55.8886 44.167 56.1786 44.1443 56.2976 44.1529C56.6016 44.1761 56.8976 44.4746 56.9728 44.8326C57.0499 45.2078 56.8709 45.5507 56.4932 45.7498Z" fill="#DB614D"/>
<path d="M51.0306 46.3295C51.0306 46.3295 49.9636 42.4035 50.597 39.6272C50.597 39.6272 53.6068 35.4359 59.4166 37.5084C59.4166 37.5084 61.1391 40.2827 61.9928 44.1653C61.9928 44.1653 62.2096 42.7706 61.6318 39.6645C61.0539 36.5584 58.2982 34.6286 54.519 35.2499C50.7402 35.8711 46.6962 39.6307 51.0306 46.3295Z" fill="#0E3944"/>
<path d="M57.1224 36.6335C57.1224 36.6335 57.3529 37.6582 56.356 40.2968C56.356 40.2968 55.6389 39.5475 54.7994 40.2968C53.9598 41.0461 52.2545 40.796 51.6726 41.2009C51.0907 41.6059 51.0907 42.5316 51.0907 42.5316C51.0907 42.5316 50.587 41.3789 51.0907 39.9963C51.0907 39.9963 49.9577 41.4364 50.1079 43.2149C50.1079 43.2149 48.5715 42.9668 48.6411 40.4315C48.7112 37.8967 52.314 33.7957 56.356 34.0619C60.398 34.3276 61.3601 40.7275 61.3601 40.7275C61.3601 40.7275 60.9915 40.4375 60.4146 40.5666C60.4146 40.5666 60.3253 39.2112 59.4167 37.5039C59.4167 37.5039 59.8352 38.7362 59.4167 40.0659C59.4167 40.0659 58.2907 39.4754 57.4033 39.66C57.4033 39.661 57.9514 38.589 57.1224 36.6335Z" fill="#0E3944"/>
<path d="M44.7637 52.1074C46.7307 50.5564 48.2626 52.5295 48.6378 55.2574C49.0134 57.9859 45.456 74.0807 42.7129 73.4877C41.654 73.2588 41.2224 69.0429 41.2224 69.0429C41.2224 69.0429 42.2954 64.5173 42.9898 57.706C43.309 54.5757 43.7381 52.9162 44.7637 52.1074Z" fill="#FF8B66"/>
<path d="M39.0391 71.2137C36.3909 68.6895 31.6424 60.3166 30.4363 56.0512L32.4462 55.2429C32.4462 55.2429 38.4981 63.9007 41.2568 66.0836C44.0155 68.267 44.9856 70.6979 43.7538 72.7799C42.5219 74.8619 39.5968 71.7447 39.0391 71.2137Z" fill="#FF8B66"/>
<path d="M31.2633 50.4637C31.1246 53.2017 33.3559 53.8507 32.366 55.9523C32.1618 56.386 31.8507 56.6164 31.5275 56.7309C30.9143 56.9477 30.2331 56.743 29.7757 56.2806C28.7148 55.2086 27.075 54.0725 26.2022 53.5743C25.2098 53.0015 25.7721 52.8457 25.7721 52.8457C25.6758 52.8003 25.5825 52.7625 25.4887 52.7247C24.7807 52.4282 24.2145 52.3162 24.7278 52.0011C25.3057 51.6421 27.3539 52.3904 27.3539 52.3904C24.688 50.6144 23.9644 51.0476 24.451 50.6704C25.1151 50.1541 27.6499 51.3416 27.7255 51.3774C26.3167 50.0457 25.2956 49.7436 25.8543 49.5429C26.4205 49.3392 29.2075 51.3577 30.2245 52.1151C30.454 52.285 30.5941 52.3944 30.5941 52.3944C30.5598 50.1571 31.2633 50.4637 31.2633 50.4637Z" fill="#FF8B66"/>
<path d="M30.2258 52.1187C30.4553 52.2886 30.5954 52.398 30.5954 52.398C30.5954 52.398 30.1184 53.2007 30.7361 54.2405C30.7361 54.24 29.6016 53.4952 30.2258 52.1187Z" fill="#EF6E4B"/>
<path d="M27.8868 53.6901C27.6509 53.5605 26.3061 52.8032 25.7711 52.8481C25.6747 52.8027 25.5815 52.7649 25.4877 52.727C25.8472 52.2525 27.6196 53.496 27.8868 53.6901Z" fill="#EF6E4B"/>
<path d="M38.4587 94.3202C38.4587 94.6177 38.2177 94.8583 37.9207 94.8583C37.6237 94.8583 37.3827 94.6172 37.3827 94.3202C37.3827 94.0232 37.6237 93.7822 37.9207 93.7822C38.2177 93.7822 38.4587 94.0227 38.4587 94.3202Z" fill="#6097B2"/>
<path d="M48.0585 98.0241C48.0585 98.3216 47.8174 98.5621 47.5204 98.5621C47.2234 98.5621 46.9824 98.3211 46.9824 98.0241C46.9824 97.7271 47.2234 97.4861 47.5204 97.4861C47.8174 97.4861 48.0585 97.7271 48.0585 98.0241Z" fill="#6097B2"/>
<path d="M56.2407 100.007C56.2407 100.304 55.9997 100.545 55.7027 100.545C55.4057 100.545 55.1647 100.304 55.1647 100.007C55.1647 99.71 55.4057 99.469 55.7027 99.469C55.9997 99.469 56.2407 99.71 56.2407 100.007Z" fill="#6097B2"/>
<path d="M43.6694 87.2966C43.6694 87.5941 43.4284 87.8346 43.1314 87.8346C42.8344 87.8346 42.5934 87.5936 42.5934 87.2966C42.5934 86.9996 42.8344 86.7585 43.1314 86.7585C43.4284 86.7585 43.6694 86.9996 43.6694 87.2966Z" fill="#6097B2"/>
<path d="M44.9444 92.9476C45.2415 92.9476 45.4824 92.7067 45.4824 92.4096C45.4824 92.1125 45.2415 91.8716 44.9444 91.8716C44.6473 91.8716 44.4064 92.1125 44.4064 92.4096C44.4064 92.7067 44.6473 92.9476 44.9444 92.9476Z" fill="#6097B2"/>
<path d="M53.996 95.3173C53.996 95.6148 53.7549 95.8553 53.4579 95.8553C53.1609 95.8553 52.9199 95.6143 52.9199 95.3173C52.9199 95.0203 53.1609 94.7793 53.4579 94.7793C53.7549 94.7793 53.996 95.0198 53.996 95.3173Z" fill="#6097B2"/>
<path d="M55.163 86.4999C55.163 86.7969 54.9219 87.038 54.6249 87.038C54.3279 87.038 54.0869 86.7969 54.0869 86.4999C54.0869 86.2024 54.3279 85.9619 54.6249 85.9619C54.9219 85.9619 55.163 86.2029 55.163 86.4999Z" fill="#6097B2"/>
<path d="M49.0467 85.2057C49.3438 85.2057 49.5847 84.9648 49.5847 84.6677C49.5847 84.3705 49.3438 84.1296 49.0467 84.1296C48.7495 84.1296 48.5087 84.3705 48.5087 84.6677C48.5087 84.9648 48.7495 85.2057 49.0467 85.2057Z" fill="#6097B2"/>
<path d="M33.6965 104.814C33.6965 105.111 33.4555 105.352 33.1585 105.352C32.8615 105.352 32.6205 105.111 32.6205 104.814C32.6205 104.517 32.8615 104.276 33.1585 104.276C33.4555 104.276 33.6965 104.517 33.6965 104.814Z" fill="#6097B2"/>
<path d="M26.0267 102.53C26.0267 102.827 25.7857 103.068 25.4887 103.068C25.1917 103.068 24.9507 102.827 24.9507 102.53C24.9507 102.233 25.1917 101.992 25.4887 101.992C25.7857 101.992 26.0267 102.233 26.0267 102.53Z" fill="#6097B2"/>
<path d="M21.4549 98.3241C21.3596 98.4698 21.1917 98.5646 21.0016 98.5646C20.7051 98.5646 20.4641 98.3241 20.4641 98.0271C20.4641 97.96 20.4752 97.8985 20.5034 97.8425C20.8393 97.96 21.1529 98.1224 21.4549 98.3241Z" fill="#6097B2"/>
<path d="M35.9073 112.376C36.2044 112.376 36.4453 112.135 36.4453 111.838C36.4453 111.54 36.2044 111.3 35.9073 111.3C35.6101 111.3 35.3693 111.54 35.3693 111.838C35.3693 112.135 35.6101 112.376 35.9073 112.376Z" fill="#6097B2"/>
<path d="M22.6793 119.463C22.6793 119.76 22.4383 120.001 22.1413 120.001C21.8443 120.001 21.6033 119.76 21.6033 119.463C21.6033 119.166 21.8443 118.925 22.1413 118.925C22.4383 118.925 22.6793 119.165 22.6793 119.463Z" fill="#6097B2"/>
<path d="M27.7641 115.378C28.0612 115.378 28.3021 115.137 28.3021 114.84C28.3021 114.543 28.0612 114.302 27.7641 114.302C27.467 114.302 27.2261 114.543 27.2261 114.84C27.2261 115.137 27.467 115.378 27.7641 115.378Z" fill="#6097B2"/>
<path d="M19.3897 111.289C19.6869 111.289 19.9277 111.049 19.9277 110.751C19.9277 110.454 19.6869 110.213 19.3897 110.213C19.0926 110.213 18.8517 110.454 18.8517 110.751C18.8517 111.049 19.0926 111.289 19.3897 111.289Z" fill="#6097B2"/>
<path d="M26.6868 126.86C26.6868 127.157 26.4457 127.398 26.1487 127.398C25.8517 127.398 25.6107 127.157 25.6107 126.86C25.6107 126.562 25.8517 126.322 26.1487 126.322C26.4457 126.322 26.6868 126.563 26.6868 126.86Z" fill="#6097B2"/>
<path d="M31.8138 98.5644C31.8138 98.8619 31.5728 99.1024 31.2758 99.1024C30.9783 99.1024 30.7378 98.8614 30.7378 98.5644C30.7378 98.2674 30.9788 98.0264 31.2758 98.0264C31.5728 98.0259 31.8138 98.2669 31.8138 98.5644Z" fill="#6097B2"/>
<path d="M36.9828 89.4968C36.9828 89.7943 36.7418 90.0348 36.4448 90.0348C36.1478 90.0348 35.9067 89.7938 35.9067 89.4968C35.9067 89.1998 36.1478 88.9587 36.4448 88.9587C36.7418 88.9587 36.9828 89.1998 36.9828 89.4968Z" fill="#6097B2"/>
<path d="M42.834 81.955C42.834 82.252 42.593 82.493 42.296 82.493C41.9985 82.493 41.7579 82.252 41.7579 81.955C41.7579 81.6575 41.999 81.417 42.296 81.417C42.593 81.4165 42.834 81.6575 42.834 81.955Z" fill="#6097B2"/>
<path d="M30.9756 92.9445C30.9756 93.242 30.7346 93.4825 30.4376 93.4825C30.1406 93.4825 29.8995 93.2415 29.8995 92.9445C29.8995 92.6475 30.1406 92.4065 30.4376 92.4065C30.7346 92.4065 30.9756 92.647 30.9756 92.9445Z" fill="#6097B2"/>
<path d="M37.5203 84.1274C37.5203 84.4244 37.2792 84.6654 36.9822 84.6654C36.6852 84.6654 36.4442 84.4244 36.4442 84.1274C36.4442 83.8299 36.6852 83.5894 36.9822 83.5894C37.2792 83.5894 37.5203 83.8304 37.5203 84.1274Z" fill="#6097B2"/>
<path d="M27.227 108.362C27.227 108.66 26.986 108.9 26.689 108.9C26.3915 108.9 26.151 108.659 26.151 108.362C26.151 108.065 26.392 107.824 26.689 107.824C26.986 107.824 27.227 108.065 27.227 108.362Z" fill="#6097B2"/>
<path d="M20.4652 103.605C20.4652 103.903 20.2242 104.143 19.9272 104.143C19.6302 104.143 19.3892 103.902 19.3892 103.605C19.3892 103.308 19.6302 103.067 19.9272 103.067C20.2242 103.067 20.4652 103.308 20.4652 103.605Z" fill="#6097B2"/>
<path d="M39.5333 102.528C39.8304 102.528 40.0713 102.287 40.0713 101.99C40.0713 101.693 39.8304 101.452 39.5333 101.452C39.2361 101.452 38.9952 101.693 38.9952 101.99C38.9952 102.287 39.2361 102.528 39.5333 102.528Z" fill="#6097B2"/>
<path d="M50.6619 105.352C50.9591 105.352 51.2 105.111 51.2 104.814C51.2 104.517 50.9591 104.276 50.6619 104.276C50.3648 104.276 50.1239 104.517 50.1239 104.814C50.1239 105.111 50.3648 105.352 50.6619 105.352Z" fill="#6097B2"/>
<path d="M50.6625 89.4968C50.6625 89.7943 50.4214 90.0348 50.1245 90.0348C49.8275 90.0348 49.5864 89.7938 49.5864 89.4968C49.5864 89.1998 49.8275 88.9587 50.1245 88.9587C50.4214 88.9587 50.6625 89.1998 50.6625 89.4968Z" fill="#6097B2"/>
<path d="M57.1318 90.6274C57.1318 90.9249 56.8908 91.1654 56.5938 91.1654C56.2968 91.1654 56.0558 90.9244 56.0558 90.6274C56.0558 90.3304 56.2968 90.0894 56.5938 90.0894C56.8908 90.0894 57.1318 90.3304 57.1318 90.6274Z" fill="#6097B2"/>
<path d="M44.2069 108.897C44.2069 109.194 43.9659 109.435 43.6689 109.435C43.3719 109.435 43.1309 109.194 43.1309 108.897C43.1309 108.6 43.3719 108.359 43.6689 108.359C43.9659 108.359 44.2069 108.599 44.2069 108.897Z" fill="#6097B2"/>
<path d="M38.9958 119.009C39.2929 119.009 39.5338 118.769 39.5338 118.471C39.5338 118.174 39.2929 117.933 38.9958 117.933C38.6986 117.933 38.4578 118.174 38.4578 118.471C38.4578 118.769 38.6986 119.009 38.9958 119.009Z" fill="#6097B2"/>
<path d="M30.7357 120.541C31.0328 120.541 31.2737 120.3 31.2737 120.003C31.2737 119.706 31.0328 119.465 30.7357 119.465C30.4385 119.465 30.1976 119.706 30.1976 120.003C30.1976 120.3 30.4385 120.541 30.7357 120.541Z" fill="#6097B2"/>
<path d="M53.4579 112.376C53.7551 112.376 53.996 112.135 53.996 111.838C53.996 111.54 53.7551 111.3 53.4579 111.3C53.1608 111.3 52.9199 111.54 52.9199 111.838C52.9199 112.135 53.1608 112.376 53.4579 112.376Z" fill="#6097B2"/>
<path d="M46.5602 115.92C46.5602 116.218 46.3192 116.458 46.0222 116.458C45.7252 116.458 45.4841 116.217 45.4841 115.92C45.4841 115.623 45.7252 115.382 46.0222 115.382C46.3192 115.382 46.5602 115.623 46.5602 115.92Z" fill="#6097B2"/>
<path d="M35.3676 127.935C35.3676 128.232 35.1265 128.473 34.8295 128.473C34.532 128.473 34.2915 128.232 34.2915 127.935C34.2915 127.637 34.5325 127.396 34.8295 127.396C35.1265 127.396 35.3676 127.637 35.3676 127.935Z" fill="#6097B2"/>
<path d="M43.1314 125.671C43.4286 125.671 43.6694 125.43 43.6694 125.133C43.6694 124.836 43.4286 124.595 43.1314 124.595C42.8343 124.595 42.5934 124.836 42.5934 125.133C42.5934 125.43 42.8343 125.671 43.1314 125.671Z" fill="#6097B2"/>
<path d="M51.1298 122.502C51.427 122.502 51.6678 122.261 51.6678 121.964C51.6678 121.666 51.427 121.426 51.1298 121.426C50.8327 121.426 50.5918 121.666 50.5918 121.964C50.5918 122.261 50.8327 122.502 51.1298 122.502Z" fill="#6097B2"/>
<path d="M48.0585 131.221C48.0585 131.518 47.8174 131.759 47.5204 131.759C47.2234 131.759 46.9824 131.518 46.9824 131.221C46.9824 130.924 47.2234 130.683 47.5204 130.683C47.8174 130.683 48.0585 130.923 48.0585 131.221Z" fill="#6097B2"/>
<path d="M47.4695 159.561H38.6296C38.0528 157.915 39.1167 156.263 38.9377 154.813C38.6296 152.361 40.0571 153.716 40.0571 153.716C40.3093 151.079 44.0154 150.581 43.9761 151.757C43.9146 153.487 44.2504 154.556 44.743 155.272C45.7394 156.711 47.3742 156.7 47.654 157.73C47.6823 157.831 47.7044 157.932 47.7211 158.021C47.9954 159.309 47.4695 159.561 47.4695 159.561Z" fill="#164353"/>
<path d="M47.7201 158.022C45.8892 158.447 41.6682 157.893 41.5003 156.829C41.338 155.799 43.6111 155.317 44.7416 155.272C45.738 156.711 47.3727 156.7 47.6526 157.73C47.6813 157.831 47.7035 157.932 47.7201 158.022Z" fill="#205260"/>
<path d="M11.1333 91.0826C10.1929 90.2259 8.66455 91.6423 8.66455 91.6423C8.66455 91.6423 9.48747 92.8626 8.9555 93.3552C8.42353 93.8479 7.80785 92.7224 6.76105 93.215C6.67684 93.2544 6.58759 93.3048 6.50338 93.3608C5.68601 93.8479 4.83485 94.8725 4.14656 95.6505C4.00638 95.8073 3.87225 95.9531 3.74922 96.0816C2.94848 96.9212 0.883113 97.4138 0.496361 95.1745C0.110113 92.9352 2.6293 90.3096 5.39506 87.8968C8.16082 85.484 9.94633 86.9171 9.94633 86.9171C9.94633 86.9171 10.5731 87.9306 10.5731 88.5629C10.5731 89.1897 11.1328 89.5033 11.4464 90.1024C11.7606 90.6964 11.1333 91.0826 11.1333 91.0826Z" fill="#164353"/>
<path d="M6.50315 93.3598C5.68578 93.8469 4.83462 94.8715 4.14633 95.6495C3.11062 95.8956 2.18131 95.823 2.03558 94.8488C1.68261 92.4975 6.37407 89.5079 5.99942 91.1593C5.80932 91.9882 6.13405 92.7774 6.50315 93.3598Z" fill="#205260"/>
<path d="M170.194 155.733C169.758 155.504 169.357 155.001 168.996 154.364C168.996 154.364 168.685 152.482 168.996 150.505C169.306 148.527 168.445 146.913 165.646 146.306C162.925 145.717 161.31 147.028 161.938 152.499C161.938 152.499 161.939 152.5 161.939 152.501C161.525 154.773 161.439 157.369 162.383 159.556H170.76C170.76 159.556 172.082 156.724 170.194 155.733Z" fill="#CFD8DC"/>
<path d="M177.541 126.242C177.541 126.242 177.541 131.7 174.462 137.298C171.327 142.999 167.451 150.823 167.451 150.823C167.451 150.823 164.868 153.343 163.227 149.169C163.227 149.169 164.386 134.639 167.045 129.32C169.703 124.003 177.541 126.242 177.541 126.242Z" fill="#FF8B66"/>
<path d="M217.712 108.468C217.712 108.468 222.701 129.45 225.875 134.984C225.875 134.984 225.145 137.3 221.708 138C221.708 138 210.854 122.044 210.154 115.326C209.454 108.608 217.712 108.468 217.712 108.468Z" fill="#FF8B66"/>
<path d="M220.123 113.403C218.796 116.599 208.546 116.773 208.546 116.773L207.762 115.62L207.555 115.318L205.954 112.956C205.954 112.956 188.969 96.2949 185.66 97.6942H185.654C185.559 97.739 185.464 97.7895 185.374 97.8565C183.101 99.4802 182.888 108.376 180.201 123.307C179.944 124.723 179.373 126.374 178.942 127.516C178.891 127.64 178.846 127.758 178.802 127.869C178.555 128.502 178.381 128.905 178.381 128.905C168.013 133.104 164.593 124.807 164.593 124.807C164.593 124.807 164.716 124.567 164.895 124.18C164.934 124.096 164.979 124.001 165.023 123.901C165.566 122.702 166.434 120.626 166.423 119.528C166.412 118.325 166.401 117.166 166.395 116.052C166.395 115.951 166.395 115.855 166.39 115.761C166.373 112.172 166.379 109.054 166.401 106.344V106.059C166.412 104.878 166.429 103.775 166.451 102.745V102.454C166.541 97.7345 166.692 94.5825 166.854 92.4828C166.86 92.3875 166.871 92.2867 166.877 92.1974C167.162 88.6647 167.465 88.3178 167.465 88.3178L165.388 73.8794H188.05C188.05 73.8794 191.453 77.2886 195.871 81.7899C195.966 81.8797 196.055 81.9689 196.145 82.0642C197.746 83.6934 199.476 85.4623 201.211 87.2594C201.284 87.332 201.351 87.3991 201.413 87.4667C202.096 88.1721 202.779 88.8775 203.456 89.5774C203.541 89.6611 203.619 89.7509 203.703 89.8351C205.976 92.1919 208.182 94.5154 210.068 96.5475C210.136 96.6146 210.197 96.6822 210.259 96.7492C212.84 99.5427 214.805 101.777 215.482 102.818C217.28 105.566 218.679 109.144 219.452 111.355C219.452 111.355 219.452 111.355 219.452 111.361C219.491 111.461 219.524 111.551 219.558 111.646C219.921 112.72 220.123 113.403 220.123 113.403Z" fill="#8B383E"/>
<path d="M170.857 90.4826C169.933 91.5743 168.59 92.2459 166.854 92.487C166.86 92.3917 166.871 92.2908 166.877 92.2016C168.512 91.9666 169.777 91.3282 170.645 90.2981C172.201 88.4616 171.949 85.9818 171.944 85.9596L172.224 85.9258C172.234 86.0322 172.492 88.5514 170.857 90.4826Z" fill="#662C33"/>
<path d="M196.144 82.065C196.055 82.0705 195.971 82.0761 195.881 82.0761C193.362 82.0761 190.731 79.3219 190.596 79.1817L190.798 78.9856C190.832 79.0249 193.452 81.768 195.87 81.7902C195.965 81.8804 196.055 81.9697 196.144 82.065Z" fill="#662C33"/>
<path d="M178.941 127.518C178.89 127.641 178.845 127.759 178.8 127.871C177.121 128.486 175.581 128.739 174.176 128.739C169.697 128.739 166.596 126.146 164.894 124.181C164.933 124.097 164.978 124.002 165.023 123.901C167.201 126.454 171.853 130.222 178.941 127.518Z" fill="#662C33"/>
<path d="M185.028 92.4985C185.403 94.105 185.643 95.8577 185.654 97.6992C185.559 97.7441 185.464 97.7945 185.375 97.8616C185.364 89.408 180.47 82.813 180.414 82.7404L180.638 82.5725C180.683 82.6285 183.583 86.5474 184.955 92.2075C185.525 91.8324 185.912 91.2949 186.074 90.601C186.779 87.6341 183.571 82.7858 183.544 82.7354L183.773 82.5786C183.907 82.7858 187.076 87.5781 186.348 90.6625C186.159 91.4683 185.71 92.0785 185.028 92.4985Z" fill="#662C33"/>
<path d="M210.257 96.7523C209.423 97.6594 208.639 98.4319 208.567 98.4989L208.415 98.6502L208.343 98.4485C207.246 95.5764 200.192 89.351 200.119 89.2895L200.034 89.2108L201.21 87.2625C201.283 87.3351 201.35 87.4021 201.412 87.4697L200.427 89.1044C201.798 89.5805 202.772 89.6642 203.455 89.5805C203.539 89.6642 203.618 89.7539 203.702 89.8381C203.472 89.8774 203.226 89.8996 202.969 89.8996C202.336 89.8996 201.614 89.771 200.802 89.5245C202.403 90.9686 207.38 95.5819 208.522 98.1515C208.965 97.7149 209.524 97.1385 210.067 96.5506C210.134 96.6181 210.196 96.6852 210.257 96.7523Z" fill="#662C33"/>
<path d="M171.551 116.006L171.439 116.028C171.332 116.056 170.062 116.319 168.6 116.319C167.867 116.319 167.094 116.252 166.395 116.056C166.395 115.955 166.395 115.859 166.389 115.765C168.237 116.297 170.706 115.888 171.265 115.781L170.795 104.131C170.532 104.77 170.012 105.643 169.038 106.124C168.573 106.359 168.052 106.471 167.482 106.471C167.14 106.471 166.782 106.432 166.401 106.348V106.063C167.37 106.286 168.209 106.225 168.909 105.872C170.096 105.284 170.566 104.024 170.712 103.526C169.777 103.666 167.89 103.19 166.451 102.748V102.457C168.002 102.928 170.102 103.471 170.857 103.208L171.036 103.146L171.551 116.006Z" fill="#662C33"/>
<path d="M219.557 111.649C217.928 113.256 214.591 115.714 209.457 115.714C208.914 115.714 208.349 115.686 207.761 115.624L207.554 115.322C213.796 116.038 217.709 113.11 219.45 111.364C219.49 111.465 219.524 111.554 219.557 111.649Z" fill="#662C33"/>
<path d="M192.237 12.4907C192.237 12.4907 191.615 11.0567 188.984 11.0562C186.956 11.0556 186.18 12.1756 186.18 12.1756C184.967 15.7214 183.663 29.2971 183.196 29.7801C182.96 30.0252 167.92 40.1544 167.92 40.1544C176.082 40.3071 181.174 50.3678 181.174 50.3678C181.438 47.062 190.655 33.9618 190.754 32.7935C190.941 30.5904 194.84 20.7487 192.237 12.4907Z" fill="#CE364C"/>
<path d="M166.128 83.4783C166.128 83.4783 166.052 86.3106 166.968 86.4972C167.885 86.6838 175.349 88.8898 183.933 84.988C192.517 81.0857 194.01 78.1934 191.491 76.0473C188.971 73.9013 166.128 83.4783 166.128 83.4783Z" fill="#CE364C"/>
<path d="M162.69 42.1144C162.69 42.1144 154.88 41.1891 150.401 43.1274C150.401 43.1274 149.152 48.67 155.305 61.0733C161.457 73.4772 160.03 81.2894 166.97 84.2301C173.121 86.8375 191.259 79.0788 191.829 76.5056C193.263 70.0282 182.172 58.6601 181.472 52.0727C180.772 45.4858 174.334 35.582 162.69 42.1144Z" fill="#F24052"/>
<path d="M150.4 43.1276C144.941 45.0659 138.801 51.1944 138.792 54.1483C138.784 57.1021 143.914 58.2412 143.914 58.2412L152.325 54.1483C152.325 54.1483 154.731 52.4687 153.199 47.5725C151.667 42.6768 150.4 43.1276 150.4 43.1276Z" fill="#CE364C"/>
<path d="M172.829 48.5917C171.198 48.5917 169.175 48.0042 167.918 47.1082C167.225 46.6146 166.812 46.0579 166.723 45.4977C166.414 43.5589 168.302 42.5731 168.383 42.5322L168.638 43.0304C168.572 43.0642 167.033 43.876 167.276 45.4094C167.341 45.8179 167.676 46.2475 168.243 46.6519C169.65 47.6553 172.084 48.2438 173.669 47.9644C174.383 47.8383 174.85 47.5812 175.058 47.201C175.311 46.7356 175.095 46.2091 175.092 46.2036L175.607 45.9822C175.62 46.0135 175.933 46.7547 175.553 47.4612C175.261 48.0022 174.66 48.3567 173.766 48.5145C173.477 48.567 173.161 48.5917 172.829 48.5917Z" fill="#CFD8DC"/>
<path d="M165.906 54.496C164.699 54.496 162.693 53.9923 162.413 52.0096C162.269 51.0006 162.362 50.159 162.443 49.4168C162.562 48.3236 162.657 47.4598 162.02 46.4251C160.968 44.7173 159.536 44.6023 159.476 44.5983L159.51 44.0396C159.581 44.0436 161.285 44.1641 162.497 46.1316C163.234 47.3302 163.12 48.3735 162.999 49.4778C162.918 50.222 162.834 50.9915 162.967 51.9309C163.27 54.0704 165.997 53.9363 166.113 53.9302L166.146 54.4889C166.07 54.4935 165.99 54.496 165.906 54.496Z" fill="#CFD8DC"/>
<path d="M167.606 44.4518C167.606 44.4518 171.735 41.6397 170.755 38.5956C169.775 35.5515 156.479 35.7612 153.05 39.4003C149.621 43.0394 160.468 45.4547 160.468 45.4547C161.307 43.7625 166.672 43.5759 167.606 44.4518Z" fill="#CE364C"/>
<path d="M160.182 43.972C158.223 43.3069 157.061 41.893 157.481 40.2598C157.901 38.6271 166.324 38.5837 167.921 39.8882C169.518 41.1932 167.268 46.3778 160.182 43.972Z" fill="#A02E44"/>
<path d="M159.25 39.3844C159.25 39.3844 160.983 42.3453 160.183 43.9735C160.183 43.9735 166.129 46.0263 166.129 42.6993C166.129 42.6993 165.008 40.2058 165.43 38.5938L159.25 39.3844Z" fill="#EF6E4B"/>
<path d="M157.265 36.8035C157.265 36.8035 154.344 32.1246 154.614 27.655C154.75 25.4202 155.899 24.5449 155.899 24.5449C155.899 24.5449 154.971 23.255 155.966 21.2839C155.966 21.2839 157.342 22.8763 162.171 22.3741C166.828 21.89 167.293 25.21 167.293 25.21C170.622 25.7046 168.376 35.7743 166.053 36.804H157.265V36.8035Z" fill="#FFB878"/>
<path d="M156.026 32.484C156.026 32.484 154.346 30.8084 154.14 32.7674C153.9 35.037 155.961 35.9511 156.364 35.2291C156.767 34.507 156.026 32.484 156.026 32.484Z" fill="#FF8B66"/>
<path d="M167.785 32.6009C167.785 32.6009 169.464 30.9253 169.671 32.8843C169.911 35.1539 167.849 36.0681 167.446 35.346C167.044 34.6245 167.785 32.6009 167.785 32.6009Z" fill="#FF8B66"/>
<path d="M161.728 40.7061C158.003 40.7061 155.9 38.2721 155.9 30.9733C155.9 27.2081 157.816 24.8987 161.989 24.8987C166.162 24.8987 167.92 27.2081 167.92 30.9733C167.92 38.8162 165.578 40.7061 161.728 40.7061Z" fill="#FF8B66"/>
<path d="M166.686 33.5768C166.751 33.9515 166.425 34.3211 165.956 34.4027C165.488 34.4844 165.055 34.2469 164.99 33.8728C164.925 33.4981 165.251 33.1285 165.72 33.0468C166.188 32.9652 166.62 33.2027 166.686 33.5768Z" fill="#DB614D"/>
<path d="M159.02 33.7758C158.995 34.155 158.59 34.4374 158.116 34.4066C157.642 34.3758 157.277 34.0431 157.302 33.6639C157.327 33.2847 157.731 33.0023 158.206 33.0331C158.681 33.0638 159.045 33.3961 159.02 33.7758Z" fill="#DB614D"/>
<path d="M165.044 29.6628C164.995 29.6704 164.944 29.6588 164.903 29.6265C164.31 29.1707 163.42 29.332 163.406 29.3341C163.307 29.3502 163.208 29.2866 163.189 29.1853C163.17 29.0839 163.237 28.9871 163.338 28.968C163.377 28.9594 164.406 28.7748 165.13 29.3315C165.211 29.3941 165.226 29.511 165.164 29.5927C165.133 29.632 165.09 29.6558 165.044 29.6628Z" fill="#FFB878"/>
<path d="M157.916 29.6914C157.87 29.6859 157.826 29.6632 157.795 29.6249C157.73 29.5452 157.741 29.4277 157.82 29.3627C158.526 28.7843 159.56 28.9376 159.6 28.9447C159.701 28.9608 159.771 29.0556 159.755 29.157C159.74 29.2588 159.64 29.3264 159.543 29.3128C159.536 29.3102 158.63 29.1812 158.057 29.6511C158.015 29.6844 157.964 29.6975 157.916 29.6914Z" fill="#FFB878"/>
<path d="M164.659 31.7636C164.659 32.226 164.451 32.6016 164.194 32.6011C163.937 32.6011 163.728 32.226 163.728 31.7636C163.728 31.3007 163.937 30.9255 164.194 30.9255C164.451 30.9255 164.659 31.3007 164.659 31.7636Z" fill="#1A4850"/>
<path d="M159.683 31.7636C159.683 32.226 159.474 32.6016 159.217 32.6011C158.96 32.6011 158.752 32.226 158.752 31.7636C158.752 31.3007 158.96 30.9255 159.217 30.9255C159.474 30.9255 159.683 31.3007 159.683 31.7636Z" fill="#1A4850"/>
<path d="M157.042 25.7053C157.042 25.7053 161.012 27.159 166.705 26.7501C166.705 26.7501 167.919 28.2628 167.771 33.6012C167.771 33.6012 171.105 23.9854 161.374 23.9854C151.643 23.9854 156.027 33.3879 156.027 33.3879C156.027 33.3879 155.231 27.507 157.042 25.7053Z" fill="#FFB878"/>
<path d="M161.962 34.2507L161.684 33.9699L162.421 33.2377C161.706 32.2272 161.71 29.889 161.711 29.7847L162.107 29.7867C162.107 29.8119 162.103 32.3275 162.832 33.1182L162.962 33.2584L161.962 34.2507Z" fill="#DB614D"/>
<path d="M159.493 35.471C159.493 35.471 163.16 35.6258 165.011 35.1362C165.011 35.1362 165.338 37.8032 162.496 37.9353C159.493 38.0749 159.493 35.471 159.493 35.471Z" fill="#1A4850"/>
<path d="M175.164 45.5462C175.864 45.4161 175.794 47.2475 175.164 46.7165C174.534 46.1861 174.464 45.6763 175.164 45.5462Z" fill="#CFD8DC"/>
<path d="M166.724 54.422C166.618 55.1259 164.91 54.4593 165.618 54.0382C166.326 53.6172 166.83 53.718 166.724 54.422Z" fill="#CFD8DC"/>
<path d="M159.212 58.2444C159.212 58.2444 158.1 61.0939 158.164 62.7039C158.227 64.3139 158.754 64.1037 158.754 64.1037C158.754 64.1037 157.911 64.4355 157.751 65.3633C157.592 66.2911 159.935 66.9728 160.096 66.9728C160.256 66.9728 161.91 66.343 161.91 66.343L162.256 61.0772L160.792 60.158L159.212 58.2444Z" fill="#EF6E4B"/>
<path d="M160.096 57.8713C160.096 57.8713 162.119 59.1309 162.902 59.9009C163.686 60.6709 163.239 66.6189 162.902 66.8988C162.566 67.1786 159.987 67.756 159.492 67.4322C158.997 67.1085 159.685 65.3593 159.685 65.3593C159.685 65.3593 160.98 65.0795 160.793 65.5691C160.606 66.0592 160.793 66.4787 160.793 66.4787L161.325 66.269C161.325 66.269 161.064 64.9393 161.325 63.9595C161.586 62.9798 159.501 61.9466 159.249 60.154C158.997 58.361 160.096 57.8713 160.096 57.8713Z" fill="#FF8B66"/>
<path d="M139.128 54.9741C138.481 52.1771 141.257 51.1872 145.119 51.6642C149.598 52.2174 158.795 53.3887 160.794 58.241C160.794 58.241 161.447 60.1546 159.757 61.0739C155.033 63.6435 140.345 60.2278 139.128 54.9741Z" fill="#CE364C"/>
<path d="M153.14 53.1211C153.14 53.1211 147.803 50.9039 145.144 50.6791C142.484 50.4547 148.821 52.7782 153.14 53.1211Z" fill="#A02E44"/>
<path d="M193.151 5.06735C192.748 5.52621 192.081 7.31223 192.081 7.31223C191.801 8.81235 191.639 9.64131 191.113 10.3296C190.592 11.0184 190.866 12.2331 190.866 12.2331C190.866 12.2331 188.828 13.2799 187.115 11.9865C187.115 11.9865 187.294 10.7829 187.115 10.4415C186.762 9.7588 185.631 9.39474 185.245 8.01766C184.859 6.63503 183.7 5.09508 183.7 5.09508C183.7 5.09508 184.03 4.37856 184.635 4.81523C185.245 5.25745 185.631 6.36022 185.962 6.47216C186.029 6.49435 186.096 6.51149 186.163 6.51704C186.163 6.51704 186.169 6.51704 186.18 6.52259C186.432 6.55637 186.689 6.5004 186.846 6.34913C186.857 6.34358 186.874 6.33249 186.885 6.31534C187.44 5.67143 187.569 3.77901 187.546 2.93391C187.512 1.75852 187.557 0.134868 188.274 0.409175C188.99 0.683482 188.335 1.33849 188.889 3.93079L189.158 3.96458C189.209 4.14913 189.701 2.39134 189.819 0.739956C189.903 -0.396602 190.647 0.0234311 190.809 0.381442C190.977 0.739957 190.725 1.87046 190.675 2.69338C190.636 3.23645 190.591 3.8017 190.563 4.13803L190.877 4.31149C192.008 2.34092 191.622 1.52355 192.282 1.48421C192.937 1.44488 192.702 3.10787 192.349 3.74019C192.198 4.0145 192.053 4.58529 191.935 5.14551C193.094 3.80725 192.965 3.10787 193.497 3.19157C194.046 3.28133 193.554 4.60799 193.151 5.06735Z" fill="#FF8B66"/>
<path d="M188.147 8.15227C187.755 7.07168 186.355 6.57904 186.182 6.52307C186.434 6.55685 186.691 6.50088 186.848 6.34961C188.219 6.96529 188.147 8.15227 188.147 8.15227Z" fill="#EF6E4B"/>
<path d="M163.825 151.346C163.825 151.346 163.051 149.766 163.741 149.086C164.431 148.407 165.245 149.667 166.424 149.387C167.604 149.107 167.877 148.269 168.184 149.411C168.491 150.553 168.117 154.146 163.825 151.346Z" fill="#CFD8DC"/>
<path d="M168.266 151.278C168.266 151.278 165.097 152.401 163.455 151.278L163.872 152.65C163.872 152.65 167.316 153.014 167.791 152.146L168.266 151.278Z" fill="#ADBEC4"/>
<path d="M168.223 152.978C168.223 152.978 165.322 152.575 163.923 153.295V153.975C163.923 153.975 167.705 153.093 168.928 153.975L168.223 152.978Z" fill="#ADBEC4"/>
<path d="M163.783 155.389C163.783 155.389 164.346 154.018 166.111 153.92C167.876 153.821 169.067 154.793 169.067 154.793C169.067 154.793 166.268 153.64 163.783 155.389Z" fill="#ADBEC4"/>
<path d="M238.459 136.332C232.889 143.767 225.309 145.194 225.309 145.194C223.109 143.437 223.053 141.354 223.053 141.354C223.053 141.354 220.931 139.462 220.651 138.555C220.371 137.648 222.47 134.916 223.73 135.196C224.598 135.386 225.102 136.081 225.331 136.49C224.29 134.144 225.124 133.327 226.602 133.528C228.141 133.735 226.686 134.1 227.789 135.336C227.867 135.426 227.957 135.499 228.052 135.566C228.254 135.706 228.494 135.801 228.768 135.851C229.009 135.896 229.278 135.907 229.558 135.891C229.703 135.885 229.854 135.868 230.005 135.846C230.291 135.801 230.582 135.728 230.884 135.633C231.349 135.487 231.83 135.28 232.301 135.023C234.226 133.97 235.038 133.612 236.505 133.987C237.966 134.357 237.944 135.465 237.944 135.465L238.459 136.332Z" fill="#CFD8DC"/>
<path d="M238.458 136.331C232.888 143.766 225.307 145.193 225.307 145.193C229.176 143.531 232.731 141.353 235.16 138.671C237.585 135.99 238.458 136.331 238.458 136.331Z" fill="#ADBEC4"/>
<path d="M228.053 135.565C228.255 135.705 228.495 135.8 228.769 135.85C227.297 136.147 227.191 137.463 227.191 137.463L226.564 137.261C226.698 135.682 227.946 135.57 228.053 135.565Z" fill="#ADBEC4"/>
<path d="M229.045 137.618L228.39 137.64C228.143 136.711 228.462 136.157 228.77 135.849C229.011 135.894 229.279 135.905 229.559 135.888C228.781 136.655 229.045 137.618 229.045 137.618Z" fill="#ADBEC4"/>
<path d="M230.663 137.261L230.013 137.344C229.761 136.684 229.834 136.191 230.008 135.844C230.293 135.8 230.584 135.727 230.887 135.632C230.349 136.432 230.663 137.261 230.663 137.261Z" fill="#ADBEC4"/>
<path d="M168.324 68.2288C168.324 68.2288 169.762 75.987 166.854 79.0785C163.947 82.17 165.871 79.6297 166.737 75.6436C167.605 71.6576 166.945 67.4588 168.324 68.2288Z" fill="#CE364C"/>
<path d="M181.742 64.7688C181.742 64.7688 186.324 66.2745 188.721 70.5071C188.721 70.5066 185.52 63.6156 181.742 64.7688Z" fill="#CE364C"/>
<path d="M62.7166 7.12791C63.3272 7.13749 65.0981 7.84242 65.0981 7.84242C66.398 8.64214 67.1211 9.07831 67.9849 9.15042C68.8446 9.22706 69.1976 10.704 69.1976 10.704C69.1976 10.704 72.5886 11.4457 72.7802 9.30774C72.7802 9.30774 70.8848 6.62468 70.7517 6.26263C70.4824 5.54258 70.9715 4.46047 70.2106 3.24929C69.4452 2.03457 69.0821 0.14216 69.0821 0.14216C69.0821 0.14216 68.3293 -0.0938252 68.2471 0.647408C68.1654 1.39671 68.7231 2.42334 68.5844 2.74354C68.5557 2.80808 68.5234 2.8696 68.4826 2.92305C68.4826 2.92305 68.479 2.92708 68.4755 2.93918C68.3313 3.14844 68.117 3.30173 67.8997 3.31635C67.8881 3.32089 67.8684 3.32593 67.8482 3.32291C66.9991 3.30173 65.5101 2.12635 64.8989 1.54244C64.0503 0.728088 62.8169 -0.328296 62.5391 0.386717C62.2612 1.10223 63.1865 1.05635 64.7356 3.20693L64.5803 3.4288C64.6831 3.59016 63.0499 2.7753 61.7469 1.75371C60.8484 1.05282 60.6598 1.88683 60.8161 2.24736C60.9689 2.61243 61.9764 3.18475 62.6198 3.70008C63.0484 4.0354 63.4976 4.38181 63.7654 4.58704L63.6837 4.93597C61.464 4.45089 61.1176 3.61587 60.6452 4.07927C60.1762 4.53813 61.5664 5.48055 62.2723 5.64393C62.5769 5.71603 63.0983 5.99135 63.5919 6.28028C61.8221 6.24095 61.3899 5.67569 61.0954 6.12598C60.7919 6.59291 62.1059 7.11833 62.7166 7.12791Z" fill="#FF8B66"/>
<path d="M68.3633 5.49135C67.8258 4.47531 68.4002 3.1073 68.4753 2.94141C68.3311 3.15067 68.1168 3.30396 67.8994 3.31858C67.4345 4.7481 68.3633 5.49135 68.3633 5.49135Z" fill="#EF6E4B"/>
<path d="M162.483 7.12791C161.872 7.13749 160.101 7.84242 160.101 7.84242C158.801 8.64214 158.078 9.07831 157.215 9.15042C156.355 9.22706 156.002 10.704 156.002 10.704C156.002 10.704 152.611 11.4457 152.419 9.30774C152.419 9.30774 154.315 6.62468 154.448 6.26263C154.717 5.54258 154.228 4.46047 154.989 3.24929C155.754 2.03457 156.117 0.14216 156.117 0.14216C156.117 0.14216 156.87 -0.0938252 156.952 0.647408C157.034 1.39671 156.476 2.42334 156.615 2.74354C156.644 2.80808 156.676 2.8696 156.717 2.92305C156.717 2.92305 156.721 2.92708 156.725 2.93918C156.869 3.14844 157.083 3.30173 157.3 3.31635C157.312 3.32089 157.332 3.32593 157.352 3.32291C158.201 3.30173 159.69 2.12635 160.302 1.54244C161.15 0.728088 162.384 -0.328296 162.661 0.386717C162.939 1.10223 162.014 1.05635 160.465 3.20693L160.62 3.4288C160.517 3.59016 162.151 2.7753 163.454 1.75371C164.352 1.05282 164.541 1.88683 164.384 2.24736C164.232 2.61243 163.224 3.18475 162.581 3.70008C162.152 4.0354 161.703 4.38181 161.435 4.58704L161.517 4.93597C163.736 4.45089 164.083 3.61587 164.555 4.07927C165.024 4.53813 163.634 5.48055 162.928 5.64393C162.624 5.71603 162.102 5.99135 161.609 6.28028C163.378 6.24095 163.811 5.67569 164.105 6.12598C164.408 6.59291 163.094 7.11833 162.483 7.12791Z" fill="#FF8B66"/>
<path d="M156.837 5.49135C157.374 4.47531 156.8 3.1073 156.725 2.94141C156.869 3.15067 157.083 3.30396 157.301 3.31858C157.766 4.7481 156.837 5.49135 156.837 5.49135Z" fill="#EF6E4B"/>
<path d="M132.683 109.914L126.168 69.5793L113.125 71.0361L100.081 69.5793L93.5668 109.914L90.438 149.034C90.438 149.034 91.4329 152.275 97.9396 150.035C97.9396 150.035 102.767 113.751 103.513 112.952C104.26 112.153 111.926 88.4531 111.926 88.4531H114.323C114.323 88.4531 121.989 112.153 122.736 112.952C123.482 113.751 128.309 150.035 128.309 150.035C134.817 152.275 135.811 149.034 135.811 149.034L132.683 109.914Z" fill="#0E3944"/>
<path d="M109.015 30.5232C109.839 31.3249 113.893 32.7716 116.033 30.5232L117.484 31.9487C117.484 31.9487 115.829 35.8404 112.926 35.9766C110.021 36.1127 107.922 32.5139 107.922 32.5139L109.015 30.5232Z" fill="#0C476B"/>
<path d="M120.496 30.0828C125.348 27.9937 141.023 22.4415 141.023 22.4415C141.023 22.4415 151.561 9.23951 153.71 7.28003C153.71 7.28003 156.042 7.70006 156.725 10.604C156.725 10.604 149.94 25.1332 146.252 29.2927C142.563 33.4521 123.882 42.4483 123.882 42.4483L120.496 30.0828Z" fill="#0C476B"/>
<path d="M103.513 29.7832C104.957 28.8706 112.203 33.7183 112.203 33.7183C112.203 33.7183 121.625 28.7153 123.836 29.6844C123.836 29.6844 125.828 32.3508 126.629 39.2055C127.429 46.0601 127.482 74.2683 127.482 74.2683C127.482 74.2683 121.148 76.5092 112.58 76.5092C102.813 76.5092 97.5587 73.7081 97.5587 73.7081C97.5587 73.7081 95.8155 34.6517 103.513 29.7832Z" fill="#FFB878"/>
<path d="M109.398 29.0474C109.398 29.0474 110.441 32.3295 109.398 33.5941C109.398 33.5941 110.482 35.8677 112.429 35.9686C114.68 36.0845 115.46 33.5941 115.46 33.5941C115.46 33.5941 114.27 30.4239 115.46 29.3101L109.398 29.0474Z" fill="#EF6E4B"/>
<path d="M106.796 25.8197C106.796 25.8197 104.6 21.5932 105.035 17.0762C105.47 12.5597 112.275 11.524 116.862 13.7432C116.862 13.7432 115.5 12.412 116.033 12.0419C116.566 11.6723 117.484 14.0392 117.484 14.0392C117.484 14.0392 118.933 13.5954 119.155 14.0392C119.377 14.4834 117.671 14.7259 117.671 14.7259C117.671 14.7259 120.63 16.3672 117.865 25.1022L106.796 25.8197Z" fill="#8B383E"/>
<path d="M106.466 23.1414C106.466 23.1414 104.828 21.5077 104.627 23.4177C104.393 25.6308 106.403 26.5223 106.796 25.8184C107.189 25.114 106.466 23.1414 106.466 23.1414Z" fill="#FF8B66"/>
<path d="M117.933 23.2586C117.933 23.2586 119.57 21.6243 119.771 23.5349C120.005 25.748 117.995 26.6395 117.602 25.9356C117.209 25.2311 117.933 23.2586 117.933 23.2586Z" fill="#FF8B66"/>
<path d="M112.026 31.1592C108.393 31.1592 106.343 28.7863 106.343 21.6689C106.343 17.9975 108.21 15.7456 112.28 15.7456C116.349 15.7456 118.063 17.9975 118.063 21.6689C118.063 29.3167 115.779 31.1592 112.026 31.1592Z" fill="#FF8B66"/>
<path d="M116.861 24.2098C116.925 24.5749 116.606 24.9354 116.149 25.0151C115.692 25.0947 115.271 24.8633 115.207 24.4982C115.143 24.1331 115.462 23.7726 115.919 23.6929C116.375 23.6133 116.797 23.8447 116.861 24.2098Z" fill="#DB614D"/>
<path d="M109.386 24.4097C109.362 24.7798 108.968 25.0552 108.505 25.0249C108.043 24.9946 107.687 24.6704 107.711 24.3003C107.736 23.9307 108.13 23.6549 108.593 23.6851C109.055 23.7154 109.411 24.0396 109.386 24.4097Z" fill="#DB614D"/>
<path d="M115.201 20.5207C115.153 20.5207 115.105 20.502 115.069 20.4647C114.566 19.9368 113.684 19.9595 113.671 19.9595C113.573 19.96 113.487 19.8838 113.484 19.7835C113.481 19.6831 113.559 19.5994 113.66 19.5964C113.698 19.5939 114.718 19.5702 115.332 20.2141C115.401 20.2867 115.398 20.4017 115.326 20.4708C115.291 20.5045 115.245 20.5207 115.201 20.5207Z" fill="#8B383E"/>
<path d="M108.359 20.5206C108.314 20.5206 108.27 20.5044 108.234 20.4707C108.162 20.4016 108.159 20.2866 108.228 20.214C108.842 19.5696 109.86 19.5943 109.9 19.5963C110 19.5998 110.078 19.6835 110.075 19.7834C110.072 19.8837 109.984 19.9609 109.888 19.9594C109.882 19.9578 108.989 19.9412 108.491 20.4646C108.455 20.5019 108.407 20.5206 108.359 20.5206Z" fill="#8B383E"/>
<path d="M114.884 22.4443C114.884 22.8956 114.681 23.2612 114.43 23.2612C114.18 23.2612 113.976 22.8951 113.976 22.4443C113.976 21.993 114.18 21.6274 114.43 21.6274C114.681 21.6274 114.884 21.993 114.884 22.4443Z" fill="#1A4850"/>
<path d="M110.033 22.4443C110.033 22.8956 109.829 23.2612 109.579 23.2612C109.328 23.2612 109.125 22.8956 109.125 22.4443C109.125 21.993 109.328 21.6274 109.579 21.6274C109.829 21.6274 110.033 21.9935 110.033 22.4443Z" fill="#1A4850"/>
<path d="M110.033 27.2698C110.033 27.2698 113.237 27.6823 114.885 26.8911C114.885 26.8911 113.953 29.0725 112.203 28.8768C110.453 28.6817 110.033 27.2698 110.033 27.2698Z" fill="#1A4850"/>
<path d="M117.685 24.065C117.685 24.065 117.572 20.1138 116.033 17.0767C116.033 17.0767 113.321 18.3303 112.724 18.0343C112.127 17.7383 113.293 17.0767 113.293 17.0767C113.293 17.0767 108.819 18.5521 108.55 18.2561C108.281 17.9601 110.033 17.0767 110.033 17.0767L107.245 18.0343C107.245 18.0343 106.386 21.5892 106.742 24.0655C106.742 24.0655 105.544 21.9986 105.396 20.5711C105.247 19.1436 105.875 15.0754 110.074 14.7794C114.272 14.4834 116.63 15.4364 117.67 17.3641C118.711 19.2913 118.582 21.6628 117.685 24.065Z" fill="#8B383E"/>
<path d="M112.66 26.1272C112.307 26.1277 111.949 26.0359 111.84 26.0056L111.943 25.634C112.324 25.7394 112.922 25.8019 113.053 25.6481C113.098 25.5947 113.08 25.4706 113.003 25.3078C112.478 24.1909 112.369 21.3636 112.364 21.2441L112.75 21.23C112.751 21.2587 112.861 24.0981 113.353 25.1434C113.503 25.4621 113.501 25.7157 113.348 25.8972C113.199 26.0737 112.931 26.1272 112.66 26.1272Z" fill="#DB614D"/>
<path d="M116.681 31.5596C116.681 31.5596 123.256 51.9713 123.882 68.5795C123.882 68.5795 126.256 69.2325 128.928 65.5939C131.6 61.9548 130.01 33.1314 124.891 28.332C124.891 28.332 122.568 27.8025 116.681 31.5596Z" fill="#105E99"/>
<path d="M117.752 35.131C117.752 35.131 118.929 32.3965 118.406 30.5212C117.884 28.6459 116.035 30.5212 116.035 30.5212C116.035 30.5212 116.782 33.5915 117.752 35.131Z" fill="#0C476B"/>
<path d="M104.553 30.0776C99.7013 27.9886 84.0259 22.4364 84.0259 22.4364C84.0259 22.4364 73.4616 8.84911 71.3125 6.89014C71.3125 6.89014 68.6532 8.39479 68.4731 11.509C68.4731 11.509 75.1095 25.1285 78.798 29.288C82.4865 33.4475 101.167 42.4436 101.167 42.4436L104.553 30.0776Z" fill="#0C476B"/>
<path d="M108.368 31.5596C108.368 31.5596 101.793 51.9713 101.167 68.5795C101.167 68.5795 98.7931 69.2325 96.1211 65.5939C93.4492 61.9548 95.0385 33.1314 100.158 28.332C100.158 28.332 102.48 27.8025 108.368 31.5596Z" fill="#105E99"/>
<path d="M107.298 35.131C107.298 35.131 106.121 32.3965 106.644 30.5212C107.167 28.6459 109.016 30.5212 109.016 30.5212C109.016 30.5212 108.269 33.5915 107.298 35.131Z" fill="#0C476B"/>
<path d="M141.611 159.551H128.556C127.643 154.361 129.099 149.166 129.099 149.166L135.067 148.141C135.61 151.422 136.265 152.715 137.172 153.381C137.178 153.381 137.178 153.381 137.178 153.381C137.838 153.863 138.627 154.02 139.613 154.361C140.739 154.753 141.332 155.464 141.629 156.236C142.216 157.77 141.611 159.551 141.611 159.551Z" fill="#662C33"/>
<path d="M141.628 156.237C138.409 156.64 131.338 157.329 131.769 155.465C132.128 153.908 135.111 153.489 137.172 153.382C137.177 153.382 137.177 153.382 137.177 153.382C137.838 153.864 138.627 154.021 139.613 154.362C140.738 154.754 141.331 155.465 141.628 156.237Z" fill="#8B383E"/>
<path d="M97.8881 159.551H84.8328C84.8328 159.551 84.4184 158.33 84.609 157.037C84.7658 155.985 85.3255 154.881 86.8317 154.361C87.9627 153.969 88.8305 153.823 89.5414 153.157C90.3139 152.43 90.8908 151.086 91.3779 148.141L97.3456 149.166C97.3456 149.166 98.7953 154.361 97.8881 159.551Z" fill="#662C33"/>
<path d="M84.609 157.039C84.7658 155.987 85.3255 154.884 86.8317 154.363C87.9627 153.971 88.8305 153.826 89.5415 153.16C91.1929 153.669 93.5053 154.604 94.2218 156.02C95.2182 157.963 87.5876 157.655 84.609 157.039Z" fill="#8B383E"/>
<path d="M191.617 158.617C191.617 159.166 191.561 159.552 191.561 159.552H175.701C175.701 159.238 175.707 158.925 175.723 158.617C175.902 154.469 177.212 150.869 177.212 150.869L181.176 149.167C181.518 151.21 182.396 152.515 183.5 153.366C183.791 153.595 184.093 153.786 184.407 153.948C184.553 154.027 184.698 154.099 184.849 154.167C185.179 154.318 185.521 154.441 185.863 154.542C187.262 154.967 188.679 155.057 189.67 155.208C191.359 155.471 191.617 157.424 191.617 158.617Z" fill="#164353"/>
<path d="M191.617 158.619C191.617 159.168 191.561 159.554 191.561 159.554H175.701C175.701 159.24 175.707 158.927 175.723 158.619H191.617Z" fill="#225866"/>
<path d="M184.404 153.949L182.204 154.655L181.739 153.848L183.497 153.367C183.788 153.597 184.091 153.787 184.404 153.949Z" fill="#225866"/>
<path d="M185.862 154.544L184.378 155.529L183.466 155.171L184.848 154.169C185.179 154.32 185.52 154.443 185.862 154.544Z" fill="#225866"/>
<path d="M131.018 158.622C130.979 159.159 130.839 159.557 130.839 159.557H120.276C120.141 159.248 120.046 158.941 119.979 158.622C118.937 153.566 125.957 147.38 125.957 147.38L128.186 150.353C128.186 150.353 127.928 155.112 129.815 156.102C130.946 156.695 131.091 157.815 131.018 158.622Z" fill="#164353"/>
<path d="M119.979 158.62H131.019C130.98 159.158 130.84 159.555 130.84 159.555H120.276C120.141 159.247 120.046 158.939 119.979 158.62Z" fill="#225866"/>
<path d="M129.333 155.722C129.333 155.722 124.882 154.708 122.853 156.021V155.287C122.853 155.287 126.597 153.467 129.333 155.722Z" fill="#225866"/>
<path d="M128.452 154.594C128.452 154.594 125.61 153.295 122.853 154.594L123.168 153.853C123.168 153.853 126.46 152.608 128.452 154.594Z" fill="#225866"/>
<path d="M186.829 113.673C186.835 117.922 183.061 152.565 183.061 152.565C179.288 152.94 176.265 152.184 176.265 152.184C175.229 134.628 175.129 119.529 175.129 119.529L157.046 105.976L157.001 105.942C157.001 105.942 156.934 106.25 156.811 106.799C155.915 110.774 152.125 127.423 150.546 131.236C148.749 135.58 129.1 153.849 129.1 153.849C125.449 153.345 122.352 150.701 122.352 150.701C129.406 139.001 139.024 127.267 139.024 127.267C139.774 123.051 140.312 113.674 140.631 106.665C140.637 106.559 140.642 106.447 140.648 106.34C140.86 101.593 140.967 98.0098 140.967 98.0098L137.652 91.2132L158.708 83.4761L163.427 89.5169C163.427 89.5169 164.508 90.5188 166.21 92.1203C166.288 92.1929 166.366 92.266 166.445 92.3386C172.766 98.3003 186.829 111.77 186.829 113.673Z" fill="#8BBDDB"/>
<path d="M140.63 106.659C140.635 106.552 140.641 106.44 140.646 106.334C145.08 103.927 144.336 100.086 144.324 100.047L144.599 99.991C144.61 100.03 145.405 104.156 140.63 106.659Z" fill="#6097B2"/>
<path d="M156.719 103.257C156.871 104.097 156.983 105.004 157.044 105.972L156.999 105.939C156.999 105.939 156.932 106.247 156.809 106.795C156.613 100.212 153.898 96.3208 153.864 96.2759L154.093 96.1136C154.121 96.1474 155.834 98.6217 156.663 102.938C159.865 100.094 156.73 94.266 156.697 94.2101L156.943 94.0759C156.977 94.1374 160.297 100.307 156.719 103.257Z" fill="#6097B2"/>
<path d="M166.442 92.334C166.437 92.3396 166.425 92.3396 166.42 92.3451C166.291 92.3955 166.14 92.4177 165.983 92.4177C164.433 92.4177 161.829 90.2455 161.706 90.1391L161.891 89.9263C162.736 90.6428 165.093 92.3618 166.207 92.1152C166.286 92.1888 166.364 92.2614 166.442 92.334Z" fill="#6097B2"/>
<path d="M139.126 54.9728C139.126 54.9728 145.531 53.9421 148.74 55.9878C151.949 58.0335 156.162 63.3729 156.162 63.3729C156.162 63.3729 151.16 64.0335 150.594 67.4315C150.594 67.4315 146.96 58.7778 139.126 54.9728Z" fill="#ADBEC4"/>
<path d="M129.492 58.3123C126.782 59.7771 122.254 65.2758 122.049 68.6573C121.849 71.9555 124.293 74.989 125.94 77.5677C131.08 85.6149 136.491 92.7252 138.791 102.164C138.806 102.224 150.547 106.883 164.328 90.3184C164.328 90.3184 156.541 79.8418 153.851 70.9223C152.756 67.2918 151.642 63.4349 149.539 60.2349C147.222 56.7103 143.254 54.6369 139.127 54.9712C135.634 55.2551 132.161 56.8691 129.492 58.3123Z" fill="#CFD8DC"/>
<path d="M128.354 54.9357C128.354 54.9357 130.086 57.8966 129.286 59.5248C129.286 59.5248 135.233 61.5775 135.233 58.2505C135.233 58.2505 134.112 55.7571 134.534 54.145L128.354 54.9357Z" fill="#EF6E4B"/>
<path d="M141.568 75.2104C141.568 75.2104 138.26 76.1498 137.426 77.3207C136.591 78.4915 135.848 81.1181 135.848 81.1181H141.568L142.643 79.1395L143.903 76.5023L141.568 75.2104Z" fill="#EF6E4B"/>
<path d="M136.1 51.636C136.1 51.636 138.422 50.6618 136.92 43.6776C135.924 39.0497 134.49 38.3599 133.564 38.319C133.564 38.319 132.43 36.6112 128.499 37.4285C125.806 37.9887 123.658 39.624 122.712 42.6499C121.724 45.8085 123.699 52.5789 126.299 53.2526L136.1 51.636Z" fill="#164353"/>
<path d="M136.65 46.9158C136.65 46.9158 138.113 44.8787 138.666 46.8866C139.306 49.2126 137.313 50.5212 136.769 49.8374C136.225 49.1537 136.65 46.9158 136.65 46.9158Z" fill="#FF8B66"/>
<path d="M124.405 49.0613C124.405 49.0613 122.364 47.6026 122.486 49.6816C122.627 52.0898 124.934 52.6888 125.23 51.8664C125.526 51.044 124.405 49.0613 124.405 49.0613Z" fill="#FF8B66"/>
<path d="M132.115 56.4708C136.002 55.8294 137.776 52.929 136.52 45.3149C135.872 41.3874 133.477 39.3079 129.123 40.0265C124.77 40.7445 123.334 43.4558 123.982 47.3838C125.332 55.5651 128.1 57.1333 132.115 56.4708Z" fill="#FF8B66"/>
<path d="M125.717 49.8851C125.713 50.287 126.118 50.6168 126.62 50.6213C127.123 50.6258 127.534 50.3036 127.537 49.9018C127.541 49.4999 127.136 49.1701 126.634 49.1656C126.131 49.1615 125.721 49.4832 125.717 49.8851Z" fill="#DB614D"/>
<path d="M133.747 48.779C133.838 49.1703 134.309 49.3952 134.799 49.2817C135.288 49.1678 135.611 48.7583 135.52 48.3665C135.429 47.9752 134.958 47.7499 134.469 47.8638C133.979 47.9778 133.656 48.3872 133.747 48.779Z" fill="#DB614D"/>
<path d="M126.813 45.6447C126.775 45.6447 126.736 45.6336 126.702 45.6104C126.612 45.5494 126.589 45.4268 126.65 45.3371C127.194 44.5399 128.284 44.3871 128.331 44.3805C128.445 44.3679 128.537 44.4426 128.552 44.5495C128.566 44.6574 128.49 44.7562 128.383 44.7708C128.373 44.7718 127.418 44.9085 126.976 45.5584C126.937 45.6149 126.875 45.6447 126.813 45.6447Z" fill="#1A4850"/>
<path d="M134.13 44.438C134.089 44.438 134.047 44.4254 134.012 44.3982C133.382 43.9232 132.437 44.1022 132.428 44.1042C132.319 44.1279 132.218 44.0563 132.196 43.9494C132.175 43.843 132.244 43.7391 132.351 43.7179C132.397 43.7094 133.479 43.5026 134.249 44.0835C134.335 44.1491 134.353 44.2726 134.288 44.3593C134.249 44.4108 134.19 44.438 134.13 44.438Z" fill="#1A4850"/>
<path d="M127.52 47.6496C127.6 48.1322 127.882 48.4882 128.15 48.4438C128.418 48.3995 128.571 47.9724 128.491 47.4898C128.412 47.0072 128.13 46.6518 127.862 46.6961C127.593 46.74 127.441 47.1671 127.52 47.6496Z" fill="#1A4850"/>
<path d="M132.709 46.7925C132.788 47.275 133.07 47.6305 133.338 47.5862C133.607 47.5418 133.759 47.1147 133.68 46.6321C133.6 46.1496 133.318 45.7941 133.05 45.8385C132.782 45.8828 132.629 46.3099 132.709 46.7925Z" fill="#1A4850"/>
<path d="M134.167 51.1763C134.167 51.1763 130.795 52.0809 128.925 51.7214C128.925 51.7214 130.217 53.349 132.063 52.8796C133.908 52.4107 134.167 51.1763 134.167 51.1763Z" fill="#1A4850"/>
<path d="M134.326 41.7799C134.326 41.7799 129.939 44.9562 124.433 45.1982L124.588 50.0999C124.588 50.0999 119.456 40.6434 129.607 38.9688C139.758 37.2942 136.803 47.8565 136.803 47.8565C136.803 47.8565 136.488 43.3007 134.326 41.7799Z" fill="#0E3944"/>
<path d="M130.739 49.8597L130.711 49.4361C130.717 49.4356 131.303 49.3903 131.455 49.0277C131.518 48.8785 131.268 48.4025 131.048 47.9829C130.742 47.3995 130.362 46.6739 130.2 45.8676L130.617 45.7839C130.766 46.5307 131.131 47.2266 131.424 47.7858C131.75 48.4085 131.986 48.8583 131.846 49.1921C131.592 49.7977 130.774 49.8577 130.739 49.8597Z" fill="#DB614D"/>
<path d="M136.706 41.7935C129.328 38.5911 122.363 45.2309 122.363 45.2309C122.363 45.2309 121.551 39.8507 122.973 38.5911C123.343 38.2608 123.74 37.9698 124.155 37.7122C127.413 35.6574 131.746 35.6967 133.733 36.4022C134.142 36.5479 134.455 36.7213 134.635 36.9059C135.81 38.1262 136.706 41.7935 136.706 41.7935Z" fill="#CE364C"/>
<path d="M135.81 40.5949C135.81 40.5949 129.613 39.3691 123.836 43.1928C123.836 43.1928 123.466 39.7216 124.155 37.7122C127.413 35.6574 131.746 35.6967 133.733 36.4022C134.892 37.7233 135.81 40.5949 135.81 40.5949Z" fill="#CFD8DC"/>
<path d="M122.974 44.5978C122.974 44.5978 123.956 40.4252 125.28 39.2498C127.482 37.2949 133.669 36.6232 136.92 37.7986C140.172 38.974 136.92 42.5269 136.92 42.5269C136.92 42.5269 131.737 38.8147 122.974 44.5978Z" fill="#A02E44"/>
<path d="M132.542 72.3252C132.542 72.3252 135.075 76.2482 139.388 78.5561C139.388 78.5561 144.785 73.8722 151.781 74.2937C151.781 74.2937 145.982 84.7557 141.003 85.9145C138.386 86.5231 128.925 80.2579 128.925 80.2579C128.925 80.2579 130.814 73.5989 132.542 72.3252Z" fill="#FF8B66"/>
<path d="M123.215 65.2178C125.533 61.4446 130.88 67.0225 132.7 71.006C134.52 74.99 135.848 75.8346 135.848 75.8346C135.848 75.8346 130.505 78.0664 130.543 82.071C130.543 82.071 118.157 73.4515 123.215 65.2178Z" fill="#ADBEC4"/>
<path d="M139.388 76.8357C139.388 76.8357 142.642 73.6429 153.343 69.4758L151.961 65.1293C153.188 63.5137 155.445 63.5137 155.445 63.5137C155.445 63.5137 160.928 71.2558 159.984 73.5682C159.395 75.0129 147.96 76.5286 139.388 76.8357Z" fill="#EF6E4B"/>
<path d="M151.11 70.5169C151.11 70.5169 151.194 70.0596 151.59 69.5014C151.985 68.9432 151.878 67.9272 152.02 67.612C152.162 67.2974 153.004 66.01 153.562 65.7599C154.121 65.5093 154.854 65.0999 155.01 65.8093C155.166 66.5183 154.009 66.3176 153.49 67.3377C153.49 67.3377 154.626 66.9701 155.528 67.1834C156.429 67.3967 156.685 68.2206 155.571 68.1934C154.682 68.1717 153.538 68.805 153.538 68.805C153.538 68.805 154.696 68.979 154.509 69.513C154.25 70.2507 152.838 69.7964 151.11 70.5169Z" fill="#FF8B66"/>
<path d="M71.9657 85.095C72.9223 87.5441 76.8407 91.7429 76.8407 91.7429C76.8407 91.7429 86.4132 86.0046 90.8294 88.4189C95.2455 90.8332 98.755 92.3061 101.619 91.2548C104.483 90.2034 92.2019 67.8681 92.2019 67.8681L76.279 61.792C76.279 61.792 75.9316 65.8194 74.1123 66.5349C72.293 67.2504 70.3532 73.8983 70.4833 75.1579C70.6128 76.4175 71.9657 85.095 71.9657 85.095Z" fill="#3E6575"/>
<path d="M89.8824 91.8881C89.8824 91.8881 85.7763 99.9368 77.2995 110.244C77.2995 110.244 76.4307 122.502 54.0142 141.788L51.6675 139.942C51.6675 139.942 65.0173 119.03 67.6872 112.619C70.3577 106.207 66.2113 100.333 78.4956 84.1162L89.8824 91.8881Z" fill="#EF6E4B"/>
<path d="M76.8129 77.6494C73.2787 84.4199 72.0922 93.0757 72.0922 93.0757L70.4827 97.1363C70.4827 97.1363 76.1917 100.215 82.7841 101.335L85.4278 94.3373L76.8129 77.6494Z" fill="#662C33"/>
<path d="M95.2486 91.2568C95.2486 91.2568 96.9988 100.121 96.7103 113.464C96.7103 113.464 103.607 123.634 97.9155 152.652H94.9299C94.9299 152.652 92.4909 127.964 90.6247 121.273C88.7585 114.584 81.8675 112.531 81.4944 92.1897L95.2486 91.2568Z" fill="#FF8B66"/>
<path d="M96.9987 100.771C96.9987 100.771 91.3834 101.779 81.4913 101.314L81.3344 100.2L81.2951 99.9149L80.2705 92.7042C80.2705 92.7042 79.319 91.5284 78.3393 89.6137C78.2218 89.3899 78.1098 89.1604 77.9979 88.9194C76.6652 86.081 75.4842 81.9548 76.8109 77.6501L78.899 77.7454L79.1899 77.7621L86.1767 78.0813L86.4732 78.0979L88.7685 78.2043L89.1265 78.2209L90.6155 78.288C90.6155 78.288 98.1846 85.1013 96.8353 97.6977L96.9306 99.45L96.9417 99.7354L96.9987 100.771Z" fill="#8B383E"/>
<path d="M79.1891 77.7578C78.9929 78.3347 77.6718 82.6117 78.3379 89.6095C78.2204 89.3856 78.1085 89.1562 77.9965 88.9152C77.4983 82.5164 78.646 78.5248 78.8976 77.7407C78.9314 77.6454 78.948 77.601 78.948 77.595L79.2112 77.6903C79.2112 77.6963 79.2001 77.719 79.1891 77.7578Z" fill="#662C33"/>
<path d="M96.9401 99.7303C94.9529 100.24 91.5825 100.38 88.3801 100.38C85.5079 100.38 82.7815 100.262 81.3318 100.195L81.2925 99.9098C83.8061 100.033 90.4233 100.291 94.6891 99.8256L94.4148 95.3187C94.4819 90.062 92.892 85.5723 91.3581 82.4707C87.473 81.7652 86.4035 78.8875 86.174 78.0757C86.1402 77.9471 86.1236 77.8685 86.1236 77.8629L86.3979 77.818C86.3979 77.8236 86.4201 77.9244 86.4705 78.0923C86.7226 78.9319 87.7639 81.4345 91.1958 82.151C90.1601 80.13 89.1803 78.7474 88.7663 78.1987C88.6433 78.0308 88.5646 77.9355 88.5591 77.93L88.7719 77.751C88.783 77.7621 88.9121 77.9189 89.1243 78.2154C90.4233 79.9787 94.8066 86.613 94.6947 95.3071L94.969 99.7913C95.7138 99.7016 96.3799 99.5896 96.9285 99.4444L96.9401 99.7303Z" fill="#662C33"/>
<path d="M82.6397 47.2739C80.4115 46.0466 64.355 52.3435 64.355 52.3435C64.355 52.3435 61.9795 56.5806 63.4605 58.2421C64.9414 59.9036 70.1951 59.1709 71.8046 58.2421C73.4142 57.3133 77.6775 56.6104 77.6775 56.6104L82.6397 47.2739Z" fill="#8BBDDB"/>
<path d="M96.8363 33.9074C96.8363 33.9074 100.153 35.1877 101.366 39.0088C102.58 42.83 98.9526 52.5043 100.206 56.9512C101.46 61.3981 101.265 69.7957 97.3501 71.5686C93.4352 73.3416 85.4062 70.1689 83.6827 65.3171C81.9587 60.4653 82.7029 42.0837 86.0163 35.8326C89.3302 29.5805 96.0386 32.729 96.8363 33.9074Z" fill="#F24052"/>
<path d="M93.0252 50.3927C93.9001 51.3356 96.149 49.655 96.149 49.655C96.149 49.655 96.1031 57.9936 93.6797 58.633C91.2563 59.2724 85.0799 52.0642 85.334 50.1053C85.5882 48.1453 91.0854 48.3011 93.0252 50.3927Z" fill="#8BBDDB"/>
<path d="M83.683 48.3074C83.683 48.3074 86.1347 50.3889 90.4051 51.3787C94.676 52.3685 96.9905 50.3606 99.1743 53.1143C102.452 57.2476 97.119 64.8671 94.3129 68.8158C93.2666 70.2877 91.0591 74.3711 90.6128 78.288C90.6128 78.288 83.2025 80.4406 76.8123 77.6461L76.3352 68.5552C76.3358 68.5552 72.3074 56.3036 83.683 48.3074Z" fill="#0E3944"/>
<path d="M91.3447 57.1517C91.3447 57.1517 94.7307 49.0824 95.7114 48.567C96.6922 48.0517 99.1786 49.2886 99.6778 50.3924C100.177 51.4962 99.6778 53.9039 99.6778 53.9039C99.6778 53.9039 97.0073 50.8563 91.3447 57.1517Z" fill="#8BBDDB"/>
<path d="M107.562 91.257C106.023 94.409 102.243 95.3156 102.243 95.3156C102.243 95.3156 101.958 94.8789 101.476 94.0954C101.426 94.0172 101.37 93.9274 101.32 93.8377C98.3465 89.0176 89.2606 73.5939 89.4396 65.5715C89.6469 55.9869 95.8999 50.7246 95.8999 50.7246C99.0741 51.4805 100.077 52.3483 100.077 52.3483C100.077 52.3483 101.146 57.8011 100.166 64.3623C99.1866 70.9179 97.4061 72.6535 98.3021 73.1462C99.1921 73.6333 98.3021 74.613 98.3021 74.613C98.3021 74.613 103.57 81.9522 104.556 84.2364C105.194 85.7255 106.28 88.2562 106.957 89.835C107.002 89.947 107.047 90.0589 107.092 90.1598C107.377 90.8264 107.562 91.257 107.562 91.257Z" fill="#6097B2"/>
<path d="M98.4107 52.3455C98.4107 52.3455 94.639 55.1415 96.8365 59.4134L107.291 70.2369C101.553 76.3513 100.984 78.862 96.8365 81.6807L98.4107 84.1192C98.4107 84.1192 112.938 72.9543 112.96 70.2369C112.969 69.0736 104.086 55.0013 98.4107 52.3455Z" fill="#FF8B66"/>
<path d="M96.6074 81.6775C96.6074 81.6775 94.6146 81.8984 93.3596 82.2125C92.1045 82.5262 90.4315 82.8398 90.379 83.1015C90.3266 83.3627 93.1503 83.1015 93.1503 83.1015C93.1503 83.1015 90.85 84.0464 90.7975 84.4105C90.7451 84.7746 93.7257 84.1473 93.7257 84.1473C93.7257 84.1473 91.8433 85.2975 91.9477 85.6111C92.0521 85.9247 94.3711 85.1406 94.3711 85.1406C94.3711 85.1406 93.94 86.2384 93.4927 86.7613C93.4927 86.7613 93.942 87.0078 94.8531 85.9958C95.7643 84.9833 97.2195 85.3086 98.3717 84.4105C99.5234 83.5119 97.6562 81.5424 96.6074 81.6775Z" fill="#FF8B66"/>
<path d="M85.9255 49.6538C85.9255 49.6538 83.0559 51.5079 81.2437 55.9866C79.4314 60.4653 73.7128 68.8931 72.3731 71.071C71.0333 73.2483 71.9666 85.0984 71.9666 85.0984C71.9666 85.0984 70.287 77.914 69.5407 75.1145C68.7945 72.3154 71.951 65.3983 72.4255 65.0312C72.9 64.6641 75.3259 65.3357 74.8595 62.5276C74.393 59.7195 80.9018 47.6177 82.6394 47.2769C82.6389 47.2769 85.4223 47.7998 85.9255 49.6538Z" fill="#6097B2"/>
<path d="M77.0523 50.2544C77.0019 50.3497 76.9459 50.445 76.8789 50.5343C76.2294 51.4691 75.0202 52.2139 75.0202 52.2139C75.0202 52.2139 72.8313 55.2817 72.8092 55.6347C72.787 55.9372 69.0077 58.6803 67.3286 58.6243H67.323C67.0936 58.6188 66.903 58.5572 66.7689 58.4337C65.7725 57.4933 70.1614 49.5994 71.13 47.8976C71.1915 47.7857 71.242 47.7014 71.2758 47.6455C71.2979 47.6006 71.3151 47.5729 71.3151 47.5729C71.3151 47.5729 70.5426 44.6952 73.7672 45.2327C76.4488 45.6749 76.9807 47.8078 77.2606 49.2353C77.3266 49.5772 77.2313 49.9241 77.0523 50.2544Z" fill="#6097B2"/>
<path d="M65.7913 53.2413C68.0064 50.3293 75.801 44.6818 79.9065 43.0103L80.9326 44.9183C80.9326 44.9183 72.9994 51.893 71.1357 54.8765C69.2721 57.8601 66.9632 59.094 64.7576 58.1007C62.5515 57.1068 65.3254 53.8545 65.7913 53.2413Z" fill="#FF8B66"/>
<path d="M76.2791 49.6576L75.8591 50.1392L75.6463 50.3852L74.952 51.1804C74.952 51.1804 73.2053 53.2967 73.2723 54.1474C73.3228 54.7575 69.958 57.4895 67.3268 58.626C66.2573 59.0904 65.3059 59.2921 64.7517 58.9729C62.8482 57.8757 63.2738 54.5785 64.3544 52.3447C65.2948 50.3963 69.4542 47.8827 70.5237 47.267C70.6579 47.1828 70.7421 47.1329 70.7698 47.1213C70.7753 47.1157 70.7753 47.1157 70.7753 47.1157L71.1727 45.5707C71.1727 45.5707 72.6229 44.6974 73.765 45.2349C73.765 45.2349 71.2458 45.3413 71.6603 46.321C72.0859 47.3058 75.5792 49.6238 76.2791 49.6576Z" fill="#8BBDDB"/>
<path d="M85.4276 41.5767C82.8918 42.618 83.2553 44.9133 80.9323 44.9133C79.4937 44.9133 79.3031 43.2675 79.3031 43.2675C79.9526 41.8621 80.3665 39.466 80.4563 38.3239C80.5516 37.1818 80.9323 37.624 80.9323 37.624C80.9323 37.5176 80.9268 37.4168 80.9212 37.3159C80.8874 36.549 80.7477 35.9892 81.2515 36.3195C81.8223 36.6891 82.0184 38.8614 82.0184 38.8614C82.4889 35.6928 81.789 35.2223 82.3376 35.5021C83.0879 35.8829 83.0935 38.6819 83.0935 38.7661C83.6981 36.9241 83.5357 35.8718 83.9557 36.2918C84.3813 36.7174 83.7429 40.0988 83.4913 41.3418C83.4354 41.6216 83.396 41.7951 83.396 41.7951C85.4054 40.8093 85.4276 41.5767 85.4276 41.5767Z" fill="#FF8B66"/>
<path d="M83.489 41.343C83.4331 41.6229 83.3937 41.7963 83.3937 41.7963C83.3937 41.7963 82.4644 41.7066 81.7872 42.709C81.7872 42.709 81.9773 41.3657 83.489 41.343Z" fill="#EF6E4B"/>
<path d="M81.0719 39.8971C81.0885 39.6284 81.2005 38.0889 80.9322 37.624C80.9322 37.5176 80.9267 37.4168 80.9211 37.3159C81.503 37.4395 81.1339 39.5724 81.0719 39.8971Z" fill="#EF6E4B"/>
<path d="M82.6445 53.259C82.6445 53.259 84.3584 48.6139 84.9035 47.5772C85.4491 46.54 88.2885 46.7179 90.4376 47.1188C92.5866 47.5197 93.0258 50.3969 93.0258 50.3969C93.0258 50.3969 86.4879 47.3114 82.6445 53.259Z" fill="#8BBDDB"/>
<path d="M93.6807 44.1167C93.6807 44.1167 91.6274 47.9081 91.6597 52.1125C91.6597 52.1125 88.3246 54.379 87.1311 51.5401C87.1311 51.5401 88.3978 47.8209 87.7856 42.8001C87.3762 39.4379 93.6807 44.1167 93.6807 44.1167Z" fill="#EF6E4B"/>
<path d="M87.1305 38.8541C87.1305 38.8541 86.5203 36.6808 85.4342 38.2087C84.1761 39.9786 85.4584 41.699 86.1295 41.2886C86.8007 40.8781 87.1305 38.8541 87.1305 38.8541Z" fill="#FF8B66"/>
<path d="M96.8252 44.4457C96.8252 44.4457 99 43.8406 98.2568 45.5611C97.3955 47.5544 95.2596 47.3501 95.2626 46.5635C95.2656 45.7774 96.8252 44.4457 96.8252 44.4457Z" fill="#FF8B66"/>
<path d="M88.0185 48.3335C84.929 46.5939 84.3219 43.5941 87.7301 37.5417C89.4878 34.42 92.1548 33.3994 95.6149 35.3478C99.0755 37.2967 99.4542 40.0317 97.6964 43.1539C94.0341 49.6571 91.2098 50.1306 88.0185 48.3335Z" fill="#FF8B66"/>
<path d="M95.459 44.7343C95.3385 45.0751 94.8948 45.2294 94.4682 45.0786C94.0416 44.9279 93.794 44.529 93.9145 44.1877C94.035 43.8468 94.4788 43.6925 94.9053 43.8438C95.3319 43.9945 95.5795 44.3934 95.459 44.7343Z" fill="#DB614D"/>
<path d="M89.0109 41.3258C88.8132 41.6289 88.3458 41.6742 87.9671 41.4272C87.5884 41.1801 87.4412 40.7338 87.6389 40.4313C87.8365 40.1282 88.304 40.0829 88.6826 40.3299C89.0618 40.5765 89.2086 41.0228 89.0109 41.3258Z" fill="#DB614D"/>
<path d="M95.8991 40.8194C95.82 40.8194 95.7479 40.7659 95.7277 40.6857C95.5527 39.9964 94.7888 39.5905 94.7812 39.587C94.6945 39.5416 94.6607 39.4347 94.7061 39.348C94.751 39.2613 94.8574 39.2275 94.9451 39.2729C94.9824 39.292 95.8578 39.7579 96.0711 40.599C96.0953 40.6938 96.0378 40.7901 95.943 40.8143C95.9279 40.8173 95.9132 40.8194 95.8991 40.8194Z" fill="#1A4850"/>
<path d="M91.6584 37.8049C91.6271 37.8049 91.5959 37.7969 91.5671 37.7797C91.5596 37.7752 90.8153 37.333 90.1361 37.5402C90.0418 37.569 89.9435 37.516 89.9147 37.4222C89.8865 37.3289 89.9389 37.2296 90.0327 37.2009C90.8637 36.9462 91.7149 37.4545 91.7507 37.4762C91.8344 37.5266 91.8611 37.6355 91.8102 37.7192C91.7769 37.7747 91.7184 37.8049 91.6584 37.8049Z" fill="#1A4850"/>
<path d="M94.6245 42.292C94.4082 42.6757 94.0603 42.8895 93.8475 42.769C93.6342 42.649 93.6367 42.2406 93.8525 41.8568C94.0683 41.4731 94.4168 41.2593 94.6296 41.3793C94.8429 41.4998 94.8408 41.9078 94.6245 42.292Z" fill="#1A4850"/>
<path d="M90.294 39.9634C90.0781 40.3471 89.7302 40.5609 89.5169 40.4404C89.3036 40.3204 89.3062 39.9124 89.522 39.5287C89.7378 39.145 90.0857 38.9312 90.299 39.0512C90.5123 39.1712 90.5098 39.5796 90.294 39.9634Z" fill="#1A4850"/>
<path d="M88.793 43.9026C88.793 43.9026 90.5654 45.255 91.8461 45.2963C91.8461 45.2963 90.4842 46.4056 89.505 45.6861C88.5262 44.9665 88.793 43.9026 88.793 43.9026Z" fill="#1A4850"/>
<path d="M93.6947 41.5135C93.6947 41.5135 94.508 40.7269 94.8413 41.0037C95.1741 41.2805 95.0002 42.2487 95.0002 42.2487L95.7122 42.2668L95.1237 42.0298C95.1237 42.0298 95.3133 41.0249 94.9472 40.8166C94.4258 40.5196 93.6947 41.5135 93.6947 41.5135Z" fill="#1A4850"/>
<path d="M90.6282 39.9422C90.6282 39.9422 90.8788 38.839 90.4694 38.6978C90.0599 38.5566 89.3227 39.2076 89.3227 39.2076L88.938 38.608L89.4463 38.9887C89.4463 38.9887 90.2072 38.3055 90.5753 38.5102C91.0992 38.8022 90.6282 39.9422 90.6282 39.9422Z" fill="#1A4850"/>
<path d="M96.4385 36.6417C96.4385 36.6417 95.3317 35.1037 93.8034 36.325C92.275 37.5463 88.8275 39.5007 87.1318 38.8548C85.4355 38.2093 90.842 30.9836 95.5359 33.0994C100.23 35.2157 99.8074 42.1036 97.8549 44.2935C95.9025 46.4834 96.8263 44.4433 96.8263 44.4433C96.8263 44.4433 96.9569 41.3361 97.6089 39.2773C98.2614 37.218 96.4385 36.6417 96.4385 36.6417Z" fill="#F24052"/>
<path d="M91.2331 43.2039C91.1474 43.2039 91.0576 43.1923 90.9653 43.1691L91.0596 42.7985C91.3753 42.8787 91.5306 42.743 91.6047 42.6155C91.7101 42.435 91.6955 42.2025 91.6118 42.1153C91.5629 42.0643 91.4797 42.0699 91.3627 42.1309L91.1857 41.792C91.5745 41.5883 91.8069 41.7653 91.8886 41.8515C92.0989 42.0724 92.1195 42.4924 91.935 42.8081C91.7847 43.0647 91.5326 43.2039 91.2331 43.2039Z" fill="#DB614D"/>
<path d="M113.861 69.8065C113.677 72.5219 106.959 81.3617 105.839 81.6748C105.548 81.753 105.251 81.9153 104.971 82.106C104.854 82.1902 104.736 82.2794 104.624 82.3692C103.986 82.884 103.505 83.4775 103.505 83.4775C101.545 83.3489 96.0421 80.8015 97.8114 80.2418C97.9178 80.208 98.0353 80.1465 98.1639 80.0572C98.2365 80.0068 98.3152 79.9508 98.3933 79.8782C100.476 78.1315 104.529 71.0439 104.557 70.5064C104.579 69.9185 105.279 69.8065 105.279 69.8065C105.279 69.8065 101.456 64.1913 99.2384 63.5141C97.0213 62.8369 95.9019 60.1554 95.9019 60.1554C93.713 50.8899 100.078 52.3457 100.078 52.3457C104.77 55.1387 114.046 67.0856 113.861 69.8065Z" fill="#8BBDDB"/>
<path d="M104.972 82.1047C104.854 82.1889 104.737 82.2781 104.625 82.3679C101.618 82.1607 99.0992 80.6827 98.1643 80.056C98.2369 80.0055 98.3156 79.9496 98.3937 79.877C99.3957 80.5315 101.96 81.9927 104.972 82.1047Z" fill="#3E6575"/>
<path d="M77.0504 50.257C76.9999 50.3523 76.944 50.4476 76.8769 50.5368C76.4458 50.5202 76.0373 50.4698 75.645 50.3855C73.6578 49.9827 72.1295 48.8683 71.127 47.8996C70.8976 47.6758 70.6959 47.463 70.5225 47.2668C70.6566 47.1826 70.7408 47.1327 70.7685 47.1211C70.9143 47.2835 71.0822 47.4625 71.2723 47.6475C72.2687 48.6273 73.8197 49.7694 75.8573 50.139C76.2385 50.2126 76.6359 50.2514 77.0504 50.257Z" fill="#3E6575"/>
<path d="M107.093 90.1548C106.169 91.717 104.462 93.6033 101.478 94.0904C101.428 94.0123 101.372 93.9225 101.321 93.8327C104.383 93.3734 106.08 91.3862 106.959 89.8301C107.003 89.9425 107.048 90.054 107.093 90.1548Z" fill="#3E6575"/>
<path d="M56.1415 141.097C56.1415 141.097 55.4416 141.786 54.714 143.051C53.9864 144.316 54.7866 145.481 51.2655 148.414C51.2655 148.414 44.1612 144.254 40.9532 138.908C40.9532 138.908 41.0092 137.38 42.5598 137.021C43.3938 136.83 45.6891 137.905 47.8951 138.32C48.2088 138.376 48.5219 138.426 48.83 138.449C49.2162 138.482 49.5969 138.488 49.961 138.443C50.2968 138.409 50.616 138.337 50.9125 138.214H50.918C51.6684 137.905 52.2618 137.295 52.5694 136.226C52.5694 136.226 54.4558 137.301 53.1962 139.121C53.1967 139.12 55.436 138.14 56.1415 141.097Z" fill="#CFD8DC"/>
<path d="M51.2655 148.413C51.2655 148.413 44.1612 144.253 40.9532 138.907C40.9532 138.907 42.1458 138.655 43.1311 140.424C44.1163 142.198 51.8423 146.224 51.2655 148.413Z" fill="#ADBEC4"/>
<path d="M51.2947 140.001C50.7184 140.913 50.7295 139.228 49.9625 138.439C50.2983 138.405 50.6175 138.332 50.914 138.209H50.9196C51.2609 138.579 51.748 139.29 51.2947 140.001Z" fill="#ADBEC4"/>
<path d="M49.0604 140.056C48.4503 140.633 48.2541 139.127 47.8961 138.321C48.2098 138.377 48.5229 138.427 48.831 138.449C49.189 138.937 49.5253 139.614 49.0604 140.056Z" fill="#ADBEC4"/>
<path d="M99.848 159.552H89.799C89.799 159.552 89.379 158.152 89.799 156.613C89.978 155.947 91.0192 155.325 91.9879 154.457C92.2566 154.217 92.5143 153.965 92.7548 153.679C92.9454 153.455 93.1189 153.209 93.2641 152.946C93.4487 152.627 93.5944 152.28 93.6786 151.899C93.841 151.138 93.7795 150.242 93.3428 149.167C93.3428 149.167 96.7636 148.451 97.9838 150.315C97.9838 150.315 98.1013 149.453 99.1874 150.03C99.1874 150.03 99.0306 151.76 99.2434 153.209C99.4562 154.653 100.806 155.074 99.848 159.552Z" fill="#CFD8DC"/>
<path d="M97.2328 153.502C97.1431 153.603 97.02 153.654 96.897 153.654C96.7906 153.654 96.6897 153.62 96.6 153.553C96.0796 153.138 94.932 152.495 93.2634 152.948C93.448 152.629 93.5937 152.282 93.6779 151.902C94.3496 151.655 95.6147 151.51 97.1768 152.842C97.3785 153.01 97.4068 153.306 97.2328 153.502Z" fill="#ADBEC4"/>
<path d="M96.3879 155.17L96.332 155.254C96.1978 155.461 95.9291 155.528 95.7163 155.405C95.033 155.002 93.4991 154.241 91.9879 154.459C92.2567 154.219 92.5143 153.967 92.7549 153.681C93.4996 153.508 94.9044 153.413 96.2876 154.56C96.4666 154.711 96.5165 154.974 96.3879 155.17Z" fill="#ADBEC4"/>
</svg>
