<svg width="56" height="54" viewBox="0 0 56 54" fill="none" xmlns="http://www.w3.org/2000/svg">
<path d="M36.1531 38.8034V12.8553H35.5838V9.99394C35.5781 9.63754 35.5254 9.41226 35.3639 9.04801C35.3238 8.9561 35.2654 8.85411 35.1989 8.75324V7.72101C35.1989 7.72101 35.1978 6.90957 34.8553 6.29875C34.483 5.63189 33.7602 5.26764 33.4085 5.12306C33.3272 5.08495 33.2745 5.06814 33.2642 5.0659L33.2057 5.04685L33.1324 5.0659C33.0969 5.07599 32.5253 5.25307 31.9823 5.97709C31.4898 6.64283 31.4726 7.49349 31.468 7.72886C31.468 7.76808 31.4692 7.7905 31.4692 7.79274V8.7454C31.4039 8.83954 31.3122 8.98188 31.2114 9.19259C31.0614 9.5546 31.0499 9.89083 31.0453 10.0937V12.8553H30.4737V22.3281L28.9055 20.7948V18.0915L28.374 16.3465L27.5962 10.3604L27.0223 16.0954L26.4885 18.0927V20.5976L24.9364 22.1162V12.8553H24.3671V9.99394C24.3613 9.63754 24.3098 9.41226 24.1483 9.04801C24.107 8.9561 24.0486 8.85411 23.9833 8.75324V7.72101C23.9833 7.72101 23.981 6.90957 23.6397 6.29875C23.2662 5.63189 22.5434 5.26764 22.1918 5.12306C22.1104 5.08495 22.0577 5.06814 22.0474 5.0659L21.989 5.04685L21.9168 5.0659C21.8813 5.07599 21.3097 5.25307 20.7656 5.97709C20.2731 6.64283 20.2559 7.49349 20.2524 7.72886C20.2524 7.76808 20.2524 7.7905 20.2524 7.79274V8.7454C20.1871 8.83954 20.0955 8.98188 19.9958 9.19259C19.8446 9.5546 19.8343 9.89083 19.8286 10.0937V12.8553H19.257V38.8034H5.32199C3.37235 35.292 2.26122 31.2707 2.26122 26.9927C2.26122 20.147 5.09633 13.9525 9.68062 9.46494C14.2672 4.9796 20.5984 2.20568 27.5951 2.20568C34.5918 2.20568 40.9241 4.9796 45.5096 9.46494C50.0938 13.9525 52.9301 20.147 52.9301 26.9927C52.9301 31.2707 51.819 35.292 49.8693 38.8034H36.1531ZM35.4589 38.8034H30.9434V32.9227H35.4589V38.8034ZM35.4589 32.5417H30.9434V29.0639H35.4589V32.5417ZM35.4589 28.684H30.9434V23.3547H35.4589V28.684ZM34.066 20.741V22.9736H32.3409V20.7377C32.3409 20.3073 32.5013 19.9587 32.7579 19.7189C32.885 19.6001 33.0351 19.5127 33.2023 19.4477H33.2046C33.3741 19.5127 33.5219 19.6001 33.6491 19.7189C33.9056 19.9587 34.066 20.3073 34.066 20.7377V20.741ZM35.4589 18.4961V22.9736H34.4555V20.7377C34.4566 20.2132 34.2539 19.757 33.9171 19.4432C33.7373 19.2739 33.523 19.1495 33.2871 19.0688C33.2768 19.0644 33.2023 19.0419 33.2023 19.0419C33.2023 19.0419 33.1324 19.0644 33.1256 19.0677C32.8884 19.1473 32.6708 19.2739 32.4887 19.4432C32.1519 19.757 31.9503 20.2143 31.9514 20.7377V22.9736H30.9434V18.4961H35.4589ZM33.9778 16.5314V18.1162H32.4302V16.5314C32.4348 15.9184 32.743 15.4947 33.2023 15.2952C33.6628 15.4936 33.9721 15.9184 33.9778 16.5314ZM35.4589 14.5947V18.1162H34.3661V16.5314C34.3673 16.0058 34.168 15.5608 33.8415 15.256C33.6639 15.0912 33.4532 14.9668 33.2195 14.8884C33.2046 14.8839 33.2057 14.8828 33.2057 14.8828C33.2057 14.8828 33.2023 14.8839 33.1886 14.8884C32.9537 14.9668 32.7418 15.0912 32.5666 15.256C32.2389 15.5608 32.0396 16.0058 32.0408 16.5314V18.1162H30.9434V14.5947H35.4589ZM35.4589 14.2137H30.9434V13.3103H35.4589V14.2137ZM32.1152 9.35062C32.2195 9.59943 32.2367 9.87066 32.2389 10.0612L32.2435 12.8553H31.5161V10.0578C31.5207 9.87066 31.5413 9.614 31.6502 9.35286C31.7303 9.18474 31.8071 9.04464 31.8735 8.94938C31.956 9.06818 32.035 9.1825 32.1152 9.35062ZM33.7613 10.0802L33.7602 12.8553H32.6456C32.6445 12.0808 32.6444 10.078 32.6444 10.078C32.6536 9.89531 32.6674 9.64426 32.8014 9.38648C32.9423 9.11525 33.2069 8.95386 33.2069 8.95386H33.208C33.208 8.95386 33.4589 9.11525 33.5998 9.38648C33.7407 9.65883 33.7533 9.89419 33.7613 10.0802ZM34.5322 8.95274C34.6021 9.04801 34.6754 9.18698 34.7545 9.3551C34.8633 9.61736 34.8931 9.8729 34.8965 10.0612V12.8553H34.1622V10.0612C34.1657 9.87066 34.2 9.60279 34.3043 9.35286C34.3936 9.15672 34.4646 9.04465 34.5322 8.95274ZM31.9594 7.5641C31.9789 7.25253 32.066 6.66188 32.3741 6.25952C32.6089 5.94683 32.8415 5.7619 33.0122 5.6543C33.09 5.60387 33.1531 5.57361 33.1989 5.55231C33.2447 5.57361 33.3077 5.60387 33.3856 5.6543C33.5551 5.7619 33.7888 5.94683 34.0236 6.25952C34.3318 6.66188 34.4177 7.25253 34.4372 7.5641H31.9594ZM34.4417 7.94516V8.15363C34.4349 8.1951 34.4234 8.25786 34.4016 8.31614C34.365 8.41141 34.2745 8.56271 34.1531 8.74764C34.1073 8.82049 34.0271 8.94265 33.9377 9.11862C33.8232 8.94489 33.7258 8.8317 33.6559 8.75997C33.5803 8.68151 33.4784 8.58064 33.3959 8.48538C33.2149 8.27691 33.2057 8.15139 33.2057 8.15139C33.2057 8.15139 33.2 8.27691 33.019 8.48538C32.9354 8.58064 32.8346 8.68151 32.7579 8.75997C32.688 8.83282 32.5895 8.94826 32.4726 9.12422C32.381 8.94378 32.2985 8.81937 32.2515 8.74428C32.1313 8.55935 32.0408 8.40805 32.0041 8.31278C31.9686 8.22088 31.9572 8.1144 31.956 8.10544V7.94516H34.4417ZM30.4737 38.8034H24.7038V32.9227H30.4737V38.8034ZM26.524 29.0639V31.3043H28.6696V29.0639H30.4737V32.5417H24.7038V29.0639H26.524ZM30.4737 26.1734V28.684H28.6696V28.0552C28.6696 27.4769 28.1896 27.0062 27.5962 27.0062C27.004 27.0062 26.524 27.4769 26.524 28.0552V28.684H24.7038V26.1734H30.4737ZM30.4737 25.5077H24.7038V23.3547H30.4737V25.5077ZM27.5962 20.1605L30.4714 22.9736H24.7222L27.5962 20.1605ZM26.9948 18.0781L27.4485 16.1772L27.6363 12.9999L27.7463 16.1761L28.1999 18.0781H26.9948ZM28.2171 18.5342V20.1213L27.5962 19.5138L26.9765 20.1201V18.5342H28.2171ZM24.2434 38.8034H19.7278V32.9227H24.2434V38.8034ZM24.2434 32.5417H19.7278V29.0639H24.2434V32.5417ZM24.2434 28.684H19.7278V23.3547H24.2434V28.684ZM22.8504 20.741V22.9736H21.1242V20.7377C21.1242 20.3073 21.2857 19.9587 21.5411 19.7189C21.6683 19.6001 21.8183 19.5127 21.9867 19.4477H21.9879C22.1574 19.5127 22.3052 19.6001 22.4312 19.7189C22.6889 19.9587 22.8493 20.3073 22.8493 20.7377L22.8504 20.741ZM24.2434 18.4961V22.9736H23.2399V20.7377C23.2399 20.2132 23.0383 19.757 22.7004 19.4432C22.5205 19.2739 22.3063 19.1495 22.0715 19.0688C22.06 19.0644 21.9856 19.0419 21.9856 19.0419C21.9856 19.0419 21.9157 19.0644 21.9088 19.0677C21.6717 19.1473 21.4541 19.2739 21.2731 19.4432C20.9352 19.757 20.7335 20.2143 20.7347 20.7377V22.9736H19.7267V18.4961H24.2434ZM22.7611 16.5314V18.1162H21.2135V16.5314C21.2192 15.9184 21.5274 15.4947 21.9867 15.2952C22.4472 15.4936 22.7554 15.9184 22.7611 16.5314ZM24.2434 14.5947V18.1162H23.1494V16.5314C23.1505 16.0058 22.9524 15.5608 22.6236 15.256C22.4484 15.0912 22.2364 14.9668 22.0028 14.8884C21.9879 14.8839 21.989 14.8828 21.989 14.8828C21.989 14.8828 21.9867 14.8839 21.9718 14.8884C21.7381 14.9668 21.5262 15.0912 21.3498 15.256C21.0222 15.5608 20.8229 16.0058 20.824 16.5314V18.1162H19.7267V14.5947H24.2434ZM24.2434 14.2137H19.7278V13.3103H24.2434V14.2137ZM20.8985 9.35062C21.0027 9.59943 21.0211 9.87066 21.0234 10.0612L21.0268 12.8553H20.3005V10.0578C20.304 9.87066 20.3257 9.614 20.4334 9.35286C20.5148 9.18474 20.5915 9.04464 20.6568 8.94938C20.7404 9.06818 20.8183 9.1825 20.8985 9.35062ZM22.5446 10.0802L22.5434 12.8553H21.4289C21.4289 12.0808 21.4277 10.078 21.4277 10.078C21.4369 9.89531 21.4518 9.64426 21.5847 9.38648C21.7255 9.11525 21.9902 8.95386 21.9902 8.95386H21.9913C21.9913 8.95386 22.2433 9.11525 22.3831 9.38648C22.524 9.65883 22.5366 9.89419 22.5446 10.0802ZM23.3155 8.95274C23.3854 9.04801 23.4587 9.18698 23.5389 9.3551C23.6477 9.61736 23.6763 9.8729 23.6809 10.0612V12.8553H22.9455C22.9455 12.24 22.9455 10.8872 22.9455 10.0612C22.9489 9.87066 22.9833 9.60279 23.0875 9.35286C23.1769 9.15672 23.2491 9.04465 23.3155 8.95274ZM20.7439 7.5641C20.7633 7.25253 20.8492 6.66188 21.1585 6.25952C21.3934 5.94683 21.6259 5.7619 21.7954 5.6543C21.8745 5.60387 21.9363 5.57361 21.9821 5.55231C22.028 5.57361 22.091 5.60387 22.1689 5.6543C22.3384 5.7619 22.5721 5.94683 22.8069 6.25952C23.115 6.66188 23.2021 7.25253 23.2216 7.5641H20.7439ZM23.225 7.94516V8.15363C23.2193 8.1951 23.2078 8.25786 23.1861 8.31614C23.1483 8.41141 23.0578 8.56271 22.9375 8.74764C22.8917 8.82049 22.8115 8.94265 22.7221 9.11862C22.6064 8.94489 22.5091 8.8317 22.4403 8.75997C22.3636 8.68151 22.2628 8.58064 22.1792 8.48538C21.9993 8.27691 21.989 8.15139 21.989 8.15139C21.989 8.15139 21.9833 8.27691 21.8034 8.48538C21.7198 8.58064 21.6179 8.68151 21.5423 8.75997C21.4724 8.83282 21.3739 8.94826 21.2559 9.12422C21.1643 8.94378 21.0818 8.81937 21.036 8.74428C20.9145 8.55935 20.824 8.40805 20.7874 8.31278C20.753 8.222 20.7404 8.11776 20.7393 8.10656V7.94516H23.225ZM49.2863 39.8032H5.90505C5.7779 39.6003 5.65648 39.393 5.5362 39.1856H49.6551C49.5348 39.393 49.4123 39.6003 49.2863 39.8032ZM47.5841 42.2229C47.2908 41.6166 46.6596 41.1963 45.9277 41.1963C44.915 41.1963 44.0949 41.9988 44.0949 42.9906V43.5701H43.4305V42.9906C43.4305 41.9988 42.6103 41.1963 41.5977 41.1963C40.5851 41.1963 39.7637 41.9988 39.7637 42.9906V43.5701H39.0993V42.9906C39.0993 41.9988 38.278 41.1963 37.2665 41.1963C36.2528 41.1963 35.4326 41.9988 35.4326 42.9906V43.5701H34.7694V42.9906C34.7694 41.9988 33.948 41.1963 32.9354 41.1963C31.9228 41.1963 31.1015 41.9988 31.1015 42.9906V43.5701H30.4176C30.2091 42.2274 29.027 41.1963 27.5962 41.1963C26.1655 41.1963 24.9845 42.2274 24.776 43.5701H24.0715V42.9906C24.0715 41.9988 23.2502 41.1963 22.2387 41.1963C21.225 41.1963 20.4036 41.9988 20.4036 42.9906V43.5701H19.7404V42.9906C19.7404 41.9988 18.9202 41.1963 17.9064 41.1963C16.8938 41.1963 16.0737 41.9988 16.0737 42.9906V43.5701H15.4093V42.9906C15.4093 41.9988 14.5879 41.1963 13.5765 41.1963C12.5627 41.1963 11.7425 41.9988 11.7425 42.9906V43.5701H11.0781V42.9906C11.0781 41.9988 10.2579 41.1963 9.24533 41.1963C8.51908 41.1963 7.89249 41.6099 7.59466 42.2083C7.14792 41.6468 6.72752 41.0652 6.33003 40.4667H48.8613C48.4604 41.0696 48.0354 41.6569 47.5841 42.2229ZM45.5096 44.5205C41.5576 48.3872 36.3078 50.9795 30.4531 51.6228V48.7873H31.523C33.507 48.7873 34.9412 48.6259 34.9412 48.6259C34.9412 48.6259 33.4646 48.4062 31.523 48.4062H30.4531V44.2369H31.7326V44.2291V42.9906C31.7326 42.2756 32.326 41.695 33.0568 41.695C33.7888 41.695 34.3822 42.2756 34.3822 42.9906V44.2369H36.0626V44.2291H36.0638V42.9906C36.0638 42.2756 36.6571 41.695 37.388 41.695C38.1199 41.695 38.7122 42.2756 38.7122 42.9906V44.2369H40.3949V44.2291V42.9906C40.3949 42.2756 40.9871 41.695 41.7191 41.695C42.4511 41.695 43.0444 42.2756 43.0444 42.9906V44.2369H44.7249V44.2291V42.9906C44.7249 42.2756 45.3183 41.695 46.0502 41.695C46.631 41.695 47.1224 42.0604 47.3011 42.5692C46.7387 43.2495 46.1419 43.9018 45.5096 44.5205ZM29.1117 46.548C28.933 47.2048 28.3236 47.69 27.5962 47.69C26.87 47.69 26.2606 47.2048 26.0819 46.548H29.1117ZM27.1655 45.2524C27.2858 45.5807 27.6054 45.8172 27.9834 45.8172C28.3924 45.8172 28.7326 45.5404 28.8265 45.1672C29.0797 45.1784 29.3328 45.2512 29.5848 45.4575C29.8265 45.6558 29.9205 45.9977 29.9537 46.1658H25.2388C25.272 45.9977 25.3671 45.6558 25.6088 45.4575C26.1254 45.0338 26.6523 45.1728 27.1655 45.2524ZM26.5515 41.7264L27.0647 42.4448L27.5894 41.4709L28.114 42.4448L28.6272 41.7264L28.4233 42.9738H26.7554L26.5515 41.7264ZM26.7944 43.3549H28.3992C28.4611 43.4995 28.6146 43.8648 28.7085 44.0756C28.7738 44.2224 28.8574 44.3804 28.7555 44.5418C28.6341 44.7335 28.4748 44.7065 28.3637 44.6976C28.358 44.6965 28.3511 44.6976 28.3442 44.6965C28.232 44.9957 27.941 45.2109 27.5962 45.2109C27.2514 45.2109 26.9616 44.9957 26.8494 44.6965C26.8425 44.6976 26.8356 44.6965 26.8299 44.6976C26.7176 44.7065 26.5596 44.7335 26.4381 44.5418C26.3362 44.3804 26.4198 44.2224 26.4851 44.0756C26.579 43.8648 26.7325 43.4995 26.7944 43.3549ZM29.5459 51.708C28.9021 51.7562 28.2526 51.7809 27.5951 51.7809C26.9399 51.7809 26.2904 51.7562 25.6466 51.7091L25.1678 48.7873H25.721C25.5824 48.4667 25.3442 47.9064 25.2514 47.6788C25.1025 47.3135 25.2136 47.0714 25.4622 46.9772C25.7039 46.8853 25.9765 47.0153 26.0624 47.3269L26.3041 48.2146H26.6569V48.7873V48.9016H25.823V49.2827H27.0441L27.0464 48.7873H28.5275L28.5264 48.2146H28.8803L29.1243 47.3269C29.2102 47.0153 29.4863 46.8853 29.7292 46.9772C29.9789 47.0714 30.09 47.3135 29.9411 47.6788C29.901 47.7786 29.8357 47.9422 29.7647 48.1204L29.4348 48.9016H28.5436V49.2827H29.6948L29.9044 48.7873H30.0247L29.5459 51.708ZM24.7405 48.4062H23.5721V48.7873H24.7405V51.6228C18.8847 50.9806 13.6337 48.3872 9.68062 44.5205C9.1136 43.9646 8.57292 43.384 8.06203 42.7788C8.16512 42.1635 8.70923 41.695 9.36675 41.695C10.0987 41.695 10.6909 42.2756 10.6909 42.9906V44.2369H12.3725V44.2291H12.3737V42.9906C12.3737 42.2756 12.9659 41.695 13.6979 41.695C14.4299 41.695 15.0232 42.2756 15.0232 42.9906V44.2369H16.7037V44.2291V42.9906C16.7037 42.2756 17.297 41.695 18.029 41.695C18.7598 41.695 19.3544 42.2756 19.3544 42.9906V44.2369H21.0348V44.2291V42.9906C21.0348 42.2756 21.6282 41.695 22.3602 41.695C23.0921 41.695 23.6843 42.2756 23.6843 42.9906V44.2369H24.7405V48.4062ZM27.5951 1.75737C13.3508 1.75737 1.80302 13.0559 1.80302 26.9927C1.80302 40.9295 13.3508 52.2281 27.5951 52.2281C41.8405 52.2281 53.3872 40.9295 53.3872 26.9927C53.3872 13.0559 41.8405 1.75737 27.5951 1.75737ZM28.0132 43.9702H28.2354V43.5891H27.7051V44.4331H28.0143L28.0132 43.9702ZM8.5649 8.37891C3.69309 13.1456 0.681573 19.7267 0.681573 27.0006C0.681573 34.2733 3.69309 40.8545 8.5649 45.6211C13.4356 50.3866 20.1619 53.3331 27.5951 53.3331C35.0294 53.3331 41.7558 50.3866 46.6276 45.6211C51.4982 40.8545 54.5097 34.2733 54.5097 27.0006C54.5097 19.7267 51.4982 13.1456 46.6276 8.37891C41.7558 3.61337 35.0294 0.666861 27.5951 0.666861C20.1619 0.666861 13.4356 3.61337 8.5649 8.37891ZM0 27.0006C0 12.0875 12.3554 0 27.5951 0C42.8371 0 55.1913 12.0875 55.1913 27.0006C55.1913 41.9113 42.8371 54 27.5951 54C12.3554 54 0 41.9113 0 27.0006ZM33.2023 3.82072C32.9354 3.82072 32.7189 4.03255 32.7189 4.29369C32.7189 4.55483 32.9354 4.76665 33.2023 4.76665C33.4692 4.76665 33.6857 4.55483 33.6857 4.29369C33.6857 4.03255 33.4692 3.82072 33.2023 3.82072ZM33.5815 35.5521V34.4313C33.5815 34.2217 33.4085 34.0525 33.1954 34.0525C32.9801 34.0525 32.8071 34.2217 32.8071 34.4313V35.5521H33.5815ZM33.4406 31.3043V30.0423C33.4406 29.9112 33.334 29.807 33.2012 29.807C33.0694 29.807 32.9618 29.9112 32.9618 30.0423V31.3043H33.4406ZM33.4406 27.5015V26.2384C33.4406 26.1095 33.334 26.0042 33.2012 26.0042C33.0694 26.0042 32.9618 26.1095 32.9618 26.2384V27.5015H33.4406ZM33.6491 17.4258V16.453C33.6456 16.0988 33.4681 15.8545 33.2035 15.7401C32.9377 15.8545 32.7601 16.0999 32.7579 16.453V17.4258H33.6491ZM33.6491 22.2687V20.7612C33.6456 20.4082 33.4681 20.1638 33.2035 20.0495C32.9377 20.1638 32.7601 20.4082 32.7579 20.7612V22.2687H33.6491ZM21.9856 3.82072C21.7187 3.82072 21.5022 4.03255 21.5022 4.29369C21.5022 4.55483 21.7187 4.76665 21.9856 4.76665C22.2525 4.76665 22.469 4.55483 22.469 4.29369C22.469 4.03255 22.2525 3.82072 21.9856 3.82072ZM22.3659 35.5521V34.4313C22.3659 34.2217 22.1918 34.0525 21.9776 34.0525C21.7645 34.0525 21.5915 34.2217 21.5915 34.4313V35.5521H22.3659ZM22.2238 31.3043V30.0423C22.2238 29.9112 22.1173 29.807 21.9844 29.807C21.8527 29.807 21.745 29.9112 21.745 30.0423V31.3043H22.2238ZM22.2238 27.5015V26.2384C22.2238 26.1095 22.1173 26.0042 21.9844 26.0042C21.8527 26.0042 21.745 26.1095 21.745 26.2384V27.5015H22.2238ZM22.4323 17.4258V16.453C22.43 16.0988 22.2525 15.8545 21.9867 15.7401C21.721 15.8545 21.5446 16.0999 21.5411 16.453V17.4258H22.4323ZM22.4323 22.2687V20.7612C22.43 20.4082 22.2525 20.1638 21.9867 20.0495C21.721 20.1638 21.5446 20.4082 21.5411 20.7612V22.2687H22.4323ZM22.7256 48.1272C22.4587 48.1272 22.2433 48.339 22.2433 48.6001C22.2433 48.8624 22.4587 49.0731 22.7256 49.0731C22.9936 49.0731 23.2101 48.8624 23.2101 48.6001C23.2101 48.339 22.9936 48.1272 22.7256 48.1272ZM27.3534 22.2507H27.8402V21.2263H27.3534V22.2507ZM27.5962 9.05137C27.3293 9.05137 27.1128 9.2632 27.1128 9.52434C27.1128 9.78548 27.3293 9.9973 27.5962 9.9973C27.8643 9.9973 28.0808 9.78548 28.0808 9.52434C28.0808 9.2632 27.8643 9.05137 27.5962 9.05137ZM29.3042 35.8356V34.503C29.3042 34.2542 29.098 34.0525 28.8437 34.0525C28.5894 34.0525 28.382 34.2542 28.382 34.503V35.8356H29.3042ZM26.8104 35.8356V34.503C26.8104 34.2542 26.6042 34.0525 26.3499 34.0525C26.0956 34.0525 25.8883 34.2542 25.8883 34.503V35.8356H26.8104ZM41.2323 46.8181C41.1968 46.8181 41.1441 46.8158 41.112 46.8102C41.0478 46.799 41.0444 46.7811 41.0329 46.7206C41.0215 46.6264 41.0215 46.4449 41.0215 46.2274V45.8273C41.0215 45.4821 41.0215 45.4182 41.0272 45.3476C41.0364 45.2681 41.0444 45.2546 41.1017 45.2423C41.1292 45.2367 41.1452 45.2344 41.1693 45.2344C41.1933 45.2344 41.2265 45.221 41.2265 45.1885C41.2208 45.1515 41.1876 45.1515 41.1578 45.1504C41.065 45.1504 40.9092 45.156 40.8497 45.156C40.7821 45.156 40.6183 45.1504 40.5278 45.1504C40.4911 45.1515 40.4579 45.1504 40.451 45.1885C40.451 45.221 40.4842 45.2344 40.5094 45.2344C40.5381 45.2344 40.5667 45.2367 40.5908 45.2445C40.6366 45.2613 40.6515 45.2725 40.6584 45.3476C40.6618 45.4182 40.6618 45.4821 40.6618 45.8273V46.2274C40.6618 46.4449 40.6618 46.6264 40.6503 46.7183C40.64 46.7856 40.6332 46.8024 40.5954 46.8114C40.5747 46.8158 40.5484 46.8181 40.514 46.8181C40.4785 46.8181 40.4568 46.8405 40.4568 46.8618C40.4579 46.8965 40.4923 46.9044 40.5232 46.9044C40.6183 46.9044 40.7832 46.8977 40.8359 46.8977C40.9012 46.8977 41.065 46.9044 41.2242 46.9044C41.2517 46.9044 41.2872 46.8977 41.2895 46.8618C41.2895 46.8371 41.2643 46.8181 41.2323 46.8181ZM39.7763 46.8181C39.742 46.8181 39.687 46.8158 39.6572 46.8102C39.5931 46.799 39.5885 46.7811 39.577 46.7206C39.5656 46.6264 39.5656 46.4449 39.5656 46.2274V45.8273C39.5656 45.4821 39.5656 45.4182 39.5713 45.3476C39.5804 45.2681 39.5885 45.2546 39.6457 45.2423C39.6732 45.2367 39.6904 45.2344 39.7133 45.2344C39.7374 45.2344 39.7706 45.221 39.7706 45.1885C39.7649 45.1515 39.7317 45.1515 39.703 45.1504C39.6091 45.1504 39.4533 45.156 39.3937 45.156C39.3273 45.156 39.1623 45.1504 39.0718 45.1504C39.0363 45.1515 39.002 45.1504 38.9962 45.1885C38.9962 45.221 39.0283 45.2344 39.0535 45.2344C39.0822 45.2344 39.1108 45.2367 39.1348 45.2445C39.1807 45.2613 39.1944 45.2725 39.2024 45.3476C39.2059 45.4182 39.2059 45.4821 39.2059 45.8273V46.2274C39.2059 46.4449 39.2059 46.6264 39.1944 46.7183C39.1841 46.7856 39.1784 46.8024 39.1394 46.8114C39.1188 46.8158 39.0925 46.8181 39.0581 46.8181C39.0226 46.8181 39.0008 46.8405 39.0008 46.8618C39.002 46.8965 39.0363 46.9044 39.0661 46.9044C39.1623 46.9044 39.3273 46.8977 39.38 46.8977C39.4453 46.8977 39.6091 46.9044 39.7672 46.9044C39.797 46.9044 39.8302 46.8977 39.8336 46.8618C39.8336 46.8383 39.8096 46.8181 39.7763 46.8181ZM38.3204 46.8181C38.286 46.8181 38.231 46.8158 38.2013 46.8102C38.1371 46.799 38.1325 46.7811 38.1211 46.7206C38.1108 46.6264 38.1108 46.4449 38.1108 46.2274V45.8273C38.1108 45.4821 38.1108 45.4182 38.1154 45.3476C38.1245 45.2681 38.1325 45.2546 38.1898 45.2423C38.2173 45.2367 38.2345 45.2344 38.2574 45.2344C38.2815 45.2344 38.3158 45.221 38.3158 45.1885C38.3101 45.1515 38.2757 45.1515 38.2459 45.1504C38.1532 45.1504 37.9974 45.156 37.9389 45.156C37.8702 45.156 37.7076 45.1504 37.6159 45.1504C37.5804 45.1515 37.546 45.1504 37.5392 45.1885C37.5392 45.221 37.5724 45.2344 37.5976 45.2344C37.6262 45.2344 37.6549 45.2367 37.6789 45.2445C37.7247 45.2613 37.7396 45.2725 37.7477 45.3476C37.7499 45.4182 37.7499 45.4821 37.7499 45.8273V46.2274C37.7499 46.4449 37.7499 46.6264 37.7385 46.7183C37.7293 46.7856 37.7225 46.8024 37.6824 46.8114C37.6629 46.8158 37.6365 46.8181 37.6033 46.8181C37.5667 46.8181 37.5449 46.8405 37.5449 46.8618C37.546 46.8965 37.5804 46.9044 37.6113 46.9044C37.7076 46.9044 37.8714 46.8977 37.9241 46.8977C37.9893 46.8977 38.1532 46.9044 38.3124 46.9044C38.341 46.9044 38.3754 46.8977 38.3777 46.8618C38.3777 46.8383 38.3536 46.8181 38.3204 46.8181ZM37.0661 46.8181C37.0466 46.8181 37.0088 46.8158 36.9802 46.8069C36.9309 46.7912 36.8977 46.7699 36.8576 46.7217C36.8015 46.6556 36.4235 46.0705 36.3318 45.9338L36.7224 45.4126C36.7957 45.314 36.8404 45.2568 36.8828 45.2468C36.9149 45.2389 36.9435 45.2344 36.9664 45.2344C36.9939 45.2344 37.0226 45.2199 37.0237 45.1907C37.0214 45.156 36.987 45.1504 36.9607 45.1504C36.8702 45.1504 36.7705 45.156 36.7259 45.156C36.6812 45.156 36.5678 45.1504 36.475 45.1504C36.4406 45.1504 36.4051 45.156 36.404 45.1907C36.4051 45.2221 36.4326 45.2344 36.4532 45.2344C36.4716 45.2344 36.5036 45.2344 36.5231 45.2412C36.5437 45.2456 36.5517 45.258 36.5506 45.2613C36.5517 45.2737 36.5437 45.305 36.5254 45.3331C36.4887 45.3925 36.302 45.6614 36.2196 45.7814C36.1279 45.6346 36.0351 45.4844 35.9355 45.3129C35.9229 45.2916 35.9126 45.2613 35.9126 45.2557C35.9126 45.2535 35.9149 45.2456 35.9309 45.2412C35.9481 45.2367 35.9721 45.2344 35.9847 45.2344C36.0088 45.2344 36.0397 45.2232 36.0409 45.1907C36.0386 45.156 36.0031 45.1504 35.9721 45.1504C35.8828 45.1504 35.7339 45.156 35.7029 45.156C35.5884 45.156 35.3948 45.1504 35.3375 45.1504C35.3077 45.1515 35.2734 45.1515 35.2688 45.1885C35.2688 45.2131 35.2883 45.2344 35.3123 45.2344C35.3341 45.2344 35.3719 45.2389 35.4085 45.2501C35.4876 45.2748 35.5311 45.3185 35.5907 45.407L36.0065 46.0414L35.5449 46.6511C35.4624 46.7609 35.4292 46.7912 35.365 46.808C35.3318 46.8158 35.2974 46.8181 35.2825 46.8181C35.255 46.8192 35.231 46.8383 35.231 46.864C35.231 46.8921 35.2585 46.9044 35.2848 46.9044H35.3261C35.3662 46.9044 35.483 46.8977 35.5288 46.8977C35.5872 46.8977 35.7453 46.9044 35.7602 46.9044H35.8037C35.8347 46.9044 35.8702 46.901 35.8725 46.864C35.8702 46.836 35.8473 46.8203 35.8232 46.8181C35.8049 46.8181 35.7866 46.8158 35.7717 46.8158C35.7556 46.8158 35.7442 46.808 35.7442 46.7979V46.7945C35.743 46.7777 35.7545 46.7475 35.7762 46.715L36.1119 46.2061C36.2173 46.3754 36.3421 46.5794 36.4739 46.7889C36.4796 46.7968 36.4796 46.8024 36.4796 46.8046C36.4807 46.808 36.4773 46.808 36.4773 46.808C36.4521 46.8136 36.4303 46.8315 36.4303 46.8562C36.4383 46.8988 36.4739 46.8954 36.5334 46.8999C36.7304 46.9044 36.9217 46.9044 36.979 46.9044H37.05C37.0787 46.9044 37.113 46.8977 37.1165 46.8618C37.1153 46.8349 37.0901 46.8181 37.0661 46.8181ZM35.0305 46.8181C35.0099 46.8181 34.9732 46.8158 34.9435 46.8069C34.8931 46.7912 34.861 46.7699 34.822 46.7217C34.7659 46.6556 34.3868 46.0705 34.2951 45.9338L34.6857 45.4126C34.759 45.314 34.8037 45.2568 34.8461 45.2468C34.8782 45.2389 34.9068 45.2344 34.9297 45.2344C34.9584 45.2344 34.9859 45.2199 34.9859 45.1907C34.9847 45.156 34.9492 45.1504 34.924 45.1504C34.8335 45.1504 34.735 45.156 34.6892 45.156C34.6433 45.156 34.5311 45.1504 34.4383 45.1504C34.4051 45.1504 34.3684 45.156 34.3661 45.1907C34.3673 45.2221 34.3971 45.2344 34.4154 45.2344C34.4349 45.2344 34.4658 45.2344 34.4864 45.2412C34.5082 45.2456 34.515 45.258 34.5139 45.2613C34.5139 45.2737 34.507 45.305 34.4887 45.3331C34.452 45.3925 34.2653 45.6614 34.1829 45.7814C34.0924 45.6334 33.9984 45.4844 33.8988 45.3129C33.885 45.2916 33.8759 45.2613 33.877 45.2557C33.877 45.2535 33.8782 45.2468 33.8942 45.2412C33.9114 45.2367 33.9354 45.2344 33.9469 45.2344C33.9721 45.2344 34.0042 45.2232 34.0042 45.1907C34.003 45.156 33.9675 45.1504 33.9354 45.1504C33.8461 45.1504 33.6972 45.156 33.6662 45.156C33.5517 45.156 33.3592 45.1504 33.3008 45.1504C33.271 45.1515 33.2378 45.1515 33.2321 45.1885C33.2321 45.2131 33.2516 45.2344 33.2756 45.2344C33.2985 45.2344 33.3352 45.2389 33.3718 45.2501C33.4509 45.2748 33.4944 45.3185 33.5551 45.407L33.9698 46.0414L33.5082 46.6511C33.4257 46.7609 33.3925 46.7912 33.3283 46.808C33.2951 46.8158 33.2607 46.8181 33.2458 46.8181C33.2172 46.8192 33.1943 46.8383 33.1943 46.864C33.1943 46.8921 33.2218 46.9044 33.2481 46.9044H33.2894C33.3295 46.9044 33.4463 46.8977 33.491 46.8977C33.5505 46.8977 33.7075 46.9044 33.7235 46.9044H33.767C33.798 46.9044 33.8335 46.901 33.8358 46.864C33.8335 46.836 33.8117 46.8203 33.7865 46.8181C33.7693 46.8181 33.7499 46.8158 33.735 46.8158C33.7189 46.8158 33.7075 46.808 33.7075 46.7979L33.7063 46.7945C33.7063 46.7777 33.7178 46.7475 33.7395 46.715L34.0752 46.2061C34.1806 46.3754 34.3054 46.5794 34.4372 46.7889C34.4429 46.7968 34.4429 46.8024 34.4429 46.8046C34.444 46.808 34.4406 46.808 34.4406 46.808C34.4154 46.8136 34.3936 46.8315 34.3936 46.8562C34.4016 46.8988 34.4372 46.8965 34.4979 46.8999C34.6938 46.9044 34.885 46.9044 34.9423 46.9044H35.0133C35.042 46.9044 35.0763 46.8977 35.0786 46.8618C35.0786 46.8349 35.0546 46.8181 35.0305 46.8181ZM32.9938 46.8181C32.9732 46.8181 32.9354 46.8158 32.9068 46.8069C32.8575 46.7912 32.8243 46.7699 32.7853 46.7217C32.7292 46.6556 32.3512 46.0705 32.2596 45.9338L32.649 45.4126C32.7223 45.314 32.767 45.2568 32.8105 45.2468C32.8415 45.2389 32.8713 45.2344 32.893 45.2344C32.9217 45.2344 32.9492 45.2199 32.9503 45.1907C32.948 45.156 32.9136 45.1504 32.8873 45.1504C32.7957 45.1504 32.6971 45.156 32.6525 45.156C32.6067 45.156 32.4944 45.1504 32.4016 45.1504C32.3684 45.1504 32.3329 45.156 32.3306 45.1907C32.3317 45.2221 32.3604 45.2344 32.3798 45.2344C32.3982 45.2344 32.4302 45.2344 32.4497 45.2412C32.4703 45.2456 32.4772 45.258 32.4772 45.2613C32.4772 45.2737 32.4703 45.305 32.4532 45.3331C32.4154 45.3925 32.2286 45.6614 32.1462 45.7814C32.0557 45.6346 31.9617 45.4844 31.8621 45.3129C31.8495 45.2916 31.8392 45.2613 31.8392 45.2557C31.8392 45.2535 31.8415 45.2456 31.8575 45.2412C31.8747 45.2367 31.8999 45.2344 31.9102 45.2344C31.9354 45.2344 31.9675 45.2232 31.9686 45.1907C31.9663 45.156 31.9308 45.1504 31.8999 45.1504C31.8082 45.1504 31.6616 45.156 31.6295 45.156C31.515 45.156 31.3225 45.1504 31.2641 45.1504C31.2355 45.1515 31.2011 45.1515 31.1954 45.1885C31.1954 45.2131 31.2137 45.2344 31.2389 45.2344C31.2607 45.2344 31.2985 45.2389 31.3351 45.2501C31.4142 45.2748 31.4577 45.3185 31.5184 45.407L31.9331 46.0414L31.4726 46.6511C31.389 46.7609 31.3558 46.7912 31.2916 46.808C31.2595 46.8158 31.224 46.8181 31.2091 46.8181C31.1816 46.8192 31.1576 46.8383 31.1576 46.864C31.1576 46.8921 31.1851 46.9044 31.2114 46.9044H31.2538C31.2928 46.9044 31.4096 46.8977 31.4543 46.8977C31.5138 46.8977 31.6719 46.9044 31.6868 46.9044H31.7303C31.7613 46.9044 31.7968 46.901 31.7991 46.864C31.7968 46.836 31.775 46.8203 31.7498 46.8181C31.7326 46.8181 31.7132 46.8158 31.6971 46.8158C31.6834 46.8158 31.6708 46.8069 31.6708 46.7979L31.6696 46.7945C31.6696 46.7777 31.6811 46.7475 31.7028 46.715L32.0385 46.2061C32.1439 46.3754 32.2687 46.5794 32.4016 46.7889C32.4062 46.7968 32.4062 46.8024 32.4062 46.8046C32.4073 46.808 32.405 46.808 32.405 46.808C32.3798 46.8136 32.3569 46.8315 32.3569 46.8562C32.3649 46.8988 32.4016 46.8965 32.46 46.8999C32.6571 46.9044 32.8483 46.9044 32.9068 46.9044H32.9778C33.0053 46.9044 33.0396 46.8977 33.0431 46.8618C33.0419 46.8349 33.0179 46.8181 32.9938 46.8181ZM23.7199 46.437C23.6878 46.4359 23.6718 46.4673 23.6706 46.4987C23.6637 46.5356 23.6317 46.5995 23.5927 46.641C23.5034 46.7385 23.3945 46.7553 23.1815 46.7553C22.8699 46.7542 22.4552 46.5065 22.4541 45.9786C22.4541 45.759 22.4965 45.5471 22.6683 45.4037C22.7725 45.3162 22.8997 45.2793 23.1082 45.2793C23.3258 45.2793 23.4827 45.3353 23.5583 45.407C23.6145 45.4619 23.6431 45.5393 23.6454 45.6054C23.6454 45.6334 23.6511 45.6704 23.6889 45.6727C23.7313 45.6693 23.7393 45.6301 23.7416 45.5976C23.7439 45.5516 23.7439 45.4261 23.7496 45.3532C23.7554 45.2725 23.76 45.2479 23.76 45.2255C23.7622 45.203 23.7393 45.1806 23.7073 45.1806C23.6385 45.1728 23.5595 45.156 23.4679 45.1425C23.359 45.1291 23.2674 45.119 23.1162 45.119C22.7565 45.119 22.5205 45.212 22.3418 45.3633C22.1081 45.5695 22.0543 45.8408 22.0543 45.9999C22.0543 46.2218 22.1196 46.4852 22.3624 46.6836C22.5847 46.8674 22.8676 46.9346 23.1975 46.9346C23.3556 46.9346 23.5377 46.9212 23.6385 46.882C23.6809 46.8674 23.7038 46.845 23.713 46.8035C23.7393 46.7217 23.7657 46.5278 23.7657 46.4964C23.7657 46.4729 23.7554 46.4404 23.7199 46.437ZM21.7977 46.437C21.7645 46.4359 21.7507 46.4673 21.7473 46.4987C21.7416 46.5356 21.7095 46.5995 21.6706 46.641C21.5812 46.7385 21.4735 46.7553 21.2605 46.7553C20.9478 46.7542 20.5331 46.5065 20.5319 45.9786C20.5319 45.759 20.5755 45.5471 20.7461 45.4037C20.8515 45.3162 20.9787 45.2793 21.186 45.2793C21.4037 45.2793 21.5606 45.3353 21.6362 45.407C21.6923 45.4619 21.7198 45.5393 21.7233 45.6054C21.7233 45.6334 21.729 45.6704 21.7668 45.6727C21.8092 45.6693 21.816 45.6301 21.8195 45.5976C21.8218 45.5516 21.8218 45.4261 21.8275 45.3532C21.8332 45.2725 21.8378 45.2479 21.839 45.2255C21.8401 45.203 21.816 45.1806 21.7851 45.1806C21.7164 45.1728 21.6373 45.156 21.5469 45.1425C21.4369 45.1291 21.3452 45.119 21.194 45.119C20.8332 45.119 20.5984 45.212 20.4208 45.3633C20.186 45.5695 20.1333 45.8408 20.1333 45.9999C20.1322 46.2218 20.1963 46.4852 20.4403 46.6836C20.6637 46.8674 20.9466 46.9346 21.2765 46.9346C21.4323 46.9346 21.6167 46.9212 21.7175 46.882C21.7599 46.8674 21.7828 46.845 21.7908 46.8035C21.816 46.7217 21.8435 46.5278 21.8435 46.4964C21.8435 46.4729 21.8332 46.4404 21.7977 46.437ZM19.8756 46.437C19.8435 46.4359 19.8286 46.4673 19.8263 46.4987C19.8194 46.5356 19.7874 46.5995 19.7484 46.641C19.6591 46.7385 19.5502 46.7553 19.3383 46.7553C19.0256 46.7542 18.6109 46.5065 18.6098 45.9786C18.6098 45.759 18.6533 45.5471 18.824 45.4037C18.9282 45.3162 19.0565 45.2793 19.2639 45.2793C19.4815 45.2793 19.6384 45.3353 19.7141 45.407C19.7702 45.4619 19.7988 45.5393 19.8011 45.6054C19.8011 45.6334 19.8057 45.6704 19.8458 45.6727C19.887 45.6693 19.895 45.6301 19.8973 45.5976C19.8996 45.5516 19.8996 45.4261 19.9053 45.3532C19.9111 45.2725 19.9168 45.2479 19.9168 45.2255C19.9191 45.203 19.895 45.1806 19.863 45.1806C19.7942 45.1728 19.7152 45.156 19.6247 45.1425C19.5147 45.1291 19.4231 45.119 19.2719 45.119C18.9122 45.119 18.6762 45.212 18.4987 45.3633C18.2638 45.5695 18.2112 45.8408 18.2112 45.9999C18.2112 46.2218 18.2753 46.4852 18.517 46.6836C18.7404 46.8674 19.0245 46.9346 19.3544 46.9346C19.5113 46.9346 19.6934 46.9212 19.7954 46.882C19.8378 46.8674 19.8595 46.845 19.8698 46.8035C19.895 46.7217 19.9214 46.5278 19.9214 46.4964C19.9214 46.4729 19.9111 46.4404 19.8756 46.437ZM17.604 46.0694C17.604 46.3014 17.5548 46.4975 17.407 46.6186C17.2661 46.7318 17.1115 46.7677 16.8961 46.7677C16.7094 46.7688 16.6201 46.7183 16.5971 46.6858C16.5845 46.6724 16.5754 46.5894 16.5742 46.5356C16.5708 46.4908 16.5674 46.3171 16.5674 46.0773V45.7915C16.5674 45.6133 16.5674 45.4261 16.5708 45.3499C16.5731 45.3252 16.5708 45.3297 16.588 45.3207C16.5983 45.314 16.6831 45.3062 16.7289 45.3073C16.9156 45.3073 17.171 45.3297 17.3864 45.518C17.4895 45.6043 17.604 45.7859 17.604 46.0694ZM17.7541 45.4149C17.4849 45.1493 17.0748 45.1515 16.7747 45.1515C16.6304 45.1515 16.4574 45.156 16.3852 45.156C16.3176 45.156 16.1641 45.1515 16.0381 45.1515C16.0049 45.1515 15.9683 45.1537 15.9637 45.1907C15.966 45.2232 15.998 45.2344 16.0244 45.2344C16.0588 45.2344 16.1 45.2367 16.1149 45.2412C16.1882 45.2658 16.1962 45.2725 16.2042 45.3476C16.2077 45.4182 16.2077 45.4821 16.2077 45.8273V46.2263C16.2077 46.4348 16.2077 46.6141 16.1962 46.7082C16.1871 46.7744 16.1767 46.8046 16.1401 46.8114C16.1206 46.8158 16.0954 46.8181 16.0599 46.8181C16.0255 46.8181 16.0026 46.8405 16.0026 46.8618C16.0038 46.8954 16.0381 46.9044 16.0691 46.9044C16.1183 46.9044 16.1779 46.9021 16.2352 46.8999C16.2924 46.8999 16.3451 46.8977 16.3715 46.8977C16.4299 46.8977 16.517 46.9021 16.612 46.91C16.7083 46.9156 16.8125 46.9234 16.9007 46.9234C17.3474 46.9234 17.6063 46.7621 17.7186 46.6511C17.8583 46.5177 17.9866 46.2958 17.9866 46.0055C17.9866 45.7309 17.8778 45.5359 17.7541 45.4149ZM15.7964 46.8181C15.7689 46.8181 15.7334 46.8158 15.6659 46.7979C15.6051 46.7811 15.5845 46.7329 15.5628 46.5894L15.3451 45.1885C15.3348 45.1347 15.3062 45.1022 15.2707 45.0999C15.2363 45.1011 15.2111 45.1268 15.1905 45.1672L14.5639 46.4135L13.9373 45.1829C13.9064 45.1212 13.8812 45.0999 13.8468 45.0999C13.8124 45.1011 13.7872 45.1324 13.7815 45.1739L13.5444 46.6567C13.5341 46.7318 13.5077 46.8125 13.4619 46.8136C13.4253 46.8181 13.4104 46.8181 13.3909 46.8181C13.3623 46.8181 13.3359 46.8315 13.3336 46.8596C13.3336 46.8977 13.3726 46.9044 13.3966 46.9044C13.4745 46.9044 13.5891 46.8977 13.6337 46.8977C13.6761 46.8977 13.7861 46.9044 13.8869 46.9044C13.9213 46.9044 13.9625 46.901 13.9636 46.8596C13.9602 46.8293 13.9339 46.8192 13.9064 46.8181C13.8869 46.8181 13.8663 46.8158 13.8262 46.808C13.7861 46.8002 13.7678 46.7912 13.7678 46.7609C13.7678 46.7239 13.7712 46.6959 13.7758 46.6567L13.8846 45.8206C13.9648 45.9809 14.0851 46.223 14.1011 46.2611C14.1297 46.3283 14.3199 46.6724 14.3772 46.7777C14.4173 46.8461 14.439 46.8977 14.4906 46.9021C14.5352 46.8999 14.549 46.8674 14.6028 46.7632L15.0977 45.7926L15.2237 46.7251C15.226 46.7452 15.2271 46.762 15.2271 46.7733C15.2283 46.8013 15.2237 46.8002 15.2248 46.8024C15.2077 46.808 15.187 46.817 15.1859 46.8439C15.1882 46.8764 15.2191 46.8876 15.2752 46.8898C15.3715 46.8954 15.7117 46.9044 15.7724 46.9044C15.8079 46.9033 15.8491 46.9021 15.8549 46.8596C15.8526 46.8271 15.8216 46.8181 15.7964 46.8181ZM46.3939 34.1063C46.4489 34.0558 46.4741 34.0536 46.5611 34.0895C46.7765 34.1802 47.0056 34.2957 47.0663 34.3259C47.1247 34.3551 47.1625 34.3853 47.1488 34.4156C47.1339 34.4503 47.0961 34.4391 47.0651 34.4257C47.0136 34.4044 46.9242 34.3853 46.8486 34.3764C46.521 34.3383 46.3148 34.5198 46.2095 34.7586C46.056 35.1038 46.2209 35.3739 46.4294 35.4624C46.6218 35.5442 46.828 35.5633 47.2255 35.3514L47.4443 35.2349C47.9701 34.9547 48.3092 34.9244 48.6276 35.06C49.0606 35.2427 49.2141 35.728 48.9781 36.2615C48.8682 36.5126 48.757 36.6571 48.6849 36.7457C48.662 36.7771 48.6414 36.7916 48.6139 36.7793C48.5635 36.758 48.4558 36.6941 48.1499 36.5641C48.0629 36.5283 48.0365 36.5025 48.0503 36.4722C48.0617 36.4453 48.0904 36.4431 48.1385 36.4644C48.174 36.4789 48.3034 36.5115 48.442 36.4745C48.5417 36.4476 48.7089 36.3859 48.8201 36.136C48.9449 35.8513 48.8533 35.6059 48.6173 35.5072C48.4363 35.4299 48.2588 35.4602 47.8704 35.6754L47.741 35.7471C47.1774 36.0631 46.8326 36.1136 46.4592 35.9544C46.2312 35.858 45.9975 35.6585 45.9357 35.3044C45.8944 35.0578 45.954 34.828 46.0445 34.6229C46.143 34.401 46.2461 34.2396 46.3939 34.1063ZM48.9174 32.628C49.544 32.8017 49.6597 32.8331 49.7937 32.8611C49.9358 32.8925 50.0171 32.8712 50.0641 32.7882C50.0893 32.7479 50.1087 32.6963 50.1225 32.6481C50.1339 32.6078 50.1488 32.5854 50.1821 32.5943C50.2073 32.6022 50.2061 32.6358 50.1866 32.7008C50.1431 32.8532 50.0572 33.1043 50.0228 33.222C49.9942 33.3217 49.9381 33.5627 49.8934 33.7162C49.8785 33.7689 49.8613 33.7992 49.8361 33.7924C49.804 33.7824 49.8017 33.7566 49.8132 33.7162C49.8258 33.6759 49.8304 33.6423 49.8361 33.5918C49.8476 33.4775 49.7857 33.426 49.6437 33.3778C49.5154 33.3329 49.3997 33.3016 48.7731 33.1278L48.048 32.9272C47.6482 32.8163 47.3217 32.7266 47.1407 32.6941C47.0262 32.675 46.9437 32.6829 46.8922 32.7983C46.867 32.8532 46.8338 32.9395 46.8166 33.0001C46.8028 33.0449 46.7845 33.0617 46.765 33.0561C46.7352 33.0483 46.7318 33.0124 46.7456 32.9676C46.8223 32.7019 46.9082 32.4509 46.9391 32.341C46.9666 32.2491 47.0273 31.9925 47.0743 31.83C47.0892 31.7773 47.1087 31.7538 47.1385 31.7616C47.1591 31.7672 47.1671 31.7863 47.1534 31.8356C47.135 31.895 47.1293 31.9465 47.127 31.9846C47.1201 32.0698 47.1831 32.1135 47.2988 32.1584C47.4661 32.2267 47.7925 32.3164 48.1923 32.4262L48.9174 32.628ZM47.6345 29.0695C47.6745 29.0079 47.6975 28.9978 47.7902 29.0112C48.0239 29.0449 48.2759 29.0964 48.3435 29.111C48.4065 29.1233 48.4512 29.1424 48.4466 29.1749C48.4409 29.213 48.4019 29.2107 48.3687 29.2062C48.3126 29.1995 48.2221 29.2029 48.1465 29.213C47.8189 29.26 47.6688 29.4887 47.631 29.7465C47.576 30.1197 47.8074 30.3382 48.0331 30.3707C48.2404 30.3999 48.4443 30.3651 48.7708 30.0592L48.9518 29.8899C49.3836 29.4842 49.7032 29.3688 50.0469 29.417C50.5131 29.4831 50.7915 29.9112 50.7078 30.4884C50.6677 30.7574 50.6002 30.9266 50.5543 31.0297C50.5406 31.0667 50.5246 31.0847 50.4948 31.0802C50.4398 31.0723 50.3195 31.0387 49.9885 30.9928C49.8957 30.9793 49.8636 30.9625 49.8682 30.93C49.8728 30.8997 49.8991 30.8908 49.9507 30.8986C49.9885 30.9031 50.1225 30.9009 50.2462 30.8302C50.3355 30.7787 50.481 30.6767 50.52 30.4066C50.5658 30.0995 50.41 29.8877 50.1557 29.8518C49.961 29.8238 49.7983 29.8989 49.481 30.206L49.3745 30.3102C48.9151 30.7563 48.5967 30.8941 48.1935 30.837C47.9472 30.8033 47.6688 30.6711 47.513 30.3438C47.4076 30.1174 47.4031 29.8798 47.4363 29.6602C47.4718 29.4192 47.5291 29.2376 47.6345 29.0695ZM48.2095 25.2028C47.8762 25.223 47.7673 25.2813 47.7398 25.3665C47.7169 25.4382 47.7158 25.5178 47.7181 25.585C47.7192 25.631 47.7124 25.6568 47.686 25.6568C47.6516 25.6579 47.6413 25.6209 47.6402 25.5626C47.6299 25.2903 47.6368 25.1221 47.6333 25.0426C47.6322 25.0045 47.6127 24.8083 47.6047 24.5909C47.6024 24.536 47.6058 24.4979 47.6436 24.4968C47.67 24.4956 47.6803 24.5214 47.6814 24.5629C47.6826 24.6178 47.6894 24.6929 47.7089 24.75C47.7479 24.8588 47.8716 24.8711 48.245 24.8621L50.7811 24.8128C50.8671 24.8094 50.9266 24.8195 50.9278 24.861C50.9301 24.9081 50.8762 24.9473 50.8018 25.0213C50.7479 25.0728 50.0721 25.7341 49.4741 26.3673C49.1935 26.6621 48.5967 27.2494 48.5314 27.3222V27.3435L50.4524 27.2359C50.7136 27.2225 50.7937 27.181 50.8327 27.079C50.8568 27.0151 50.8522 26.9154 50.851 26.8571C50.8487 26.8067 50.8613 26.7887 50.8865 26.7887C50.9209 26.7865 50.9266 26.8324 50.9289 26.8952C50.9369 27.1126 50.9312 27.3144 50.9346 27.4029C50.9358 27.4489 50.9553 27.608 50.9621 27.8131C50.9644 27.868 50.9621 27.9095 50.9266 27.9106C50.9014 27.9118 50.8877 27.8871 50.8854 27.8367C50.8842 27.7952 50.8831 27.7616 50.8694 27.7111C50.8293 27.5957 50.7388 27.5654 50.4982 27.5688L47.796 27.6159C47.702 27.6192 47.662 27.6047 47.6608 27.5666C47.6585 27.5206 47.7043 27.469 47.7502 27.422C47.9976 27.1485 48.5394 26.5926 48.9644 26.142C49.41 25.6691 49.9277 25.186 50.0068 25.1076V25.0941L48.2095 25.2028ZM48.9987 21.6253C49.6345 21.4852 49.7513 21.4595 49.8831 21.4225C50.0228 21.3832 50.0824 21.3351 50.0812 21.1938C50.0812 21.1591 50.0698 21.0885 50.0572 21.0313C50.0457 20.9865 50.0492 20.9607 50.0778 20.954C50.1076 20.9473 50.1225 20.9742 50.1362 21.0358C50.1614 21.1468 50.1855 21.2656 50.2084 21.3676C50.229 21.4751 50.2462 21.5704 50.2588 21.6276C50.2897 21.7587 50.4764 22.5724 50.4982 22.6486C50.5246 22.7248 50.5475 22.7887 50.5635 22.819C50.5727 22.8391 50.591 22.8604 50.5956 22.8817C50.6002 22.9019 50.5841 22.9097 50.5635 22.9142C50.5349 22.9209 50.4799 22.9109 50.284 22.9411C50.2416 22.9456 50.056 22.9781 50.0034 22.9815C49.9816 22.9815 49.9552 22.9792 49.9484 22.9501C49.9415 22.9221 49.961 22.9086 49.9976 22.9008C50.0274 22.8952 50.0973 22.875 50.1431 22.8436C50.2118 22.7977 50.2531 22.7461 50.2313 22.5354C50.2233 22.4648 50.1328 22.0333 50.1145 21.9515C50.1099 21.9313 50.095 21.9257 50.0664 21.9324L49.0079 22.1644C48.9781 22.1711 48.9632 22.179 48.969 22.2025C48.9896 22.2933 49.0973 22.7629 49.127 22.8559C49.158 22.9523 49.1843 23.0106 49.2347 23.0386C49.2748 23.0599 49.3 23.0711 49.3046 23.0913C49.308 23.1081 49.3023 23.1227 49.2771 23.1283C49.2531 23.1328 49.182 23.1317 48.9655 23.1619C48.8796 23.1765 48.7101 23.2011 48.6803 23.2079C48.6471 23.2146 48.6013 23.2258 48.5932 23.1877C48.5864 23.1597 48.6013 23.1473 48.6219 23.1429C48.6631 23.1305 48.7181 23.1182 48.7696 23.0935C48.8475 23.0543 48.8979 22.9837 48.8796 22.829C48.8705 22.7495 48.7811 22.3426 48.7582 22.2451C48.7536 22.2249 48.7364 22.2238 48.7112 22.2294L48.3813 22.3023C48.2393 22.3337 47.8533 22.4144 47.733 22.4446C47.4466 22.5163 47.3985 22.5948 47.4947 23.0128C47.5188 23.1193 47.5589 23.2908 47.6322 23.3861C47.7078 23.4813 47.8063 23.5116 47.985 23.5026C48.0319 23.5004 48.0514 23.5049 48.0583 23.5329C48.0652 23.5665 48.032 23.5732 47.9896 23.5833C47.8933 23.6035 47.6024 23.6338 47.513 23.6315C47.3985 23.627 47.3905 23.59 47.3538 23.4343C47.2839 23.1283 47.2404 22.9008 47.2038 22.7237C47.1717 22.5466 47.1476 22.4188 47.119 22.2956C47.1087 22.2507 47.0881 22.1611 47.0617 22.0636C47.0399 21.9694 47.0079 21.8652 46.9884 21.7834C46.9758 21.7307 46.9815 21.6993 47.0113 21.6926C47.0319 21.687 47.0491 21.7015 47.0606 21.7509C47.0743 21.8114 47.0938 21.8596 47.111 21.8943C47.1453 21.9717 47.2427 21.9728 47.3676 21.9627C47.5474 21.9436 47.8785 21.8708 48.2622 21.7867L48.9987 21.6253ZM46.1797 18.4849C46.3595 17.9682 46.7593 17.6881 47.1442 17.5323C47.4134 17.4235 47.914 17.316 48.4191 17.5468C48.7983 17.7194 49.1133 18.0232 49.3561 18.6004C49.4581 18.8402 49.5028 18.9904 49.5543 19.1776C49.5967 19.3333 49.6139 19.4712 49.6505 19.5922C49.6643 19.636 49.6517 19.6595 49.6276 19.6696C49.5956 19.6819 49.544 19.6898 49.402 19.7379C49.2679 19.7839 49.0526 19.8758 48.9701 19.8993C48.9083 19.9195 48.8727 19.9251 48.859 19.8904C48.8464 19.859 48.8739 19.8388 48.93 19.8164C49.0503 19.7626 49.1683 19.6561 49.2301 19.5172C49.3149 19.3333 49.2943 18.9881 49.1431 18.6317C48.9999 18.2955 48.82 18.1106 48.5898 18.003C48.2049 17.8281 47.7983 17.9066 47.4145 18.0624C46.4718 18.4435 46.3011 19.3333 46.521 19.8523C46.6665 20.1963 46.7948 20.3902 47.0422 20.4709C47.1453 20.5068 47.2816 20.5113 47.3584 20.4967C47.4271 20.4833 47.4455 20.4844 47.4592 20.5158C47.4707 20.5427 47.4466 20.5617 47.4145 20.574C47.3676 20.5931 47.0033 20.6861 46.8521 20.7029C46.7765 20.7097 46.7501 20.7029 46.6952 20.648C46.5657 20.518 46.4134 20.2356 46.3091 19.9879C46.0846 19.4578 46.0147 18.9635 46.1797 18.4849ZM46.497 15.8175C47.0583 15.4947 47.1602 15.4342 47.2748 15.3591C47.3962 15.2806 47.4374 15.2078 47.4076 15.117C47.3951 15.071 47.3699 15.0229 47.3447 14.9791C47.3217 14.9433 47.3172 14.9164 47.3458 14.8996C47.3687 14.8872 47.3928 14.9119 47.4283 14.9702C47.5107 15.1069 47.6356 15.3412 47.6997 15.4454C47.7536 15.5362 47.8933 15.7424 47.9758 15.8791C48.0045 15.9262 48.0136 15.9598 47.9919 15.9721C47.9632 15.9901 47.9415 15.9721 47.9197 15.9363C47.8979 15.8993 47.8773 15.8724 47.8441 15.8343C47.7673 15.7469 47.686 15.7536 47.5531 15.822C47.4306 15.8825 47.3275 15.9419 46.7662 16.2658L46.1167 16.6401C45.7593 16.8464 45.4672 17.0145 45.3171 17.1209C45.2243 17.1893 45.1728 17.2521 45.2232 17.3698C45.2472 17.4247 45.2873 17.5076 45.3206 17.5625C45.3435 17.6018 45.3435 17.6264 45.3251 17.6365C45.2988 17.6522 45.2701 17.6287 45.2472 17.5894C45.104 17.3518 44.9769 17.1176 44.9185 17.0201C44.8681 16.9371 44.7203 16.7152 44.6333 16.5706C44.6046 16.5247 44.6012 16.4922 44.6264 16.4776C44.6459 16.4675 44.6653 16.4754 44.6905 16.518C44.7237 16.5729 44.757 16.6121 44.7845 16.6401C44.8429 16.704 44.9185 16.6883 45.0319 16.639C45.198 16.5673 45.4889 16.3992 45.8475 16.1929L46.497 15.8175ZM44.2804 13.3484C44.2438 13.3776 44.2358 13.3944 44.2449 13.4257C44.277 13.512 44.348 13.6185 44.4145 13.6992C44.5233 13.8303 44.5714 13.8629 44.663 13.8864C44.8165 13.9279 45.0479 13.901 45.3217 13.6858C45.7948 13.3126 45.6791 12.8979 45.521 12.7051C45.4546 12.6233 45.4019 12.5672 45.3652 12.5426C45.34 12.5246 45.3217 12.5291 45.2942 12.5493L44.2804 13.3484ZM44.2266 12.7555C44.7341 12.3565 44.8268 12.2826 44.9288 12.1918C45.0365 12.0965 45.0685 12.0281 45.0032 11.9015C44.9884 11.8712 44.946 11.8118 44.9093 11.767C44.8795 11.7311 44.8692 11.7065 44.8933 11.6874C44.9162 11.6695 44.9425 11.6874 44.9815 11.7356C45.1247 11.9082 45.2839 12.1223 45.3412 12.1907C45.4317 12.3016 45.6459 12.5415 45.7284 12.6435C45.8979 12.8497 46.0583 13.0839 46.08 13.3574C46.0915 13.4986 46.0285 13.7631 45.8051 13.9391C45.5588 14.1341 45.2484 14.2114 44.7031 14.0971C44.5691 14.6821 44.4568 15.1417 44.4087 15.4969C44.3652 15.8321 44.4523 15.9845 44.4832 16.0405C44.505 16.082 44.5267 16.1145 44.5473 16.1403C44.5691 16.1672 44.5702 16.1873 44.5531 16.2008C44.5267 16.221 44.5015 16.2041 44.4683 16.1649L44.214 15.8545C44.0628 15.6718 44.0124 15.5765 43.9895 15.4555C43.9505 15.2549 44.0055 15.0072 44.112 14.6216C44.1888 14.347 44.2907 14.0175 44.3068 13.9357C44.3137 13.9043 44.2999 13.8819 44.2816 13.8584L44.0548 13.5692C44.041 13.5535 44.0273 13.549 44.0055 13.5636L43.9597 13.6017C43.6493 13.8449 43.3858 14.0534 43.2586 14.18C43.1704 14.2652 43.1132 14.3437 43.1808 14.4513C43.214 14.5062 43.2667 14.5835 43.2987 14.6227C43.3205 14.6485 43.3205 14.6698 43.3045 14.6821C43.2804 14.7012 43.2518 14.6855 43.2163 14.6429C43.0616 14.4535 42.8726 14.2047 42.8325 14.1554C42.781 14.0937 42.6023 13.8954 42.4946 13.7653C42.4591 13.7228 42.4511 13.6925 42.474 13.6734C42.4912 13.66 42.5118 13.6656 42.5439 13.7048C42.584 13.753 42.6229 13.7878 42.6538 13.8124C42.7203 13.8662 42.8085 13.8247 42.915 13.762C43.0685 13.6678 43.3331 13.4605 43.639 13.2184L44.2266 12.7555ZM40.9791 9.76306C41.4029 9.28001 41.4808 9.19035 41.5645 9.08275C41.6527 8.96955 41.671 8.8967 41.5839 8.78463C41.5633 8.75661 41.5106 8.70617 41.4648 8.66919C41.4293 8.63892 41.4155 8.61539 41.435 8.59409C41.4545 8.57168 41.4831 8.58401 41.5312 8.62548C41.7042 8.77006 41.9012 8.95162 41.9986 9.03344C42.0753 9.09844 42.2884 9.26208 42.4064 9.35958C42.4545 9.40105 42.4728 9.42571 42.4522 9.44812C42.4327 9.47054 42.4075 9.46045 42.3755 9.43355C42.34 9.40329 42.3171 9.38984 42.2724 9.36294C42.1704 9.30579 42.0971 9.33829 41.994 9.44364C41.8978 9.54003 41.8199 9.62969 41.3949 10.1127L41.0043 10.5577C40.5999 11.0194 40.5243 11.2929 40.5713 11.5529C40.616 11.7939 40.7534 11.9318 40.8634 12.0248C41.0066 12.1447 41.222 12.2478 41.4637 12.2299C41.7958 12.2052 42.0559 11.9262 42.3434 11.5989L42.6928 11.2021C43.1166 10.718 43.1945 10.6294 43.2781 10.5229C43.3663 10.4086 43.3847 10.3358 43.2965 10.2237C43.2758 10.1957 43.2243 10.1464 43.1888 10.115C43.1521 10.0858 43.1384 10.0623 43.1578 10.041C43.1773 10.0186 43.206 10.0309 43.2506 10.069C43.4167 10.208 43.6138 10.3896 43.6172 10.3929C43.6561 10.4254 43.8692 10.588 43.9964 10.6944C44.041 10.7325 44.0582 10.7583 44.0387 10.7807C44.0193 10.8031 43.9941 10.7931 43.9551 10.7594C43.9196 10.7303 43.8978 10.7168 43.8532 10.6899C43.7512 10.6328 43.6768 10.6642 43.5737 10.7706C43.4774 10.867 43.3995 10.9556 42.9757 11.4397L42.6767 11.7793C42.3675 12.1324 42.002 12.4776 41.5278 12.4776C41.1269 12.4776 40.8623 12.3162 40.6515 12.1391C40.4785 11.9945 40.175 11.7222 40.1223 11.3131C40.0845 11.0284 40.1669 10.6888 40.5713 10.2271L40.9791 9.76306ZM39.0478 7.37918L38.4888 7.07657C38.27 6.96113 38.1703 6.92862 38.0672 6.97682C37.9974 7.00932 37.9527 7.04182 37.9286 7.06648C37.9034 7.09114 37.884 7.09898 37.8611 7.08665C37.8359 7.07208 37.8393 7.04967 37.8633 7.00932C37.8977 6.95216 38.1658 6.663 38.1898 6.63834C38.2299 6.598 38.2528 6.5823 38.2757 6.59575C38.3055 6.61257 38.3204 6.66972 38.4086 6.73025C38.5094 6.80198 38.6457 6.8894 38.7671 6.96001L40.2311 7.80059C40.3491 7.86783 40.4373 7.90482 40.4969 7.92947C40.5587 7.94965 40.5931 7.95974 40.608 7.96758C40.6332 7.98327 40.624 8.00681 40.5919 8.06061C40.5461 8.13682 40.3857 8.38003 40.3285 8.47417C40.3033 8.50891 40.2826 8.52573 40.2609 8.5134C40.2322 8.49547 40.2345 8.47305 40.2643 8.41701L40.2849 8.37554C40.333 8.27692 40.2941 8.11889 39.9699 7.92275L39.5106 7.64368L38.6205 9.12646C38.4212 9.45933 38.2494 9.74513 38.1749 9.91212C38.1257 10.0186 38.0993 10.1116 38.2024 10.1901C38.2494 10.2259 38.3261 10.2809 38.3811 10.3122C38.4224 10.3358 38.4338 10.3571 38.4235 10.375C38.4086 10.4008 38.372 10.3941 38.3319 10.3705C38.0879 10.2315 37.8611 10.0858 37.758 10.0276C37.6732 9.97825 37.4338 9.85496 37.286 9.77091C37.2379 9.74289 37.2184 9.71711 37.2333 9.69133C37.2436 9.6734 37.2654 9.67116 37.3101 9.69693C37.3651 9.72944 37.4143 9.74737 37.4521 9.75858C37.5346 9.7866 37.6045 9.72047 37.6778 9.62184C37.7877 9.48063 37.9584 9.19483 38.1589 8.86196L39.0478 7.37918ZM16.6739 10.4243C16.6006 10.4333 16.5777 10.4221 16.5296 10.3425C16.4104 10.1441 16.2936 9.91885 16.2627 9.85945C16.2329 9.80229 16.2203 9.75634 16.2501 9.73952C16.2833 9.72047 16.3062 9.75073 16.3234 9.77987C16.352 9.82582 16.4127 9.89419 16.4677 9.94463C16.7105 10.1643 16.9878 10.1352 17.2157 10.0029C17.5479 9.81013 17.5765 9.49744 17.4609 9.30579C17.3532 9.1287 17.1974 8.99533 16.7495 8.93817L16.5021 8.90679C15.9087 8.8317 15.6155 8.66022 15.439 8.36882C15.1985 7.97207 15.3657 7.49013 15.8778 7.19313C16.1172 7.05415 16.2936 7.00035 16.4047 6.97121C16.4425 6.95889 16.4677 6.95889 16.4826 6.98354C16.5112 7.03061 16.5593 7.14381 16.73 7.42513C16.7781 7.5047 16.7839 7.53945 16.7541 7.55738C16.7289 7.57195 16.7048 7.55626 16.6785 7.51367C16.659 7.48117 16.5731 7.3803 16.4391 7.33098C16.3417 7.29512 16.1699 7.24804 15.9305 7.38702C15.6567 7.54505 15.5857 7.7961 15.7163 8.01241C15.8171 8.17829 15.9786 8.25562 16.4207 8.30605L16.5708 8.32174C17.2146 8.39123 17.5239 8.54814 17.7312 8.88998C17.8583 9.09956 17.9282 9.39545 17.7656 9.71823C17.651 9.94014 17.4643 10.0926 17.2696 10.2058C17.0553 10.3302 16.8744 10.4008 16.6739 10.4243ZM14.4493 10.4512C14.4654 10.4378 14.4608 10.4266 14.4493 10.4187L13.4883 9.84488C13.4745 9.83367 13.4573 9.82022 13.447 9.82806C13.4367 9.83591 13.4436 9.85721 13.4516 9.8729L13.7998 10.9197C13.8079 10.9354 13.8193 10.9432 13.8331 10.932L14.4493 10.4512ZM13.8995 11.1483C13.8823 11.1618 13.8812 11.1741 13.8903 11.1988L14.0919 11.8074C14.1252 11.9161 14.1721 12.008 14.2042 12.0472C14.2523 12.1066 14.3165 12.1245 14.4207 12.0438L14.4711 12.0046C14.5112 11.9732 14.5272 11.9721 14.5433 11.9923C14.5639 12.0181 14.5501 12.0405 14.5123 12.0685C14.4058 12.1526 14.2535 12.2545 14.1504 12.3364C14.1126 12.3655 13.9361 12.519 13.762 12.6547C13.7196 12.6883 13.6933 12.6972 13.6715 12.6715C13.6555 12.6524 13.6647 12.6345 13.691 12.6143C13.7208 12.5908 13.7655 12.5504 13.7895 12.5269C13.9281 12.3868 13.9006 12.2254 13.8342 12.0091L12.9968 9.2957C12.9602 9.16905 12.9499 9.1175 12.9831 9.09172C13.014 9.06818 13.0576 9.08163 13.1526 9.13094C13.3806 9.24863 15.006 10.1665 15.6258 10.4983C15.9935 10.6933 16.1286 10.6642 16.2123 10.6249C16.2707 10.5958 16.3234 10.5599 16.3635 10.5274C16.3898 10.5073 16.4093 10.4972 16.4276 10.5207C16.4494 10.5465 16.4242 10.5767 16.3005 10.6731C16.1802 10.7673 15.9362 10.9578 15.6624 11.1607C15.5994 11.2044 15.5593 11.2358 15.541 11.2133C15.525 11.1932 15.533 11.1764 15.5639 11.1472C15.5822 11.1226 15.5811 11.0744 15.533 11.0475L14.6979 10.5622C14.6784 10.551 14.6624 10.5521 14.6464 10.5655L13.8995 11.1483ZM10.6463 11.6628L10.2201 12.1279C10.0563 12.3106 10.0014 12.398 10.0254 12.5078C10.0426 12.5807 10.0655 12.63 10.085 12.6603C10.1033 12.6894 10.1079 12.7096 10.0896 12.7275C10.0689 12.7488 10.0472 12.741 10.014 12.7096C9.96356 12.6636 9.7356 12.3431 9.71727 12.3139C9.6852 12.268 9.67604 12.2411 9.69322 12.2232C9.71613 12.1985 9.77684 12.1974 9.85702 12.1268C9.95096 12.0472 10.0701 11.9362 10.1663 11.8354L11.3313 10.6294C11.4264 10.5319 11.4813 10.4568 11.5191 10.4053C11.5535 10.3503 11.5718 10.3201 11.5833 10.3089C11.6028 10.2876 11.6245 10.301 11.6715 10.3447C11.7379 10.4053 11.943 10.6126 12.0243 10.6877C12.0529 10.7191 12.0655 10.7426 12.0472 10.7605C12.0243 10.7852 12.0025 10.7774 11.9533 10.737L11.9155 10.709C11.8296 10.6395 11.6623 10.6406 11.3943 10.9063L11.014 11.2817L12.2912 12.4619C12.5776 12.7264 12.8239 12.9539 12.9728 13.0626C13.0679 13.1343 13.1538 13.1792 13.2546 13.0985C13.3027 13.0626 13.3737 13.001 13.4172 12.955C13.4505 12.9214 13.4734 12.9147 13.4894 12.9292C13.5112 12.9505 13.4974 12.983 13.4642 13.0155C13.2706 13.2173 13.0759 13.4 12.9934 13.4863C12.9258 13.5558 12.7494 13.7564 12.6326 13.8785C12.5948 13.9178 12.5638 13.9312 12.5421 13.9099C12.526 13.8965 12.5283 13.8752 12.5638 13.8393C12.6085 13.7934 12.6372 13.7508 12.6578 13.7183C12.7036 13.6454 12.6532 13.5636 12.5719 13.4706C12.455 13.335 12.2099 13.1075 11.9235 12.8429L10.6463 11.6628ZM9.59127 14.486C9.06434 14.1094 8.96812 14.0411 8.85242 13.9682C8.72985 13.8909 8.64509 13.883 8.57177 13.9447C8.53397 13.9749 8.49732 14.0164 8.46754 14.0567C8.44233 14.0915 8.42057 14.1061 8.39193 14.087C8.37131 14.0724 8.38506 14.0399 8.42515 13.985C8.52137 13.8572 8.69091 13.651 8.76422 13.5524C8.82722 13.4683 8.96583 13.261 9.06205 13.1321C9.09412 13.0884 9.12161 13.066 9.14223 13.0806C9.16973 13.1007 9.16171 13.1254 9.13651 13.1601C9.11131 13.1938 9.09412 13.2229 9.07121 13.2688C9.02081 13.372 9.05861 13.4414 9.17545 13.5345C9.28084 13.6208 9.37821 13.6903 9.90399 14.0657L10.5134 14.5006C10.849 14.7404 11.1217 14.9354 11.282 15.0285C11.3817 15.0845 11.4619 15.1047 11.5512 15.0139C11.5947 14.9713 11.6566 14.9018 11.6944 14.8503C11.7219 14.8133 11.7448 14.8043 11.7631 14.8166C11.7872 14.8334 11.7769 14.8682 11.7494 14.9052C11.5833 15.1282 11.4126 15.3344 11.345 15.4263C11.2866 15.5037 11.1388 15.7256 11.0369 15.8601C11.0037 15.9049 10.9762 15.9206 10.9521 15.9038C10.9349 15.8915 10.9338 15.8702 10.9647 15.8298C11.0025 15.7783 11.0254 15.7334 11.0415 15.6976C11.0781 15.6202 11.0346 15.5575 10.9418 15.4756C10.8089 15.3557 10.5363 15.1596 10.1995 14.9197L9.59127 14.486ZM9.68864 17.9481C9.62907 17.9918 9.60387 17.9929 9.52139 17.947C9.31635 17.8326 9.10214 17.6937 9.04487 17.6578C8.99103 17.623 8.95552 17.5894 8.9727 17.5603C8.99217 17.5278 9.02768 17.5424 9.05747 17.5592C9.10558 17.5861 9.19263 17.6152 9.26595 17.6309C9.58898 17.7049 9.81464 17.5457 9.94523 17.3193C10.1354 16.9909 10.0014 16.704 9.80433 16.5942C9.62105 16.4933 9.4183 16.453 9.00019 16.6211L8.7688 16.7141C8.21552 16.9371 7.87531 16.9304 7.5729 16.7634C7.16281 16.5348 7.06315 16.036 7.35754 15.5294C7.495 15.2918 7.62101 15.1596 7.70234 15.08C7.72869 15.052 7.75045 15.0397 7.7768 15.0531C7.82491 15.08 7.92457 15.1551 8.21438 15.3165C8.29685 15.3624 8.32091 15.3893 8.30373 15.4185C8.28884 15.4443 8.2602 15.4431 8.21552 15.4185C8.1823 15.3994 8.0563 15.3535 7.91426 15.3759C7.81231 15.3916 7.63819 15.4353 7.50073 15.6718C7.34494 15.9419 7.40909 16.1952 7.63361 16.3185C7.80429 16.4137 7.98413 16.4036 8.39422 16.231L8.53168 16.1728C9.1262 15.9195 9.47443 15.906 9.82953 16.1022C10.0449 16.2221 10.2557 16.4451 10.2786 16.8049C10.2912 17.0537 10.2064 17.2767 10.0941 17.4695C9.97158 17.6813 9.85015 17.8304 9.68864 17.9481ZM7.16625 19.692C7.20978 19.7088 7.22925 19.7066 7.25216 19.683C7.31287 19.6124 7.37129 19.4992 7.40909 19.4017C7.47095 19.2448 7.47553 19.1876 7.45148 19.098C7.41024 18.9478 7.27049 18.7651 6.94287 18.6407C6.37585 18.4255 6.06657 18.7315 5.97493 18.9624C5.93712 19.0599 5.91307 19.1316 5.90963 19.1753C5.9062 19.2067 5.9188 19.2201 5.95087 19.2325L7.16625 19.692ZM6.66795 20.0338C6.06084 19.8041 5.94858 19.7615 5.81799 19.7211C5.67824 19.6774 5.60264 19.6842 5.5236 19.803C5.50298 19.831 5.4732 19.896 5.45143 19.9509C5.43425 19.9935 5.41707 20.0148 5.38958 20.0036C5.36094 19.9935 5.36438 19.9621 5.38729 19.9038C5.46862 19.6965 5.57858 19.4555 5.61066 19.3726C5.66335 19.2403 5.76874 18.9377 5.81685 18.8167C5.91422 18.5712 6.04137 18.3179 6.27276 18.1621C6.39189 18.0814 6.65764 18.0019 6.92569 18.1039C7.22123 18.2159 7.44575 18.439 7.61643 18.959C8.20178 18.7797 8.66456 18.6452 9.00248 18.5085C9.32093 18.3762 9.41257 18.2271 9.44808 18.1722C9.47214 18.133 9.49161 18.0983 9.50307 18.0669C9.51567 18.0366 9.53399 18.0254 9.55347 18.0333C9.58554 18.0445 9.58325 18.0747 9.56492 18.1218L9.41715 18.4939C9.33124 18.7124 9.27282 18.8032 9.1766 18.8828C9.01852 19.0173 8.77109 19.0935 8.37704 19.1966C8.09525 19.2695 7.75274 19.3479 7.67256 19.3748C7.64048 19.386 7.62788 19.4073 7.61643 19.4353L7.47438 19.7727C7.46637 19.7917 7.4698 19.8063 7.49386 19.8164L7.54999 19.8366C7.92228 19.9778 8.23729 20.0966 8.41255 20.1414C8.53397 20.1728 8.63134 20.1829 8.6932 20.0719C8.72412 20.0159 8.76651 19.933 8.78484 19.8859C8.79744 19.8545 8.81577 19.8433 8.83524 19.8511C8.86273 19.8624 8.86388 19.8937 8.8444 19.9442C8.75505 20.1706 8.62905 20.4564 8.60499 20.5146C8.57636 20.5886 8.49044 20.8397 8.42859 20.9966C8.40797 21.047 8.3862 21.0705 8.35757 21.0593C8.33809 21.0515 8.33237 21.0313 8.35069 20.9842C8.3736 20.926 8.38391 20.8755 8.39078 20.8385C8.40453 20.7534 8.32549 20.7007 8.21438 20.6413C8.05515 20.5584 7.739 20.4384 7.37129 20.2995L6.66795 20.0338ZM5.87412 23.051C5.23723 22.9176 5.12038 22.8929 4.98407 22.8728C4.83974 22.8515 4.76528 22.8694 4.70686 22.9983C4.69082 23.0297 4.67135 23.098 4.65875 23.1552C4.64844 23.2011 4.63469 23.2236 4.60605 23.218C4.57627 23.2112 4.57513 23.181 4.58773 23.1193C4.61178 23.0084 4.64271 22.8907 4.66562 22.7887C4.69311 22.6822 4.71717 22.5892 4.72977 22.532C4.75841 22.4009 4.93825 21.585 4.95085 21.5054C4.96001 21.427 4.96574 21.3586 4.9646 21.325C4.9646 21.3037 4.95772 21.2757 4.9623 21.2555C4.96689 21.2353 4.98407 21.2342 5.00583 21.2387C5.03447 21.2443 5.08029 21.2756 5.27044 21.3283C5.31168 21.3418 5.49382 21.3888 5.54193 21.4068C5.56255 21.4157 5.58546 21.4292 5.57973 21.4583C5.57286 21.4864 5.55109 21.4908 5.51215 21.483C5.48351 21.4763 5.41134 21.4651 5.35636 21.4751C5.27503 21.4886 5.21546 21.5189 5.14559 21.7184C5.12153 21.7867 5.01843 22.2149 5.00125 22.2967C4.99667 22.318 5.00698 22.3281 5.03676 22.3348L6.09635 22.5578C6.12613 22.5634 6.14332 22.5634 6.14904 22.5388C6.16852 22.448 6.27276 21.9773 6.28421 21.8809C6.29796 21.78 6.2991 21.7161 6.26474 21.6713C6.23725 21.6354 6.22006 21.6141 6.22465 21.5939C6.22808 21.5771 6.23954 21.5671 6.26474 21.5715C6.28994 21.5771 6.35294 21.6085 6.56257 21.669C6.64619 21.6903 6.81114 21.7385 6.84092 21.7441C6.873 21.752 6.91996 21.7609 6.91195 21.7979C6.90507 21.8271 6.88674 21.8316 6.86612 21.8271C6.82374 21.8226 6.76876 21.8114 6.71148 21.8125C6.62328 21.8147 6.54768 21.8584 6.49727 22.0075C6.47207 22.0826 6.37929 22.4883 6.35752 22.587C6.35294 22.6071 6.36898 22.615 6.39418 22.6195L6.72523 22.6889C6.86727 22.7192 7.25216 22.8044 7.37358 22.8257C7.66454 22.8784 7.74243 22.8268 7.83407 22.4088C7.85813 22.3012 7.89593 22.1297 7.86844 22.012C7.84209 21.8954 7.7642 21.8271 7.59925 21.7621C7.55457 21.7453 7.53968 21.7329 7.54541 21.7049C7.55343 21.6713 7.58664 21.6791 7.62903 21.687C7.72525 21.7083 8.00246 21.8002 8.08265 21.8383C8.1846 21.8898 8.17658 21.9268 8.14221 22.0826C8.07463 22.3897 8.01735 22.6139 7.97382 22.7887C7.92686 22.9635 7.89478 23.0902 7.86844 23.2135C7.85813 23.2583 7.83865 23.348 7.82147 23.4477C7.79971 23.5419 7.78482 23.6494 7.76649 23.7324C7.75503 23.7862 7.73671 23.8108 7.70692 23.8052C7.6863 23.8008 7.67714 23.7817 7.68745 23.7324C7.70119 23.6707 7.70463 23.6203 7.70348 23.5811C7.70463 23.4959 7.61757 23.4567 7.49959 23.4141C7.32776 23.3569 6.99671 23.2874 6.61068 23.2056L5.87412 23.051ZM4.66218 26.7607C4.42163 26.8425 4.36894 26.9109 4.31739 27.0577C4.29562 27.1205 4.29104 27.1866 4.2899 27.2202C4.28646 27.2583 4.27271 27.2695 4.24751 27.2684C4.21315 27.2662 4.212 27.2202 4.21659 27.1575C4.23033 26.9356 4.25897 26.698 4.26813 26.5511C4.27501 26.4469 4.27501 26.2452 4.2899 26.0356C4.29333 25.9851 4.30364 25.9403 4.33457 25.9414C4.36435 25.9437 4.37123 25.9694 4.36779 26.0076C4.36435 26.0737 4.36435 26.1376 4.38841 26.1723C4.40674 26.2026 4.43652 26.2171 4.47432 26.2194C4.53045 26.2227 4.65302 26.1925 4.80995 26.1443L6.79854 25.5458L6.79969 25.529C6.34149 25.3205 5.00011 24.6895 4.72404 24.5718C4.6702 24.5472 4.6072 24.527 4.56825 24.5248C4.53389 24.5225 4.49838 24.536 4.48348 24.5741C4.46287 24.6234 4.45485 24.685 4.45141 24.74C4.44912 24.7769 4.44225 24.8106 4.41246 24.8083C4.3781 24.8072 4.37237 24.768 4.37695 24.6895C4.3907 24.4799 4.41476 24.3051 4.41819 24.2513C4.42392 24.1796 4.42392 23.9823 4.43194 23.8557C4.43537 23.8019 4.44568 23.7694 4.47661 23.7705C4.50639 23.7727 4.51212 23.7985 4.50983 23.84C4.50754 23.8814 4.50181 23.97 4.54763 24.0484C4.582 24.1056 4.65187 24.1728 4.91763 24.3017C5.30939 24.49 5.53276 24.6178 6.04366 24.8767C6.65077 25.1838 7.10439 25.4102 7.31172 25.5144C7.55228 25.6388 7.61872 25.6691 7.61528 25.7274C7.61185 25.7812 7.54999 25.8025 7.34494 25.8697L4.66218 26.7607ZM5.57973 28.6425C4.92909 28.6828 4.80995 28.6896 4.67364 28.7064C4.52931 28.7243 4.45829 28.7703 4.44339 28.8633C4.43308 28.9104 4.43308 28.9653 4.43652 29.0157C4.43881 29.0572 4.43194 29.0818 4.39757 29.0841C4.37123 29.0863 4.36092 29.0538 4.35634 28.9866C4.34603 28.8285 4.34259 28.5629 4.33457 28.4419C4.3277 28.3376 4.29906 28.0911 4.28875 27.9319C4.28531 27.8781 4.29219 27.8434 4.31739 27.8423C4.35175 27.84 4.36206 27.8647 4.36435 27.9061C4.36664 27.9476 4.37352 27.9812 4.38497 28.0317C4.41361 28.1426 4.48807 28.1729 4.63927 28.1707C4.77559 28.1707 4.89587 28.1639 5.54536 28.1236L6.2991 28.0765C6.71377 28.0507 7.05055 28.0306 7.23383 28.0014C7.34838 27.9824 7.42284 27.9476 7.432 27.8221C7.43773 27.7627 7.44002 27.6697 7.43544 27.608C7.43315 27.5609 7.44346 27.5397 7.46637 27.5385C7.495 27.5363 7.51104 27.5688 7.51333 27.6147C7.53166 27.8916 7.53624 28.155 7.54312 28.2693C7.54884 28.3645 7.57863 28.6279 7.59008 28.7949C7.59352 28.8487 7.58321 28.879 7.55228 28.8801C7.53166 28.8823 7.51677 28.8666 7.51448 28.8162C7.5099 28.7535 7.49729 28.7041 7.48699 28.6672C7.46522 28.5842 7.39076 28.5629 7.2659 28.5584C7.08492 28.5495 6.74699 28.5696 6.33232 28.5954L5.57973 28.6425ZM7.64621 32.3892C7.97039 32.3119 8.06776 32.2357 8.07921 32.146C8.08837 32.0721 8.07463 31.9936 8.06088 31.9275C8.05057 31.8827 8.05286 31.8569 8.07806 31.8513C8.11128 31.8445 8.12847 31.8793 8.14107 31.9364C8.20063 32.2021 8.22469 32.3691 8.24187 32.4464C8.25103 32.4834 8.30602 32.6728 8.35413 32.8869C8.36558 32.9384 8.37017 32.9776 8.33237 32.9855C8.30716 32.99 8.29342 32.9676 8.28425 32.9272C8.2728 32.8734 8.25218 32.8017 8.2224 32.7479C8.16398 32.6481 8.04026 32.6582 7.67485 32.7311L5.19026 33.2265C5.10664 33.2444 5.04478 33.2444 5.03562 33.204C5.02531 33.1592 5.07113 33.111 5.13069 33.0247C5.17422 32.9642 5.71719 32.1942 6.18914 31.4668C6.41136 31.1273 6.89018 30.4458 6.94173 30.3618L6.93715 30.3416L5.06769 30.7865C4.81339 30.8437 4.74237 30.8986 4.7229 31.0062C4.71144 31.0723 4.7332 31.1698 4.74581 31.2281C4.75726 31.2774 4.7481 31.2965 4.7229 31.3021C4.68968 31.3088 4.67593 31.264 4.66104 31.2035C4.61407 30.9905 4.582 30.7921 4.56252 30.7058C4.55222 30.6599 4.50525 30.5086 4.46058 30.3068C4.44797 30.253 4.44339 30.2116 4.47661 30.2049C4.50181 30.1993 4.52014 30.2217 4.5316 30.271C4.53962 30.3113 4.54763 30.3438 4.57169 30.3898C4.63011 30.4985 4.72519 30.5108 4.96116 30.4649L7.6107 29.9437C7.70234 29.9235 7.74358 29.9325 7.75274 29.9684C7.76191 30.0143 7.72754 30.0737 7.69088 30.1286C7.49844 30.4391 7.06773 31.0813 6.7321 31.5991C6.38043 32.1438 5.96003 32.7087 5.89589 32.7994L5.89932 32.8118L7.64621 32.3892ZM7.81002 36.6728C7.21092 36.9228 7.10095 36.9698 6.97838 37.0304C6.8478 37.0943 6.79854 37.1514 6.82603 37.2893C6.83176 37.324 6.85696 37.3913 6.88102 37.4451C6.89934 37.4876 6.90163 37.5145 6.873 37.5246C6.84665 37.537 6.82603 37.5145 6.80083 37.4551C6.71148 37.2512 6.61755 37.0046 6.566 36.888C6.52591 36.7961 6.40792 36.5574 6.34721 36.4195C6.32201 36.3613 6.31858 36.331 6.34607 36.3198C6.37242 36.3075 6.39189 36.3276 6.40792 36.3669C6.42625 36.4083 6.44114 36.4308 6.46864 36.4733C6.53393 36.5697 6.61411 36.572 6.75501 36.5215C6.88445 36.4767 6.99557 36.4308 7.59352 36.1797L8.1445 35.9488C8.71611 35.7079 8.90741 35.496 8.98186 35.2416C9.05174 35.0062 8.98988 34.8236 8.93146 34.6924C8.85815 34.5232 8.71153 34.3383 8.48701 34.2497C8.17772 34.1287 7.81804 34.2654 7.41253 34.4358L6.91996 34.642C6.32201 34.8942 6.2109 34.9401 6.08833 34.9995C5.95889 35.0645 5.90963 35.1217 5.93712 35.2595C5.94285 35.2943 5.96691 35.3615 5.98638 35.4041C6.00471 35.4456 6.007 35.4725 5.97951 35.4837C5.95202 35.496 5.93254 35.4714 5.90849 35.4165C5.82257 35.2203 5.7275 34.9726 5.72635 34.9693C5.70573 34.9222 5.58775 34.6846 5.52245 34.5355C5.4984 34.4817 5.49382 34.4515 5.52245 34.4403C5.54995 34.4291 5.56713 34.4481 5.58775 34.4941C5.60608 34.5366 5.62097 34.5591 5.64846 34.6017C5.71375 34.6969 5.79394 34.7003 5.93598 34.6498C6.06428 34.605 6.17539 34.5579 6.77334 34.3069L7.19488 34.1309C7.63247 33.9471 8.11472 33.7947 8.54085 33.9998C8.90053 34.1724 9.06549 34.4324 9.17431 34.6812C9.26366 34.8863 9.41372 35.2607 9.2774 35.6507C9.18233 35.9242 8.95552 36.192 8.38391 36.4319L7.81002 36.6728Z" fill="black"/>
</svg>
