<svg width="28" height="28" viewBox="0 0 28 28" fill="none" xmlns="http://www.w3.org/2000/svg">
<path d="M14 20.0002C7.2135 20.0002 0 17.8967 0 14C0 10.1034 7.2135 7.99988 14 7.99988C20.7865 7.99988 28 10.1034 28 14C28 17.8967 20.7865 20.0002 14 20.0002ZM14 9.74988C6.98833 9.74988 1.75 11.9934 1.75 14C1.75 16.0067 6.98833 18.2502 14 18.2502C21.0117 18.2502 26.25 16.0067 26.25 14C26.25 11.9934 21.0117 9.74988 14 9.74988Z" fill="#02FFDD"/>
<path d="M9.06966 26.831C8.46183 26.831 7.90533 26.6817 7.42816 26.3842C4.11716 24.3285 5.99083 16.8432 9.43366 10.8453C12.3363 5.78665 16.1023 2.04165 19.0272 1.30432C20.0457 1.04649 20.9743 1.15499 21.714 1.61582C25.025 3.67149 23.1513 11.1568 19.7085 17.1547C16.807 22.2133 13.041 25.9572 10.115 26.6957C9.75333 26.7867 9.40333 26.831 9.06966 26.831ZM20.0737 2.91665C19.8847 2.91665 19.6782 2.94465 19.4542 3.00182C17.416 3.51515 13.9953 6.40849 10.9503 11.7157C7.36749 17.9597 6.62316 23.8257 8.34983 24.899C8.68116 25.1055 9.13033 25.1393 9.68566 24.9982C11.725 24.4848 15.1445 21.5903 18.1895 16.2843C21.7735 10.0403 22.5178 4.17432 20.79 3.10099C20.5917 2.97849 20.3525 2.91665 20.0737 2.91665Z" fill="#02FFDD"/>
<path d="M18.9304 26.831C18.5967 26.831 18.2467 26.7867 17.885 26.6957C14.959 25.9572 11.193 22.2133 8.29152 17.1547C4.84869 11.1557 2.97502 3.67032 6.28718 1.61582C7.02452 1.15499 7.95435 1.04649 8.97285 1.30432C11.8977 2.04165 15.6637 5.78665 18.5664 10.8453C22.0092 16.8443 23.8829 24.3297 20.5718 26.3842C20.0947 26.6817 19.5394 26.831 18.9304 26.831ZM7.92635 2.91665C7.64752 2.91665 7.40835 2.97849 7.21002 3.10099C5.48102 4.17432 6.22535 10.0403 9.80935 16.2843C12.8544 21.5903 16.275 24.4837 18.3132 24.9982C18.8697 25.1393 19.3165 25.1055 19.649 24.899C21.3769 23.8257 20.6325 17.9597 17.0485 11.7157C14.0035 6.40849 10.5829 3.51632 8.54468 3.00182C8.32185 2.94465 8.11535 2.91665 7.92635 2.91665Z" fill="#02FFDD"/>
<path d="M14 16.9167C12.3923 16.9167 11.0833 15.6089 11.0833 14C11.0833 12.3912 12.3923 11.0834 14 11.0834C15.6076 11.0834 16.9166 12.3912 16.9166 14C16.9166 15.6089 15.6076 16.9167 14 16.9167ZM14 12.8334C13.3571 12.8334 12.8333 13.356 12.8333 14C12.8333 14.644 13.3571 15.1667 14 15.1667C14.6428 15.1667 15.1666 14.644 15.1666 14C15.1666 13.356 14.6428 12.8334 14 12.8334Z" fill="#02FFDD"/>
</svg>
