<svg width="52" height="263" viewBox="0 0 52 263" fill="none" xmlns="http://www.w3.org/2000/svg">
<path fill-rule="evenodd" clip-rule="evenodd" d="M85.4179 179.184C91.9592 191.173 96.1956 205.071 94.1129 219.733C92.8324 228.746 89.2087 237.559 85.7042 246.083L85.6985 246.097C84.2826 249.539 82.8535 253.02 81.57 256.535L80.9531 256.691C82.2669 253.067 83.7371 249.482 85.1949 245.938L85.1958 245.936C88.6915 237.436 92.3061 228.648 93.5787 219.69C95.6068 205.421 91.5972 191.869 85.3091 180.113C85.1114 181.668 84.8358 183.227 84.477 184.787C82.2984 194.264 76.7511 202.618 71.2798 210.858C70.8263 211.541 70.3733 212.224 69.9229 212.906C63.8089 222.161 58.5833 231.637 57.7599 242.475C57.2563 249.109 58.2262 255.714 60.5826 261.829L57.925 262.499C57.9223 262.492 57.9191 262.484 57.916 262.477C57.9128 262.469 57.9097 262.462 57.907 262.454C54.0608 252.335 53.9351 240.851 57.5872 230.375C60.2129 222.841 64.719 216.07 69.2121 209.318C70.7636 206.986 72.3136 204.657 73.7841 202.299C76.7118 197.605 79.3461 192.742 80.9797 187.56C82.1748 183.769 82.8126 179.876 82.9648 175.979C78.611 168.713 73.5025 162.241 68.6351 156.848C61.7475 149.216 54.0393 142.022 46.5849 135.065L46.5807 135.061C36.9069 126.033 26.9036 116.697 18.5867 106.305C10.4401 96.1244 -7.35694 69.5643 3.31643 42.8597C9.45476 27.5013 24.5123 14.1119 48.0704 3.06182C50.3091 2.01151 52.5872 0.998162 54.872 0L54.9949 0.487325C52.7445 1.47121 50.5017 2.46952 48.2974 3.50349C24.8721 14.491 9.90802 27.7839 3.82111 43.0141C-6.76055 69.4889 10.9281 95.8804 19.0253 105.997C27.3187 116.361 37.3063 125.683 46.9653 134.698L46.9713 134.704L46.9804 134.712C54.4406 141.674 62.1549 148.874 69.0549 156.52C73.7754 161.751 78.7214 167.993 82.9931 174.989C83.0142 173.82 82.9922 172.651 82.929 171.485C81.6807 148.484 65.9926 129.724 50.9825 113.014C50.4004 112.366 49.8174 111.718 49.2343 111.07C41.9402 102.964 34.6226 94.8317 28.547 85.8695C21.7371 75.8243 16.2342 64.4353 15.9075 52.1977C15.6398 42.1691 19.228 31.7253 27.1653 24.3409C34.1535 17.8398 43.4969 14.2565 52.62 11.3279C54.1901 10.8238 55.7723 10.3391 57.3586 9.85943L57.9571 12.2323C52.3632 13.9322 46.7941 15.7039 41.4815 18.1146C32.1285 22.3585 24.4831 28.8102 20.9581 38.0455C16.7032 49.1918 18.6883 61.0673 23.4085 71.4427C29.9693 85.8642 40.7375 97.7859 51.4764 109.675C56.4932 115.229 61.5035 120.776 66.0755 126.568C77.7887 141.406 87.4784 159.989 85.4179 179.184Z" fill="url(#paint0_linear_101_1424)"/>
<defs>
<linearGradient id="paint0_linear_101_1424" x1="47.3516" y1="-26.7584" x2="47.3516" y2="110.244" gradientUnits="userSpaceOnUse">
<stop stop-color="#02FFDD"/>
<stop offset="0.902937" stop-color="#02FFDD" stop-opacity="0"/>
</linearGradient>
</defs>
</svg>
