<svg width="57" height="347" viewBox="0 0 57 347" fill="none" xmlns="http://www.w3.org/2000/svg">
<path fill-rule="evenodd" clip-rule="evenodd" d="M-55.8568 109.976C-64.4913 94.1507 -70.0834 75.805 -67.3342 56.4506C-65.644 44.5535 -60.8607 32.9202 -56.2347 21.6694L-56.2271 21.6509C-54.3582 17.1067 -52.4718 12.5122 -50.7776 7.872L-49.9632 7.66659C-51.6974 12.4496 -53.6381 17.1823 -55.5624 21.8604L-55.5636 21.8633C-60.178 33.0825 -64.9493 44.6834 -66.6291 56.5078C-69.3062 75.3433 -64.0135 93.2313 -55.7131 108.75C-55.4522 106.697 -55.0884 104.64 -54.6147 102.579C-51.739 90.0705 -44.4164 79.0423 -37.1944 68.1654C-36.5958 67.2639 -35.9979 66.3634 -35.4033 65.4632C-27.3329 53.2458 -20.4351 40.7374 -19.3482 26.4318C-18.6834 17.6745 -19.9636 8.95559 -23.0742 0.884698L-19.5661 -9.82372e-05C-19.5625 0.00969791 -19.5583 0.0195246 -19.5542 0.0293817C-19.5501 0.0393305 -19.5459 0.0492792 -19.5423 0.0591974C-14.4654 13.4159 -14.2994 28.5759 -19.1202 42.4039C-22.5862 52.3478 -28.5341 61.2864 -34.4651 70.1995C-36.5131 73.2772 -38.5591 76.3519 -40.5001 79.4638C-44.3648 85.6604 -47.842 92.0796 -49.9983 98.9195C-51.5759 103.924 -52.4177 109.063 -52.6187 114.207C-46.8717 123.797 -40.1284 132.34 -33.7035 139.459C-24.6115 149.534 -14.4365 159.03 -4.5964 168.213L-4.59163 168.218C8.1778 180.135 21.3821 192.458 32.3605 206.177C43.114 219.615 66.6062 254.674 52.5173 289.924C44.4147 310.197 24.5387 327.871 -6.55809 342.457C-9.51311 343.844 -12.5202 345.181 -15.5361 346.499L-15.6984 345.856C-12.7279 344.557 -9.76732 343.239 -6.85772 341.874C24.0638 327.371 43.8164 309.824 51.8511 289.72C65.8189 254.774 42.4698 219.937 31.7816 206.582C20.8343 192.902 7.65059 180.597 -5.09926 168.697L-5.10724 168.69L-5.11927 168.679C-14.9667 159.488 -25.1495 149.985 -34.2576 139.892C-40.4887 132.988 -47.0173 124.748 -52.656 115.513C-52.6839 117.056 -52.6549 118.599 -52.5715 120.138C-50.9237 150.5 -30.2154 175.263 -10.402 197.321C-9.63359 198.176 -8.8641 199.031 -8.09441 199.887C1.53379 210.587 11.1931 221.321 19.2129 233.151C28.202 246.411 35.4658 261.444 35.8971 277.598C36.2505 290.836 31.514 304.622 21.0367 314.369C11.8122 322.951 -0.521006 327.68 -12.5635 331.546C-14.636 332.212 -16.7246 332.851 -18.8185 333.485L-19.6085 330.352C-12.2246 328.108 -4.87332 325.77 2.13931 322.588C14.4853 316.986 24.5773 308.47 29.2302 296.279C34.8467 281.566 32.2264 265.89 25.9958 252.194C17.3355 233.158 3.12139 217.421 -11.054 201.728C-17.6761 194.396 -24.2898 187.074 -30.3248 179.429C-45.7863 159.843 -58.5767 135.313 -55.8568 109.976Z" fill="url(#paint0_linear_101_68)"/>
<defs>
<linearGradient id="paint0_linear_101_68" x1="-5.60917" y1="381.82" x2="-5.60916" y2="200.976" gradientUnits="userSpaceOnUse">
<stop stop-color="#02FFDD"/>
<stop offset="0.902937" stop-color="#02FFDD" stop-opacity="0"/>
</linearGradient>
</defs>
</svg>
