<svg width="91" height="491" viewBox="0 0 91 491" fill="none" xmlns="http://www.w3.org/2000/svg">
<path fill-rule="evenodd" clip-rule="evenodd" d="M160.13 334.818C172.353 357.221 180.269 383.19 176.377 410.588C173.984 427.43 167.213 443.897 160.665 459.824L160.654 459.85C158.009 466.283 155.338 472.787 152.94 479.355L151.787 479.646C154.242 472.876 156.989 466.176 159.713 459.554L159.715 459.55C166.247 443.668 173.001 427.246 175.379 410.507C179.169 383.844 171.676 358.522 159.926 336.554C159.557 339.46 159.042 342.373 158.372 345.289C154.301 362.996 143.935 378.608 133.712 394.005C132.864 395.281 132.018 396.556 131.176 397.83C119.752 415.125 109.987 432.832 108.449 453.083C107.508 465.479 109.32 477.822 113.723 489.247L108.757 490.499C108.752 490.485 108.746 490.471 108.74 490.457C108.735 490.443 108.729 490.429 108.724 490.415C101.537 471.508 101.302 450.047 108.126 430.473C113.032 416.396 121.452 403.743 129.848 391.126C132.747 386.769 135.643 382.416 138.391 378.011C143.862 369.239 148.784 360.152 151.837 350.47C154.07 343.386 155.262 336.112 155.546 328.83C147.411 315.254 137.865 303.16 128.77 293.083C115.9 278.821 101.496 265.379 87.5671 252.379L87.5596 252.372C69.4834 235.502 50.7915 218.058 35.2507 198.638C20.0282 179.616 -13.227 129.986 6.71702 80.0867C18.187 51.3883 46.3232 26.3691 90.3433 5.72123C94.5264 3.75866 98.7832 1.86514 103.052 0L103.282 0.910604C99.0771 2.74906 94.8862 4.61448 90.7674 6.54654C46.9954 27.0775 19.0339 51.9163 7.66005 80.375C-12.1126 129.845 20.9401 179.16 36.0702 198.064C51.5672 217.43 70.2299 234.849 88.2785 251.694L88.2895 251.704L88.3069 251.72C102.247 264.73 116.661 278.183 129.554 292.47C138.375 302.243 147.617 313.907 155.599 326.98C155.638 324.796 155.597 322.612 155.479 320.433C153.147 277.454 123.832 242.4 95.7847 211.175C94.6969 209.964 93.6077 208.753 92.5181 207.542C78.8886 192.396 65.2149 177.2 53.8622 160.454C41.1374 141.683 30.8549 120.402 30.2443 97.5354C29.7441 78.7962 36.449 59.2811 51.2804 45.4828C64.3385 33.3349 81.7973 26.6393 98.8444 21.167C101.778 20.2251 104.735 19.3193 107.699 18.4231L108.817 22.8569C98.3646 26.0334 87.9583 29.344 78.0314 33.8484C60.5546 41.7785 46.2685 53.834 39.6819 71.0909C31.7312 91.9186 35.4405 114.109 44.2605 133.496C56.5198 160.444 76.6412 182.72 96.7076 204.936C106.082 215.315 115.444 225.68 123.987 236.502C145.874 264.228 163.98 298.952 160.13 334.818Z" fill="url(#paint0_linear_101_65)"/>
<defs>
<linearGradient id="paint0_linear_101_65" x1="89" y1="-50" x2="89" y2="206" gradientUnits="userSpaceOnUse">
<stop stop-color="#02FFDD"/>
<stop offset="0.902937" stop-color="#02FFDD" stop-opacity="0"/>
</linearGradient>
</defs>
</svg>
