<svg width="87" height="118" viewBox="0 0 87 118" fill="none" xmlns="http://www.w3.org/2000/svg">
<g filter="url(#filter0_d_103_148)">
<path d="M58.0066 48.3841C57.9324 48.2486 57.8465 48.1299 57.7476 48.0327C56.6196 46.9239 55.5252 46.2272 55.2265 44.6486C54.9277 43.07 54.9277 39.6035 53.6117 38.0939C52.6624 37.0047 47.8568 37.2877 45.2531 37.53C44.1983 37.6282 43.3005 38.3349 42.9552 39.3364C42.4152 40.9023 41.7582 43.2357 42.05 44.6487C42.52 46.924 42.3267 47.864 41.2484 48.6159C40.1701 49.3679 39.2122 51.9059 40.1141 53.0338C40.8281 53.9267 51.8084 53.406 56.3537 53.1501C57.5242 53.0843 58.4447 52.1193 58.4473 50.947C58.4492 50.0309 58.3555 49.021 58.0066 48.3841Z" fill="#5A1F35"/>
<path d="M76.866 87.1462C76.866 87.1462 67.3575 96.1704 31.1266 95.5437L35.5049 77.7459L70.9737 75.4497L76.866 87.1462Z" fill="#C2773C"/>
<path d="M70.9733 88.0032H35.8619V93.3687H70.9733V88.0032Z" fill="#FFC8B3"/>
<path d="M70.8208 86.0862L69.097 64.781L58.6752 49.1264L56.9669 49.0405L55.5142 48.9678C54.1625 48.9002 52.8138 49.174 51.6018 49.7763C50.8059 50.1717 49.9035 50.5452 49.3288 50.5477C47.9301 50.554 46.7669 49.5563 42.9298 50.5295C42.9066 50.5358 42.8834 50.5414 42.8596 50.5477C42.7073 50.5872 35.2642 52.4672 34.9821 52.5612L35.8079 85.7396C35.8433 87.1596 36.5527 88.4782 37.718 89.2904C37.7231 89.2939 37.728 89.2974 37.7329 89.3008C38.7775 90.029 43.7163 89.5099 48.0624 88.9251C52.1709 88.3723 56.3297 88.3257 60.4518 88.7653C64.8743 89.2369 69.6811 89.4367 70.8208 88.891C72.4786 88.0972 70.8208 86.0862 70.8208 86.0862Z" fill="#FFE7DB"/>
<path d="M14.0375 78.7529C14.0375 78.7529 13.7736 75.3546 21.9139 72.7646C21.9139 72.7646 18.9207 79.9048 14.0375 78.7529Z" fill="#A05C2D"/>
<path d="M34.9787 52.561C34.9787 52.561 24.8269 73.1466 25.8608 77.5645C25.5788 77.7525 27.6694 85.8921 35.6186 82.0727C35.6228 82.2647 39.4735 78.9863 37.7045 65.6268C37.4226 64.4988 34.9787 52.561 34.9787 52.561Z" fill="#D35A4A"/>
<path d="M77.7934 18.2076C78.1963 17.9191 81.5215 15.9088 79.8198 11.3249C79.8124 11.2945 78.8767 8.21978 77.0744 9.18186C77.0738 9.18224 75.7872 7.12452 74.3093 8.43855C74.3039 8.50442 72.6093 7.21232 71.4145 9.0099C71.4187 9.02707 71.3596 9.00407 71.255 8.97274C70.1379 8.63821 69.0546 9.58601 69.237 10.7377C69.3274 11.3086 69.4334 11.9689 69.4334 11.9689C69.4334 11.9689 66.0486 13.4026 68.0931 16.838C68.1891 16.8791 69.3086 18.9063 70.8426 19.1117C70.8065 19.2281 74.783 20.3632 77.7934 18.2076Z" fill="#EBA181"/>
<path d="M78.2839 16.9275C78.3062 17.0188 79.259 20.9148 79.259 20.9148L71.2869 22.8645L70.3288 18.0343L78.2839 16.9275Z" fill="#EBA181"/>
<path d="M70.4302 38.7264L69.0933 20.0303L80.7497 18.1667L83.2257 39.4545C83.2257 39.4545 73.877 42.9878 70.4302 38.7264Z" fill="#C2773C"/>
<path d="M69.0958 64.7871C72.4137 60.4508 79.9431 48.9242 80.2508 48.3601C83.8855 44.2866 83.2283 39.4581 83.2283 39.4581L70.4327 38.73L65.7146 45.6018C64.0564 47.8237 61.4466 49.1326 58.6741 49.1326L69.0958 64.7871Z" fill="#C2773C"/>
<path d="M46.6331 44.2671V50.5548H52.0225L51.6465 43.7866L46.6331 44.2671Z" fill="#EBA181"/>
<path d="M46.6331 46.1293C46.6331 46.1294 48.3917 49.8296 51.8814 48.0133C51.883 48.0428 51.7375 45.4236 51.7375 45.4236L46.6331 46.1293Z" fill="#5A1F35"/>
<path d="M43.9597 35.8724C43.9597 35.8724 48.9639 31.6671 54.313 36.5074C54.3623 36.5953 55.2787 44.6217 50.8972 46.7878C49.8093 47.3257 48.5191 47.2862 47.4611 46.6916C45.6915 45.6971 43.1815 43.0398 43.9597 35.8724Z" fill="#EBA181"/>
<path d="M44.1775 40.4614C44.4706 39.8533 44.3695 39.1182 43.9028 38.6304C43.8869 38.6137 43.8712 38.598 43.8558 38.5833C43.4444 38.1907 42.7742 38.2057 42.4128 38.6447C42.3034 38.7775 42.2256 38.9399 42.2127 39.1368C42.1608 39.9245 43.6839 40.941 43.9594 40.7666C44.0344 40.7192 44.1088 40.604 44.1775 40.4614Z" fill="#EBA181"/>
<path d="M53.9527 41.2045C53.6815 40.5862 53.8087 39.8552 54.2924 39.3844C54.3089 39.3683 54.3252 39.3531 54.3411 39.339C54.7662 38.9613 55.4355 39.0001 55.7811 39.4517C55.8856 39.5884 55.9576 39.7534 55.9635 39.9506C55.9873 40.7396 54.4289 41.7014 54.1598 41.5172C54.0867 41.4672 54.0163 41.3494 53.9527 41.2045Z" fill="#EBA181"/>
<path d="M47.6759 34.2727C48.6118 34.2891 46.4183 38.346 43.8111 38.4904C43.8117 38.4903 42.9372 36.2343 43.5222 34.9391C44.1071 33.644 46.1687 32.9796 47.6759 34.2727Z" fill="#5A1F35"/>
<path d="M45.9445 34.2647C45.9445 34.2647 50.4964 39.925 54.4069 39.2565C54.3846 39.2164 55.2858 37.0356 54.6173 35.6121C53.9488 34.1885 51.6066 29.4393 45.9445 34.2647Z" fill="#5A1F35"/>
<path d="M45.2995 34.36C45.2062 34.3324 43.8565 32.9954 43.8147 32.118C43.7729 31.2407 45.7783 29.6948 46.8228 30.3633C47.8673 31.0318 48.1179 31.9091 48.0761 32.7029C48.0343 33.4967 47.3692 34.9727 45.2995 34.36Z" fill="#5A1F35"/>
<path d="M47.8914 43.5493C47.8914 43.5493 49.7297 44.1342 50.3564 43.9253C50.3564 43.9253 49.1657 46.5574 47.8914 43.5493Z" fill="#F6E7E2"/>
<path d="M48.7911 43.1012C48.7365 43.1012 48.6834 43.0726 48.6545 43.0215C48.6119 42.9462 48.6385 42.8506 48.7138 42.8081L49.5637 42.3277L48.9512 40.4176C48.9248 40.3353 48.9702 40.247 49.0526 40.2206C49.135 40.1944 49.2233 40.2396 49.2496 40.322L49.901 42.3536C49.9237 42.4242 49.8936 42.5012 49.8289 42.5377L48.868 43.0809C48.8436 43.0947 48.8172 43.1012 48.7911 43.1012Z" fill="#5A1F35"/>
<path d="M50.9823 41.0635C51.274 41.0635 51.5104 40.8271 51.5104 40.5354C51.5104 40.2438 51.274 40.0073 50.9823 40.0073C50.6906 40.0073 50.4542 40.2438 50.4542 40.5354C50.4542 40.8271 50.6906 41.0635 50.9823 41.0635Z" fill="#5A1F35"/>
<path d="M47.2797 41.2012C47.5714 41.2012 47.8078 40.9648 47.8078 40.6731C47.8078 40.3815 47.5714 40.145 47.2797 40.145C46.9881 40.145 46.7516 40.3815 46.7516 40.6731C46.7516 40.9648 46.9881 41.2012 47.2797 41.2012Z" fill="#5A1F35"/>
<path d="M47.8249 39.8197L46.7361 39.8341C46.5948 39.836 46.4788 39.723 46.4769 39.5817L46.4762 39.5313C46.4744 39.3901 46.5874 39.2741 46.7286 39.2722L47.8175 39.2578C47.9587 39.256 48.0747 39.3689 48.0766 39.5102L48.0773 39.5606C48.0792 39.7018 47.9662 39.8178 47.8249 39.8197Z" fill="#5A1F35"/>
<path d="M51.5313 39.7355L50.4424 39.7498C50.3011 39.7517 50.1851 39.6387 50.1833 39.4975L50.1826 39.4471C50.1808 39.3058 50.2938 39.1898 50.435 39.188L51.5239 39.1736C51.6651 39.1717 51.7811 39.2847 51.783 39.426L51.7837 39.4764C51.7855 39.6176 51.6725 39.7336 51.5313 39.7355Z" fill="#5A1F35"/>
<path d="M56.9637 49.0405L50.1816 58.6087L42.9266 50.5295C46.7638 49.5563 47.927 50.554 49.3257 50.5477C49.9004 50.5452 50.8028 50.1717 51.5987 49.7763C52.8107 49.174 54.1593 48.9002 55.5111 48.9678L56.9637 49.0405Z" fill="#EBA181"/>
<path d="M53.0781 49.1295L62.8958 48.0476C62.8958 48.0476 78.1199 79.4346 76.8666 87.1487C76.7412 87.2171 70.356 84.1032 64.2144 87.1492C64.3398 87.1872 59.0445 64.4095 59.0445 64.4095C59.0445 64.4095 54.5451 51.406 53.0781 49.1295Z" fill="#D4874B"/>
<path d="M35.8608 93.366L29.9714 108.842H76.2366L70.9722 93.366H35.8608Z" fill="#FFE7DB"/>
<path d="M39.8634 51.0769C39.8634 51.0769 33.1875 52.24 32.6234 54.8721C32.6234 54.9974 26.3386 73.5533 26.3386 73.5533C26.3386 73.5533 19.1159 85.339 26.9022 85.9525C26.9177 86.1275 46.0972 88.2744 39.8634 51.0769Z" fill="#C2773C"/>
<path d="M44.4671 50.2202C44.4671 50.2202 35.3882 51.4568 34.3811 52.9254C34.335 52.681 31.1266 95.5462 31.1266 95.5462C31.1327 95.025 32.4565 90.389 48.2623 89.3518L45.61 67.1332C45.61 67.1332 43.9605 52.5559 44.4671 50.2202Z" fill="#D4874B"/>
<path d="M17.4639 72.4335C17.4639 72.4335 20.276 73.2185 21.0284 70.8163C20.9748 70.873 21.596 70.7139 22.1258 70.5705C22.8036 70.3872 23.3193 69.8156 23.3933 69.1173C23.4439 68.6397 23.2858 68.12 22.5951 67.7417C22.5862 67.6835 24.2203 65.8672 22.4443 64.7689C22.4165 64.8208 23.5793 62.9992 21.9977 62.1988C21.9721 62.1745 22.1182 61.6956 22.0316 61.1763C21.8995 60.3845 21.0482 59.9336 20.3053 60.2376C19.2215 60.681 16.983 61.5745 15.7818 62.0531C15.2731 62.2558 14.8827 62.6762 14.7178 63.1984L13.1568 68.1429C13.1568 68.1428 15.7302 72.0792 17.4639 72.4335Z" fill="#EBA181"/>
<path d="M13.1568 68.1362C13.1568 68.1362 13.2382 74.7546 18.2789 80.5796C18.3107 80.3942 23.0524 73.5144 22.7648 73.3379C22.4771 73.1614 20.794 72.0087 20.794 72.0087L13.1568 68.1362Z" fill="#EBA181"/>
<path d="M21.9129 72.7646C21.9129 72.7646 18.1857 78.2887 14.0366 78.7529C14.0233 78.8301 19.5461 86.4166 26.4112 86.0056C30.9858 85.7318 33.2803 80.3027 30.2128 76.898C28.7911 75.3202 26.2552 73.8237 21.9129 72.7646Z" fill="#C2773C"/>
<path d="M46.0662 71.1147C46.0203 71.1147 45.9755 71.0946 45.945 71.0575L40.1467 64.0007C40.1133 63.9601 40.1025 63.9054 40.118 63.855C40.1336 63.8047 40.1734 63.7656 40.2239 63.7509L42.3299 63.137L38.9187 56.9159C38.888 56.8599 38.8944 56.7909 38.9349 56.7414L44.3459 50.1253C44.3878 50.0741 44.4574 50.0548 44.5198 50.0769C44.5822 50.0991 44.6238 50.1582 44.6239 50.2244C44.6285 55.7053 45.2257 63.4484 46.2214 70.9373C46.2307 71.0067 46.1927 71.0737 46.1286 71.1016C46.1083 71.1105 46.0871 71.1147 46.0662 71.1147ZM40.5395 63.9853L45.8392 70.4352C44.9104 63.3009 44.3459 55.9901 44.3121 50.6617L39.2442 56.858L42.6984 63.1575C42.7213 63.1992 42.724 63.249 42.7058 63.2928C42.6876 63.3367 42.6505 63.37 42.6049 63.3833L40.5395 63.9853Z" fill="#C2773C"/>
<path d="M60.2923 69.8687C60.2909 69.8687 60.2895 69.8687 60.2881 69.8686C60.217 69.8667 60.1561 69.8171 60.1398 69.7479L58.8932 64.4542C56.9409 58.8341 54.8731 53.0284 52.9376 49.201C52.908 49.1426 52.918 49.0719 52.9625 49.0238C53.007 48.9757 53.0768 48.9605 53.1373 48.9855C53.4966 49.134 60.8347 54.7751 61.6703 55.4179C61.7175 55.4542 61.7401 55.5143 61.7284 55.5728L60.4828 61.8004L62.7035 61.1982C62.7582 61.1834 62.8167 61.1992 62.8564 61.2397C62.8961 61.2802 62.9108 61.339 62.8948 61.3934L60.4425 69.756C60.4231 69.823 60.3617 69.8687 60.2923 69.8687ZM53.4836 49.597C55.3507 53.4355 57.3243 58.9832 59.1918 64.3591C59.1936 64.3642 59.1951 64.3694 59.1963 64.3746L60.3088 69.0988L62.5154 61.5739L60.3206 62.1691C60.2683 62.1834 60.2122 62.1695 60.1726 62.1324C60.133 62.0953 60.1154 62.0404 60.1259 61.9872L61.402 55.6069C58.6824 53.5153 54.8257 50.5711 53.4836 49.597Z" fill="#C2773C"/>
<path d="M63.122 72.7933C62.4578 72.7933 61.9174 72.2529 61.9174 71.5886C61.9174 70.9244 62.4578 70.384 63.122 70.384C63.7862 70.384 64.3265 70.9244 64.3265 71.5886C64.3265 72.2529 63.7862 72.7933 63.122 72.7933ZM63.122 70.6974C62.6305 70.6974 62.2307 71.0973 62.2307 71.5887C62.2307 72.0802 62.6305 72.48 63.122 72.48C63.6134 72.48 64.0132 72.0802 64.0132 71.5887C64.0132 71.0973 63.6134 70.6974 63.122 70.6974Z" fill="#C2773C"/>
<path d="M34.9785 83.2489C34.9584 83.2489 34.9383 83.2451 34.9192 83.2373C34.8277 83.1999 34.7817 83.1811 34.455 81.8585C34.3027 81.2416 34.1611 80.6218 34.1596 80.6157C34.1428 80.5421 34.1809 80.467 34.2501 80.437C34.5343 80.314 41.2371 77.4388 43.532 78.5863C43.547 78.5938 43.5608 78.6037 43.5727 78.6157C43.6251 78.668 43.7476 78.7906 43.6184 81.0541C43.6141 81.1289 43.5575 81.1902 43.4833 81.2004C43.423 81.2087 37.4186 82.0463 35.0486 83.2324C35.0266 83.2434 35.0026 83.2489 34.9785 83.2489ZM34.4945 80.6738C34.7044 81.5855 34.9437 82.5449 35.0543 82.8815C37.3773 81.7932 42.421 81.0359 43.3127 80.908C43.3603 80.0211 43.3805 79.0714 43.3379 78.8408C41.2812 77.9064 35.4091 80.2912 34.4945 80.6738Z" fill="#C2773C"/>
<path d="M67.5533 77.6934C67.5202 77.6934 67.4873 77.683 67.4598 77.6625C67.4111 77.6264 67.3877 77.5655 67.3996 77.5061C67.4115 77.3006 66.8099 75.8954 66.221 74.6587C66.2014 74.6173 66.2007 74.5694 66.2194 74.5275C66.2381 74.4856 66.2742 74.4541 66.3181 74.4411C66.3656 74.427 67.4984 74.0971 69.051 74.0357C70.4896 73.9788 72.5654 74.1556 74.284 75.3216C74.327 75.3508 74.3527 75.3993 74.3527 75.4512V77.5367C74.3527 77.5885 74.3271 77.637 74.2843 77.6662C74.2415 77.6954 74.187 77.7014 74.1388 77.6826C74.1012 77.6678 70.3492 76.2231 67.627 77.675C67.6038 77.6874 67.5784 77.6934 67.5533 77.6934ZM70.539 76.7066C72.1178 76.7066 73.5158 77.1319 74.0394 77.313V75.535C71.2425 73.6921 67.4457 74.4816 66.5849 74.6948C66.9283 75.4223 67.5165 76.7085 67.6718 77.3011C68.5937 76.8576 69.5984 76.7066 70.539 76.7066Z" fill="#C2773C"/>
<path d="M70.9731 93.5282H35.8617C35.7752 93.5282 35.7051 93.4581 35.7051 93.3715C35.7051 93.285 35.7752 93.2148 35.8617 93.2148H70.9731C71.0596 93.2148 71.1297 93.285 71.1297 93.3715C71.1298 93.4581 71.0596 93.5282 70.9731 93.5282Z" fill="#FCB392"/>
<path d="M38.9944 109.004C38.9816 109.004 38.9687 109.003 38.9557 109C38.8718 108.978 38.8211 108.893 38.8424 108.809L42.7767 93.333C42.798 93.2491 42.8832 93.1983 42.9672 93.2197C43.051 93.2411 43.1017 93.3263 43.0804 93.4102L39.1461 108.886C39.1281 108.957 39.0644 109.004 38.9944 109.004Z" fill="#FCB392"/>
<path d="M50.4884 109.003C50.4868 109.003 50.4852 109.003 50.4835 109.003C50.3971 109.001 50.3291 108.929 50.3316 108.842L50.8017 93.2207C50.8043 93.1342 50.8774 93.065 50.963 93.0687C51.0494 93.0714 51.1174 93.1436 51.1149 93.2301L50.6448 108.851C50.6423 108.936 50.5727 109.003 50.4884 109.003Z" fill="#FCB392"/>
<path d="M16.1019 64.1066C16.0343 64.1066 15.972 64.0626 15.9517 63.9946C15.927 63.9117 15.9743 63.8244 16.0572 63.7997L21.9534 62.046C22.0364 62.0215 22.1236 62.0686 22.1482 62.1516C22.1729 62.2345 22.1257 62.3218 22.0427 62.3464L16.1465 64.1001C16.1317 64.1044 16.1166 64.1066 16.1019 64.1066Z" fill="#D68569"/>
<path d="M17.1584 66.1737C17.0874 66.1737 17.0231 66.1251 17.0061 66.053C16.9862 65.9687 17.0383 65.8844 17.1225 65.8645L22.41 64.6144C22.4942 64.5943 22.5786 64.6466 22.5986 64.7309C22.6184 64.8151 22.5663 64.8994 22.4821 64.9194L17.1946 66.1694C17.1825 66.1723 17.1703 66.1737 17.1584 66.1737Z" fill="#D68569"/>
<path d="M17.9677 68.5064C17.8902 68.5064 17.8229 68.449 17.8125 68.3701C17.8012 68.2844 17.8616 68.2056 17.9474 68.1944L22.5756 67.5865C22.6619 67.5753 22.7401 67.6357 22.7513 67.7215C22.7626 67.8072 22.7022 67.8859 22.6164 67.8972L17.9882 68.505C17.9813 68.506 17.9745 68.5064 17.9677 68.5064Z" fill="#D68569"/>
<path d="M17.9678 70.0725C17.9618 70.0725 17.9556 70.0721 17.9494 70.0715C17.8634 70.0614 17.802 69.9835 17.8121 69.8975C18.1446 67.0667 15.3517 63.0536 15.3235 63.0134C15.2738 62.9425 15.2909 62.8448 15.3616 62.7951C15.4325 62.7453 15.5301 62.7624 15.5799 62.8332C15.698 63.0013 18.4698 66.984 18.1233 69.9341C18.1138 70.0138 18.0462 70.0725 17.9678 70.0725Z" fill="#D68569"/>
<path d="M17.285 72.8521C16.0452 72.8521 14.9514 72.1383 14.0894 70.7548C13.3261 69.5293 13.0169 68.2293 13.0041 68.1745C12.9845 68.0903 13.0369 68.0061 13.121 67.9864C13.2052 67.9665 13.2895 68.019 13.3093 68.1032C13.3123 68.1162 13.6214 69.4135 14.359 70.595C15.3264 72.1442 16.5386 72.7728 17.9623 72.4635C18.0469 72.4456 18.1304 72.4988 18.1487 72.5834C18.1671 72.668 18.1134 72.7514 18.0289 72.7698C17.7758 72.8247 17.5275 72.8521 17.285 72.8521Z" fill="#D68569"/>
<path d="M19.0431 73.8304C18.9714 73.8304 18.9068 73.7809 18.8904 73.708C18.8715 73.6235 18.9245 73.5397 19.009 73.5208C19.9259 73.315 20.284 71.8132 20.2875 71.7981C20.307 71.7138 20.3913 71.6614 20.4755 71.6808C20.5598 71.7004 20.6123 71.7845 20.5927 71.8688C20.5766 71.9384 20.1845 73.578 19.0776 73.8266C19.0661 73.8291 19.0545 73.8304 19.0431 73.8304Z" fill="#D68569"/>
<path d="M70.2522 14.9588C70.176 14.9588 70.1092 14.9032 70.0974 14.8256C70.0845 14.7401 70.1434 14.6602 70.2289 14.6473C70.9712 14.535 71.8685 14.3373 72.2221 13.8004C72.3904 13.545 72.423 13.2328 72.3217 12.846C71.9889 11.5747 69.4924 12.1144 69.4672 12.12C69.3828 12.1386 69.2991 12.0856 69.2803 12.001C69.2615 11.9165 69.3147 11.8329 69.3992 11.8141C69.5141 11.7886 72.2165 11.2066 72.6248 12.7666C72.7481 13.2377 72.7006 13.6435 72.4838 13.9728C72.0622 14.613 71.0824 14.8351 70.2758 14.9571C70.2679 14.9583 70.2599 14.9588 70.2522 14.9588Z" fill="#D68569"/>
<path d="M75.1951 16.6785C75.1182 16.6785 75.0511 16.6218 75.0401 16.5436C74.9221 15.703 74.5932 15.0896 74.0623 14.7205C73.2055 14.1247 72.0917 14.3602 72.0805 14.3626C71.9962 14.3814 71.9125 14.3279 71.8938 14.2434C71.8751 14.159 71.9283 14.0755 72.0127 14.0567C72.0635 14.0453 73.2673 13.7878 74.2387 14.4615C74.8456 14.8823 75.2196 15.5682 75.3504 16.5C75.3624 16.5857 75.3027 16.6649 75.217 16.6769C75.2096 16.678 75.2023 16.6785 75.1951 16.6785Z" fill="#D68569"/>
<path d="M73.6991 13.2397C72.8282 13.2398 72.277 12.6577 72.119 12.0462L71.2648 9.05588C71.241 8.97266 71.2892 8.88599 71.3724 8.86223C71.4555 8.83855 71.5423 8.88667 71.566 8.96984L72.4213 11.9641C72.5724 12.5489 73.1286 13.0608 74.0322 12.8948C74.8331 12.7478 74.9402 12.1662 74.9532 12.0572L74.1573 8.47557C74.1385 8.39109 74.1917 8.30737 74.2762 8.28863C74.3605 8.27002 74.4444 8.3231 74.4631 8.40757L75.2644 12.0129C75.2674 12.0264 75.2685 12.0403 75.2679 12.0542C75.2675 12.0636 75.2112 12.997 74.0889 13.2031C73.9526 13.228 73.8225 13.2397 73.6991 13.2397Z" fill="#D68569"/>
<path d="M76.5223 12.7956C76.0805 12.7956 75.5586 12.6426 75.0072 12.1639C74.9419 12.1071 74.9349 12.0082 74.9916 11.9428C75.0482 11.8775 75.1472 11.8704 75.2126 11.9273C76.3474 12.9126 77.2989 12.3339 77.5572 12.1394C77.3094 10.9864 76.9497 9.32259 76.9229 9.22508C76.8999 9.14167 76.949 9.05544 77.0324 9.0325C77.1157 9.00957 77.2021 9.05857 77.225 9.14205C77.2638 9.28305 77.8203 11.8725 77.8837 12.1673C77.8954 12.2217 77.8774 12.2782 77.8364 12.3158C77.8282 12.3233 77.2987 12.7956 76.5223 12.7956Z" fill="#D68569"/>
<path d="M78.749 12.7957C78.1523 12.7957 77.6452 12.3321 77.6225 12.3111C77.5591 12.2523 77.5553 12.1531 77.6142 12.0897C77.673 12.0263 77.772 12.0225 77.8355 12.0812C77.843 12.0882 78.333 12.5321 78.8355 12.4777C79.0779 12.4515 79.2912 12.3088 79.4697 12.0537C79.5193 11.9828 79.617 11.9655 79.6878 12.0151C79.7587 12.0647 79.776 12.1624 79.7264 12.2333C79.4934 12.5663 79.2044 12.7534 78.8674 12.7894C78.8277 12.7936 78.7881 12.7957 78.749 12.7957Z" fill="#D68569"/>
<path d="M65.0079 109.004C64.9272 109.004 64.8587 108.942 64.852 108.86C64.506 104.606 61.9472 93.5184 61.9214 93.4069C61.9019 93.3226 61.9545 93.2385 62.0388 93.219C62.1229 93.1993 62.2072 93.2519 62.2267 93.3363C62.2526 93.448 64.8165 104.558 65.1643 108.835C65.1713 108.921 65.1071 108.997 65.0208 109.004C65.0164 109.004 65.0121 109.004 65.0079 109.004Z" fill="#FCB392"/>
<path d="M70.2808 100.54C70.2056 100.54 70.1392 100.486 70.1264 100.409C69.6475 97.5426 68.6043 93.4514 68.5939 93.4104C68.5724 93.3265 68.623 93.2412 68.7069 93.2198C68.7905 93.1982 68.876 93.2489 68.8974 93.3328C68.908 93.3739 69.9543 97.4779 70.4355 100.357C70.4497 100.443 70.3921 100.523 70.3067 100.538C70.2981 100.539 70.2894 100.54 70.2808 100.54Z" fill="#FCB392"/>
<path d="M28.2583 76.6433C28.2581 76.6433 28.258 76.6433 28.2578 76.6433C26.6004 76.6376 25.8986 74.2454 25.8696 74.1436C25.8458 74.0604 25.894 73.9737 25.9772 73.9499C26.0605 73.9261 26.1471 73.9744 26.1709 74.0575C26.1774 74.0802 26.8369 76.3251 28.2588 76.33C28.3454 76.3303 28.4152 76.4006 28.415 76.4872C28.4147 76.5735 28.3446 76.6433 28.2583 76.6433Z" fill="#AF632F"/>
<path d="M28.3864 79.2764C28.3766 79.2764 28.3665 79.2754 28.3565 79.2736C27.0509 79.0214 26.1833 78.0258 25.8478 76.3942C25.5996 75.1874 25.7269 74.0726 25.7324 74.0258C25.7425 73.9399 25.8207 73.8783 25.9063 73.8886C25.9922 73.8987 26.0536 73.9766 26.0435 74.0625C26.0384 74.1059 25.5657 78.4155 28.4158 78.9658C28.5008 78.9822 28.5564 79.0644 28.5399 79.1493C28.5255 79.2244 28.4599 79.2764 28.3864 79.2764Z" fill="#AF632F"/>
<path d="M73.9654 41.964C73.8929 41.964 73.8277 41.9134 73.8122 41.8396C73.337 39.5822 70.4259 38.8843 70.3965 38.8775C70.3122 38.858 70.2597 38.7739 70.2791 38.6896C70.2986 38.6053 70.3829 38.5527 70.4671 38.5722C70.5949 38.6017 73.6028 39.324 74.1188 41.775C74.1367 41.8597 74.0825 41.9428 73.9978 41.9606C73.9869 41.963 73.976 41.964 73.9654 41.964Z" fill="#AF632F"/>
<path d="M73.2753 38.7894C73.2563 38.7894 73.237 38.7859 73.2182 38.7786C71.8545 38.2442 70.496 38.7728 70.4824 38.7782C70.4021 38.8101 70.3109 38.771 70.2788 38.6908C70.2468 38.6105 70.2857 38.5194 70.366 38.4872C70.4259 38.4632 71.8505 37.9061 73.3325 38.4868C73.4131 38.5184 73.4528 38.6092 73.4212 38.6898C73.397 38.7517 73.3379 38.7894 73.2753 38.7894Z" fill="#AF632F"/>
<path d="M43.7229 74.9769C43.6477 74.9769 43.5813 74.9226 43.5685 74.846C43.5543 74.7606 43.612 74.6799 43.6973 74.6657L45.452 74.3733C45.5375 74.3589 45.6181 74.4167 45.6323 74.5021C45.6466 74.5874 45.5889 74.6682 45.5035 74.6824L43.7488 74.9748C43.7401 74.9762 43.7314 74.9769 43.7229 74.9769Z" fill="#C2773C"/>
<path d="M57.0186 99.336C56.9366 99.336 56.8676 99.2722 56.8624 99.1892L56.4864 93.235C56.4809 93.1487 56.5465 93.0742 56.6328 93.0688C56.7186 93.0641 56.7936 93.1289 56.7991 93.2154L57.1751 99.1695C57.1805 99.2559 57.115 99.3302 57.0286 99.3357C57.0253 99.3359 57.022 99.336 57.0186 99.336Z" fill="#FCB392"/>
<path d="M43.9153 39.7411C43.8612 39.7411 43.8087 39.7131 43.7796 39.663C43.7605 39.6303 43.3381 38.9286 42.5909 39.12C42.5073 39.1413 42.4217 39.0909 42.4003 39.007C42.3789 38.9232 42.4294 38.8378 42.5132 38.8164C43.2983 38.6154 43.8623 39.1796 44.0508 39.506C44.0941 39.5809 44.0685 39.6768 43.9935 39.72C43.9688 39.7344 43.9419 39.7411 43.9153 39.7411Z" fill="#D68569"/>
<path d="M54.2897 40.8332C54.2753 40.8332 54.2607 40.8312 54.2462 40.827C54.163 40.8031 54.1151 40.7162 54.1391 40.6331C54.1606 40.5585 54.3623 39.8998 54.8131 39.7485C54.955 39.7009 55.1808 39.6864 55.4508 39.8884C55.52 39.9402 55.5343 40.0384 55.4824 40.1077C55.4305 40.177 55.3323 40.1911 55.263 40.1393C55.1318 40.0411 55.0172 40.0105 54.9127 40.0456C54.6613 40.1299 54.4828 40.5718 54.4401 40.7199C54.4203 40.7885 54.3577 40.8332 54.2897 40.8332Z" fill="#D68569"/>
</g>
<defs>
<filter id="filter0_d_103_148" x="0" y="0" width="86.2746" height="117.004" filterUnits="userSpaceOnUse" color-interpolation-filters="sRGB">
<feFlood flood-opacity="0" result="BackgroundImageFix"/>
<feColorMatrix in="SourceAlpha" type="matrix" values="0 0 0 0 0 0 0 0 0 0 0 0 0 0 0 0 0 0 127 0" result="hardAlpha"/>
<feOffset dx="-5"/>
<feGaussianBlur stdDeviation="4"/>
<feComposite in2="hardAlpha" operator="out"/>
<feColorMatrix type="matrix" values="0 0 0 0 0 0 0 0 0 0 0 0 0 0 0 0 0 0 0.25 0"/>
<feBlend mode="normal" in2="BackgroundImageFix" result="effect1_dropShadow_103_148"/>
<feBlend mode="normal" in="SourceGraphic" in2="effect1_dropShadow_103_148" result="shape"/>
</filter>
</defs>
</svg>
