<svg width="107" height="118" viewBox="0 0 107 118" fill="none" xmlns="http://www.w3.org/2000/svg">
<g filter="url(#filter0_d_103_241)">
<path d="M28.1314 44.668C28.1314 44.668 23.7627 59.2955 26.4282 64.6049C26.4282 64.6049 30.291 63.1233 28.1314 44.668Z" fill="#B74941"/>
<path d="M24.4533 32.6738L28.0691 44.7133C28.0691 44.7133 32.7618 58.469 28.0673 61.1632C28.1669 61.1298 19.3761 59.4682 18.496 58.8155C18.2222 58.6124 13.6082 54.2511 16.92 30.207C16.898 30.3187 24.4533 32.6738 24.4533 32.6738Z" fill="#EBA181"/>
<path d="M51.7105 11.8625C51.7105 11.8625 46.9439 13.6588 48.5971 21.0152C50.2502 28.3717 42.7284 28.1836 47.2746 35.3448C47.2746 35.5629 69.7548 39.8942 77.7324 34.009C78.6016 34.2404 73.9728 33.0998 73.7248 29.5455C73.6422 29.5455 73.0634 22.6628 70.0879 19.9407C69.6333 19.3774 67.789 18.1101 67.4853 15.9286C67.4023 15.3326 67.2631 14.745 67.0317 14.1896C65.9663 11.6316 62.6937 6.64456 51.7105 11.8625Z" fill="#5A1F35"/>
<path d="M34.7412 83.4727L30.9746 109.136L58.374 109.115L58.9024 101.326L59.8617 109.136H85.7735L83.2939 84.8364L34.7412 83.4727Z" fill="#B6A75A"/>
<path d="M55.3658 32.8357C54.6998 32.4967 38.6202 32.7255 38.7667 39.7747C38.7937 41.0772 38.7215 42.3795 38.4855 43.6607C36.9633 51.9223 33.8671 71.6742 34.5342 84.8477L80.9818 85.6079C80.4869 68.3278 81.2699 59.6552 79.7095 43.9226C79.7095 43.9226 80.9493 32.5472 62.4742 32.7531C62.4962 33.1473 55.3658 32.8357 55.3658 32.8357Z" fill="#D35A4A"/>
<path d="M19.3641 19.5834C19.4947 19.7258 18.8804 13.768 18.4158 11.9C18.2579 11.2654 18.4388 10.5907 18.9036 10.1306C19.2541 9.78357 19.7457 9.50212 20.3886 9.59032C21.186 9.69967 21.8063 10.3407 21.937 11.1348C22.2286 12.9078 22.7038 18.6608 22.7038 18.6608L23.6125 11.3739C23.7283 10.3606 24.8099 9.74522 25.7276 10.1904C25.7615 10.2069 25.7957 10.2246 25.8301 10.2437C26.3632 10.5397 26.656 11.1366 26.5728 11.7407C26.3052 13.6857 25.5555 19.1319 25.5555 19.1319L28.3597 18.1695C28.8714 18.0752 29.3847 18.3262 29.6248 18.7878L30.451 21.3946C30.5468 21.6969 30.5575 22.0199 30.4818 22.3279L30.1737 23.5813C30.1372 23.7296 29.9773 23.8112 29.8365 23.752C29.3188 23.5345 28.2503 22.8605 28.3178 21.0163C28.3326 21.0459 27.3189 21.9396 25.7759 24.1162C25.8203 24.131 27.6664 29.6474 27.6664 29.6474L24.0783 32.92L16.9626 30.2692L16.8697 22.2897L13.3887 15.6974C13.0029 15.206 12.8919 14.548 13.1116 13.9632C13.2956 13.4735 13.6554 12.9893 14.3573 12.8876C14.9613 12.8001 15.5647 13.0525 15.9569 13.5202C17.069 14.8468 19.3641 19.5834 19.3641 19.5834Z" fill="#EBA181"/>
<path d="M19.2363 31.1226C19.2363 31.1226 21.7579 24.0423 28.6125 25.9818C28.7902 25.9818 28.6978 23.3171 30.3299 23.8944C30.3966 23.9221 30.8781 26.5502 30.8777 26.8849C30.8773 27.0771 26.5172 34.4576 19.2363 31.1226Z" fill="#EBA181"/>
<path d="M88.9459 46.6836C88.9459 46.6836 102.59 55.1648 103.072 62.5151C102.689 66.5802 87.3302 84.9464 87.3302 84.9464L82.0098 76.7855L90.291 62.7453C90.291 62.7453 85.1558 59.5474 85.0652 59.0598C84.9746 58.5722 88.9459 46.6836 88.9459 46.6836Z" fill="#EBA181"/>
<path d="M72.752 34.3242C81.5691 38.76 88.4346 43.2451 93.4703 47.7766L86.0637 66.4625C86.0637 66.4625 76.3544 59.8477 75.4311 51.3424C74.5078 42.8371 72.752 34.3242 72.752 34.3242Z" fill="#D35A4A"/>
<path d="M42.3184 35.0195L28.1329 44.6636C28.1329 44.6636 30.0733 62.4021 26.4297 64.6006C27.1252 64.8164 37.9016 59.8244 37.9273 59.2005C37.953 58.5766 42.3184 35.0195 42.3184 35.0195Z" fill="#D35A4A"/>
<path d="M54.707 25.7158V34.009H61.8155L61.3196 25.082L54.707 25.7158Z" fill="#EBA181"/>
<path d="M51.1914 32.8696C51.1914 32.8696 56.6776 40.9072 64.9083 32.7911C64.9413 32.7958 54.1788 31.8108 51.1914 32.8696Z" fill="#EBA181"/>
<path d="M54.707 29.4939C54.707 29.4939 56.8764 32.6585 61.6811 31.5879C61.6839 31.6383 61.4438 27.707 61.4438 27.707L54.707 29.4939Z" fill="#5A1F35"/>
<path d="M61.344 14.28C62.2675 14.7503 63.2146 15.3961 64.17 16.2606C64.235 16.3765 65.7854 26.2477 60.0061 29.1046C58.5711 29.8138 56.6105 30.3085 55.1329 29.6932C52.3204 28.5224 51.6779 26.6237 50.7682 22.1625C49.2778 14.8543 55.8885 11.5013 61.344 14.28Z" fill="#EBA181"/>
<path d="M51.7109 11.861C51.7109 11.861 54.1002 16.2239 59.4252 17.3475C60.8488 17.648 61.2829 21.9624 62.943 22.6375C62.943 22.6375 63.0837 23.1628 64.6023 21.427C64.4938 21.3166 71.0518 8.84477 51.7109 11.861Z" fill="#5A1F35"/>
<path d="M59.2832 10.1527C59.2832 10.1527 62.5665 9.53527 64.2145 9.99534C64.4988 9.95947 68.8296 6.39745 70.6893 8.87708C72.549 11.3566 70.911 15.6011 67.0282 14.1894C67.0282 14.0806 66.8147 15.4933 67.6047 17.5022C67.7165 18.0481 59.2832 10.1527 59.2832 10.1527Z" fill="#5A1F35"/>
<path d="M57.7497 21.6563C57.8415 22.0124 58.2045 22.2267 58.5606 22.135C58.9167 22.0433 59.131 21.6802 59.0394 21.3242C58.9476 20.9681 58.5846 20.7537 58.2285 20.8454C57.8723 20.9372 57.658 21.3002 57.7497 21.6563Z" fill="#5A1F35"/>
<path d="M57.5373 20.1247L59.0906 20.0582C59.2767 20.0503 59.4212 19.8929 59.4132 19.7067L59.4113 19.6628C59.4033 19.4766 59.246 19.3321 59.0598 19.3402L57.5065 19.4066C57.3204 19.4145 57.1759 19.5719 57.1839 19.7581L57.1858 19.802C57.1937 19.9882 57.3511 20.1326 57.5373 20.1247Z" fill="#5A1F35"/>
<path d="M53.7334 19.9113L54.9963 20.5954C55.1602 20.6841 55.3649 20.6232 55.4537 20.4594L55.4853 20.401C55.5741 20.2371 55.5132 20.0324 55.3494 19.9436L54.0864 19.2595C53.9226 19.1708 53.7179 19.2317 53.6291 19.3955L53.5974 19.454C53.5087 19.6178 53.5696 19.8225 53.7334 19.9113Z" fill="#5A1F35"/>
<path d="M56.703 24.0562C56.6728 24.0562 56.6422 24.0496 56.6133 24.0355L55.6699 23.5798L56.1249 21.0874C56.1454 20.9751 56.253 20.9012 56.3654 20.9213C56.4776 20.9418 56.552 21.0494 56.5315 21.1617L56.133 23.3445L56.7931 23.6634C56.8958 23.7131 56.9389 23.8366 56.8893 23.9393C56.8536 24.0132 56.7798 24.0562 56.703 24.0562Z" fill="#5A1F35"/>
<path d="M52.9037 21.7948C52.8567 21.7948 52.8095 21.7788 52.7708 21.7462C52.6839 21.6728 52.6723 21.5433 52.7453 21.4561C52.7618 21.4363 53.1569 20.9719 53.7796 20.9224C54.1938 20.8891 54.6025 21.0449 54.9936 21.3846C55.0797 21.4595 55.0889 21.59 55.014 21.6762C54.9392 21.7624 54.8086 21.7715 54.7225 21.6966C54.4197 21.4335 54.1151 21.3117 53.8164 21.334C53.3681 21.3677 53.0647 21.7183 53.0618 21.7219C53.0208 21.77 52.9624 21.7948 52.9037 21.7948Z" fill="#5A1F35"/>
<path d="M55.0391 25.6289C55.1463 26.0791 56.7547 28.2441 59.3097 25.6289H55.0391Z" fill="#F6E7E2"/>
<path d="M64.1284 23.7114C64.9336 23.3314 65.4402 22.4941 65.3668 21.6067C65.3644 21.5763 65.3613 21.5472 65.3577 21.5194C65.2619 20.7755 64.5626 20.2346 63.8277 20.3844C63.6053 20.4298 63.3908 20.5316 63.2141 20.7227C62.5071 21.487 63.2244 23.7933 63.6516 23.8432C63.7677 23.8568 63.9396 23.8005 64.1284 23.7114Z" fill="#EBA181"/>
<path d="M22.2983 27.4036C22.2623 27.4036 22.2259 27.3942 22.1927 27.3744C22.0946 27.316 22.0626 27.1892 22.1209 27.0911C22.7513 26.0331 23.5207 25.3867 24.408 25.1695C25.5609 24.8876 26.4774 25.4425 26.516 25.4664C26.613 25.5264 26.6431 25.6537 26.5831 25.7508C26.5231 25.8477 26.396 25.8777 26.299 25.8181C26.2843 25.8092 25.4787 25.3304 24.5003 25.5725C23.727 25.7638 23.046 26.3459 22.476 27.3027C22.4373 27.3675 22.3687 27.4036 22.2983 27.4036Z" fill="#D68569"/>
<path d="M28.3175 21.2275C28.2194 21.2275 28.1322 21.1571 28.1144 21.0572C28.1127 21.0484 28.1091 21.0345 28.1045 21.0157C27.9105 20.2269 27.9681 19.5595 28.2757 19.0322C28.3333 18.9337 28.4597 18.9004 28.5583 18.9578C28.6569 19.0153 28.6902 19.1419 28.6327 19.2404C28.381 19.6719 28.3383 20.2359 28.5058 20.917C28.5136 20.9489 28.519 20.9719 28.5213 20.9849C28.5411 21.0972 28.466 21.2044 28.3537 21.2242C28.3416 21.2264 28.3295 21.2275 28.3175 21.2275Z" fill="#D68569"/>
<path d="M29.366 27.0629C29.3593 27.0629 29.3526 27.0626 29.3458 27.0619C28.6645 26.996 28.4349 26.3306 28.4088 25.988C28.4001 25.8741 28.4854 25.7749 28.5991 25.7662C28.7144 25.7579 28.8118 25.8424 28.8209 25.9559C28.8233 25.9845 28.8819 26.6018 29.3857 26.6506C29.4992 26.6616 29.5825 26.7626 29.5715 26.8762C29.5611 26.983 29.4711 27.0629 29.366 27.0629Z" fill="#D68569"/>
<path d="M23.5909 32.9705C20.7654 32.9705 19.2023 30.1609 19.1853 30.1296C19.1308 30.0293 19.1679 29.9038 19.2681 29.8494C19.3685 29.7948 19.4938 29.832 19.5483 29.932C19.5656 29.9638 21.321 33.1076 24.4151 32.4712C24.5269 32.4482 24.6361 32.5202 24.6592 32.632C24.6822 32.7438 24.6103 32.853 24.4984 32.8761C24.1829 32.9411 23.8803 32.9705 23.5909 32.9705Z" fill="#D68569"/>
<path d="M84.014 88.0082H34.0781L34.5355 84.8438H84.014V88.0082Z" fill="#5A1F35"/>
<path d="M61.1683 89.7058H55.763C53.953 89.7058 52.4805 88.2333 52.4805 86.4233C52.4805 84.6132 53.953 83.1406 55.763 83.1406H61.1683C62.9783 83.1406 64.4509 84.6132 64.4509 86.4233C64.4509 88.2333 62.9783 89.7058 61.1683 89.7058ZM55.763 84.9987C54.9775 84.9987 54.3385 85.6377 54.3385 86.4233C54.3385 87.2088 54.9775 87.8478 55.763 87.8478H61.1683C61.9538 87.8478 62.5929 87.2088 62.5929 86.4233C62.5929 85.6377 61.9539 84.9987 61.1683 84.9987H55.763Z" fill="#D4874B"/>
<path d="M56.9841 101.722C55.4976 101.722 54.2443 101.348 53.2428 100.604C51.6632 99.4309 51.3689 97.8309 51.3672 97.8157L51.7779 97.7695C51.8075 97.9978 52.2304 99.3556 53.5242 100.298C54.8407 101.257 56.639 101.535 58.8686 101.124L58.9435 101.531C58.2516 101.658 57.5979 101.722 56.9841 101.722Z" fill="#A09148"/>
<path d="M33.0064 96.9987C32.9314 96.9987 32.8566 96.997 32.7812 96.994L32.7984 96.581C35.6583 96.698 37.7056 94.3657 38.9175 92.3872C40.2496 90.2123 40.897 87.9755 40.9034 87.9531L41.3008 88.0666C41.2943 88.0893 40.6341 90.3732 39.2745 92.5955C37.5093 95.4809 35.3461 96.9987 33.0064 96.9987Z" fill="#A09148"/>
<path d="M35.0185 96.2753L32.9629 109.105L33.371 109.171L35.4266 96.3407L35.0185 96.2753Z" fill="#A09148"/>
<path d="M83.3053 95.7842C81.1351 95.7842 79.1406 94.5522 77.484 92.1704C76.0407 90.095 75.3696 87.915 75.3418 87.8231L75.7372 87.7031C75.7439 87.7251 76.4203 89.9201 77.8287 91.942C79.6898 94.6139 81.8806 95.7343 84.3413 95.2724L84.4175 95.6786C84.0423 95.7491 83.6712 95.7842 83.3053 95.7842Z" fill="#A09148"/>
<path d="M82.8918 95.5065L82.4805 95.5469L83.8147 109.138L84.226 109.097L82.8918 95.5065Z" fill="#A09148"/>
<path d="M71.967 83.3633C71.967 83.3633 68.7804 87.614 69.5412 91.9046C69.5228 95.2652 70.102 97.2411 72.7549 95.5785C72.9707 94.652 71.967 83.3633 71.967 83.3633Z" fill="#EBA181"/>
<path d="M72.4603 82.1797C72.4603 82.1797 67.9332 84.9598 67.062 89.2293C66.372 92.2762 66.0599 93.8212 67.4244 94.0796C68.2976 94.2449 69.1544 93.7118 69.4329 92.8679C70.4215 89.8719 72.4603 82.1797 72.4603 82.1797Z" fill="#EBA181"/>
<path d="M87.3295 84.9521C87.3295 84.9521 86.0938 87.8731 84.0132 88.0143C83.6967 88.2966 80.4413 88.232 80.4413 88.232L79.3805 91.9669C79.3805 91.9669 78.2763 95.2112 76.4647 92.7177C76.4513 92.7311 76.4644 93.6328 76.4782 94.4049C76.4964 95.4251 75.8702 96.3646 74.9028 96.6893C74.3041 96.8902 73.6061 96.8413 72.9357 96.1291C72.9005 96.1291 68.3138 82.6161 75.3349 78.2412C75.3349 78.2765 83.2642 76.168 83.2642 76.168L87.3295 84.9521Z" fill="#EBA181"/>
<path d="M76.4567 92.9938C76.3531 92.9938 76.2637 92.916 76.2517 92.8104C76.2318 92.6355 75.7801 88.5043 77.2005 86.8568C77.2751 86.7705 77.4055 86.7608 77.4919 86.8353C77.5784 86.9097 77.5881 87.0402 77.5135 87.1267C76.211 88.6375 76.6577 92.7227 76.6623 92.7637C76.6752 92.8772 76.5937 92.9795 76.4803 92.9924C76.4724 92.9934 76.4645 92.9938 76.4567 92.9938Z" fill="#D68569"/>
<path d="M72.7506 95.7812C72.6473 95.7812 72.5581 95.7039 72.5457 95.5989C72.5111 95.3075 71.7197 88.4341 73.5271 86.077C73.5966 85.9865 73.7263 85.9692 73.8169 86.0388C73.9074 86.1083 73.9246 86.238 73.855 86.3285C72.1488 88.5537 72.9477 95.4806 72.956 95.5502C72.9695 95.6635 72.8884 95.7663 72.7751 95.7797C72.7669 95.7807 72.7587 95.7812 72.7506 95.7812Z" fill="#D68569"/>
<path d="M78.2593 87.3146C75.6487 87.3147 73.7575 86.7748 72.6208 85.7018C71.5671 84.7072 71.5963 83.6268 71.598 83.5814C71.6024 83.4674 71.6958 83.3794 71.8125 83.3829C71.9263 83.3873 72.015 83.4828 72.0111 83.5965C72.0099 83.6358 71.9941 84.5496 72.9158 85.412C73.8461 86.2822 75.9107 87.2274 80.4644 86.7876C80.578 86.7766 80.679 86.8599 80.69 86.9734C80.701 87.087 80.6177 87.188 80.5042 87.199C79.7052 87.2761 78.9564 87.3146 78.2593 87.3146Z" fill="#D68569"/>
<path d="M69.5208 92.8037C69.4179 92.8037 69.3288 92.7269 69.316 92.6221C69.2878 92.3911 68.6609 86.9317 71.774 84.0626C71.8578 83.9851 71.9886 83.9904 72.066 84.0745C72.1434 84.1585 72.138 84.2892 72.0541 84.3664C69.0952 87.0935 69.7195 92.5175 69.7262 92.572C69.74 92.6852 69.6594 92.7883 69.5462 92.8021C69.5377 92.8032 69.5292 92.8037 69.5208 92.8037Z" fill="#D68569"/>
<path d="M87.3289 85.1527C87.2207 85.1527 87.1297 85.0684 87.1229 84.9589C87.1216 84.9397 86.9903 83.2783 85.1252 82.0349C85.0303 81.9715 85.0046 81.8433 85.0679 81.7483C85.1313 81.6534 85.2596 81.6276 85.3545 81.691C87.4003 83.0549 87.5309 84.8576 87.5354 84.9336C87.5423 85.0475 87.4554 85.1454 87.3415 85.1523C87.3373 85.1526 87.3331 85.1527 87.3289 85.1527Z" fill="#D68569"/>
<path d="M34.7186 61.3162C34.6524 61.3162 34.5874 61.2844 34.5474 61.2256C34.4833 61.1311 34.5079 61.0026 34.6023 60.9385C39.8657 57.3652 41.7249 50.5224 42.3577 45.4113C43.046 39.8527 42.4731 35.0881 42.4673 35.0407C42.4534 34.9274 42.5338 34.8242 42.647 34.8102C42.7607 34.7961 42.8635 34.8767 42.8775 34.9899C42.8834 35.0379 43.4624 39.8532 42.7679 45.462C42.3594 48.7615 41.5967 51.6887 40.501 54.1619C39.1258 57.2662 37.2193 59.6611 34.8345 61.2803C34.7989 61.3047 34.7586 61.3162 34.7186 61.3162Z" fill="#B74941"/>
<path d="M80.7138 61.8885C80.6577 61.8885 80.6019 61.8659 80.5611 61.8212C78.2195 59.2566 76.3414 56.2131 74.9786 52.7754C73.8896 50.0281 73.1257 47.0245 72.708 43.8478C71.9969 38.4405 72.5451 34.3441 72.5507 34.3033C72.5664 34.1903 72.6708 34.1118 72.7837 34.1268C72.8967 34.1424 72.9758 34.2467 72.9601 34.3598C72.9546 34.4 72.4135 38.4513 73.1193 43.8061C73.7694 48.7386 75.641 55.8196 80.8663 61.5426C80.9432 61.6269 80.9373 61.7576 80.853 61.8345C80.8135 61.8707 80.7635 61.8885 80.7138 61.8885Z" fill="#B74941"/>
<path d="M57.751 37.7017C57.6424 37.7017 57.5536 37.6965 57.489 37.6864V37.6869C54.7613 37.5994 52.9175 36.3432 51.851 35.3048C50.6964 34.1804 50.1919 33.0887 50.171 33.0428C50.1237 32.9389 50.1696 32.8164 50.2734 32.769C50.3772 32.7217 50.4998 32.7676 50.5471 32.8714C50.5556 32.8898 51.0512 33.9531 52.1511 35.0201C53.6241 36.449 55.4245 37.2072 57.5022 37.2739C57.5219 37.2745 57.5413 37.2779 57.5598 37.2841C57.7211 37.305 59.0736 37.2975 60.7778 36.7C62.2766 36.1745 64.3512 35.0631 65.723 32.7535C65.7812 32.6554 65.908 32.623 66.0061 32.6814C66.1043 32.7397 66.1366 32.8664 66.0783 32.9646C64.421 35.7548 61.8184 36.9095 59.9269 37.3868C59.0658 37.6042 58.2222 37.7016 57.751 37.7017Z" fill="#B74941"/>
</g>
<defs>
<filter id="filter0_d_103_241" x="0" y="0" width="106.072" height="117.171" filterUnits="userSpaceOnUse" color-interpolation-filters="sRGB">
<feFlood flood-opacity="0" result="BackgroundImageFix"/>
<feColorMatrix in="SourceAlpha" type="matrix" values="0 0 0 0 0 0 0 0 0 0 0 0 0 0 0 0 0 0 127 0" result="hardAlpha"/>
<feOffset dx="-5"/>
<feGaussianBlur stdDeviation="4"/>
<feComposite in2="hardAlpha" operator="out"/>
<feColorMatrix type="matrix" values="0 0 0 0 0 0 0 0 0 0 0 0 0 0 0 0 0 0 0.25 0"/>
<feBlend mode="normal" in2="BackgroundImageFix" result="effect1_dropShadow_103_241"/>
<feBlend mode="normal" in="SourceGraphic" in2="effect1_dropShadow_103_241" result="shape"/>
</filter>
</defs>
</svg>
