<svg width="89" height="117" viewBox="0 0 89 117" fill="none" xmlns="http://www.w3.org/2000/svg">
<g filter="url(#filter0_d_103_310)">
<path d="M23.2982 85.2461L19.8125 108.995H44.3649L45.6569 101.767L46.5448 108.995H70.5234L68.2288 86.5081L23.2982 85.2461Z" fill="#CCD7D8"/>
<path d="M23.65 108.997H23.2676L27.1314 85.6367L27.5086 85.6991L23.65 108.997Z" fill="#A3B6B7"/>
<path d="M67.1715 108.996L64.8789 86.6678L65.2593 86.6289L67.5664 108.996H67.1715Z" fill="#A3B6B7"/>
<path d="M70.8363 94.9207L63.5825 39.2841L45.9585 34.3398L36.7773 34.4413L23.9274 39.4368L20.5781 95.4561C20.5781 95.4561 26.7128 93.3305 32.4493 95.0577C38.1858 96.7848 43.9615 95.3658 45.6566 95.0577C49.6454 94.3326 54.0244 96.9777 62.0526 95.9061C70.0809 94.8345 70.8363 94.9207 70.8363 94.9207Z" fill="#FAE7DD"/>
<path d="M38.5566 29.5226V34.9931C38.5566 36.765 39.9931 38.2014 41.765 38.2014C43.5988 38.2014 45.0594 36.6672 44.9695 34.8356L44.6759 28.8594L38.5566 29.5226Z" fill="#EBA181"/>
<path d="M71.2695 86.5067C64.8443 89.2604 48.3223 88.2583 48.3223 88.2583V84.212L70.8641 83.0898C70.8641 83.0898 70.9261 83.4677 71.0026 83.9718C71.0217 84.0972 71.0416 84.2303 71.0623 84.368C71.1158 84.7329 71.1716 85.126 71.2152 85.4741C71.2328 85.6163 71.2481 85.751 71.2611 85.8733C71.3002 86.2482 71.3116 86.5067 71.2695 86.5067Z" fill="#4D384F"/>
<path d="M71.0642 84.365C68.1124 85.2966 63.4717 85.8244 57.2423 85.9361C56.4238 85.9506 55.6237 85.9567 54.8581 85.9567C51.9231 85.9567 49.4808 85.8665 48.3242 85.8145V85.4198C51.4909 85.5605 64.6359 85.9996 71.0045 83.9688C71.0236 84.0942 71.0436 84.2273 71.0642 84.365Z" fill="#CCD7D8"/>
<path d="M71.2631 85.868C68.3044 86.7637 63.728 87.2724 57.6278 87.3818C56.8086 87.3963 56.0093 87.4024 55.2436 87.4024C51.9254 87.4024 49.2368 87.2869 48.3242 87.2426V86.8471C50.5807 86.9573 64.4753 87.5325 71.2172 85.4688C71.2348 85.6111 71.2501 85.7457 71.2631 85.868Z" fill="#CCD7D8"/>
<path d="M38.5571 84.2217L38.3307 85.1419L38.2366 85.5251L37.9911 86.5218L37.897 86.9042L37.6132 88.0585C37.6132 88.0585 19.4084 88.7668 17.8786 87.5429C17.8533 87.5177 17.7355 87.1467 17.5887 86.661C17.5512 86.5356 17.5114 86.4032 17.4709 86.2663C17.3684 85.9206 17.2598 85.5511 17.1649 85.2222C17.1228 85.0784 17.0838 84.943 17.0486 84.8206C16.9454 84.4619 16.875 84.2156 16.875 84.2156C22.0703 83.0957 30.1332 83.5593 38.5571 84.2217Z" fill="#4D384F"/>
<path d="M38.3309 85.1416L38.2368 85.5248C36.1295 85.5791 32.5543 85.6571 28.9141 85.6724C28.4812 85.6747 28.0582 85.6755 27.6466 85.6755C22.3313 85.6755 18.8219 85.5233 17.1651 85.2219C17.123 85.0781 17.084 84.9427 17.0488 84.8203C20.1337 85.4658 31.9623 85.3106 38.3309 85.1416Z" fill="#CCD7D8"/>
<path d="M37.9929 86.5211L37.8988 86.9036C35.7601 86.9571 32.367 87.0282 28.9157 87.0428C28.4828 87.0451 28.0597 87.0458 27.6482 87.0458C22.7497 87.0458 19.3849 86.9166 17.5905 86.6603C17.553 86.5349 17.5132 86.4025 17.4727 86.2656C21.0287 86.8133 31.8208 86.6794 37.9929 86.5211Z" fill="#CCD7D8"/>
<path d="M34.5351 35.1055L23.9439 39.2992C23.9439 39.2992 12.8982 71.257 16.8757 84.2126C17.3347 84.3178 38.5576 84.2191 38.5576 84.2191C38.5576 84.2191 42.8152 48.6189 40.6864 40.4854C38.7011 40.0068 36.3449 37.8207 34.5351 35.1055Z" fill="#614B62"/>
<path d="M61.4374 38.1988C64.6964 39.1761 67.1645 41.7859 69.3182 45.0448C69.3182 45.0448 84.5399 45.7332 85.2283 53.7647C83.3925 63.0201 74.9352 63.7276 69.651 64.4856C67.1148 64.8494 53.4318 37.8418 61.4374 38.1988Z" fill="#CEDADA"/>
<path d="M68.2012 25.3627C68.2012 25.3627 64.203 25.3311 64.1223 21.8847C64.1714 21.9796 63.4142 21.535 62.771 21.1457C61.9484 20.6479 61.4861 19.7002 61.6531 18.7532C61.7673 18.1055 62.1721 17.4814 63.2244 17.2449C63.2581 17.1717 61.7951 14.1626 64.5484 13.3895C64.5654 13.4683 63.7248 10.6307 66.1094 10.176C66.1363 10.1621 66.142 9.88741 66.219 9.52408C66.5154 8.12605 68.1861 7.53302 69.3092 8.4168C70.2016 9.11898 71.5788 10.1908 72.7859 11.128C74.3658 12.3548 75.3115 14.2255 75.3628 16.2251L75.4944 21.3463C75.4944 21.3464 70.6172 25.5528 68.2012 25.3627Z" fill="#EBA181"/>
<path d="M68.7617 25.2808L71.0643 29.8449L77.7047 26.0643L75.2888 20.4102L68.7617 25.2808Z" fill="#EBA181"/>
<path d="M68.2729 64.2911C63.9139 64.1158 67.6165 40.1911 67.0481 32.4524C66.9551 31.1853 67.6432 29.9849 68.6692 29.2356C70.9665 27.558 74.8402 24.9271 76.2349 25.1678C76.3938 25.1952 76.5521 25.2252 76.7128 25.2384C77.7283 25.3224 81.0737 25.8097 82.5795 28.6133C84.3664 31.9404 86.9314 50.078 84.5763 56.7438C84.48 57.0434 82.2328 64.8526 68.2729 64.2911Z" fill="#CCD7D8"/>
<path d="M42.9549 40.5045C43.0849 41.5272 46.3741 82.9853 48.3246 84.2091C51.2676 86.0557 71.0197 83.2402 70.8667 83.0872C71.2452 71.2188 66.4423 50.0234 64.4772 41.9094C63.9896 39.8959 62.418 38.3243 60.4047 37.8361L46.5653 34.4805C46.7055 39.108 42.9219 40.4818 42.9219 40.4818L42.9549 40.5045Z" fill="#614B62"/>
<path d="M40.6885 40.4793C40.6885 40.4793 36.6467 40.3523 34.5371 35.0997L34.9433 34.6782L35.2309 34.3791L35.7411 33.8498L36.0226 33.5576L36.2773 33.293L39.8211 36.5278L40.0552 37.5956L40.1553 38.0515L40.4238 39.2738L40.5149 39.6891L40.6885 40.4793Z" fill="#4D384F"/>
<path d="M40.0563 37.6044C38.8569 37.1049 37.2192 36.0011 36.0237 33.5664L35.7422 33.8586C36.8199 35.9858 38.2174 37.0911 39.2608 37.6541C39.579 37.8262 39.8811 37.9585 40.1565 38.0602L40.0563 37.6044Z" fill="#CCD7D8"/>
<path d="M40.513 39.6967C40.0816 39.608 39.4437 39.4229 38.7216 39.0328C37.5918 38.4224 36.0452 37.1771 34.9414 34.6858L35.229 34.3867C36.7611 37.9711 39.2333 38.9922 40.422 39.2814L40.513 39.6967Z" fill="#CCD7D8"/>
<path d="M42.9727 40.4793C42.9727 40.4793 47.0144 40.3523 49.1241 35.0997L48.7179 34.6782L48.4303 34.3791L47.9201 33.8498L47.6386 33.5576L47.3839 33.293L43.8401 36.5278L43.606 37.5956L43.5058 38.0515L43.2373 39.2738L43.1463 39.6891L42.9727 40.4793Z" fill="#4D384F"/>
<path d="M43.5098 38.0602C43.7851 37.9585 44.0873 37.8262 44.4055 37.6541C45.4488 37.0911 46.8463 35.9858 47.9241 33.8586L47.6426 33.5664C46.447 36.0011 44.8094 37.1049 43.61 37.6044L43.5098 38.0602Z" fill="#CCD7D8"/>
<path d="M43.1504 39.6967C43.5818 39.608 44.2197 39.4229 44.9418 39.0328C46.0716 38.4224 47.6182 37.1771 48.722 34.6858L48.4344 34.3867C46.9022 37.9711 44.4301 38.9922 43.2414 39.2814L43.1504 39.6967Z" fill="#CCD7D8"/>
<path d="M66.6968 75.2659L58.8418 65.9766L56.9144 67.6063L64.7695 76.8957L66.6968 75.2659Z" fill="#CCD7D8"/>
<path d="M29.6957 66.7928L22.5 76.6016L24.5351 78.0945L31.7309 68.2857L29.6957 66.7928Z" fill="#CCD7D8"/>
<path d="M34.4609 58.1233L40.691 54.6953L46.5837 58.7477L39.0907 65.5703L34.4609 58.1233Z" fill="#EBA181"/>
<path d="M54.9721 51.1354L53.8638 54.4922H51.6738L55.2998 43.8203H58.4921L62.1338 54.4922H59.8963L58.7564 51.1354H54.9721ZM58.4714 49.2939C58.4714 49.2939 57.0305 45.6569 56.8721 45.0394H56.8406C56.6822 45.6728 55.2572 49.2939 55.2572 49.2939H58.4714Z" fill="#CCD7D8"/>
<path d="M42.3692 63.407L36.8109 58.0026C35.8172 56.5485 32.4809 56.8751 29.7652 57.4347C31.2203 51.5914 26.1134 39.0486 24.5809 39.0469C24.5809 39.0469 7.33434 41.836 14.9345 65.9057C15.9731 69.1949 19.3201 74.1349 21.2964 74.5875C32.3744 77.1244 42.973 68.6938 43.1482 66.7433C43.3233 64.793 42.3692 63.407 42.3692 63.407Z" fill="#CCD7D8"/>
<path d="M18.6502 67.7369C18.6255 67.7369 18.6004 67.7321 18.5762 67.7219C18.4788 67.681 18.4331 67.5688 18.474 67.4715C20.6874 62.2073 23.6346 59.6621 25.7172 58.454C27.9881 57.1367 29.7148 57.0763 29.7872 57.0743C29.8901 57.0704 29.9806 57.1549 29.9834 57.2604C29.9862 57.366 29.903 57.4538 29.7974 57.4566C29.7694 57.4576 28.0705 57.525 25.8867 58.7979C23.8617 59.9783 20.993 62.467 18.8266 67.6197C18.7958 67.6928 18.7248 67.7369 18.6502 67.7369Z" fill="#A3B6B7"/>
<path d="M70.8356 53.2732C70.7831 53.2732 70.7309 53.2518 70.6931 53.2096C66.855 48.9252 66.4685 41.9038 66.4651 41.8335C66.4599 41.728 66.5412 41.6383 66.6467 41.6331C66.7524 41.6269 66.8419 41.7092 66.8471 41.8147C66.8504 41.8837 67.2314 48.7723 70.9779 52.9544C71.0483 53.033 71.0417 53.1539 70.9631 53.2244C70.9265 53.2572 70.8809 53.2732 70.8356 53.2732Z" fill="#A3B6B7"/>
<path d="M70.0464 47.2785C67.5573 47.2785 66.5124 42.0857 66.4684 41.8607C66.4482 41.7571 66.5158 41.6566 66.6194 41.6364C66.7227 41.6162 66.8234 41.6836 66.8438 41.7873C66.8541 41.84 67.9067 47.0624 70.1543 46.8919C70.2594 46.8846 70.3514 46.963 70.3594 47.0682C70.3673 47.1735 70.2884 47.2653 70.1831 47.2733C70.1371 47.2768 70.0914 47.2785 70.0464 47.2785Z" fill="#A3B6B7"/>
<path d="M69.431 32.5421C69.3503 32.5421 69.2753 32.4907 69.2491 32.4099C68.7538 30.8826 70.2437 29.7388 70.3073 29.6908C70.3916 29.6273 70.5115 29.6442 70.5751 29.7286C70.6386 29.8128 70.6217 29.9326 70.5376 29.9962C70.5242 30.0064 69.2022 31.0257 69.6129 32.2918C69.6455 32.3923 69.5905 32.5002 69.4901 32.5328C69.4704 32.5391 69.4505 32.5421 69.431 32.5421Z" fill="#A3B6B7"/>
<path d="M79.0091 33.0053C79.0059 33.0053 79.0029 33.0052 78.9997 33.005C78.8943 33 78.8129 32.9103 78.8179 32.8048C78.9746 29.5416 76.7061 29.0545 76.6095 29.0353C76.5061 29.0148 76.4385 28.9145 76.4586 28.811C76.4788 28.7076 76.5787 28.6396 76.6822 28.6598C76.7091 28.6649 79.373 29.2189 79.1999 32.8232C79.195 32.9255 79.1105 33.0053 79.0091 33.0053Z" fill="#A3B6B7"/>
<path d="M79.7256 29.4404C79.6514 29.4404 79.5808 29.397 79.5498 29.3245C79.1447 28.3793 77.6885 28.3553 77.6739 28.3551C77.5683 28.3541 77.4835 28.2678 77.4844 28.1622C77.4854 28.0572 77.5707 27.9727 77.6756 27.9727C77.6762 27.9727 77.6768 27.9727 77.6774 27.9727C77.7474 27.9733 79.399 28.0016 79.9013 29.1738C79.9429 29.2709 79.898 29.3833 79.8009 29.4249C79.7763 29.4355 79.7507 29.4404 79.7256 29.4404Z" fill="#A3B6B7"/>
<path d="M33.3638 63.3532C32.6963 63.3532 31.9535 63.2024 31.1442 62.8179C31.0488 62.7727 31.0081 62.6586 31.0534 62.5632C31.0988 62.4678 31.2128 62.427 31.3082 62.4725C34.032 63.766 35.9407 62.1928 36.6348 61.4562C36.6846 61.4034 36.8013 61.2792 36.9405 61.3853C36.9636 61.4029 37.0741 61.4992 36.9741 61.6638C36.955 61.6953 36.9282 61.7193 36.8977 61.7349C36.3446 62.3169 35.1131 63.3532 33.3638 63.3532Z" fill="#A3B6B7"/>
<path d="M39.4273 66.4358C39.3342 66.4358 39.2526 66.3677 39.2385 66.2729C39.2228 66.1685 39.2948 66.0711 39.3993 66.0554C40.5479 65.8831 40.5808 64.2045 40.5758 63.8697C40.5734 63.7113 40.6936 63.6634 40.7574 63.6602C40.7651 63.66 40.9423 63.6535 40.9594 63.8554L40.9621 63.886C40.9637 63.9053 40.9625 63.9242 40.9587 63.9422C40.9571 65.0526 40.5635 66.2675 39.456 66.4336C39.4463 66.4351 39.4367 66.4358 39.4273 66.4358Z" fill="#A3B6B7"/>
<path d="M34.6213 59.3634C34.0831 59.3634 33.4554 59.2438 32.9739 58.8007C32.8961 58.7292 32.8911 58.6082 32.9626 58.5306C33.0341 58.4527 33.155 58.4478 33.2328 58.5193C34.0945 59.3121 35.6308 58.8386 35.6462 58.8337C35.747 58.8017 35.8543 58.8576 35.8862 58.9581C35.9181 59.0587 35.8626 59.1662 35.7621 59.1982C35.7241 59.2102 35.2299 59.3634 34.6213 59.3634Z" fill="#A3B6B7"/>
<path d="M43.9503 61.8646C43.9029 61.8776 43.4493 62.2241 42.8733 62.6747C42.8007 62.7313 42.7265 62.7902 42.6508 62.8498C42.2752 63.1443 41.8667 63.4671 41.4934 63.7639C41.4185 63.8236 41.3443 63.8824 41.2731 63.939C41.1351 64.0489 41.0044 64.1529 40.8852 64.248C40.4711 64.578 39.8928 64.6076 39.4484 64.3197C37.9232 63.3319 34.7416 60.8298 35.6136 57.5941C35.5731 57.5804 35.7291 57.4151 35.9861 57.1765C36.0771 57.0916 36.1796 56.9975 36.2913 56.8988C36.5146 56.6984 36.7709 56.4758 37.0256 56.2563C37.1159 56.179 37.2053 56.1026 37.2941 56.0276C37.3407 55.9871 37.3866 55.948 37.4325 55.909C37.4341 55.9075 37.4348 55.9067 37.4363 55.906C37.9473 55.4723 38.3665 55.125 38.3665 55.125C38.3665 55.125 38.3818 55.1671 38.4131 55.2443C38.7053 55.9649 40.3813 59.7718 43.9503 61.8646Z" fill="#4D384F"/>
<path d="M44.8746 32.8672C45.0051 33.1524 42.8243 36.3606 38.5582 34.4804C38.5582 34.4189 38.4184 30.4614 38.5582 30.589C38.6981 30.7164 44.8746 32.8672 44.8746 32.8672Z" fill="#5A1F35"/>
<path d="M35.8689 26.4C36.1623 25.63 35.9632 24.7465 35.3451 24.2016C35.3239 24.183 35.3032 24.1655 35.2829 24.1492C34.7419 23.7144 33.9285 23.8021 33.5344 24.3735C33.4151 24.5464 33.3374 24.7519 33.342 24.9927C33.3605 25.956 35.3183 27.0344 35.6353 26.7937C35.7215 26.7283 35.8001 26.5806 35.8689 26.4Z" fill="#EBA181"/>
<path d="M47.5456 27.2526C47.4046 26.4408 47.7686 25.6115 48.4794 25.1946C48.5037 25.1804 48.5274 25.1672 48.5503 25.155C49.1644 24.8314 49.9462 25.0728 50.224 25.7089C50.3081 25.9012 50.3451 26.1179 50.2946 26.3534C50.0926 27.2954 47.965 27.9804 47.6998 27.6836C47.6277 27.603 47.5787 27.443 47.5456 27.2526Z" fill="#EBA181"/>
<path d="M35.5508 20.0874C35.5508 20.0874 41.6588 14.9545 48.1877 20.8625C48.2479 20.9697 49.3665 30.7664 44.0187 33.4103C42.6907 34.0669 41.116 34.0187 39.8245 33.2929C37.6646 32.079 34.601 28.8356 35.5508 20.0874Z" fill="#EBA181"/>
<path d="M39.0414 29.0902C39.0414 30.0892 38.4394 30.9474 37.5789 31.3222C36.7856 30.2819 36.0827 28.8385 35.6934 26.8345C35.9756 26.719 36.2838 26.6562 36.6074 26.6562C37.9513 26.6562 39.0414 27.7462 39.0414 29.0902Z" fill="#D68569"/>
<path d="M47.7744 28.0256C47.3705 29.6166 46.6898 31.1632 45.5631 32.2922C44.9687 31.8478 44.584 31.1395 44.584 30.3402C44.584 28.9962 45.6739 27.9062 47.0187 27.9062C47.2826 27.9063 47.5365 27.9483 47.7744 28.0256Z" fill="#D68569"/>
<path d="M36.1998 21.104C35.4779 21.4964 34.4926 12.3575 42.9209 14.1932C51.3492 16.0289 50.886 20.7216 50.886 20.7216L49.6239 19.8802L49.9681 21.41C47.5164 21.3718 41.1243 18.4269 36.1998 21.104Z" fill="#5A1F35"/>
<path d="M36.4004 18.3281C36.4004 18.3281 33.9527 19.7546 35.3685 24.956C35.5024 25.16 41.121 19.8056 36.4004 18.3281Z" fill="#5A1F35"/>
<path d="M47.829 20.3828C47.829 20.3828 49.5887 21.6899 48.2333 25.7183C47.9191 25.0896 45.9336 21.724 47.829 20.3828Z" fill="#5A1F35"/>
<path d="M39.9199 27.7188C39.9199 27.7188 41.7514 29.6851 43.6121 29.1701C43.6121 29.1702 40.5474 32.5879 39.9199 27.7188Z" fill="#F6E7E2"/>
<path d="M41.8473 27.6176C41.7543 27.6176 41.6727 27.5496 41.6584 27.4548C41.6427 27.3504 41.7146 27.2529 41.8191 27.2372L42.9455 27.0675L42.5439 24.6919C42.5263 24.5877 42.5964 24.489 42.7005 24.4714C42.8049 24.4539 42.9034 24.524 42.921 24.6281L43.3551 27.1957C43.3636 27.2463 43.3515 27.2982 43.3214 27.3397C43.2913 27.3812 43.2458 27.409 43.1951 27.4166L41.8761 27.6154C41.8663 27.6169 41.8568 27.6176 41.8473 27.6176Z" fill="#5A1F35"/>
<path d="M45.5864 25.3917C45.7086 25.0573 45.5366 24.6872 45.2022 24.565C44.8678 24.4428 44.4977 24.6149 44.3755 24.9492C44.2533 25.2836 44.4254 25.6537 44.7598 25.7759C45.0941 25.8981 45.4643 25.7261 45.5864 25.3917Z" fill="#5A1F35"/>
<path d="M40.4805 25.3478C40.8365 25.3478 41.1251 25.0592 41.1251 24.7032C41.1251 24.3472 40.8365 24.0586 40.4805 24.0586C40.1245 24.0586 39.8359 24.3472 39.8359 24.7032C39.8359 25.0592 40.1245 25.3478 40.4805 25.3478Z" fill="#5A1F35"/>
<path d="M41.2891 23.7765L39.9711 23.6047C39.8002 23.5824 39.6796 23.4257 39.7019 23.2547L39.7098 23.1938C39.7321 23.0228 39.8887 22.9023 40.0598 22.9245L41.3777 23.0963C41.5487 23.1186 41.6692 23.2752 41.647 23.4463L41.639 23.5072C41.6168 23.6782 41.46 23.7987 41.2891 23.7765Z" fill="#5A1F35"/>
<path d="M45.7812 24.3077L44.4633 24.1359C44.2923 24.1137 44.1718 23.957 44.1941 23.786L44.202 23.725C44.2243 23.5541 44.3809 23.4335 44.552 23.4558L45.87 23.6276C46.0409 23.6498 46.1615 23.8065 46.1392 23.9775L46.1313 24.0385C46.1089 24.2095 45.9523 24.33 45.7812 24.3077Z" fill="#5A1F35"/>
<path d="M70.5399 13.4055C70.5027 13.4055 70.465 13.3947 70.432 13.372L66.0011 10.3373C65.914 10.2777 65.8918 10.1586 65.9514 10.0715C66.011 9.98432 66.1301 9.96206 66.2172 10.0218L70.6481 13.0565C70.7352 13.1162 70.7575 13.2352 70.6978 13.3223C70.6608 13.3765 70.6008 13.4055 70.5399 13.4055Z" fill="#D68569"/>
<path d="M67.9757 15.4668C67.9446 15.4668 67.9131 15.4592 67.8838 15.4432L64.4586 13.562C64.366 13.5111 64.3322 13.3949 64.383 13.3023C64.4339 13.2098 64.5502 13.1759 64.6427 13.2267L68.0679 15.108C68.1605 15.1588 68.1943 15.2751 68.1435 15.3676C68.1087 15.431 68.0432 15.4668 67.9757 15.4668Z" fill="#D68569"/>
<path d="M66.6252 19.1548C66.5961 19.1548 66.5664 19.1482 66.5387 19.134L63.1163 17.393C63.0221 17.3451 62.9847 17.23 63.0325 17.1359C63.0804 17.0417 63.1955 17.0042 63.2896 17.0521L66.7121 18.7931C66.8062 18.841 66.8437 18.9561 66.7958 19.0502C66.7622 19.1166 66.6949 19.1548 66.6252 19.1548Z" fill="#D68569"/>
<path d="M66.4649 20.1581C66.4568 20.1581 66.4486 20.1576 66.4403 20.1565C66.3355 20.143 66.2616 20.0471 66.275 19.9424C66.6625 16.9391 67.6271 14.8403 69.1418 13.7042C70.2936 12.8404 71.3279 12.8896 71.3711 12.8918C71.4765 12.8979 71.557 12.9883 71.551 13.0937C71.5449 13.199 71.4548 13.2798 71.3496 13.2736C71.3367 13.2734 70.3891 13.2359 69.3479 14.0278C68.3745 14.7682 67.1172 16.4038 66.6543 19.9914C66.6419 20.0878 66.5596 20.1581 66.4649 20.1581Z" fill="#D68569"/>
<path d="M64.4053 22.1188C64.2056 22.1188 64.071 22.0716 64.0595 22.0674C63.9602 22.0312 63.9091 21.9215 63.9452 21.8222C63.9811 21.7234 64.0903 21.6724 64.1889 21.7075C64.2093 21.7144 64.608 21.8436 65.0179 21.5015C65.099 21.4338 65.2196 21.4446 65.2872 21.5257C65.3549 21.6067 65.344 21.7274 65.263 21.795C64.9498 22.0564 64.6347 22.1188 64.4053 22.1188Z" fill="#D68569"/>
<path d="M52.7875 55.1816C53.2626 54.5528 53.3746 53.7086 53.0381 52.996C52.8013 52.4945 52.3604 52.0679 51.543 52.101C51.4415 52.1667 52.3372 49.6998 50.4497 49.1207C50.4139 49.043 50.4853 46.2596 48.8965 46.409C48.6182 46.4618 49.0952 45.2144 47.9686 44.6312C47.3952 44.3344 46.7042 44.3793 46.1537 44.7166C43.7954 46.162 36.3172 51.6992 42.0824 57.806C41.92 58.1283 46.0314 61.0509 48.4878 60.1362C49.1833 59.8772 51.6921 56.6314 52.7875 55.1816Z" fill="#EBA181"/>
<path d="M49.3066 54.2387C49.2881 54.2387 49.2693 54.236 49.2506 54.2303C49.1496 54.1995 49.0928 54.0925 49.1236 53.9915C49.636 52.3161 51.4244 51.9335 51.5002 51.9181C51.6038 51.8966 51.7047 51.9638 51.7258 52.0672C51.7468 52.1706 51.6802 52.2715 51.5769 52.2927C51.5593 52.2963 49.934 52.649 49.4893 54.1034C49.4642 54.1856 49.3884 54.2387 49.3066 54.2387Z" fill="#D68569"/>
<path d="M47.6911 51.6227C47.6647 51.6227 47.638 51.6172 47.6124 51.6056C47.5162 51.5621 47.4735 51.4487 47.517 51.3525C48.3754 49.4563 50.3173 48.952 50.3995 48.9315C50.5018 48.9059 50.6057 48.9683 50.6314 49.0708C50.6569 49.1731 50.5947 49.2768 50.4925 49.3025C50.4741 49.3072 48.6458 49.7863 47.8654 51.5102C47.8335 51.5809 47.764 51.6227 47.6911 51.6227Z" fill="#D68569"/>
<path d="M45.6579 49.4654C45.6303 49.4654 45.6023 49.4594 45.5759 49.4468C45.4805 49.4013 45.44 49.2872 45.4854 49.1919C46.5811 46.8898 48.7518 46.2484 48.8437 46.2222C48.9453 46.1932 49.0511 46.2521 49.08 46.3537C49.1089 46.4553 49.0501 46.5611 48.9485 46.59C48.8635 46.6143 46.853 47.2085 45.8307 49.3562C45.7979 49.4251 45.7294 49.4654 45.6579 49.4654Z" fill="#D68569"/>
<path d="M49.9171 55.4801C49.843 55.4801 49.7725 55.4368 49.7414 55.3645C49.7137 55.3002 46.9334 48.9361 43.6039 48.5688C43.4989 48.5572 43.4232 48.4627 43.4348 48.3578C43.4464 48.2528 43.5411 48.1772 43.6458 48.1886C47.1959 48.5803 49.976 54.9425 50.0926 55.2131C50.1344 55.3101 50.0896 55.4225 49.9926 55.4644C49.968 55.475 49.9423 55.4801 49.9171 55.4801Z" fill="#D68569"/>
<path d="M47.0242 60.446C46.5742 60.446 46.0585 60.3993 45.5051 60.2649C43.8636 59.8667 41.5757 58.587 39.9988 54.7524C39.9586 54.6547 40.0052 54.543 40.1029 54.5027C40.2006 54.4625 40.3123 54.5092 40.3525 54.6068C41.5487 57.5156 43.355 59.342 45.5764 59.8887C47.2563 60.3022 48.6032 59.8435 48.6165 59.8388C48.7164 59.8044 48.8252 59.8565 48.8601 59.9561C48.895 60.0557 48.8427 60.1647 48.7432 60.1997C48.7029 60.2138 48.0266 60.446 47.0242 60.446Z" fill="#D68569"/>
<path d="M39.0414 29.0902C39.0414 30.0892 38.4394 30.9474 37.5789 31.3222C36.7856 30.2819 36.0827 28.8385 35.6934 26.8345C35.9756 26.719 36.2838 26.6562 36.6074 26.6562C37.9513 26.6562 39.0414 27.7462 39.0414 29.0902Z" fill="#D68569"/>
<path d="M47.7744 28.0256C47.3705 29.6166 46.6898 31.1632 45.5631 32.2922C44.9687 31.8478 44.584 31.1395 44.584 30.3402C44.584 28.9962 45.6739 27.9062 47.0187 27.9062C47.2826 27.9063 47.5365 27.9483 47.7744 28.0256Z" fill="#D68569"/>
<path d="M68.0859 26.1761C68.0859 26.1761 73.3351 25.8001 77.0471 22.2781C76.9436 22.2058 79.0101 27.1849 79.0101 27.1849C79.0101 27.1849 74.0447 32.4183 69.8789 29.8931C69.7704 30.0484 68.0859 26.1761 68.0859 26.1761Z" fill="#4D384F"/>
<path d="M44.4855 102.041C43.4098 102.041 41.8499 101.851 40.8237 100.896C40.0862 100.21 39.7459 99.2386 39.8105 98.0068C39.8161 97.8985 39.9097 97.8157 40.0177 97.8249L40.0185 97.825C40.1206 97.8337 40.1979 97.9218 40.1925 98.024C40.1338 99.1391 40.4334 100.011 41.0842 100.616C42.3952 101.836 44.7739 101.678 45.4456 101.604C45.547 101.593 45.6394 101.663 45.6553 101.764L45.6556 101.766C45.6726 101.873 45.5972 101.973 45.4895 101.985C45.2806 102.009 44.923 102.041 44.4855 102.041Z" fill="#A3B6B7"/>
<path d="M25.4866 75.2787C22.357 75.2787 20.5996 74.4947 20.4962 74.4471C20.4002 74.4031 20.3582 74.2895 20.4023 74.1935C20.4463 74.0976 20.5598 74.0554 20.6557 74.0995C20.691 74.1157 24.261 75.7002 30.2647 74.3302C30.3672 74.3065 30.4701 74.3711 30.4937 74.474C30.5172 74.5771 30.4528 74.6796 30.3498 74.7031C28.4828 75.129 26.8536 75.2787 25.4866 75.2787Z" fill="#A3B6B7"/>
<path d="M35.4996 25.7406C35.4196 25.7406 35.3451 25.69 35.3184 25.6102C35.3067 25.5761 35.0394 24.8358 34.0803 25.0276C33.9764 25.0482 33.876 24.9811 33.8553 24.8776C33.8346 24.774 33.9017 24.6733 34.0053 24.6526C35.0443 24.445 35.5559 25.1092 35.6812 25.4895C35.7143 25.5898 35.6598 25.698 35.5595 25.731C35.5397 25.7375 35.5195 25.7406 35.4996 25.7406Z" fill="#D68569"/>
<path d="M48.0855 26.6932C48.0506 26.6932 48.0152 26.6835 47.9835 26.6635C47.8942 26.607 47.8677 26.4889 47.9242 26.3997C47.9473 26.3633 48.5001 25.5131 49.6377 25.7596C49.7409 25.7819 49.8064 25.8837 49.7841 25.987C49.7618 26.0903 49.6597 26.1554 49.5567 26.1334C48.6777 25.9428 48.2516 26.5976 48.2474 26.6042C48.2109 26.6617 48.149 26.6932 48.0855 26.6932Z" fill="#D68569"/>
</g>
<defs>
<filter id="filter0_d_103_310" x="0" y="0" width="88.5229" height="116.997" filterUnits="userSpaceOnUse" color-interpolation-filters="sRGB">
<feFlood flood-opacity="0" result="BackgroundImageFix"/>
<feColorMatrix in="SourceAlpha" type="matrix" values="0 0 0 0 0 0 0 0 0 0 0 0 0 0 0 0 0 0 127 0" result="hardAlpha"/>
<feOffset dx="-5"/>
<feGaussianBlur stdDeviation="4"/>
<feComposite in2="hardAlpha" operator="out"/>
<feColorMatrix type="matrix" values="0 0 0 0 0 0 0 0 0 0 0 0 0 0 0 0 0 0 0.25 0"/>
<feBlend mode="normal" in2="BackgroundImageFix" result="effect1_dropShadow_103_310"/>
<feBlend mode="normal" in="SourceGraphic" in2="effect1_dropShadow_103_310" result="shape"/>
</filter>
</defs>
</svg>
